<?xml version="1.0" encoding="UTF-8"?>
<!DOCTYPE svg PUBLIC "-//W3C//DTD SVG 1.1//EN" "http://www.w3.org/Graphics/SVG/1.1/DTD/svg11.dtd">
<!-- Creator: CorelDRAW X7 -->
<svg xmlns="http://www.w3.org/2000/svg" xml:space="preserve" width="7.93333in" height="10.6499in" version="1.1" style="shape-rendering:geometricPrecision; text-rendering:geometricPrecision; image-rendering:optimizeQuality; fill-rule:evenodd; clip-rule:evenodd"
viewBox="0 0 7933 10650"
 xmlns:xlink="http://www.w3.org/1999/xlink">
 <defs>
  <style type="text/css">
   <![CDATA[
    .str0 {stroke:#41719C;stroke-width:13.3346}
    .fil3 {fill:none}
    .fil0 {fill:#00B050}
    .fil2 {fill:black}
    .fil1 {fill:white}
   ]]>
  </style>
     <clipPath id="id0">
      <path d="M2223 3203c0,-882 789,-1598 1761,-1598 973,0 1761,716 1761,1598 0,883 -788,1599 -1761,1599 -972,0 -1761,-716 -1761,-1599z"/>
     </clipPath>
 </defs>
 <g id="Layer_x0020_1">
  <metadata id="CorelCorpID_0Corel-Layer"/>
  <g id="_163577840">
   <path class="fil0" d="M0 0c0,7457 0,7457 0,7457 253,69 683,162 1245,243 1510,231 4000,405 6688,-243 0,-313 0,-313 0,-313 0,-7144 0,-7144 0,-7144 -7933,0 -7933,0 -7933,0z"/>
   <path class="fil1" d="M1022 5844c0,-36 5,-67 16,-92 8,-18 19,-35 34,-49 14,-15 29,-25 46,-32 22,-10 48,-15 77,-15 53,0 95,17 127,50 31,32 47,78 47,136 0,58 -15,104 -47,136 -31,33 -73,49 -126,49 -53,0 -96,-16 -127,-48 -31,-33 -47,-78 -47,-135zm74 -2c0,40 10,71 28,92 19,21 43,31 72,31 29,0 52,-10 71,-31 19,-21 28,-52 28,-93 0,-41 -9,-72 -27,-92 -18,-20 -42,-31 -72,-31 -30,0 -54,11 -72,31 -19,21 -28,51 -28,93zm330 179l0 -358 116 0c44,0 72,2 86,5 20,6 37,17 51,35 14,18 21,42 21,70 0,22 -4,41 -12,56 -8,15 -18,26 -30,35 -13,8 -25,14 -38,17 -17,3 -42,5 -75,5l-47 0 0 135 -72 0zm72 -298l0 102 40 0c28,0 47,-1 57,-5 9,-4 17,-10 22,-18 6,-8 8,-17 8,-28 0,-13 -4,-24 -11,-32 -8,-9 -17,-14 -29,-16 -9,-2 -26,-3 -52,-3l-35 0zm261 298l0 -358 265 0 0 60 -192 0 0 80 179 0 0 60 -179 0 0 97 199 0 0 61 -272 0zm334 0l0 -358 70 0 147 240 0 -240 67 0 0 358 -72 0 -145 -235 0 235 -67 0zm481 -116l70 -7c5,24 13,41 26,52 13,11 30,16 52,16 23,0 41,-4 53,-14 11,-10 17,-22 17,-35 0,-8 -2,-15 -7,-21 -5,-6 -14,-12 -26,-16 -8,-3 -28,-8 -58,-16 -38,-9 -65,-21 -81,-35 -22,-20 -33,-44 -33,-72 0,-19 5,-36 16,-52 10,-16 25,-28 44,-36 20,-8 43,-13 71,-13 44,0 78,10 101,30 22,20 34,47 35,80l-72 2c-3,-18 -10,-31 -20,-39 -10,-8 -25,-13 -45,-13 -21,0 -38,5 -49,13 -8,6 -12,13 -12,23 0,8 4,16 11,22 9,7 31,15 66,24 35,8 61,17 78,25 17,9 30,21 40,37 9,15 14,34 14,57 0,20 -6,40 -17,57 -12,18 -28,32 -49,40 -20,9 -46,13 -78,13 -45,0 -80,-10 -104,-31 -24,-21 -38,-51 -43,-91zm337 -61c0,-36 6,-67 17,-92 8,-18 19,-35 33,-49 14,-15 30,-25 46,-32 23,-10 48,-15 78,-15 52,0 95,17 126,50 32,32 48,78 48,136 0,58 -16,104 -47,136 -32,33 -74,49 -126,49 -54,0 -96,-16 -128,-48 -31,-33 -47,-78 -47,-135zm75 -2c0,40 9,71 28,92 19,21 43,31 71,31 29,0 53,-10 72,-31 18,-21 27,-52 27,-93 0,-41 -9,-72 -27,-92 -18,-20 -42,-31 -72,-31 -29,0 -54,11 -72,31 -18,21 -27,51 -27,93zm329 -179l73 0 0 194c0,31 1,51 2,60 3,14 11,26 22,35 12,9 28,13 48,13 20,0 35,-4 45,-12 11,-9 17,-19 19,-31 2,-12 3,-33 3,-61l0 -198 73 0 0 188c0,43 -2,74 -6,91 -4,18 -11,33 -22,45 -10,13 -24,22 -42,30 -17,7 -40,10 -68,10 -34,0 -60,-3 -78,-11 -17,-8 -31,-19 -42,-31 -10,-13 -16,-26 -20,-40 -4,-20 -7,-51 -7,-91l0 -191zm361 358l0 -358 153 0c38,0 66,3 83,10 17,6 31,17 42,34 10,16 15,35 15,56 0,27 -8,49 -23,67 -16,17 -40,28 -71,33 16,9 29,19 39,30 10,11 23,30 41,58l43 70 -86 0 -52 -78c-19,-28 -31,-45 -38,-53 -7,-7 -14,-12 -22,-15 -8,-2 -20,-4 -37,-4l-14 0 0 150 -73 0zm73 -207l53 0c35,0 57,-1 65,-4 9,-3 16,-8 20,-15 5,-7 8,-16 8,-27 0,-12 -3,-22 -10,-29 -6,-8 -15,-12 -27,-14 -6,-1 -24,-2 -53,-2l-56 0 0 91zm517 75l70 21c-10,40 -28,69 -53,88 -25,19 -57,29 -95,29 -48,0 -87,-16 -118,-49 -30,-32 -46,-77 -46,-133 0,-60 16,-106 46,-139 31,-33 72,-50 122,-50 44,0 79,13 107,39 16,16 28,38 36,66l-71 17c-4,-18 -13,-33 -27,-43 -13,-11 -30,-17 -49,-17 -26,0 -48,10 -64,29 -17,19 -25,50 -25,93 0,45 8,77 24,96 17,19 38,29 64,29 19,0 36,-6 49,-18 14,-13 24,-32 30,-58zm132 132l0 -358 265 0 0 60 -192 0 0 80 179 0 0 60 -179 0 0 97 199 0 0 61 -272 0z"/>
   <path class="fil1" d="M1039 6639l0 -355 72 0 0 295 180 0 0 60 -252 0zm303 0l0 -358 265 0 0 61 -192 0 0 79 179 0 0 61 -179 0 0 97 199 0 0 60 -272 0zm656 0l-78 0 -31 -81 -143 0 -30 81 -77 0 139 -358 77 0 143 358zm-132 -142l-50 -132 -48 132 98 0zm171 142l0 -358 152 0c38,0 66,4 83,10 18,6 32,18 42,34 11,17 16,35 16,57 0,27 -8,49 -24,66 -16,18 -39,29 -70,33 15,9 28,19 38,30 10,11 24,31 41,58l44 70 -87 0 -51 -78c-19,-28 -32,-45 -39,-52 -7,-8 -14,-13 -21,-15 -8,-3 -20,-4 -37,-4l-15 0 0 149 -72 0zm72 -206l54 0c34,0 56,-2 65,-5 8,-3 15,-8 20,-15 5,-7 7,-16 7,-27 0,-12 -3,-21 -9,-29 -7,-7 -16,-12 -28,-14 -5,-1 -23,-1 -52,-1l-57 0 0 91zm289 206l0 -358 70 0 147 240 0 -240 67 0 0 358 -72 0 -145 -235 0 235 -67 0zm361 0l0 -358 265 0 0 61 -193 0 0 79 179 0 0 61 -179 0 0 97 200 0 0 60 -272 0zm333 0l0 -358 153 0c38,0 66,4 83,10 18,6 31,18 42,34 10,17 15,35 15,57 0,27 -7,49 -23,66 -16,18 -39,29 -71,33 16,9 29,19 39,30 10,11 24,31 41,58l43 70 -86 0 -52 -78c-18,-28 -31,-45 -38,-52 -7,-8 -14,-13 -22,-15 -8,-3 -20,-4 -36,-4l-15 0 0 149 -73 0zm73 -206l53 0c35,0 57,-2 65,-5 9,-3 16,-8 21,-15 5,-7 7,-16 7,-27 0,-12 -3,-21 -10,-29 -6,-7 -15,-12 -27,-14 -6,-1 -23,-1 -53,-1l-56 0 0 91zm270 90l70 -7c4,24 13,41 26,52 13,11 30,17 52,17 23,0 41,-5 52,-15 12,-10 18,-21 18,-34 0,-9 -2,-16 -7,-22 -5,-6 -14,-11 -26,-16 -9,-3 -28,-8 -58,-15 -38,-10 -66,-22 -81,-36 -22,-20 -33,-44 -33,-72 0,-18 5,-35 15,-51 11,-16 26,-28 45,-37 19,-8 43,-12 70,-12 45,0 79,10 101,30 23,20 35,46 36,79l-72 3c-4,-19 -10,-32 -20,-40 -10,-8 -25,-12 -46,-12 -20,0 -37,4 -49,13 -7,5 -11,13 -11,22 0,9 4,16 11,22 9,8 31,16 66,24 35,8 61,17 78,26 17,9 30,21 39,36 10,16 15,35 15,57 0,21 -6,40 -18,58 -11,18 -27,31 -48,40 -21,8 -47,13 -78,13 -45,0 -80,-11 -104,-32 -24,-20 -39,-51 -43,-91z"/>
   <polygon class="fil2" points="6908,1247 7450,1247 7450,0 6908,0 "/>
   <path class="fil1" d="M7230 691l0 42 -160 0c2,-16 7,-31 16,-45 8,-15 25,-34 51,-58 21,-19 33,-32 38,-39 6,-9 9,-19 9,-28 0,-10 -2,-18 -8,-23 -5,-6 -13,-9 -22,-9 -10,0 -18,3 -23,9 -6,6 -9,15 -10,29l-46 -5c3,-25 12,-43 26,-54 14,-11 32,-17 54,-17 23,0 42,7 55,19 14,13 20,29 20,48 0,11 -2,21 -5,31 -4,9 -10,20 -19,30 -5,7 -15,18 -30,31 -14,13 -23,22 -27,26 -4,5 -7,9 -10,13l91 0zm109 -198c23,0 41,9 54,25 15,20 23,52 23,98 0,45 -8,77 -23,97 -13,16 -31,25 -54,25 -24,0 -42,-9 -57,-27 -14,-18 -21,-50 -21,-96 0,-45 8,-77 24,-97 12,-17 30,-25 54,-25zm0 38c-6,0 -11,2 -15,6 -4,3 -8,9 -10,19 -3,11 -5,31 -5,60 0,28 2,47 5,57 2,11 6,18 10,21 4,4 9,6 15,6 5,0 10,-2 14,-6 4,-3 8,-10 10,-19 3,-11 5,-31 5,-59 0,-29 -2,-48 -4,-58 -3,-11 -7,-18 -11,-21 -4,-4 -9,-6 -14,-6z"/>
   <path class="fil1" d="M7230 1083l0 42 -160 0c2,-16 7,-31 16,-45 8,-15 25,-34 51,-58 21,-19 33,-32 38,-39 6,-9 9,-19 9,-28 0,-10 -2,-18 -8,-24 -5,-5 -13,-8 -22,-8 -10,0 -18,3 -23,9 -6,6 -9,15 -10,29l-46 -5c3,-25 12,-43 26,-54 14,-11 32,-17 54,-17 23,0 42,7 55,19 14,13 20,29 20,48 0,11 -2,21 -5,31 -4,9 -10,20 -19,30 -5,7 -15,17 -30,31 -14,13 -23,22 -27,26 -4,5 -7,9 -10,13l91 0zm186 0l0 42 -161 0c2,-16 7,-31 16,-45 9,-15 26,-34 51,-58 21,-19 34,-32 38,-39 7,-9 10,-19 10,-28 0,-10 -3,-18 -8,-24 -6,-5 -13,-8 -23,-8 -10,0 -17,3 -23,9 -5,6 -9,15 -10,29l-45 -5c2,-25 11,-43 25,-54 15,-11 33,-17 54,-17 24,0 42,7 56,19 13,13 20,29 20,48 0,11 -2,21 -6,31 -4,9 -10,20 -18,30 -6,7 -16,17 -30,31 -15,13 -24,22 -28,26 -4,5 -7,9 -9,13l91 0z"/>
   <path class="fil0" d="M986 10340l-37 -140 20 0 20 92c3,10 5,19 6,28 4,-14 6,-23 7,-25l26 -95 23 0 20 71c4,18 8,34 10,49 2,-8 5,-18 8,-30l21 -90 19 0 -38 140 -18 0 -30 -106c-2,-9 -4,-15 -4,-17 -2,7 -3,12 -4,17l-30 106 -19 0zm158 0l0 -140 62 0c12,0 22,2 28,4 7,3 12,7 16,13 4,7 6,14 6,21 0,10 -4,19 -10,25 -6,7 -16,12 -30,13 5,3 9,5 12,7 5,5 10,12 15,19l24 38 -23 0 -19 -29c-5,-8 -9,-15 -13,-19 -3,-5 -7,-8 -9,-10 -3,-1 -6,-3 -9,-3 -2,-1 -5,-1 -10,-1l-21 0 0 62 -19 0zm19 -78l39 0c9,0 15,-1 20,-3 5,-1 8,-4 11,-8 2,-4 4,-8 4,-13 0,-6 -3,-12 -8,-16 -4,-4 -12,-6 -22,-6l-44 0 0 46zm125 78l0 -140 18 0 0 140 -18 0zm86 0l0 -123 -46 0 0 -17 111 0 0 17 -46 0 0 123 -19 0zm119 0l0 -123 -46 0 0 -17 110 0 0 17 -46 0 0 123 -18 0zm84 0l0 -140 101 0 0 17 -82 0 0 43 77 0 0 16 -77 0 0 48 85 0 0 16 -104 0zm129 0l0 -140 19 0 73 110 0 -110 18 0 0 140 -19 0 -73 -110 0 110 -18 0zm194 0l0 -140 53 0c10,0 19,2 25,5 7,2 12,7 15,13 4,6 6,12 6,18 0,6 -2,12 -5,17 -3,5 -8,9 -15,13 9,2 15,6 20,12 4,6 7,13 7,21 0,7 -2,13 -4,19 -3,5 -7,10 -11,13 -4,3 -9,5 -15,7 -6,1 -14,2 -22,2l-54 0zm19 -81l30 0c8,0 14,0 18,-2 4,-1 8,-3 10,-7 3,-3 4,-7 4,-12 0,-4 -1,-9 -4,-12 -2,-4 -5,-6 -9,-7 -4,-2 -11,-2 -21,-2l-28 0 0 42zm0 65l35 0c6,0 10,-1 12,-1 4,-1 8,-2 11,-4 3,-2 5,-4 7,-8 2,-3 3,-7 3,-11 0,-6 -2,-10 -4,-14 -3,-4 -7,-7 -11,-8 -5,-2 -12,-3 -21,-3l-32 0 0 49zm151 16l0 -59 -53 -81 22 0 27 43c6,7 10,15 15,23 4,-7 9,-15 15,-24l27 -42 22 0 -56 81 0 59 -19 0z"/>
   <path class="fil2" d="M958 10558c0,-18 2,-33 8,-46 4,-9 10,-17 17,-24 7,-8 14,-13 23,-17 11,-4 24,-7 38,-7 27,0 48,9 64,25 16,16 23,39 23,68 0,29 -7,52 -23,68 -16,17 -37,25 -63,25 -27,0 -48,-8 -64,-25 -15,-16 -23,-38 -23,-67zm37 -1c0,20 5,36 14,46 9,11 21,16 36,16 14,0 26,-5 35,-16 10,-10 14,-26 14,-46 0,-21 -4,-36 -13,-46 -9,-11 -21,-16 -36,-16 -15,0 -27,6 -36,16 -9,10 -14,25 -14,46zm165 90l0 -179 58 0c22,0 36,1 43,2 10,3 18,9 25,18 7,9 11,20 11,35 0,11 -2,20 -6,27 -4,8 -9,14 -15,18 -7,4 -13,7 -19,9 -9,1 -21,2 -38,2l-23 0 0 68 -36 0zm36 -149l0 51 20 0c14,0 23,-1 28,-3 5,-2 9,-5 11,-9 3,-4 4,-8 4,-14 0,-6 -1,-12 -5,-16 -4,-4 -9,-7 -15,-8 -4,-1 -13,-1 -26,-1l-17 0zm130 149l0 -179 133 0 0 30 -96 0 0 40 89 0 0 30 -89 0 0 48 99 0 0 31 -136 0zm167 0l0 -179 35 0 74 120 0 -120 33 0 0 179 -36 0 -72 -118 0 118 -34 0zm241 -58l35 -4c2,12 6,21 13,26 6,6 15,8 26,8 12,0 20,-2 26,-7 6,-5 9,-11 9,-17 0,-4 -1,-8 -4,-11 -2,-3 -7,-6 -13,-8 -4,-1 -13,-4 -28,-8 -20,-4 -33,-10 -41,-17 -11,-10 -17,-22 -17,-37 0,-9 3,-17 8,-25 5,-8 13,-14 22,-18 10,-5 22,-7 36,-7 22,0 39,5 50,15 11,10 17,24 18,40l-36 1c-2,-9 -5,-15 -10,-20 -5,-4 -13,-6 -23,-6 -10,0 -18,3 -24,7 -4,3 -6,6 -6,11 0,4 2,8 5,11 5,4 16,8 33,12 18,4 31,8 39,13 9,4 15,10 20,18 5,8 7,17 7,29 0,10 -3,19 -8,28 -6,9 -14,16 -24,20 -11,5 -24,7 -39,7 -23,0 -40,-5 -53,-16 -12,-10 -19,-25 -21,-45zm168 -31c0,-18 3,-33 9,-46 4,-9 9,-17 16,-24 7,-8 15,-13 23,-17 12,-4 25,-7 39,-7 27,0 48,9 63,25 16,16 24,39 24,68 0,29 -8,52 -23,68 -16,17 -37,25 -63,25 -27,0 -48,-8 -64,-25 -16,-16 -24,-38 -24,-67zm38 -1c0,20 4,36 14,46 9,11 21,16 36,16 14,0 26,-5 35,-16 9,-10 14,-26 14,-46 0,-21 -5,-36 -14,-46 -9,-11 -21,-16 -35,-16 -15,0 -27,6 -37,16 -9,10 -13,25 -13,46zm164 -89l37 0 0 97c0,15 0,25 1,30 2,7 5,13 11,17 6,5 14,7 24,7 10,0 17,-2 23,-6 5,-5 8,-10 9,-16 1,-6 1,-16 1,-30l0 -99 37 0 0 94c0,21 -1,36 -3,45 -2,9 -6,17 -11,23 -5,6 -12,11 -21,14 -9,4 -20,6 -34,6 -17,0 -30,-2 -39,-6 -9,-4 -16,-9 -21,-15 -5,-7 -8,-13 -10,-20 -2,-11 -4,-26 -4,-46l0 -95zm181 179l0 -179 76 0c19,0 33,1 42,4 9,4 15,9 21,18 5,8 7,17 7,28 0,13 -3,24 -11,33 -8,9 -20,14 -36,17 8,4 15,9 20,15 5,5 12,15 20,29l22 35 -43 0 -26 -39c-9,-14 -16,-23 -19,-27 -4,-3 -7,-6 -11,-7 -4,-1 -10,-2 -18,-2l-8 0 0 75 -36 0zm36 -104l27 0c17,0 28,0 32,-2 5,-1 8,-4 11,-7 2,-4 3,-8 3,-14 0,-6 -1,-11 -5,-14 -3,-4 -7,-7 -13,-7 -3,-1 -12,-1 -27,-1l-28 0 0 45zm259 38l35 10c-5,20 -14,35 -27,44 -12,10 -28,15 -47,15 -24,0 -44,-8 -59,-25 -15,-16 -23,-38 -23,-66 0,-30 8,-53 23,-70 15,-16 36,-25 61,-25 22,0 40,7 53,20 8,8 14,19 19,33l-36 8c-2,-9 -7,-16 -13,-22 -7,-5 -15,-8 -25,-8 -13,0 -24,5 -32,15 -9,9 -13,25 -13,46 0,23 4,39 12,48 9,10 19,15 32,15 10,0 18,-3 25,-10 7,-6 12,-15 15,-28zm66 66l0 -179 133 0 0 30 -97 0 0 40 90 0 0 30 -90 0 0 48 100 0 0 31 -136 0zm277 0l0 -149 -53 0 0 -30 142 0 0 30 -53 0 0 149 -36 0zm112 0l0 -179 132 0 0 30 -96 0 0 40 90 0 0 30 -90 0 0 48 100 0 0 31 -136 0zm328 0l-39 0 -16 -41 -71 0 -15 41 -39 0 70 -179 38 0 72 179zm-66 -71l-25 -67 -24 67 49 0zm85 71l0 -179 54 0 32 122 32 -122 54 0 0 179 -33 0 0 -141 -36 141 -34 0 -36 -141 0 141 -33 0z"/>
   <g>
    <g style="clip-path:url(#id0)">
     <image x="2223" y="1605" width="3522" height="3197" xlink:href="opsl_banner_Images\opsl_banner_ImgID1.png"/>
    </g>
   </g>
   <path class="fil3 str0" d="M2223 3203c0,-882 789,-1598 1761,-1598 973,0 1761,716 1761,1598 0,883 -788,1599 -1761,1599 -972,0 -1761,-716 -1761,-1599z"/>
   <polygon class="fil0" points="885,7115 4323,7115 4323,6705 885,6705 "/>
   <path class="fil1" d="M1057 6939l-28 0 24 -116 -41 0 5 -23 110 0 -5 23 -40 0 -25 116zm186 -42l-69 0c0,1 0,2 0,3 0,6 2,12 6,16 4,4 9,6 14,6 10,0 17,-4 22,-14l24 4c-5,10 -11,18 -19,22 -8,5 -17,8 -27,8 -13,0 -25,-4 -33,-13 -9,-9 -13,-20 -13,-34 0,-14 4,-27 12,-37 10,-15 25,-22 45,-22 12,0 22,3 29,11 7,8 11,18 11,32 0,7 -1,13 -2,18zm-23 -16c0,-2 0,-3 0,-3 0,-8 -1,-13 -5,-17 -3,-4 -8,-6 -13,-6 -6,0 -11,2 -16,7 -4,4 -7,10 -9,19l43 0zm130 20l26 5c-4,11 -10,20 -19,27 -9,6 -19,9 -30,9 -13,0 -23,-4 -30,-12 -8,-7 -12,-18 -12,-32 0,-11 3,-21 7,-31 5,-10 12,-17 21,-23 9,-6 19,-8 30,-8 12,0 21,3 29,9 7,6 11,14 12,25l-26 2c-1,-5 -3,-9 -6,-12 -2,-3 -6,-4 -11,-4 -5,0 -10,2 -14,6 -5,4 -9,10 -11,18 -2,7 -4,15 -4,22 0,6 2,10 5,14 3,3 6,4 11,4 4,0 8,-1 12,-4 4,-4 8,-8 10,-15zm97 38l-27 0 29 -139 28 0 -11 49c6,-4 12,-8 18,-10 5,-2 11,-3 17,-3 8,0 15,2 20,7 4,4 7,11 7,18 0,4 -1,11 -3,19l-13 59 -27 0 13 -60c1,-6 2,-11 2,-12 0,-4 -1,-7 -3,-9 -2,-2 -5,-3 -9,-3 -5,0 -9,2 -13,5 -6,4 -10,9 -13,15 -2,4 -4,12 -6,24l-9 40zm274 -101l-4 20 -20 0 -17 81 -27 0 17 -81 -15 0 4 -20 15 0 3 -10c1,-9 3,-15 5,-18 2,-4 5,-7 9,-9 4,-3 10,-4 17,-4 8,0 17,2 26,5l-5 19c-7,-2 -12,-3 -16,-3 -3,0 -5,1 -7,3 -1,1 -2,4 -3,10l-1 7 19 0zm27 59c0,-19 5,-33 16,-45 10,-11 24,-16 41,-16 15,0 27,4 35,12 8,8 13,19 13,33 0,17 -6,31 -16,43 -10,12 -24,18 -42,18 -10,0 -18,-2 -25,-6 -8,-4 -13,-9 -17,-16 -3,-7 -5,-15 -5,-23zm78 -19c0,-7 -2,-12 -6,-16 -4,-4 -9,-6 -15,-6 -6,0 -11,2 -15,6 -5,3 -8,9 -11,16 -2,7 -4,13 -4,19 0,7 2,13 6,17 4,5 9,7 15,7 7,0 14,-3 19,-10 7,-9 11,-20 11,-33zm85 -40l26 0 -4 19c10,-14 20,-21 31,-21 4,0 8,1 12,3l-10 22c-3,-1 -5,-1 -8,-1 -5,0 -9,1 -14,5 -5,3 -9,8 -12,14 -3,6 -5,16 -8,29l-6 31 -28 0 21 -101zm236 63l26 5c-4,11 -10,20 -19,27 -9,6 -18,9 -30,9 -13,0 -23,-4 -30,-12 -8,-7 -12,-18 -12,-32 0,-11 3,-21 7,-31 5,-10 12,-17 21,-23 9,-6 19,-8 30,-8 12,0 22,3 29,9 7,6 11,14 12,25l-26 2c-1,-5 -3,-9 -5,-12 -3,-3 -7,-4 -12,-4 -5,0 -10,2 -14,6 -5,4 -8,10 -11,18 -2,7 -4,15 -4,22 0,6 2,10 5,14 3,3 6,4 11,4 4,0 8,-1 12,-4 4,-4 8,-8 10,-15zm72 -4c0,-19 6,-33 16,-45 11,-11 25,-16 42,-16 15,0 26,4 35,12 8,8 12,19 12,33 0,17 -5,31 -16,43 -10,12 -24,18 -42,18 -9,0 -18,-2 -25,-6 -7,-4 -13,-9 -16,-16 -4,-7 -6,-15 -6,-23zm78 -19c0,-7 -2,-12 -6,-16 -3,-4 -8,-6 -14,-6 -6,0 -11,2 -16,6 -4,3 -8,9 -10,16 -3,7 -4,13 -4,19 0,7 2,13 6,17 4,5 9,7 14,7 8,0 14,-3 19,-10 7,-9 11,-20 11,-33zm85 -40l26 0 -2 12c10,-10 20,-14 31,-14 8,0 14,1 18,4 4,3 7,8 8,13 3,-5 8,-9 15,-12 6,-4 13,-5 20,-5 8,0 15,2 19,6 5,5 7,10 7,18 0,3 -1,9 -3,18l-13 61 -27 0 13 -61c1,-8 2,-13 2,-14 0,-2 -1,-5 -2,-6 -2,-2 -5,-3 -8,-3 -7,0 -13,4 -18,11 -4,5 -8,14 -10,27l-10 46 -27 0 12 -61c2,-7 3,-12 3,-14 0,-2 -1,-5 -3,-6 -2,-2 -4,-3 -8,-3 -3,0 -6,1 -9,3 -3,2 -6,4 -8,7 -3,3 -5,7 -6,12 -1,3 -2,8 -4,16l-10 46 -27 0 21 -101zm203 0l26 0 -2 12c10,-10 20,-14 31,-14 8,0 14,1 18,4 4,3 7,8 8,13 4,-5 9,-9 15,-12 7,-4 13,-5 20,-5 9,0 15,2 19,6 5,5 7,10 7,18 0,3 -1,9 -3,18l-13 61 -27 0 13 -61c2,-8 2,-13 2,-14 0,-2 0,-5 -2,-6 -2,-2 -4,-3 -8,-3 -7,0 -13,4 -18,11 -4,5 -7,14 -10,27l-10 46 -27 0 13 -61c1,-7 2,-12 2,-14 0,-2 -1,-5 -3,-6 -2,-2 -4,-3 -7,-3 -3,0 -6,1 -10,3 -3,2 -6,4 -8,7 -2,3 -4,7 -6,12 -1,3 -2,8 -4,16l-10 46 -27 0 21 -101zm205 0l28 0 -14 60c-2,7 -2,12 -2,14 0,3 0,5 2,7 2,2 5,3 8,3 2,0 4,0 6,-1 3,-1 5,-2 7,-4 2,-2 4,-5 6,-7 2,-3 3,-6 5,-10 1,-3 2,-8 4,-14l11 -48 27 0 -23 101 -26 0 3 -13c-10,11 -21,16 -33,16 -8,0 -14,-3 -18,-7 -5,-5 -7,-12 -7,-20 0,-3 1,-10 3,-20l13 -57zm148 0l26 0 -2 13c6,-5 12,-9 18,-12 6,-2 12,-3 18,-3 8,0 15,2 20,7 5,5 7,11 7,19 0,4 -1,10 -4,20l-12 57 -27 0 12 -57c2,-9 3,-14 3,-15 0,-4 -1,-7 -3,-9 -2,-2 -5,-3 -9,-3 -4,0 -8,2 -13,5 -5,4 -9,8 -12,14 -2,3 -4,12 -7,24l-9 41 -27 0 21 -101zm155 -38l28 0 -6 24 -27 0 5 -24zm-8 38l27 0 -21 101 -27 0 21 -101zm69 20l4 -20 14 0 3 -16 31 -19 -7 35 16 0 -4 20 -16 0 -9 43c-2,8 -3,12 -3,13 0,2 1,4 2,5 2,1 4,2 7,2 2,0 5,0 9,-1l-4 20c-5,1 -9,2 -14,2 -10,0 -17,-2 -21,-6 -5,-4 -7,-9 -7,-15 0,-3 1,-11 4,-22l9 -41 -14 0zm95 -20l27 0 7 51c2,13 3,22 3,27 4,-11 9,-21 15,-33l24 -45 29 0 -62 111c-6,9 -10,16 -13,20 -3,3 -6,6 -10,8 -4,2 -9,3 -15,3 -6,0 -12,-1 -20,-3l3 -20c3,1 6,1 9,1 9,0 16,-6 21,-19l-18 -101zm241 -38l27 0 -5 24 -27 0 5 -24zm-8 38l27 0 -21 101 -27 0 21 -101zm81 0l26 0 -3 12c10,-10 21,-14 32,-14 8,0 14,1 18,4 4,3 6,8 8,13 3,-5 8,-9 15,-12 6,-4 13,-5 20,-5 8,0 15,2 19,6 5,5 7,10 7,18 0,3 -1,9 -3,18l-13 61 -28 0 14 -61c1,-8 2,-13 2,-14 0,-2 -1,-5 -2,-6 -2,-2 -5,-3 -8,-3 -7,0 -13,4 -19,11 -3,5 -7,14 -10,27l-9 46 -27 0 12 -61c2,-7 3,-12 3,-14 0,-2 -1,-5 -3,-6 -2,-2 -5,-3 -8,-3 -3,0 -6,1 -9,3 -3,2 -6,4 -8,7 -3,3 -5,7 -6,12 -1,3 -3,8 -4,16l-10 46 -27 0 21 -101zm204 0l26 0 -2 10c6,-4 11,-7 16,-9 5,-2 10,-3 15,-3 11,0 19,3 26,11 6,7 10,18 10,32 0,19 -6,34 -17,47 -10,10 -21,16 -34,16 -14,0 -24,-6 -31,-16l-10 52 -28 0 29 -140zm17 58c0,8 2,14 6,19 3,4 8,6 13,6 5,0 9,-1 13,-5 5,-3 8,-8 11,-16 3,-8 4,-15 4,-21 0,-8 -2,-14 -5,-18 -4,-4 -9,-6 -14,-6 -6,0 -10,2 -15,6 -4,3 -7,9 -10,16 -2,7 -3,14 -3,19zm148 -30l-26 -2c3,-9 8,-16 16,-21 7,-5 17,-7 30,-7 13,0 22,2 29,7 6,6 9,12 9,20 0,3 0,6 -1,9 0,4 -2,13 -6,27 -2,13 -4,21 -4,26 0,4 1,9 3,14l-27 0c-1,-3 -2,-7 -2,-11 -4,4 -9,8 -14,10 -5,3 -10,4 -15,4 -9,0 -16,-3 -21,-8 -6,-6 -8,-13 -8,-22 0,-9 3,-17 9,-23 6,-6 16,-9 32,-11 13,-1 22,-2 26,-3 1,-4 2,-7 2,-10 0,-3 -2,-5 -4,-7 -2,-2 -6,-3 -10,-3 -5,0 -9,1 -12,3 -3,2 -5,5 -6,8zm26 26c-1,0 -4,1 -6,1 -14,2 -23,4 -27,8 -3,2 -5,5 -5,9 0,3 1,6 4,8 2,2 5,3 9,3 4,0 8,-1 11,-3 4,-2 7,-4 9,-7 2,-4 3,-9 4,-15l1 -4zm142 9l26 5c-4,11 -11,20 -19,27 -9,6 -19,9 -30,9 -13,0 -23,-4 -31,-12 -7,-7 -11,-18 -11,-32 0,-11 2,-21 7,-31 4,-10 11,-17 21,-23 9,-6 19,-8 30,-8 12,0 21,3 28,9 7,6 11,14 12,25l-26 2c0,-5 -2,-9 -5,-12 -3,-3 -6,-4 -11,-4 -5,0 -10,2 -15,6 -4,4 -8,10 -10,18 -3,7 -4,15 -4,22 0,6 2,10 5,14 2,3 6,4 10,4 5,0 9,-1 13,-4 4,-4 7,-8 10,-15zm75 -43l4 -20 13 0 4 -16 31 -19 -7 35 16 0 -4 20 -17 0 -8 43c-2,8 -3,12 -3,13 0,2 1,4 2,5 1,1 4,2 7,2 1,0 4,0 9,-1l-4 20c-5,1 -10,2 -14,2 -10,0 -17,-2 -21,-6 -5,-4 -7,-9 -7,-15 0,-3 1,-11 4,-22l8 -41 -13 0z"/>
  </g>
 </g>
</svg>
