<?xml version="1.0" encoding="utf-8"?>
<!-- Generator: Adobe Illustrator 22.0.1, SVG Export Plug-In . SVG Version: 6.00 Build 0)  -->
<svg version="1.1" id="Layer_1" xmlns="http://www.w3.org/2000/svg" xmlns:xlink="http://www.w3.org/1999/xlink" x="0px" y="0px"
	 viewBox="0 0 101.5 175.2" style="enable-background:new 0 0 101.5 175.2;" xml:space="preserve">
<style type="text/css">
	.st0{fill:#FFFFFF;}
	.st1{fill:#C5192D;}
	.st2{enable-background:new    ;}
	.st3{fill:#C22033;}
</style>
<title>TARGET 1 B copy 4</title>
<g id="WHITE_BG">
	<g>
		<rect y="0" class="st0" width="101.5" height="175.2"/>
	</g>
</g>
<g id="TARGETS">
	<g>
		<g>
			<path class="st1" d="M10.5,129.3H7.8v2h2.9v0.9H6.9v-6.4h3.9v0.9H7.8v1.8h2.6V129.3z"/>
		</g>
		<g>
			<path class="st1" d="M15.2,125.8h1.1l-1.9,3.1l1.9,3.3h-1.1l-1.4-2.6l-1.4,2.6h-1.1l1.9-3.3l-1.9-3.1h1.1l1.4,2.5L15.2,125.8z"/>
		</g>
		<g>
			<path class="st1" d="M17.9,132.2h-1v-6.4h2c1.6,0,2.2,1,2.2,2c0,1-0.6,2-2.2,2h-1V132.2z M17.9,128.9H19c0.6,0.1,1.2-0.4,1.2-1
				s-0.4-1.2-1-1.2c-0.1,0-0.1,0-0.2,0h-1.1V128.9z"/>
		</g>
		<g>
			<path class="st1" d="M24.2,130.6h-2l-0.5,1.6h-1l2-6.4h1l2,6.4h-1L24.2,130.6z M23.2,127l-0.8,2.8H24L23.2,127z"/>
		</g>
		<g>
			<path class="st1" d="M29.9,132.2l-2.8-4.5v4.5h-1v-6.4h0.9l2.8,4.5v-4.5h1v6.4H29.9z"/>
		</g>
		<g>
			<path class="st1" d="M31.8,132.2v-6.4h1.9c2.1,0,2.7,1.4,2.7,3.2s-0.6,3.2-2.7,3.2L31.8,132.2z M32.7,131.3h1
				c1.3,0,1.7-0.9,1.7-2.3s-0.4-2.3-1.7-2.3h-1V131.3z"/>
		</g>
		<g>
			<path class="st1" d="M42.1,132.2v-2.9h-2.6v2.9h-1v-6.4h1v2.6h2.6v-2.6h1v6.4H42.1z"/>
		</g>
		<g>
			<path class="st1" d="M44.1,132.2v-6.4h1v6.4H44.1z"/>
		</g>
		<g>
			<path class="st1" d="M46,129c0-2,0.7-3.3,2.6-3.3c0.6,0,1.3,0.1,1.8,0.3v1c-0.5-0.2-1.1-0.4-1.7-0.4c-1.3,0-1.8,0.9-1.8,2.4
				s0.5,2.4,1.8,2.4c0.3,0,0.6,0,0.9-0.1v-1.7h-1.2v-0.9h2.1v3.2c-0.6,0.3-1.3,0.4-2,0.4C46.7,132.3,46,131,46,129z"/>
		</g>
		<g>
			<path class="st1" d="M55,132.2v-2.9h-2.5v2.9h-1v-6.4h1v2.6H55v-2.6h1v6.4H55z"/>
		</g>
		<g>
			<path class="st1" d="M60.5,129.3h-2.7v2h2.9v0.9h-3.9v-6.4h3.9v0.9h-2.9v1.8h2.7V129.3z"/>
		</g>
		<g>
			<path class="st1" d="M62.6,132.2h-1v-6.4h2.1c1.7,0,2.2,0.7,2.2,1.9c0.1,0.7-0.3,1.4-1,1.7l1.3,2.8h-1.1l-1.2-2.6h-1.3V132.2z
				 M62.6,128.7h1.3c0.9,0,1-0.5,1-1s-0.1-1-1-1h-1.3V128.7z"/>
		</g>
		<g>
			<path class="st1" d="M10.5,138.3H7.8v2h2.9v0.9H6.9v-6.4h3.9v0.9H7.8v1.8h2.6V138.3z"/>
		</g>
		<g>
			<path class="st1" d="M11.6,141.2v-6.4h1.9c2.1,0,2.7,1.4,2.7,3.2s-0.6,3.2-2.7,3.2H11.6z M12.6,140.3h1c1.3,0,1.7-0.9,1.7-2.3
				s-0.4-2.3-1.7-2.3h-1V140.3z"/>
		</g>
		<g>
			<path class="st1" d="M16.9,139.2v-4.4h1v4.3c-0.1,0.7,0.4,1.2,1,1.3c0.1,0,0.2,0,0.3,0c0.6,0.1,1.3-0.3,1.4-1c0-0.1,0-0.2,0-0.3
				v-4.3h1v4.4c0.1,1.1-0.8,2.1-1.9,2.1c-0.1,0-0.3,0-0.4,0c-1.1,0.2-2.1-0.6-2.3-1.7C16.9,139.5,16.9,139.3,16.9,139.2z"/>
		</g>
		<g>
			<path class="st1" d="M24.8,134.7c0.5,0,1,0.1,1.5,0.3v0.9c-0.5-0.2-0.9-0.3-1.4-0.3c-1.2,0-1.7,0.8-1.7,2.4s0.5,2.4,1.7,2.4
				c0.5,0,1-0.1,1.4-0.3v0.9c-0.5,0.2-1,0.3-1.5,0.3c-1.9,0-2.6-1.2-2.6-3.3S22.9,134.7,24.8,134.7z"/>
		</g>
		<g>
			<path class="st1" d="M30.2,139.6h-2l-0.5,1.6h-1l2-6.4h1l2,6.4h-1L30.2,139.6z M29.2,136l-0.8,2.8H30L29.2,136z"/>
		</g>
		<g>
			<path class="st1" d="M33.7,135.7v5.5h-1v-5.5h-1.6v-0.9h4.3v0.9H33.7z"/>
		</g>
		<g>
			<path class="st1" d="M36,141.2v-6.4h1v6.4H36z"/>
		</g>
		<g>
			<path class="st1" d="M38,138c0-1.8,0.4-3.3,2.5-3.3s2.5,1.5,2.5,3.3s-0.4,3.3-2.5,3.3S38,139.8,38,138z M39,138
				c0,1.5,0.3,2.4,1.5,2.4s1.5-0.9,1.5-2.4s-0.3-2.4-1.5-2.4S39,136.5,39,138z"/>
		</g>
		<g>
			<path class="st1" d="M47.5,141.2l-2.8-4.5v4.5h-0.9v-6.4h0.9l2.8,4.5v-4.5h1v6.4H47.5z"/>
		</g>
		<g>
			<path class="st1" d="M11.1,148.3c0,1.2-0.7,2-2.4,2c-0.6,0-1.3-0.1-1.9-0.4V149c0.6,0.3,1.2,0.4,1.8,0.4c1.1,0,1.5-0.5,1.5-1.1
				s-0.3-0.9-1.2-1c-1.6-0.2-2.2-0.6-2.2-1.8c0-0.9,0.5-1.8,2.3-1.8c0.6,0,1.2,0.1,1.7,0.3v1c-0.5-0.2-1.1-0.3-1.7-0.3
				c-1,0-1.3,0.4-1.3,1s0.4,0.8,1.2,0.9C10.3,146.7,11.1,147,11.1,148.3z"/>
		</g>
		<g>
			<path class="st1" d="M14.3,143.7c0.5,0,1,0.1,1.5,0.3v0.9c-0.5-0.2-0.9-0.3-1.4-0.3c-1.2,0-1.7,0.8-1.7,2.4s0.5,2.4,1.7,2.4
				c0.5,0,1-0.1,1.4-0.3v0.9c-0.5,0.2-1,0.3-1.5,0.3c-1.9,0-2.6-1.2-2.6-3.3S12.4,143.7,14.3,143.7z"/>
		</g>
		<g>
			<path class="st1" d="M20,150.2v-2.9h-2.6v2.9h-1v-6.4h1v2.6H20v-2.6h1v6.4H20z"/>
		</g>
		<g>
			<path class="st1" d="M21.9,147c0-1.8,0.4-3.3,2.5-3.3s2.5,1.5,2.5,3.3s-0.4,3.3-2.5,3.3S21.9,148.8,21.9,147z M22.9,147
				c0,1.5,0.3,2.4,1.5,2.4s1.5-0.9,1.5-2.4s-0.3-2.4-1.5-2.4S22.8,145.5,22.9,147L22.9,147z"/>
		</g>
		<g>
			<path class="st1" d="M28.5,149.3h2.8v0.9h-3.7v-6.4h1L28.5,149.3z"/>
		</g>
		<g>
			<path class="st1" d="M35,148.6h-2l-0.5,1.6h-1l2-6.4h1l2,6.4h-1L35,148.6z M34,145l-0.8,2.8h1.6L34,145z"/>
		</g>
		<g>
			<path class="st1" d="M37.9,150.2H37v-6.4h2.1c1.7,0,2.2,0.7,2.2,1.9c0.1,0.7-0.3,1.4-1,1.7l1.3,2.8h-1.2l-1.2-2.6h-1.3V150.2z
				 M37.9,146.7h1.3c0.9,0,1-0.5,1-1s-0.1-1-1-1h-1.3V146.7z"/>
		</g>
		<g>
			<path class="st1" d="M46.3,148.3c0,1.2-0.7,2-2.4,2c-0.6,0-1.3-0.1-1.9-0.4V149c0.6,0.3,1.2,0.4,1.8,0.4c1.2,0,1.5-0.5,1.5-1.1
				s-0.3-0.9-1.2-1c-1.5-0.2-2.2-0.6-2.2-1.8c0-0.9,0.5-1.8,2.3-1.8c0.6,0,1.2,0.1,1.7,0.3v1c-0.5-0.2-1.1-0.3-1.7-0.3
				c-1,0-1.3,0.4-1.3,1s0.4,0.8,1.2,0.9C45.6,146.7,46.3,147,46.3,148.3z"/>
		</g>
		<g>
			<path class="st1" d="M50.6,150.2v-2.9H48v2.9h-1v-6.4h1v2.6h2.6v-2.6h1v6.4H50.6z"/>
		</g>
		<g>
			<path class="st1" d="M52.6,150.2v-6.4h1v6.4H52.6z"/>
		</g>
		<g>
			<path class="st1" d="M55.6,150.2h-1v-6.4h2c1.6,0,2.2,0.9,2.2,2s-0.6,2-2.2,2h-1V150.2z M55.6,146.9h1.1c0.6,0.1,1.2-0.4,1.2-1
				s-0.4-1.2-1-1.2c-0.1,0-0.1,0-0.2,0h-1.1V146.9z"/>
		</g>
		<g>
			<path class="st1" d="M63.5,148.3c0,1.2-0.7,2-2.4,2c-0.6,0-1.3-0.1-1.9-0.4V149c0.6,0.3,1.2,0.4,1.8,0.4c1.2,0,1.5-0.5,1.5-1.1
				s-0.3-0.9-1.2-1c-1.5-0.2-2.2-0.6-2.2-1.8c0-0.9,0.5-1.8,2.3-1.8c0.6,0,1.2,0.1,1.7,0.3v1c-0.5-0.2-1.1-0.3-1.7-0.3
				c-1,0-1.3,0.4-1.3,1s0.4,0.8,1.2,0.9C62.8,146.7,63.5,147,63.5,148.3z"/>
		</g>
		<g>
			<path class="st1" d="M10.4,156.4H7.8v2.8h-1v-6.4h3.9v0.9H7.8v1.8h2.6V156.4z"/>
		</g>
		<g>
			<path class="st1" d="M11.2,156c0-1.8,0.4-3.3,2.5-3.3s2.5,1.5,2.5,3.3s-0.4,3.3-2.5,3.3S11.2,157.8,11.2,156z M12.2,156
				c0,1.5,0.3,2.4,1.5,2.4s1.5-0.9,1.5-2.4s-0.3-2.4-1.5-2.4S12.1,154.5,12.2,156L12.2,156z"/>
		</g>
		<g>
			<path class="st1" d="M17.8,159.2h-1v-6.4h2.1c1.6,0,2.2,0.7,2.2,1.9c0.1,0.7-0.3,1.4-1,1.7l1.3,2.8h-1.1l-1.2-2.6h-1.3V159.2z
				 M17.8,155.7H19c0.9,0,1-0.5,1-1s-0.1-1-1-1h-1.2V155.7z"/>
		</g>
		<g>
			<path class="st1" d="M23.4,159.2v-6.4h1.9c2.1,0,2.7,1.4,2.7,3.2s-0.6,3.2-2.7,3.2H23.4z M24.3,158.3h1c1.3,0,1.7-0.9,1.7-2.3
				s-0.4-2.3-1.7-2.3h-1V158.3z"/>
		</g>
		<g>
			<path class="st1" d="M32.3,156.3h-2.7v2h2.9v0.9h-3.9v-6.4h3.9v0.9h-2.9v1.8h2.7V156.3z"/>
		</g>
		<g>
			<path class="st1" d="M38,152.8l-2,6.4h-1l-2-6.4h1l1.5,5.2l1.5-5.2H38z"/>
		</g>
		<g>
			<path class="st1" d="M42.1,156.3h-2.7v2h2.9v0.9h-3.9v-6.4h3.9v0.9h-2.9v1.8h2.7V156.3z"/>
		</g>
		<g>
			<path class="st1" d="M44.2,158.3H47v0.9h-3.8v-6.4h1L44.2,158.3z"/>
		</g>
		<g>
			<path class="st1" d="M47,156c0-1.8,0.4-3.3,2.5-3.3s2.5,1.5,2.5,3.3s-0.4,3.3-2.5,3.3S47,157.8,47,156z M48,156
				c0,1.5,0.3,2.4,1.5,2.4s1.5-0.9,1.5-2.4s-0.3-2.4-1.5-2.4S47.9,154.5,48,156L48,156z"/>
		</g>
		<g>
			<path class="st1" d="M53.6,159.2h-1v-6.4h2c1.6,0,2.2,0.9,2.2,2s-0.6,2-2.2,2h-1.1L53.6,159.2z M53.6,155.9h1.1
				c0.6,0.1,1.2-0.4,1.2-1s-0.4-1.2-1-1.2c-0.1,0-0.1,0-0.2,0h-1.1V155.9z"/>
		</g>
		<g>
			<path class="st1" d="M57.5,159.2v-6.4h1v6.4H57.5z"/>
		</g>
		<g>
			<path class="st1" d="M63.2,159.2l-2.8-4.5v4.5h-0.9v-6.4h0.9l2.8,4.5v-4.5h0.9v6.4H63.2z"/>
		</g>
		<g>
			<path class="st1" d="M64.8,156c0-2,0.7-3.3,2.6-3.3c0.6,0,1.3,0.1,1.8,0.3v1c-0.5-0.2-1.1-0.4-1.7-0.4c-1.3,0-1.8,0.9-1.8,2.4
				s0.5,2.4,1.8,2.4c0.3,0,0.6,0,0.9-0.1v-1.7h-1.1v-0.9h2.1v3.2c-0.6,0.3-1.3,0.4-2,0.4C65.5,159.3,64.8,158,64.8,156z"/>
		</g>
		<g>
			<path class="st1" d="M9.4,161.7c0.5,0,1,0.1,1.5,0.3v0.9c-0.5-0.2-0.9-0.3-1.4-0.3c-1.2,0-1.7,0.8-1.7,2.4s0.5,2.4,1.7,2.4
				c0.5,0,1-0.1,1.4-0.3v0.9c-0.5,0.2-1,0.3-1.5,0.3c-1.9,0-2.6-1.2-2.6-3.3S7.5,161.7,9.4,161.7z"/>
		</g>
		<g>
			<path class="st1" d="M11.6,165c0-1.8,0.4-3.3,2.5-3.3s2.4,1.5,2.4,3.3s-0.4,3.3-2.4,3.3S11.6,166.8,11.6,165z M12.6,165
				c0,1.5,0.3,2.4,1.5,2.4s1.5-0.9,1.5-2.4s-0.3-2.4-1.5-2.4S12.6,163.5,12.6,165L12.6,165z"/>
		</g>
		<g>
			<path class="st1" d="M17.2,166.2v-4.4h1v4.3c-0.1,0.7,0.4,1.3,1,1.3c0.1,0,0.2,0,0.3,0c0.6,0.1,1.3-0.3,1.4-1c0-0.1,0-0.2,0-0.3
				v-4.3h1v4.4c0.1,1.1-0.8,2.1-1.9,2.1c-0.1,0-0.3,0-0.4,0c-1.1,0.2-2.1-0.6-2.3-1.7C17.2,166.5,17.2,166.3,17.2,166.2z"/>
		</g>
		<g>
			<path class="st1" d="M26.4,168.2l-2.8-4.5v4.5h-0.9v-6.4h0.9l2.8,4.5v-4.5h0.9v6.4H26.4z"/>
		</g>
		<g>
			<path class="st1" d="M30.4,162.7v5.5h-1v-5.5h-1.6v-0.9h4.3v0.9H30.4z"/>
		</g>
		<g>
			<path class="st1" d="M33.6,168.2h-1v-6.4h2.1c1.7,0,2.2,0.7,2.2,1.9c0.1,0.7-0.3,1.4-1,1.7l1.3,2.8H36l-1.2-2.6h-1.3V168.2z
				 M33.6,164.7h1.3c0.9,0,1-0.5,1-1s-0.1-1-1-1h-1.3V164.7z"/>
		</g>
		<g>
			<path class="st1" d="M38,168.2v-6.4h1v6.4H38z"/>
		</g>
		<g>
			<path class="st1" d="M43.6,165.3h-2.7v2h2.9v0.9H40v-6.4h3.9v0.9h-2.9v1.8h2.7V165.3z"/>
		</g>
		<g>
			<path class="st1" d="M48.8,166.3c0,1.2-0.7,2-2.4,2c-0.6,0-1.3-0.1-1.9-0.4V167c0.6,0.3,1.2,0.4,1.8,0.4c1.2,0,1.5-0.5,1.5-1.1
				s-0.3-0.9-1.2-1c-1.5-0.2-2.2-0.6-2.2-1.8c0-0.9,0.5-1.8,2.3-1.8c0.6,0,1.2,0.1,1.7,0.3v1c-0.5-0.2-1.1-0.3-1.7-0.3
				c-1,0-1.3,0.4-1.3,1s0.4,0.8,1.2,0.9C48,164.7,48.8,165,48.8,166.3z"/>
		</g>
	</g>
	<g>
		<rect x="3.3" y="24" class="st1" width="94.8" height="94.8"/>
	</g>
	<g>
		<path class="st1" d="M98.2,20.7H3.3V3.3h94.8V20.7z M4.3,19.7h92.8V4.3H4.3L4.3,19.7z"/>
	</g>
	<g class="st2">
		<path class="st1" d="M6.7,6.9h4.5v1.4H9.9v8.8H8.1V8.3H6.7V6.9z"/>
	</g>
	<g class="st2">
		<path class="st1" d="M11.2,17.1l1.9-10.2h1.9L17,17.1h-1.8l-0.3-1.9h-1.8l-0.3,1.9H11.2z M13.3,13.9h1.4L14,9.8h0L13.3,13.9z"/>
	</g>
	<g class="st2">
		<path class="st1" d="M19.6,12.4v4.7h-1.7V6.9h2.5c1.7,0,2.4,0.9,2.4,2.3v1.3c0,1.1-0.4,1.7-1.4,2l1.6,4.6h-1.8L19.6,12.4z
			 M19.6,8.3v3.2h0.6c0.6,0,0.8-0.3,0.8-0.8V9.2c0-0.6-0.3-0.8-0.8-0.8H19.6z"/>
	</g>
	<g class="st2">
		<path class="st1" d="M26.4,11.7h2.4v5.4h-1.2V16c-0.2,0.8-0.7,1.2-1.6,1.2c-1.5,0-2.1-1.2-2.1-2.7V9.6c0-1.6,0.8-2.7,2.6-2.7
			c1.9,0,2.4,1.1,2.4,2.6v0.9h-1.6v-1c0-0.6-0.2-1-0.9-1c-0.6,0-0.9,0.4-0.9,1v5.5c0,0.6,0.3,1,0.8,1c0.6,0,0.8-0.3,0.8-1V13h-0.8
			V11.7z"/>
	</g>
	<g class="st2">
		<path class="st1" d="M30.2,6.9h4.1v1.4h-2.4v2.9h1.7v1.4h-1.7v3.1h2.4v1.4h-4.1V6.9z"/>
	</g>
	<g class="st2">
		<path class="st1" d="M35.1,6.9h4.5v1.4h-1.4v8.8h-1.7V8.3h-1.4V6.9z"/>
	</g>
	<g class="st2">
		<path class="st1" d="M89.4,6.9h2.5c1.7,0,2.3,0.8,2.3,2.2v1c0,0.9-0.3,1.4-1,1.6c0.9,0.2,1.3,0.8,1.3,1.7v1.3
			c0,1.4-0.6,2.2-2.4,2.2h-2.7V6.9z M91.1,11.2h0.6c0.6,0,0.8-0.3,0.8-0.8V9.2c0-0.6-0.3-0.8-0.8-0.8h-0.6V11.2z M91.1,12.5v3.2h0.8
			c0.6,0,0.8-0.3,0.8-0.8v-1.5c0-0.5-0.3-0.8-0.9-0.8H91.1z"/>
	</g>
	<g class="st2">
		<path class="st1" d="M77.9,14.4l3-7.5h1.7v7.2h0.7v1.3h-0.7v1.7H81v-1.7h-3V14.4z M79.4,14.1H81V9.9h0L79.4,14.1z"/>
	</g>
	<g>
		<polygon class="st1" points="85.4,9.9 85.4,14.1 87.6,12 		"/>
	</g>
	<g>
		<path class="st3" d="M98.2,171.9h-95v-49.7h95V171.9z M4.2,170.9h93v-47.7h-93V170.9z"/>
	</g>
	<g>
		<g>
			<g>
				<path class="st0" d="M22,61.4v4.2l0,0c0,2.4,6.3,4.6,11.3,4.6s11.3-2.1,11.3-4.5l0,0v-4.2l-11.4,3.3L22,61.4z"/>
			</g>
			<g>
				<path class="st0" d="M52.9,57.1L33.4,51l-19.4,6l2,0.6l3.2,1v8.6c-0.2,0.1-0.3,0.3-0.3,0.5l0,0l-0.3,5.2h1.6l-0.2-5.3l0,0
					c0-0.2-0.1-0.4-0.3-0.5v-8.4l0.8,0.2v-0.1l12.8,3.9L52.9,57.1z"/>
			</g>
		</g>
		<g>
			<g>
				<path class="st0" d="M87.4,73.7l-4.7-15.2c0,0-1.7-4.4-5.3-4.4h-8.3c-1.3,0.1-2.6-0.4-3.5-1.3L55.4,37.6c-0.6-1.1-2-1.6-3.1-1
					s-1.6,2-1,3.1l8.9,14.8l3.8,7c0.6,1.2,0.8,2.6,0.6,3.9l-5.9,21.3h6.1v17c0,1.6,1.3,2.9,2.9,2.9c1.6,0,2.9-1.3,2.9-2.9l0,0v-17
					h1.6v17c0,1.6,1.3,2.9,2.9,2.9c1.6,0,2.9-1.3,2.9-2.9v-17h6.1L77.7,63c0,0-0.3-1,0.5-1.2s0.9,0.8,0.9,0.8l3.8,12.6
					c0,0,0.7,2.7,3,2S87.4,73.7,87.4,73.7z"/>
			</g>
			<g>
				<path class="st0" d="M77.7,42.8c0.3,0.1,0.6,0.2,0.9,0.3c1.7,0.2,2.2,1,2.3,1.5c0,0.1,0.1-0.1,0.1-0.3c0,0,0.2-3-1.8-4
					c-1.7-0.8-2.5,0.1-2.6,0.9c0,0.1,0,0.2,0,0.3C77,41.8,77.4,42.3,77.7,42.8z"/>
			</g>
			<g>
				<path class="st0" d="M62.6,44.5c0.2-0.5,0.7-1.2,2.4-1.5c0.4,0,0.7-0.1,1-0.3c0.3-0.5,0.6-0.9,0.9-1.3c0-0.1,0-0.3,0-0.4
					c-0.1-0.8-0.9-1.7-2.6-0.9c-2.1,1-1.8,4-1.8,4C62.5,44.4,62.5,44.6,62.6,44.5z"/>
			</g>
			<g>
				<path class="st0" d="M71.8,51.7c3.2,0,5.7-2.6,5.7-5.8c0-3.2-2.6-5.7-5.8-5.7c-3.2,0-5.7,2.6-5.7,5.8
					C66,49.2,68.6,51.7,71.8,51.7C71.7,51.7,71.8,51.7,71.8,51.7z"/>
			</g>
		</g>
		<g>
			<g>
				<path class="st0" d="M31.8,103.1c-0.6,0.3-1.2,0.6-1.8,0.8c-1.8,0.5-3.7,0.7-5.5,0.7c-0.9,0-1.8-0.1-2.8-0.2
					c-0.6-0.1-1.1-0.2-1.7-0.3c-0.3-0.1-0.6-0.1-0.8-0.2c-0.8-0.2-1.5-0.5-2.1-1c-0.2-0.2-0.4-0.4-0.6-0.6v0.7c0,0.2,0,1.1,0,1.1
					c0,0.5,0.3,0.9,0.6,1.2c1.3,0.9,2.8,1.4,4.3,1.6c1,0.2,2.1,0.2,3.2,0.2c1.5,0,3.1-0.2,4.5-0.5h0c0.8-0.2,1.6-0.5,2.3-0.9l0,0
					c0.8-0.5,1.2-1,1.2-1.6c0,0,0.1-1.7,0-1.8C32.4,102.5,32.1,102.8,31.8,103.1z"/>
			</g>
			<g>
				<path class="st0" d="M23.8,97.6c4.5,0,8.1-1.3,8.1-3c0,0,0.1-1.5,0.1-1.9c0-0.2-0.1-0.4-0.1-0.6c0.5-0.3,0.8-0.8,0.9-1.4
					c0,0,0.1-1.7,0-2.1c-0.2-2-4.3-3.1-8.1-3.1s-8.2,1.2-8.2,3.3c0,0.1,0.1,1.9,0.1,1.9c0,0.1,0,0.2,0.1,0.4c-0.6,0.4-1,1-1,1.7
					c0,0.1,0.1,1.9,0.1,1.9c0,0.5,0.3,0.9,0.6,1.2c1.3,0.9,2.8,1.4,4.3,1.6C21.7,97.5,22.7,97.6,23.8,97.6z M24.6,86.3
					c4.3,0,7.3,1.3,7.3,2.5s-3,2.4-7.3,2.4s-7.3-1.2-7.3-2.4S20.3,86.3,24.6,86.3z M16.4,92.7c0.1-0.4,0.3-0.7,0.6-0.9
					c0.2,0.2,0.5,0.4,0.8,0.6c2.1,1,4.4,1.4,6.7,1.3c1.9,0,3.9-0.3,5.7-0.9c0.3-0.1,0.5-0.2,0.7-0.3c0,0.1,0,0.1,0,0.2
					c0,1.2-3,2.4-7.3,2.4S16.4,93.8,16.4,92.7z"/>
			</g>
			<g>
				<path class="st0" d="M21.4,103.8c1,0.2,2.1,0.2,3.1,0.2c1.5,0,3.1-0.2,4.5-0.5l0,0c0.8-0.2,1.6-0.5,2.3-0.9l0,0
					c0.2-0.1,0.3-0.2,0.5-0.3c0.3-0.2,0.5-0.5,0.6-0.8c0.1-0.1,0.1-0.3,0.1-0.4c0,0,0-1.7,0-1.8c-0.3,0.3-1,1.4-4.2,2
					c-1.4,0.2-2.8,0.4-4.1,0.4c-2.6,0-5.3-0.5-6.5-1.3c-0.4-0.2-0.7-0.4-1-0.7c-0.2-0.2-0.4-0.4-0.5-0.6c0,0,0,0.8,0,0.8v1.2
					c0,0.5,0.3,0.9,0.6,1.2C18.2,103.1,19.8,103.6,21.4,103.8z"/>
			</g>
			<g>
				<path class="st0" d="M32.5,95.6c-0.1-0.1-0.1-0.1-0.2-0.2c-0.1-0.1-0.2-0.1-0.3-0.2c-0.1,0.2-0.2,0.3-0.4,0.5
					c0.1,0,0.2,0.1,0.3,0.2c0.2,0.1,0.4,0.4,0.4,0.6c0,0.2-0.2,0.4-0.3,0.5c-0.1,0.1-0.2,0.2-0.3,0.2c0,0-0.3,0.2-0.5,0.3
					s-0.5,0.2-0.7,0.3c0,0-0.5,0.2-0.7,0.2s-0.7,0.2-1,0.2c-0.1,0-0.9,0.2-1.2,0.2c-0.1,0-0.9,0.1-1.3,0.1c-0.1,0-1.3,0.1-1.9,0.1
					c-0.9,0-1.7-0.1-2.6-0.2c-0.6-0.1-1.2-0.2-1.8-0.3c-0.7-0.1-1.3-0.3-2-0.6c-0.4-0.2-0.7-0.4-1-0.7c-0.3-0.2-0.5-0.5-0.6-0.8V97
					v1c0,0.5,0.3,0.9,0.6,1.2c1.3,0.9,2.8,1.5,4.3,1.6c1,0.2,2.1,0.2,3.1,0.2c1.5,0,3.1-0.2,4.5-0.5h0c0.8-0.2,1.6-0.5,2.3-0.9l0,0
					c0.2-0.1,0.3-0.2,0.5-0.4c0.3-0.2,0.5-0.5,0.6-0.8c0.1-0.1,0.1-0.3,0.1-0.4c0,0,0.1-1.7,0.1-1.8c0-0.1,0-0.3-0.1-0.4
					C32.6,95.8,32.6,95.7,32.5,95.6z"/>
			</g>
			<g>
				<path class="st0" d="M42.5,91.7c4.5,0,8.1-1.3,8.1-3c0,0,0.1-1.6,0.1-1.9c0-0.2-0.1-0.4-0.1-0.6c0.5-0.3,0.8-0.8,0.9-1.4
					c0,0,0.1-1.7,0-2.1c-0.2-2-4.3-3.1-8.1-3.1s-8.2,1.2-8.2,3.3c0,0.1,0.1,1.9,0.1,1.9c0,0.1,0,0.2,0.1,0.4c-0.6,0.3-1,1-1,1.6
					c0,0.1,0.1,1.9,0.1,1.9c0,0.5,0.3,0.9,0.7,1.2c1.3,0.9,2.8,1.4,4.3,1.6C40.4,91.6,41.4,91.7,42.5,91.7z M43.3,80.5
					c4.3,0,7.3,1.3,7.3,2.4s-3,2.5-7.3,2.5S36,84.1,36,82.9S39,80.5,43.3,80.5z M35.1,86.8c0.1-0.4,0.3-0.7,0.6-0.9
					c0.2,0.2,0.5,0.4,0.8,0.6c2.1,1,4.4,1.4,6.7,1.3c1.9,0,3.9-0.3,5.7-0.9c0.2-0.1,0.5-0.2,0.7-0.3c0,0.1,0,0.1,0,0.2
					c0,1.2-3,2.5-7.3,2.5S35.1,88,35.1,86.8z"/>
			</g>
			<g>
				<path class="st0" d="M51.4,90.1c0-0.1-0.1-0.2-0.2-0.3c-0.1-0.1-0.1-0.1-0.2-0.2c-0.1-0.1-0.2-0.1-0.3-0.2
					c-0.1,0.2-0.2,0.3-0.4,0.5c0.1,0,0.2,0.1,0.3,0.2c0.2,0.1,0.4,0.4,0.4,0.6c0,0.2-0.1,0.4-0.3,0.5l-0.3,0.2c0,0-0.3,0.2-0.5,0.2
					c-0.2,0.1-0.5,0.2-0.7,0.3c0,0-0.5,0.2-0.7,0.2s-0.7,0.2-1,0.2c-0.1,0-0.9,0.2-1.2,0.2c-0.1,0-0.9,0.1-1.3,0.1
					c-0.1,0-1.3,0.1-1.9,0.1c-0.9,0-1.7-0.1-2.6-0.2c-0.6-0.1-1.2-0.2-1.8-0.3c-0.7-0.1-1.3-0.4-2-0.6c-0.4-0.2-0.7-0.4-1-0.7
					c-0.3-0.2-0.5-0.5-0.6-0.8c0,0,0,1.1,0,1.1v1c0,0.5,0.3,0.9,0.6,1.2c1.3,0.9,2.8,1.5,4.4,1.6c1,0.2,2.1,0.2,3.2,0.2
					c1.5,0,3.1-0.2,4.5-0.5l0,0c0.8-0.2,1.6-0.5,2.3-0.9l0,0c0.2-0.1,0.3-0.2,0.5-0.4c0.3-0.2,0.5-0.5,0.6-0.8
					c0.1-0.1,0.1-0.3,0.1-0.4c0,0,0.1-1.7,0.1-1.8C51.4,90.4,51.4,90.2,51.4,90.1z"/>
			</g>
			<g>
				<path class="st0" d="M50.5,97.2c-0.5,0.4-1.2,0.6-1.8,0.8c-1.8,0.5-3.7,0.7-5.5,0.7c-0.9,0-1.8-0.1-2.8-0.2
					c-0.6-0.1-1.1-0.2-1.7-0.3l-0.8-0.2c-0.8-0.2-1.5-0.5-2.2-1c-0.2-0.2-0.4-0.4-0.6-0.7V97c0,0.2,0,1.1,0,1.1
					c0,0.5,0.3,0.9,0.6,1.2c1.3,0.9,2.8,1.5,4.3,1.6c1,0.2,2.1,0.2,3.2,0.2c1.5,0,3.1-0.2,4.5-0.5h0c0.8-0.2,1.6-0.5,2.3-0.9l0,0
					c0.8-0.5,1.2-1,1.2-1.6c0,0,0.1-1.6,0-1.8C51.1,96.7,50.8,97,50.5,97.2z"/>
			</g>
			<g>
				<path class="st0" d="M35.8,96.3c1.3,0.9,2.8,1.4,4.3,1.6c1,0.2,2.1,0.2,3.2,0.2c1.5,0,3.1-0.2,4.5-0.5l0,0
					c0.8-0.2,1.6-0.5,2.3-0.9l0,0c0.2-0.1,0.3-0.2,0.5-0.3c0.3-0.2,0.5-0.5,0.6-0.8c0.1-0.1,0.1-0.3,0.1-0.4c0,0,0-1.7,0-1.8
					c-0.3,0.3-1,1.4-4.2,2.1c-1.4,0.2-2.7,0.4-4.1,0.3c-2.6,0-5.3-0.5-6.5-1.3c-0.4-0.2-0.7-0.4-1-0.7c-0.2-0.2-0.3-0.4-0.5-0.6
					c0,0,0,0.8,0,0.8v1.2C35.1,95.7,35.4,96.1,35.8,96.3z"/>
			</g>
			<g>
				<path class="st0" d="M51.5,102.1c-0.3,0.4-0.6,0.7-1,0.9c-0.6,0.3-1.2,0.6-1.8,0.8c-1.8,0.5-3.7,0.7-5.5,0.7
					c-0.9,0-1.8-0.1-2.7-0.2c-0.6-0.1-1.1-0.2-1.7-0.3c-0.3-0.1-0.6-0.1-0.8-0.2c-0.8-0.2-1.5-0.5-2.2-1c-0.2-0.2-0.4-0.4-0.6-0.6
					v0.7c0,0.2,0,1.1,0,1.1c0,0.5,0.3,0.9,0.6,1.2c1.3,0.9,2.8,1.5,4.3,1.6c1,0.2,2.1,0.2,3.2,0.2c1.5,0,3.1-0.2,4.5-0.5h0
					c0.8-0.2,1.6-0.5,2.3-0.9l0,0c0.8-0.5,1.2-1,1.2-1.6C51.4,103.9,51.5,102.2,51.5,102.1z"/>
			</g>
			<g>
				<path class="st0" d="M40.1,103.7c1,0.2,2.1,0.2,3.2,0.2c1.5,0,3.1-0.2,4.5-0.5l0,0c0.8-0.2,1.6-0.5,2.3-0.9l0,0
					c0.2-0.1,0.3-0.2,0.5-0.4c0.3-0.2,0.5-0.5,0.6-0.8c0.1-0.1,0.1-0.3,0.1-0.4c0,0,0-1.7,0-1.8c-0.3,0.3-1,1.4-4.2,2
					c-1.4,0.2-2.7,0.4-4.1,0.4c-2.6,0-5.3-0.5-6.5-1.3c-0.4-0.2-0.7-0.4-1-0.7c-0.2-0.2-0.3-0.4-0.5-0.6c0,0,0,0.8,0,0.8v1.2
					c0,0.5,0.3,0.9,0.6,1.1C37,103,38.5,103.6,40.1,103.7z"/>
			</g>
		</g>
	</g>
</g>
</svg>
