<?xml version="1.0" encoding="utf-8"?>
<!-- Generator: Adobe Illustrator 22.0.1, SVG Export Plug-In . SVG Version: 6.00 Build 0)  -->
<svg version="1.1" id="Layer_1" xmlns="http://www.w3.org/2000/svg" xmlns:xlink="http://www.w3.org/1999/xlink" x="0px" y="0px"
	 viewBox="0 0 101.5 166.2" style="enable-background:new 0 0 101.5 166.2;" xml:space="preserve">
<style type="text/css">
	.st0{fill:#FFFFFF;}
	.st1{fill:#C5192D;}
	.st2{enable-background:new    ;}
</style>
<title>TARGET 1.4</title>
<g id="WHITE_BG">
	<g>
		<rect y="0" class="st0" width="101.5" height="166.2"/>
	</g>
</g>
<g id="TARGETS">
	<g>
		<g>
			<path class="st1" d="M7,132.2v-6.4h1v6.4H7z"/>
		</g>
		<g>
			<path class="st1" d="M12.8,132.2l-2.8-4.5v4.5H9.1v-6.4h0.9l2.8,4.5v-4.5h0.9v6.4H12.8z"/>
		</g>
		<g>
			<path class="st1" d="M17,125.7c0.5,0,1,0.1,1.5,0.3v0.9c-0.4-0.2-0.9-0.3-1.4-0.3c-1.2,0-1.7,0.8-1.7,2.4s0.5,2.4,1.7,2.4
				c0.5,0,1-0.1,1.4-0.3v0.9c-0.5,0.2-1,0.3-1.5,0.3c-1.9,0-2.6-1.2-2.6-3.3S15.1,125.7,17,125.7z"/>
		</g>
		<g>
			<path class="st1" d="M20.2,132.2h-1v-6.4h2.1c1.6,0,2.2,0.7,2.2,1.9c0.1,0.7-0.3,1.4-1,1.7l1.3,2.8h-1.1l-1.2-2.6h-1.3V132.2z
				 M20.2,128.7h1.3c0.9,0,1-0.5,1-1s-0.1-1-1-1h-1.3V128.7z"/>
		</g>
		<g>
			<path class="st1" d="M28,129.3h-2.6v2h2.9v0.9h-3.9v-6.4h3.9v0.9h-2.9v1.8H28V129.3z"/>
		</g>
		<g>
			<path class="st1" d="M32.2,130.7h-2l-0.5,1.6h-1l2-6.4h1l2,6.4h-1L32.2,130.7z M31.2,127l-0.8,2.8H32L31.2,127z"/>
		</g>
		<g>
			<path class="st1" d="M38.2,130.3c0,1.2-0.7,2-2.4,2c-0.6,0-1.3-0.1-1.9-0.4V131c0.6,0.3,1.2,0.4,1.8,0.4c1.1,0,1.5-0.5,1.5-1.1
				s-0.3-0.9-1.2-1c-1.6-0.2-2.2-0.6-2.2-1.8c0-0.9,0.5-1.8,2.3-1.8c0.6,0,1.2,0.1,1.7,0.3v1c-0.5-0.2-1.1-0.3-1.7-0.3
				c-1,0-1.3,0.4-1.3,1c0,0.7,0.4,0.8,1.2,0.9C37.5,128.7,38.2,129,38.2,130.3z"/>
		</g>
		<g>
			<path class="st1" d="M42.6,129.3H40v2h2.9v0.9H39v-6.4h3.9v0.9H40v1.8h2.7L42.6,129.3z"/>
		</g>
		<g>
			<path class="st1" d="M47.2,126.7v5.5h-1v-5.5h-1.6v-0.9h4.3v0.9L47.2,126.7z"/>
		</g>
		<g>
			<path class="st1" d="M52.9,132.2v-2.9h-2.6v2.9h-1v-6.4h1v2.6h2.6v-2.6h1v6.4H52.9z"/>
		</g>
		<g>
			<path class="st1" d="M58.4,129.3h-2.6v2h2.9v0.9h-3.9v-6.4h3.9v0.9h-2.9v1.8h2.7L58.4,129.3z"/>
		</g>
		<g>
			<path class="st1" d="M64.6,132.2l-2.8-4.5v4.5h-0.9v-6.4h0.9l2.8,4.5v-4.5h1v6.4H64.6z"/>
		</g>
		<g>
			<path class="st1" d="M66.4,130.2v-4.4h0.9v4.3c0,0.8,0.6,1.4,1.4,1.4s1.4-0.6,1.4-1.4v-4.3h1v4.4c-0.1,1.3-1.2,2.2-2.5,2.2
				C67.5,132.3,66.5,131.4,66.4,130.2L66.4,130.2z"/>
		</g>
		<g>
			<path class="st1" d="M75.4,131.3h-0.9l-1.6-3.9v4.8H72v-6.4h1.2l1.7,4.3l1.7-4.3h1.2v6.4h-1v-4.8L75.4,131.3z"/>
		</g>
		<g>
			<path class="st1" d="M78.8,125.8H81c1.6,0,2,0.8,2,1.7c0,0.5-0.3,1-0.8,1.3c0.6,0.2,1.1,0.8,1,1.5c0,1.1-0.5,1.9-2.2,1.9h-2.2
				V125.8z M81,126.7h-1.2v1.8H81c0.4,0.1,0.9-0.2,0.9-0.7c0-0.1,0-0.1,0-0.2C82,127.2,81.8,126.7,81,126.7L81,126.7z M79.8,131.3
				H81c0.9,0,1.1-0.5,1.1-1s-0.3-1-1.1-1h-1.2L79.8,131.3z"/>
		</g>
		<g>
			<path class="st1" d="M87.4,129.3h-2.7v2h2.9v0.9h-3.9v-6.4h3.9v0.9h-2.9v1.8h2.7L87.4,129.3z"/>
		</g>
		<g>
			<path class="st1" d="M89.4,132.2h-1v-6.4h2.1c1.7,0,2.2,0.7,2.2,1.9c0.1,0.7-0.3,1.4-1,1.7l1.3,2.8h-1.1l-1.2-2.6h-1.3V132.2z
				 M89.4,128.7h1.3c0.9,0,1-0.5,1-1s-0.1-1-1-1h-1.3V128.7z"/>
		</g>
		<g>
			<path class="st1" d="M6.8,138c0-1.8,0.4-3.3,2.5-3.3s2.5,1.5,2.5,3.3s-0.4,3.3-2.5,3.3S6.8,139.8,6.8,138z M7.8,138
				c0,1.5,0.3,2.4,1.5,2.4s1.5-0.9,1.5-2.4s-0.3-2.4-1.5-2.4S7.8,136.5,7.8,138L7.8,138z"/>
		</g>
		<g>
			<path class="st1" d="M16,138.4h-2.6v2.8h-0.9v-6.4h3.8v0.9h-2.9v1.8H16V138.4z"/>
		</g>
		<g>
			<path class="st1" d="M19.3,141.2h-1v-6.4h2c1.6,0,2.2,0.9,2.2,2s-0.6,2-2.2,2h-1.1V141.2z M19.3,138h1.1c0.6,0.1,1.2-0.4,1.2-1
				s-0.4-1.2-1-1.2c-0.1,0-0.1,0-0.2,0h-1.1V138z"/>
		</g>
		<g>
			<path class="st1" d="M26.8,138.3h-2.6v2h2.9v0.9h-3.9v-6.4h3.9v0.9h-2.9v1.8h2.6V138.3z"/>
		</g>
		<g>
			<path class="st1" d="M27.7,138c0-1.8,0.4-3.3,2.5-3.3s2.5,1.5,2.5,3.3s-0.4,3.3-2.5,3.3S27.7,139.8,27.7,138z M28.7,138
				c0,1.5,0.3,2.4,1.5,2.4s1.5-0.9,1.5-2.4s-0.3-2.4-1.5-2.4S28.7,136.5,28.7,138L28.7,138z"/>
		</g>
		<g>
			<path class="st1" d="M34.3,141.2h-1v-6.4h2c1.6,0,2.2,0.9,2.2,2s-0.6,2-2.2,2h-1.1L34.3,141.2z M34.3,138h1.1
				c0.6,0.1,1.2-0.4,1.2-1s-0.4-1.2-1-1.2c-0.1,0-0.1,0-0.2,0h-1.1V138z"/>
		</g>
		<g>
			<path class="st1" d="M39,140.3h2.8v0.9h-3.7v-6.4h1L39,140.3z"/>
		</g>
		<g>
			<path class="st1" d="M45.9,138.3h-2.6v2h2.9v0.9h-3.9v-6.4h3.9v0.9h-2.9v1.8h2.7L45.9,138.3z"/>
		</g>
		<g>
			<path class="st1" d="M50.9,134.8h1.2l1.1,5l0.8-5h1l-1.2,6.4h-1.2l-1.2-5.3l-1.2,5.3h-1.2l-1.1-6.5h1l0.8,5L50.9,134.8z"/>
		</g>
		<g>
			<path class="st1" d="M55.7,141.2v-6.4h1v6.4H55.7z"/>
		</g>
		<g>
			<path class="st1" d="M59.9,135.7v5.5h-1v-5.5h-1.6v-0.9h4.3v0.9H59.9z"/>
		</g>
		<g>
			<path class="st1" d="M65.6,141.2v-2.9H63v2.9h-1v-6.4h1v2.6h2.6v-2.6h1v6.4H65.6z"/>
		</g>
		<g>
			<path class="st1" d="M7.8,150.2h-1v-6.4H9c1.6,0,2.2,0.7,2.2,1.9c0.1,0.7-0.3,1.4-1,1.7l1.3,2.8h-1.2l-1.1-2.6H7.8V150.2z
				 M7.8,146.7h1.3c0.9,0,1-0.5,1-1s-0.1-1-1-1H7.8V146.7z"/>
		</g>
		<g>
			<path class="st1" d="M15.6,147.3h-2.7v2h2.9v0.9H12v-6.4h3.9v0.9h-3v1.8h2.6L15.6,147.3z"/>
		</g>
		<g>
			<path class="st1" d="M17.6,149.3h2.8v0.9h-3.7v-6.4h1V149.3z"/>
		</g>
		<g>
			<path class="st1" d="M24.5,147.3h-2.6v2h2.9v0.9h-3.9v-6.4h3.9v0.9h-2.9v1.8h2.6V147.3z"/>
		</g>
		<g>
			<path class="st1" d="M30.2,143.8l-2,6.4h-1l-2-6.4h1l1.5,5.2l1.5-5.2L30.2,143.8z"/>
		</g>
		<g>
			<path class="st1" d="M33.2,148.7h-2l-0.5,1.6h-1l2-6.4h1l2,6.4h-1L33.2,148.7z M32.2,145l-0.8,2.8H33L32.2,145z"/>
		</g>
		<g>
			<path class="st1" d="M38.8,150.2l-2.8-4.5v4.5h-1v-6.4H36l2.8,4.5v-4.5h0.9v6.4H38.8z"/>
		</g>
		<g>
			<path class="st1" d="M42.8,144.7v5.5h-1v-5.5h-1.6v-0.9h4.3v0.9H42.8z"/>
		</g>
		<g>
			<path class="st1" d="M50.5,148.3c0,1.2-0.7,2-2.4,2c-0.6,0-1.3-0.1-1.9-0.4V149c0.6,0.3,1.2,0.4,1.8,0.4c1.2,0,1.5-0.5,1.5-1.1
				s-0.3-0.9-1.2-1c-1.5-0.2-2.2-0.6-2.2-1.8c0-0.9,0.5-1.8,2.3-1.8c0.6,0,1.2,0.1,1.7,0.3v1c-0.5-0.2-1.1-0.3-1.7-0.3
				c-1,0-1.3,0.4-1.3,1c0,0.7,0.4,0.8,1.2,0.9C49.7,146.7,50.5,147,50.5,148.3z"/>
		</g>
		<g>
			<path class="st1" d="M52.6,147.4l-0.5,0.6v2.2h-1v-6.4h1v3l2.3-3h1.2l-2.3,2.8l2.6,3.6h-1.2L52.6,147.4z"/>
		</g>
		<g>
			<path class="st1" d="M56.3,150.2v-6.4h1v6.4H56.3z"/>
		</g>
		<g>
			<path class="st1" d="M59.3,149.3h2.8v0.9h-3.7v-6.4h1V149.3z"/>
		</g>
		<g>
			<path class="st1" d="M63.6,149.3h2.8v0.9h-3.7v-6.4h1V149.3z"/>
		</g>
		<g>
			<path class="st1" d="M71,148.3c0,1.2-0.7,2-2.4,2c-0.6,0-1.3-0.1-1.9-0.4V149c0.6,0.3,1.2,0.4,1.8,0.4c1.2,0,1.5-0.5,1.5-1.1
				s-0.3-0.9-1.2-1c-1.6-0.2-2.2-0.6-2.2-1.8c0-0.9,0.5-1.8,2.3-1.8c0.6,0,1.2,0.1,1.7,0.3v1c-0.5-0.2-1.1-0.3-1.7-0.3
				c-1,0-1.3,0.4-1.3,1c0,0.7,0.4,0.8,1.2,0.9C70.3,146.7,71,147,71,148.3z"/>
		</g>
		<g>
			<path class="st1" d="M76.7,147.4h-2.6v2.8h-1v-6.4H77v0.9h-2.8v1.8h2.6V147.4z"/>
		</g>
		<g>
			<path class="st1" d="M77.5,147c0-1.8,0.4-3.3,2.5-3.3s2.4,1.5,2.4,3.3s-0.4,3.3-2.4,3.3S77.5,148.8,77.5,147z M78.5,147
				c0,1.5,0.3,2.4,1.5,2.4s1.5-0.9,1.5-2.4s-0.3-2.4-1.5-2.4S78.5,145.5,78.5,147L78.5,147z"/>
		</g>
		<g>
			<path class="st1" d="M84.1,150.2h-1v-6.4h2.1c1.7,0,2.2,0.7,2.2,1.9c0.1,0.7-0.3,1.4-1,1.7l1.3,2.8h-1.1l-1.2-2.6h-1.3V150.2z
				 M84.1,146.7h1.3c0.9,0,1-0.5,1-1s-0.1-1-1-1h-1.3V146.7z"/>
		</g>
		<g>
			<path class="st1" d="M10.4,156.4H7.8v2.8h-1v-6.4h3.9v0.9H7.8v1.8h2.6V156.4z"/>
		</g>
		<g>
			<path class="st1" d="M11.4,159.2v-6.4h1v6.4H11.4z"/>
		</g>
		<g>
			<path class="st1" d="M17.2,159.2l-2.8-4.5v4.5h-0.9v-6.4h0.9l2.8,4.5v-4.5H18v6.4H17.2z"/>
		</g>
		<g>
			<path class="st1" d="M22.1,157.7H20l-0.5,1.6h-1l2-6.4h1l2,6.4h-1L22.1,157.7z M21.1,154l-0.8,2.8h1.6L21.1,154z"/>
		</g>
		<g>
			<path class="st1" d="M27.8,159.2l-2.8-4.5v4.5h-1v-6.4h1l2.8,4.5v-4.5h0.9v6.4L27.8,159.2z"/>
		</g>
		<g>
			<path class="st1" d="M32,152.7c0.5,0,1,0.1,1.5,0.3v0.9c-0.4-0.2-0.9-0.3-1.4-0.3c-1.2,0-1.7,0.8-1.7,2.4s0.5,2.4,1.7,2.4
				c0.5,0,1-0.1,1.4-0.3v0.9c-0.5,0.2-1,0.3-1.5,0.3c-1.9,0-2.6-1.2-2.6-3.3S30.1,152.7,32,152.7z"/>
		</g>
		<g>
			<path class="st1" d="M34.4,159.2v-6.4h1v6.4H34.4z"/>
		</g>
		<g>
			<path class="st1" d="M39.5,157.7h-2l-0.5,1.6h-1l2-6.4h1l2,6.4h-1L39.5,157.7z M38.5,154l-0.8,2.8h1.6L38.5,154z"/>
		</g>
		<g>
			<path class="st1" d="M42.5,158.3h2.8v0.9h-3.7v-6.4h1V158.3z"/>
		</g>
		<g>
			<path class="st1" d="M51.4,157.3c0,1.2-0.7,2-2.4,2c-0.6,0-1.3-0.1-1.9-0.4V158c0.6,0.3,1.2,0.4,1.8,0.4c1.2,0,1.5-0.5,1.5-1.1
				s-0.3-0.9-1.2-1c-1.5-0.2-2.2-0.6-2.2-1.8c0-0.9,0.5-1.8,2.3-1.8c0.6,0,1.2,0.1,1.7,0.3v1c-0.5-0.2-1.1-0.3-1.7-0.3
				c-1,0-1.3,0.4-1.3,1c0,0.7,0.4,0.8,1.2,0.9C50.7,155.7,51.4,156,51.4,157.3z"/>
		</g>
		<g>
			<path class="st1" d="M52,157.2v-4.4h1v4.3c0,0.8,0.6,1.4,1.4,1.4s1.4-0.6,1.4-1.4v-4.3h1v4.4c-0.1,1.3-1.2,2.2-2.5,2.1
				c-1.1-0.1-2-1-2.1-2.1H52z"/>
		</g>
		<g>
			<path class="st1" d="M60,152.7c0.5,0,1,0.1,1.5,0.3v0.9c-0.4-0.2-0.9-0.3-1.4-0.3c-1.2,0-1.7,0.8-1.7,2.4s0.5,2.4,1.7,2.4
				c0.5,0,1-0.1,1.4-0.3v0.9c-0.5,0.2-1,0.3-1.5,0.3c-1.9,0-2.6-1.2-2.6-3.3S58.1,152.7,60,152.7z"/>
		</g>
		<g>
			<path class="st1" d="M64.7,152.7c0.5,0,1,0.1,1.5,0.3v0.9c-0.5-0.2-0.9-0.3-1.4-0.3c-1.2,0-1.7,0.8-1.7,2.4s0.5,2.4,1.7,2.4
				c0.5,0,1-0.1,1.4-0.3v0.9c-0.5,0.2-1,0.3-1.5,0.3c-1.9,0-2.6-1.2-2.6-3.3S62.8,152.7,64.7,152.7z"/>
		</g>
		<g>
			<path class="st1" d="M70.7,156.3h-2.6v2H71v0.9h-3.9v-6.4H71v0.9h-2.9v1.8h2.6V156.3z"/>
		</g>
		<g>
			<path class="st1" d="M75.9,157.3c0,1.2-0.7,2-2.4,2c-0.6,0-1.3-0.1-1.9-0.4V158c0.6,0.3,1.2,0.4,1.8,0.4c1.1,0,1.5-0.5,1.5-1.1
				s-0.3-0.9-1.2-1c-1.6-0.2-2.2-0.6-2.2-1.8c0-0.9,0.5-1.8,2.3-1.8c0.6,0,1.2,0.1,1.7,0.3v1c-0.5-0.2-1.1-0.3-1.7-0.3
				c-1,0-1.3,0.4-1.3,1c0,0.7,0.4,0.8,1.2,0.9C75.1,155.7,75.9,156,75.9,157.3z"/>
		</g>
		<g>
			<path class="st1" d="M80.7,157.3c0,1.2-0.7,2-2.4,2c-0.6,0-1.3-0.1-1.9-0.4V158c0.6,0.3,1.2,0.4,1.8,0.4c1.2,0,1.5-0.5,1.5-1.1
				s-0.3-0.9-1.2-1c-1.6-0.2-2.2-0.6-2.2-1.8c0-0.9,0.5-1.8,2.3-1.8c0.6,0,1.2,0.1,1.7,0.3v1c-0.5-0.2-1.1-0.3-1.7-0.3
				c-1,0-1.3,0.4-1.3,1c0,0.7,0.4,0.8,1.2,0.9C79.9,155.7,80.7,156,80.7,157.3z"/>
		</g>
	</g>
	<g>
		<rect x="3.3" y="24" class="st1" width="94.8" height="94.8"/>
	</g>
	<g>
		<path class="st1" d="M98.2,20.7H3.3V3.3h94.8V20.7z M4.3,19.7h92.8V4.3H4.3L4.3,19.7z"/>
	</g>
	<g class="st2">
		<path class="st1" d="M6.7,6.9h4.5v1.4H9.9v8.8H8.1V8.3H6.7V6.9z"/>
	</g>
	<g class="st2">
		<path class="st1" d="M11.2,17.1l1.9-10.2h1.9L17,17.1h-1.8l-0.3-1.9h-1.8l-0.3,1.9H11.2z M13.3,13.9h1.4L14,9.8h0L13.3,13.9z"/>
	</g>
	<g class="st2">
		<path class="st1" d="M19.6,12.5v4.7h-1.7V6.9h2.5c1.7,0,2.4,0.9,2.4,2.3v1.3c0,1.1-0.4,1.7-1.4,2l1.6,4.6h-1.8L19.6,12.5z
			 M19.6,8.3v3.2h0.6c0.6,0,0.8-0.3,0.8-0.8V9.2c0-0.6-0.3-0.8-0.8-0.8H19.6z"/>
	</g>
	<g class="st2">
		<path class="st1" d="M26.4,11.7h2.4v5.4h-1.2V16c-0.2,0.8-0.7,1.2-1.6,1.2c-1.5,0-2.1-1.2-2.1-2.7V9.6c0-1.6,0.8-2.7,2.6-2.7
			c1.9,0,2.4,1.1,2.4,2.6v0.9h-1.6v-1c0-0.6-0.2-1-0.9-1c-0.6,0-0.9,0.4-0.9,1v5.5c0,0.6,0.3,1,0.8,1c0.6,0,0.8-0.3,0.8-1V13h-0.8
			V11.7z"/>
	</g>
	<g class="st2">
		<path class="st1" d="M30.2,6.9h4.1v1.4h-2.4v2.9h1.7v1.4h-1.7v3.1h2.4v1.4h-4.1V6.9z"/>
	</g>
	<g class="st2">
		<path class="st1" d="M35.1,6.9h4.5v1.4h-1.4v8.8h-1.7V8.3h-1.4V6.9z"/>
	</g>
	<g class="st2">
		<path class="st1" d="M78.5,14.4l3-7.5h1.7v7.2h0.7v1.3h-0.7v1.7h-1.6v-1.7h-3V14.4z M80,14.1h1.5V9.9h0L80,14.1z"/>
	</g>
	<g class="st2">
	</g>
	<g class="st2">
		<path class="st1" d="M86.6,10.8c0.7,0,1.2,0.6,1.2,1.2c0,0.7-0.6,1.2-1.2,1.2c-0.7,0-1.2-0.6-1.2-1.2C85.4,11.4,86,10.8,86.6,10.8
			z"/>
	</g>
	<g class="st2">
		<path class="st1" d="M89.1,14.4l3-7.5h1.7v7.2h0.7v1.3h-0.7v1.7h-1.6v-1.7h-3V14.4z M90.6,14.1h1.5V9.9h0L90.6,14.1z"/>
	</g>
	<g>
		<path class="st1" d="M98.2,162.9h-95v-40.7h95V162.9z M4.2,161.9h93v-38.7h-93V161.9z"/>
	</g>
	<g>
		<g>
			<g>
				<path class="st0" d="M71.2,91l-1.9-3.7v-0.1l-4.5-9c-0.4-0.8-1.3-1.3-2.2-1.2h-6.5L56,68.9c-0.1-2.4-0.6-3.9-2.5-4.4
					c-0.9-0.1-1.9-0.1-2.8,0l-0.2,0.1l0,0L42.8,67l-0.1,0.1l-0.2,0.1l-0.1,0.1c-0.4,0.2-0.7,0.6-0.8,1l-2.2,6.1
					c-0.4,1,0.2,2.1,1.2,2.5c1,0.4,2.1-0.2,2.5-1.2l1.9-5.2l2.9-0.9h0.1V78c0,1.9,0.6,3.9,2.5,4.4l0.6,0.2c0.3,0.1,0.7,0.1,1,0.1
					l0,0h9.6l2.5,4.9c0,0.1,0,0.1,0.1,0.2l0.9,1.8l0.9,1.7c0,0,0.1,0.1,0.1,0.1c0,0,0,0,0.1,0.1l1,1.8c0.6,1.2,2.1,1.6,3.3,1
					C71.4,93.6,71.9,92.2,71.2,91L71.2,91z"/>
			</g>
			<g>
				<path class="st0" d="M57.3,85.6c0,0.2,0,0.3,0,0.5c0,5.1-4.1,9.2-9.2,9.2c-5.1,0-9.2-4.1-9.2-9.2c0-2.1,0.7-4.1,2-5.7l-2.3-1.8
					c-4.1,5.3-3.2,12.9,2.1,17.1s12.9,3.2,17.1-2.1c1.7-2.1,2.6-4.8,2.6-7.5c0-0.2,0-0.3,0-0.5H57.3z"/>
			</g>
			<g>
				<path class="st0" d="M47.7,58.5c-0.2,2.5,1.6,4.7,4.1,4.9c2.5,0.2,4.7-1.6,4.9-4.1c0-0.3,0-0.6,0-0.8c0-0.3,0-0.7-0.1-1h-8.8
					C47.7,57.9,47.7,58.2,47.7,58.5z"/>
			</g>
			<g>
				<path class="st0" d="M57.2,55h-0.5c-0.4-1.3-1.2-2.3-2.4-2.9l-0.7,2.1v-3.1h-2.4v3.1l0,0L50.4,52c-1.4,0.5-2.4,1.7-2.8,3.1h-0.5
					v1.7h10L57.2,55z"/>
			</g>
		</g>
		<g>
			<g>
				<path class="st0" d="M35.1,72l-3.6-11.7c0,0-1.3-3.4-4.1-3.4h-1.6c0.1,0.1,0.2,0.3,0.3,0.5c0.2,0.4,0.4,0.8,0.5,1.3l0,0
					c0,0.1,0,0.2,0,0.4s0,0.1,0,0.2c0,0.3-0.1,0.6-0.1,0.8c0.4,0.3,0.6,0.8,0.6,1.4c0,1-0.8,1.8-1.8,1.8c-1,0-1.8-0.8-1.8-1.8
					c0-1,0.8-1.8,1.8-1.8c0.1,0,0.3,0,0.4,0c0.1-0.1,0.1-0.1,0.1-0.2l0,0c0-0.2,0-0.5,0-0.7c0-0.1,0-0.1,0-0.2c0,0,0-0.1,0-0.1
					c-0.1-0.2-0.2-0.4-0.3-0.6c-0.2-0.3-0.3-0.5-0.5-0.8l-2,2.7l-2.3-2.7c-0.6,1.1-0.9,2.3-0.8,3.5c0.1,0.5,0.4,1,0.8,1.4l0,0
					c0.1,0,0.3-0.1,0.4-0.1h0.2h0.3h0.2c0.6,0.2,1.2,0.6,1.6,1.1l0,0l0.3,0.3l-1,0.9l0,0l0,0L22,63.6l0.4-0.4
					c-0.4-0.3-0.8-0.6-1.3-0.6c-0.1,0-0.2,0-0.3,0h-0.1c-0.1,0-0.1,0.1-0.1,0.1l0,0c-0.4,0.4-0.3,1.2,0.2,1.9l0.5-0.4l0.5,0.6l0,0
					l-1.1,0.9l-0.2-0.2c-0.5-0.6-0.9-1.3-0.9-2.1c0-0.4,0.1-0.7,0.4-1c-0.5-0.6-0.8-1.3-0.8-2.1c-0.1-1.2,0.2-2.4,0.8-3.4
					c-0.1,0-0.2,0-0.3,0h-1.4c-2.9,0-4.1,3.4-4.1,3.4L10.4,72c0,0-0.6,2.2,1.2,2.7s2.4-1.6,2.4-1.6l2.9-9.8c0,0,0.2-0.8,0.7-0.6
					s0.4,1,0.4,1L12.9,82h4.7v13.2c0.1,1.2,1.2,2.2,2.4,2.1c1.1-0.1,2-1,2.1-2.1V82h1.3v13.2c0,1.2,1,2.3,2.3,2.3s2.3-1,2.3-2.3V82
					h4.7l-5.1-18.3c0,0-0.2-0.8,0.4-1s0.7,0.6,0.7,0.6l2.9,9.8c0,0,0.6,2.1,2.4,1.6S35.1,72,35.1,72z"/>
			</g>
			<g>
				<path class="st0" d="M25,60.4c-0.3,0.1-0.5,0.2-0.6,0.5c0,0.1-0.1,0.2-0.1,0.3c0,0,0,0,0,0c0,0.1,0,0.2,0,0.3l0,0
					c0.1,0.4,0.5,0.7,0.9,0.7c0.1,0,0.1,0,0.2,0c0.5-0.1,0.8-0.6,0.7-1.2c-0.1-0.4-0.5-0.7-0.9-0.8C25.1,60.4,25.1,60.4,25,60.4z"/>
			</g>
			<g>
				<path class="st0" d="M15.5,49.9c0.1-0.4,0.5-1,1.8-1.2c0.2,0,0.5-0.1,0.7-0.2c0.2-0.4,0.5-0.8,0.8-1.1c0-0.1,0-0.2,0-0.2
					c-0.1-0.6-0.7-1.3-2-0.7c-1.6,0.8-1.4,3.2-1.4,3.2C15.5,49.8,15.5,50,15.5,49.9z"/>
			</g>
			<g>
				<path class="st0" d="M27.3,48.5c0.2,0.1,0.5,0.2,0.8,0.3c1.3,0.2,1.7,0.8,1.9,1.2c0,0.1,0.1-0.1,0.1-0.3c0,0,0.2-2.4-1.5-3.2
					c-1.3-0.6-1.9,0.1-2,0.7c0,0.1,0,0.2,0,0.3C26.9,47.7,27.1,48.1,27.3,48.5z"/>
			</g>
			<g>
				<circle class="st0" cx="22.7" cy="51" r="4.5"/>
			</g>
		</g>
		<g>
			<g>
				<path class="st0" d="M75.4,95.1c0,1.3,1.1,2.4,2.4,2.4c1.3,0,2.4-1.1,2.4-2.4v-1.8h-4.8V95.1z"/>
			</g>
			<g>
				<path class="st0" d="M81.6,95.1c0.1,1.3,1.2,2.3,2.6,2.2c1.2-0.1,2.2-1,2.2-2.2v-1.8h-4.8V95.1z"/>
			</g>
			<g>
				<path class="st0" d="M76.6,61.7v-4.9h-0.4c-0.1,0-0.2,0-0.3,0c-3,0.3-5.2,2.8-5.2,5.7v12c0.1,0.9,0.9,1.6,1.8,1.5
					c0.8-0.1,1.5-0.7,1.5-1.5V64.3c0-0.4,0.1-0.9,0.8-0.9h1.8L76.6,61.7z"/>
			</g>
			<g>
				<polygon class="st0" points="78.4,60.6 83.6,60.6 83.6,56.8 80.9,56.8 78.4,56.8 				"/>
			</g>
			<g>
				<path class="st0" d="M84.8,64.4h-0.5v-2.7h-6.7v2.7h-2.2v27.7h4.8V77c0-0.4,0.2-0.7,0.6-0.7c0,0,0.1,0,0.1,0l0,0
					c0.4,0,0.7,0.2,0.7,0.6c0,0,0,0.1,0,0.1v15.1h4.8V64.4H84.8z"/>
			</g>
			<g>
				<path class="st0" d="M86,56.8c-0.1,0-0.2,0-0.3,0h-0.3v6.5H87c0.7,0,0.8,0.5,0.8,0.9v10.3c0.1,0.9,0.9,1.6,1.8,1.5
					c0.8-0.1,1.5-0.7,1.5-1.5v-12C91.2,59.6,88.9,57.2,86,56.8z"/>
			</g>
			<g>
				<path class="st0" d="M84,61c0,0.3,0.2,0.5,0.5,0.5S85,61.3,85,61s-0.2-0.5-0.5-0.5S84,60.7,84,61z"/>
			</g>
			<g>
				<path class="st0" d="M77,61c0,0.3,0.2,0.5,0.5,0.5c0.3,0,0.5-0.2,0.5-0.5c0-0.3-0.2-0.5-0.5-0.5c0,0,0,0,0,0
					C77.2,60.5,77,60.7,77,61z"/>
			</g>
			<g>
				<path class="st0" d="M83.8,50c-0.4-0.3-0.7-0.6-1.3-0.3c-0.4,0.2-0.6,0.3-1.1,0.6c-0.9,0.4-1.9,0.7-2.8,0.8
					c-0.7,0.1-1.5,0.2-2.2,0.2c0.2,2.5,2.4,4.3,4.9,4.1c2.1-0.2,3.8-1.8,4.1-4C84.8,50.9,84.3,50.4,83.8,50z"/>
			</g>
			<g>
				<path class="st0" d="M76.3,50.3c0.7,0,1.4-0.1,2.1-0.2c0.9-0.2,1.7-0.4,2.5-0.8c0.7-0.3,1.4-0.6,1.4-0.6
					c0.3-0.1,0.6-0.2,0.9-0.1c0.2,0.1,0.3,0.2,0.4,0.3l0.3,0.3c0,0,0.2,0.2,1.2,1c0.1,0.1,0.2,0.2,0.3,0.2s0.1-0.8,0.1-1.2
					C85.4,48,85,46.9,84.3,46c-0.2-0.3-0.6-0.5-1-0.4c-0.6,0.1-0.6-0.3-1-0.6c-1.3-0.5-2.8-0.2-3.9,0.6c-1.3,1.1-2.3,2.4-2.9,4
					C75.3,50,75.7,50.3,76.3,50.3z"/>
			</g>
		</g>
	</g>
</g>
</svg>
