<?xml version="1.0" encoding="utf-8"?>
<!-- Generator: Adobe Illustrator 22.0.1, SVG Export Plug-In . SVG Version: 6.00 Build 0)  -->
<svg version="1.1" id="Layer_1" xmlns="http://www.w3.org/2000/svg" xmlns:xlink="http://www.w3.org/1999/xlink" x="0px" y="0px"
	 viewBox="0 0 101.5 157.1" style="enable-background:new 0 0 101.5 157.1;" xml:space="preserve">
<style type="text/css">
	.st0{fill:#FFFFFF;}
	.st1{fill:#C5192D;}
	.st2{enable-background:new    ;}
</style>
<title>TARGET 1.2</title>
<g id="WHITE_BG">
	<g>
		<rect y="0" class="st0" width="101.5" height="157.1"/>
	</g>
</g>
<g id="TARGETS">
	<g>
		<g>
			<path class="st1" d="M10.5,129.3H7.8v2h2.9v0.9H6.9v-6.4h3.9v0.9H7.8v1.8h2.6V129.3z"/>
		</g>
		<g>
			<path class="st1" d="M14.9,132l2,0.4v1l-4-1.2c-1.3-0.4-1.6-1.6-1.6-3.2c0-1.9,0.4-3.3,2.5-3.3s2.4,1.4,2.4,3.3
				C16.2,130.5,16,131.6,14.9,132L14.9,132z M12.3,129c0,1.5,0.3,2.4,1.5,2.4s1.5-0.9,1.5-2.4s-0.3-2.4-1.5-2.4S12.3,127.5,12.3,129
				z"/>
		</g>
		<g>
			<path class="st1" d="M17,130.2v-4.4h1v4.3c-0.1,0.7,0.4,1.2,1,1.3c0.1,0,0.2,0,0.3,0c0.6,0.1,1.2-0.3,1.4-1c0-0.1,0-0.2,0-0.3
				v-4.3h1v4.4c0,1.1-0.8,2.1-2,2.1c-0.1,0-0.2,0-0.3,0c-1.1,0.2-2.2-0.6-2.3-1.7C17,130.5,17,130.3,17,130.2z"/>
		</g>
		<g>
			<path class="st1" d="M25.4,130.6h-2l-0.5,1.6h-1l2-6.4h1l2,6.4h-1L25.4,130.6z M24.4,127l-0.8,2.8h1.6L24.4,127z"/>
		</g>
		<g>
			<path class="st1" d="M28.4,131.3h2.8v0.9h-3.7v-6.4h1L28.4,131.3z"/>
		</g>
		<g>
			<path class="st1" d="M36.4,130.6h-2l-0.5,1.6h-1l2-6.4h1l2,6.4h-1L36.4,130.6z M35.4,127l-0.8,2.8h1.6L35.4,127z"/>
		</g>
		<g>
			<path class="st1" d="M40.7,125.7c0.5,0,1,0.1,1.5,0.3v0.9c-0.5-0.2-0.9-0.3-1.4-0.3c-1.2,0-1.7,0.8-1.7,2.4
				c0,1.6,0.5,2.4,1.7,2.4c0.5,0,1-0.1,1.4-0.3v0.9c-0.5,0.2-1,0.3-1.5,0.3c-1.9,0-2.6-1.2-2.6-3.3S38.8,125.7,40.7,125.7z"/>
		</g>
		<g>
			<path class="st1" d="M45.5,125.7c0.5,0,1,0.1,1.5,0.3v0.9c-0.5-0.2-0.9-0.3-1.4-0.3c-1.2,0-1.7,0.8-1.7,2.4
				c0,1.6,0.5,2.4,1.7,2.4c0.5,0,1-0.1,1.4-0.3v0.9c-0.5,0.2-1,0.3-1.5,0.3c-1.9,0-2.6-1.2-2.6-3.3S43.6,125.7,45.5,125.7z"/>
		</g>
		<g>
			<path class="st1" d="M51.4,129.3h-2.7v2h2.9v0.9h-3.9v-6.4h3.9v0.9h-2.9v1.8h2.7V129.3z"/>
		</g>
		<g>
			<path class="st1" d="M56.6,130.3c0,1.2-0.7,2-2.4,2c-0.6,0-1.3-0.1-1.9-0.4v-1c0.6,0.3,1.2,0.4,1.8,0.4c1.2,0,1.5-0.5,1.5-1.1
				s-0.3-0.9-1.2-1c-1.5-0.2-2.2-0.6-2.2-1.8c0-0.9,0.5-1.8,2.3-1.8c0.6,0,1.2,0.1,1.7,0.3v1c-0.5-0.2-1.1-0.3-1.7-0.3
				c-1,0-1.3,0.4-1.3,1c0,0.7,0.4,0.8,1.2,0.9C55.8,128.7,56.6,129,56.6,130.3z"/>
		</g>
		<g>
			<path class="st1" d="M61.4,130.3c0,1.2-0.7,2-2.4,2c-0.6,0-1.3-0.1-1.9-0.4v-1c0.6,0.3,1.2,0.4,1.8,0.4c1.1,0,1.5-0.5,1.5-1.1
				s-0.3-0.9-1.2-1c-1.6-0.2-2.2-0.6-2.2-1.8c0-0.9,0.5-1.8,2.3-1.8c0.6,0,1.2,0.1,1.7,0.3v1c-0.5-0.2-1.1-0.3-1.7-0.3
				c-1,0-1.3,0.4-1.3,1c0,0.7,0.4,0.8,1.2,0.9C60.6,128.7,61.4,129,61.4,130.3z"/>
		</g>
		<g>
			<path class="st1" d="M65.6,126.7v5.5h-1v-5.5H63v-0.9h4.3v0.9L65.6,126.7z"/>
		</g>
		<g>
			<path class="st1" d="M67.5,129c0-1.8,0.4-3.3,2.4-3.3s2.5,1.5,2.5,3.3s-0.4,3.3-2.4,3.3S67.5,130.8,67.5,129z M68.5,129
				c0,1.5,0.3,2.4,1.5,2.4s1.5-0.9,1.5-2.4s-0.3-2.4-1.5-2.4S68.5,127.5,68.5,129L68.5,129z"/>
		</g>
		<g>
			<path class="st1" d="M10.4,141l2,0.4v1l-4-1.2c-1.3-0.4-1.6-1.6-1.6-3.2c0-1.9,0.4-3.3,2.5-3.3s2.5,1.4,2.5,3.3
				C11.7,139.5,11.5,140.6,10.4,141L10.4,141z M7.8,138c0,1.5,0.3,2.4,1.5,2.4s1.5-0.9,1.5-2.4s-0.3-2.4-1.5-2.4S7.8,136.5,7.8,138z
				"/>
		</g>
		<g>
			<path class="st1" d="M12.4,139.2v-4.4h1v4.3c-0.1,0.6,0.4,1.2,1,1.3c0.1,0,0.2,0,0.3,0c0.6,0.1,1.3-0.3,1.4-1c0-0.1,0-0.2,0-0.3
				v-4.3H17v4.4c0,1.1-0.8,2.1-2,2.1c-0.1,0-0.2,0-0.3,0c-1.1,0.1-2.1-0.7-2.3-1.8C12.4,139.4,12.4,139.3,12.4,139.2z"/>
		</g>
		<g>
			<path class="st1" d="M20.9,139.6h-2l-0.5,1.6h-1l2-6.4h1l2,6.4h-1L20.9,139.6z M19.9,136l-0.9,2.8h1.6L19.9,136z"/>
		</g>
		<g>
			<path class="st1" d="M23.8,140.3h2.8v0.9h-3.7v-6.4h1V140.3z"/>
		</g>
		<g>
			<path class="st1" d="M27.3,141.2v-6.4h1v6.4H27.3z"/>
		</g>
		<g>
			<path class="st1" d="M31.6,135.7v5.5h-1v-5.5H29v-0.9h4.3v0.9H31.6z"/>
		</g>
		<g>
			<path class="st1" d="M36.6,138.6v2.6h-1v-2.6l-2.2-3.8h1.1l1.6,3l1.6-3h1.1L36.6,138.6z"/>
		</g>
		<g>
			<path class="st1" d="M41.6,141.2h-1v-6.4h2c1.6,0,2.2,1,2.2,2s-0.6,2-2.2,2h-1.1L41.6,141.2z M41.6,137.9h1.1
				c0.6,0,1.1-0.5,1.1-1.1c0-0.6-0.5-1.1-1.1-1.1h-1.1V137.9z"/>
		</g>
		<g>
			<path class="st1" d="M46.4,141.2h-1v-6.4h2.1c1.7,0,2.2,0.7,2.2,1.9c0.1,0.7-0.3,1.4-1,1.7l1.3,2.8h-1.1l-1.2-2.6h-1.3V141.2z
				 M46.4,137.7h1.2c0.9,0,1-0.5,1-1s-0.1-1-1-1h-1.2V137.7z"/>
		</g>
		<g>
			<path class="st1" d="M54.2,138.3h-2.7v2h2.9v0.9h-3.9v-6.4h3.9v0.9h-2.9v1.8h2.7V138.3z"/>
		</g>
		<g>
			<path class="st1" d="M57.1,138.4H55v-0.9h2.2L57.1,138.4z"/>
		</g>
		<g>
			<path class="st1" d="M58.7,141.2h-1v-6.4h2c1.6,0,2.2,1,2.2,2s-0.6,2-2.2,2h-1.1L58.7,141.2z M58.7,137.9h1.1
				c0.6,0,1.1-0.5,1.1-1.1c0-0.6-0.5-1.1-1.1-1.1h-1.1V137.9z"/>
		</g>
		<g>
			<path class="st1" d="M63.5,141.2h-1v-6.4h2.1c1.7,0,2.2,0.7,2.2,1.9c0.1,0.7-0.3,1.4-1,1.7l1.3,2.8H66l-1.2-2.6h-1.3V141.2z
				 M63.5,137.7h1.3c0.9,0,1-0.5,1-1s-0.1-1-1-1h-1.3V137.7z"/>
		</g>
		<g>
			<path class="st1" d="M67.9,141.2v-6.4h1v6.4H67.9z"/>
		</g>
		<g>
			<path class="st1" d="M73.3,140.3h-0.9l-1.6-3.9v4.8h-1v-6.4h1.2l1.7,4.4l1.7-4.4h1.2v6.4h-1v-4.8L73.3,140.3z"/>
		</g>
		<g>
			<path class="st1" d="M80.1,139.6H78l-0.4,1.6h-1l2-6.4h1l2,6.4h-1L80.1,139.6z M79.1,136l-0.8,2.8h1.6L79.1,136z"/>
		</g>
		<g>
			<path class="st1" d="M83,141.2h-1v-6.4h2.1c1.7,0,2.2,0.7,2.2,1.9c0.1,0.7-0.3,1.4-1,1.7l1.3,2.8h-1.1l-1.2-2.6H83V141.2z
				 M83,137.7h1.3c0.9,0,1-0.5,1-1s-0.1-1-1-1H83V137.7z"/>
		</g>
		<g>
			<path class="st1" d="M89.6,138.6v2.6h-1v-2.6l-2.2-3.8h1.1l1.6,3l1.6-3h1.1L89.6,138.6z"/>
		</g>
		<g>
			<path class="st1" d="M10.5,147.3H7.8v2h2.9v0.9H6.9v-6.4h3.9v0.9H7.8v1.8h2.6V147.3z"/>
		</g>
		<g>
			<path class="st1" d="M11.6,150.2v-6.4h1.9c2.1,0,2.7,1.4,2.7,3.2s-0.6,3.2-2.7,3.2H11.6z M12.6,149.3h1c1.3,0,1.7-0.9,1.7-2.3
				s-0.4-2.3-1.7-2.3h-1V149.3z"/>
		</g>
		<g>
			<path class="st1" d="M16.9,148.2v-4.4h1v4.3c-0.1,0.6,0.4,1.2,1,1.3c0.1,0,0.2,0,0.3,0c0.6,0.1,1.2-0.3,1.4-1c0-0.1,0-0.2,0-0.3
				v-4.3h1v4.4c0.1,1.1-0.8,2.1-1.9,2.1c-0.2,0-0.3,0-0.4,0c-1.1,0.2-2.1-0.6-2.3-1.7C16.9,148.5,16.9,148.4,16.9,148.2z"/>
		</g>
		<g>
			<path class="st1" d="M24.8,143.7c0.5,0,1,0.1,1.5,0.3v0.9c-0.5-0.2-0.9-0.3-1.4-0.3c-1.2,0-1.7,0.8-1.7,2.4s0.5,2.4,1.7,2.4
				c0.5,0,1-0.1,1.4-0.3v0.9c-0.5,0.2-1,0.3-1.5,0.3c-1.9,0-2.6-1.2-2.6-3.3S22.9,143.7,24.8,143.7z"/>
		</g>
		<g>
			<path class="st1" d="M30.2,148.6h-2l-0.5,1.6h-1l2-6.4h1l2,6.4h-1L30.2,148.6z M29.2,145l-0.8,2.8H30L29.2,145z"/>
		</g>
		<g>
			<path class="st1" d="M33.8,144.7v5.5h-1v-5.5h-1.6v-0.9h4.3v0.9H33.8z"/>
		</g>
		<g>
			<path class="st1" d="M36.3,150.2v-6.4h1v6.4H36.3z"/>
		</g>
		<g>
			<path class="st1" d="M38.3,147c0-1.8,0.4-3.3,2.5-3.3s2.5,1.5,2.5,3.3s-0.4,3.3-2.5,3.3S38.3,148.8,38.3,147z M39.3,147
				c0,1.5,0.3,2.4,1.5,2.4s1.5-0.9,1.5-2.4s-0.3-2.4-1.5-2.4S39.3,145.5,39.3,147L39.3,147z"/>
		</g>
		<g>
			<path class="st1" d="M47.7,150.2l-2.8-4.5v4.5H44v-6.4h0.9l2.8,4.5v-4.5h0.9v6.4H47.7z"/>
		</g>
	</g>
	<g>
		<rect x="3.3" y="24" class="st1" width="94.8" height="94.8"/>
	</g>
	<g>
		<path class="st1" d="M98.2,20.7H3.3V3.3h94.8V20.7z M4.3,19.7h92.8V4.3H4.3L4.3,19.7z"/>
	</g>
	<g class="st2">
		<path class="st1" d="M6.7,6.9h4.5v1.4H9.9v8.8H8.1V8.3H6.7V6.9z"/>
	</g>
	<g class="st2">
		<path class="st1" d="M11.2,17.1l1.9-10.2h1.9L17,17.1h-1.8l-0.3-1.9h-1.8l-0.3,1.9H11.2z M13.3,13.9h1.4L14,9.8h0L13.3,13.9z"/>
	</g>
	<g class="st2">
		<path class="st1" d="M19.6,12.4v4.7h-1.7V6.9h2.5c1.7,0,2.4,0.9,2.4,2.3v1.3c0,1.1-0.4,1.7-1.4,2l1.6,4.6h-1.8L19.6,12.4z
			 M19.6,8.3v3.2h0.6c0.6,0,0.8-0.3,0.8-0.8V9.2c0-0.6-0.3-0.8-0.8-0.8H19.6z"/>
	</g>
	<g class="st2">
		<path class="st1" d="M26.4,11.7h2.4v5.4h-1.2V16c-0.2,0.8-0.7,1.2-1.6,1.2c-1.5,0-2.1-1.2-2.1-2.7V9.6c0-1.6,0.8-2.7,2.6-2.7
			c1.9,0,2.4,1.1,2.4,2.6v0.9h-1.6v-1c0-0.6-0.2-1-0.9-1c-0.6,0-0.9,0.4-0.9,1v5.5c0,0.6,0.3,1,0.8,1c0.6,0,0.8-0.3,0.8-1V13h-0.8
			V11.7z"/>
	</g>
	<g class="st2">
		<path class="st1" d="M30.2,6.9h4.1v1.4h-2.4v2.9h1.7v1.4h-1.7v3.1h2.4v1.4h-4.1V6.9z"/>
	</g>
	<g class="st2">
		<path class="st1" d="M35.1,6.9h4.5v1.4h-1.4v8.8h-1.7V8.3h-1.4V6.9z"/>
	</g>
	<g class="st2">
		<path class="st1" d="M79,14.4l3-7.5h1.7v7.2h0.7v1.3h-0.7v1.7H82v-1.7h-3V14.4z M80.5,14.1H82V9.9h0L80.5,14.1z"/>
	</g>
	<g class="st2">
	</g>
	<g class="st2">
		<path class="st1" d="M87.1,10.8c0.7,0,1.2,0.6,1.2,1.2c0,0.7-0.6,1.2-1.2,1.2c-0.7,0-1.2-0.6-1.2-1.2
			C85.8,11.4,86.4,10.8,87.1,10.8z"/>
	</g>
	<g class="st2">
		<path class="st1" d="M89.8,15.2c0-1,0.3-1.7,1.3-2.7l1-1c0.6-0.6,0.6-0.9,0.6-1.8V9c0-0.6-0.3-0.8-0.6-0.8c-0.4,0-0.7,0.2-0.7,0.8
			v1.3h-1.6V9c0-1.4,0.8-2.2,2.3-2.2c1.5,0,2.2,0.7,2.2,2.1v1c0,1-0.2,1.6-1.1,2.6l-1.1,1.2c-0.4,0.5-0.7,0.8-0.7,1.6v0.5h2.8v1.4
			h-4.4V15.2z"/>
	</g>
	<g>
		<path class="st1" d="M98.2,153.8H3.3v-31.6h94.8V153.8z M4.3,152.8h92.8v-29.6H4.3L4.3,152.8z"/>
	</g>
	<g>
		<g>
			<g>
				<path class="st0" d="M39.4,93.9h10.9V83H39.4V93.9z M42.5,85.2h2.3c1.7,0,2.1,0.8,2.1,1.8c0,0.5-0.3,1-0.7,1.2
					c0.6,0.2,0.9,0.8,0.9,1.4c0,1.1-0.5,2-2.3,2h-2.4V85.2z"/>
			</g>
			<g>
				<path class="st0" d="M45.5,87c0.1-0.3-0.2-0.6-0.5-0.7c-0.1,0-0.1,0-0.2,0h-0.9v1.4h0.9c0.3,0,0.6-0.2,0.7-0.6
					C45.5,87.1,45.5,87.1,45.5,87z"/>
			</g>
			<g>
				<path class="st0" d="M45.7,89.7c0.1-0.4-0.2-0.7-0.6-0.8c-0.1,0-0.1,0-0.2,0h-1v1.6h1c0.4,0,0.8-0.2,0.8-0.6
					C45.7,89.8,45.7,89.7,45.7,89.7z"/>
			</g>
			<g>
				<path class="st0" d="M51.7,83v10.9h10.9V83H51.7z M59.3,86.6c-0.4-0.2-0.8-0.3-1.2-0.2c-1.1,0-1.5,0.4-1.5,2.1s0.5,2.1,1.5,2.1
					c0.4,0,0.8-0.1,1.2-0.2v1.3c-0.4,0.2-0.9,0.3-1.4,0.2c-1.9,0-2.8-0.9-2.8-3.4S56,85,57.9,85c0.5,0,0.9,0.1,1.4,0.2V86.6z"/>
			</g>
			<g>
				<polygon class="st0" points="50.5,77 51.6,77 51,74.5 				"/>
			</g>
			<g>
				<path class="st0" d="M56.5,70.7H45.6v10.9h10.9V70.7z M52.1,79.4l-0.3-1.3h-1.7l-0.3,1.3h-1.5l1.8-6.6h1.6l1.8,6.6H52.1z"/>
			</g>
		</g>
		<g>
			<g>
				<path class="st0" d="M77,59.9c3,0,5.4-2.4,5.4-5.4c0-3-2.4-5.4-5.4-5.4c-3,0-5.4,2.4-5.4,5.4C71.6,57.4,74,59.9,77,59.9
					C77,59.9,77,59.9,77,59.9z"/>
			</g>
			<g>
				<path class="st0" d="M90,75.6c0-0.2-1.6-4.1-2.1-5.3c-3.3-8.4-3.8-8.3-6.8-8.4h-8.3c-3,0.1-3.5,0-6.8,8.4
					c-0.5,1.2-2.4,5.9-2.4,6.1c0,0-0.8,2,1,2.6c1.6,0.6,2.3-1.4,2.3-1.4l3.3-8.2c0,0,0.1-0.2,0.2-0.2s0.1,0.2,0.1,0.3V91l0,0
					c-0.1,1.5,1.1,2.8,2.7,2.9c0,0,0.1,0,0.1,0c1.5,0,2.8-1.2,2.8-2.8c0-0.1,0-0.1,0-0.2v-8.6c0,0-0.1-1.3,0.8-1.3s0.8,1.3,0.8,1.3
					V91c-0.1,1.6,1.2,2.9,2.7,2.9c0,0,0.1,0,0.1,0c1.5,0,2.7-1.3,2.7-2.8c0,0,0-0.1,0-0.1l0,0V69.6c0-0.2,0.1-0.2,0.1-0.3
					s0.2,0.2,0.2,0.2l3,7.4c0,0,0.9,2,2.5,1.2S90,75.6,90,75.6z"/>
			</g>
		</g>
		<g>
			<g>
				<path class="st0" d="M37.5,77.3l-4-11.8c-0.6-1.4-1.7-2.4-3.2-2.8c-0.9-0.1-1.7-0.2-2.6-0.1h-6.6c0,0-1.7,0-2.6,0.1
					c-2.3,0.3-3.1,2.8-3.1,2.8l-4,11.8c0,0-0.6,1.9,1.1,2.4c1,0.2,2-0.4,2.3-1.4l3.3-10.2c0,0,0.1-0.7,0.7-0.5s0.3,0.8,0.3,0.8
					l-0.2,0.9l-3.4,12.3l-0.2,0.6h2.9v8.8c0,1.5,1.2,2.7,2.7,2.7l0,0l0,0c1.5,0,2.7-1.2,2.7-2.7v-8.5c0-0.1,0-0.2,0-0.3h1.6
					c0,0.1,0,0.2,0,0.3v8.5c0,1.5,1.2,2.7,2.7,2.7c0,0,0,0,0,0l0,0c1.5,0,2.7-1.2,2.7-2.7l0,0v-8.8h2.9l-0.2-0.6L30,69.4l-0.2-0.9
					c0,0-0.2-0.7,0.3-0.8s0.7,0.5,0.7,0.5l3.3,10.2c0.2,1,1.3,1.6,2.3,1.4C38.1,79.2,37.5,77.3,37.5,77.3z"/>
			</g>
			<g>
				<path class="st0" d="M25.2,60.1c3,0,5.5-2.5,5.5-5.5c0-3-2.5-5.5-5.5-5.5s-5.5,2.5-5.5,5.5c0,0,0,0,0,0
					C19.7,57.6,22.1,60.1,25.2,60.1z"/>
			</g>
		</g>
	</g>
</g>
</svg>
