<?xml version="1.0" encoding="utf-8"?>
<!-- Generator: Adobe Illustrator 22.0.1, SVG Export Plug-In . SVG Version: 6.00 Build 0)  -->
<svg version="1.1" id="Layer_1" xmlns="http://www.w3.org/2000/svg" xmlns:xlink="http://www.w3.org/1999/xlink" x="0px" y="0px"
	 viewBox="0 0 101.5 157.1" style="enable-background:new 0 0 101.5 157.1;" xml:space="preserve">
<style type="text/css">
	.st0{fill:#FFFFFF;}
	.st1{fill:#C5192D;}
	.st2{enable-background:new    ;}
</style>
<title>TARGET 1.1</title>
<g id="WHITE_BG">
	<g>
		<rect y="0" class="st0" width="101.5" height="157.1"/>
	</g>
</g>
<g id="TARGETS">
	<g>
		<g>
			<path class="st1" d="M10.4,129.4H7.8v2.8h-1v-6.4h3.9v0.9H7.8v1.8h2.6V129.4z"/>
		</g>
		<g>
			<path class="st1" d="M12.2,132.2h-0.9v-6.4h2.1c1.6,0,2.2,0.7,2.2,1.9c0.1,0.7-0.3,1.4-1,1.7l1.3,2.8h-1.2l-1.1-2.6h-1.3V132.2z
				 M12.2,128.7h1.3c0.9,0,1-0.5,1-1s-0.1-1-1-1h-1.3V128.7z"/>
		</g>
		<g>
			<path class="st1" d="M20,129.3h-2.7v2h2.9v0.9h-3.9v-6.4h3.9v0.9h-2.9v1.8H20V129.3z"/>
		</g>
		<g>
			<path class="st1" d="M24.7,129.3H22v2h3v0.9h-3.9v-6.4H25v0.9h-3v1.8h2.6L24.7,129.3z"/>
		</g>
		<g>
			<path class="st1" d="M28.1,132.2h-1v-6.4h2c1.6,0,2.2,1,2.2,2c0,1-0.6,2-2.2,2h-1.1L28.1,132.2z M28.1,128.9h1.1
				c0.6,0,1.1-0.5,1.1-1.1c0-0.6-0.5-1.1-1.1-1.1c0,0,0,0,0,0h-1.1V128.9z"/>
		</g>
		<g>
			<path class="st1" d="M33,132.2h-1v-6.4h2.1c1.7,0,2.2,0.7,2.2,1.9c0.1,0.7-0.3,1.4-1,1.7l1.3,2.8h-1.1l-1.2-2.6H33V132.2z
				 M33,128.7h1.3c0.9,0,1-0.5,1-1s-0.1-1-1-1H33V128.7z"/>
		</g>
		<g>
			<path class="st1" d="M37.3,132.2v-6.4h1v6.4H37.3z"/>
		</g>
		<g>
			<path class="st1" d="M42.8,131.3h-0.9l-1.6-3.9v4.8h-1v-6.4h1.3l1.7,4.3l1.7-4.3h1.2v6.4h-1v-4.8L42.8,131.3z"/>
		</g>
		<g>
			<path class="st1" d="M49.3,130.6h-2l-0.5,1.6h-1l2-6.4h1l2,6.4h-1L49.3,130.6z M48.3,127l-0.8,2.8h1.6L48.3,127z"/>
		</g>
		<g>
			<path class="st1" d="M52.3,132.2h-1v-6.4h2.1c1.7,0,2.2,0.7,2.2,1.9c0.1,0.7-0.3,1.4-1,1.7l1.3,2.8h-1.2l-1.2-2.6h-1.3V132.2z
				 M52.3,128.7h1.3c0.9,0,1-0.5,1-1s-0.1-1-1-1h-1.3V128.7z"/>
		</g>
		<g>
			<path class="st1" d="M58.9,129.6v2.6h-1v-2.6l-2.2-3.8h1.1l1.6,3l1.6-3H61L58.9,129.6z"/>
		</g>
		<g>
			<path class="st1" d="M66.1,130.6H64l-0.5,1.6h-1l2-6.4h1l2,6.4h-1L66.1,130.6z M65.1,127l-0.8,2.8h1.6L65.1,127z"/>
		</g>
		<g>
			<path class="st1" d="M71.8,132.2l-2.8-4.5v4.5h-0.9v-6.4H69l2.8,4.5v-4.5h1v6.4H71.8z"/>
		</g>
		<g>
			<path class="st1" d="M73.6,132.2v-6.4h1.9c2.1,0,2.7,1.4,2.7,3.2s-0.6,3.2-2.7,3.2H73.6z M74.6,131.3h1c1.3,0,1.7-0.9,1.7-2.3
				s-0.4-2.3-1.7-2.3h-1V131.3z"/>
		</g>
		<g>
			<path class="st1" d="M11.1,139.3c0,1.2-0.7,2-2.4,2c-0.6,0-1.3-0.1-1.9-0.3v-1c0.6,0.3,1.2,0.4,1.8,0.4c1.1,0,1.5-0.5,1.5-1.1
				s-0.3-0.9-1.2-1c-1.6-0.2-2.2-0.6-2.2-1.8c0-0.9,0.5-1.9,2.3-1.9c0.6,0,1.2,0.1,1.7,0.3v1c-0.5-0.2-1.1-0.3-1.7-0.3
				c-1,0-1.3,0.4-1.3,1s0.4,0.8,1.2,0.9C10.3,137.7,11.1,138,11.1,139.3z"/>
		</g>
		<g>
			<path class="st1" d="M15.5,138.3h-2.7v2h2.9v0.9h-3.9v-6.4h3.9v0.9h-2.9v1.8h2.7V138.3z"/>
		</g>
		<g>
			<path class="st1" d="M19,134.7c0.5,0,1,0.1,1.5,0.3v0.9c-0.5-0.2-0.9-0.3-1.4-0.3c-1.2,0-1.7,0.8-1.7,2.4s0.5,2.4,1.7,2.4
				c0.5,0,1-0.1,1.4-0.3v0.9c-0.5,0.2-1,0.3-1.5,0.3c-1.9,0-2.6-1.2-2.6-3.3S17.1,134.7,19,134.7z"/>
		</g>
		<g>
			<path class="st1" d="M21.1,138c0-1.8,0.4-3.3,2.5-3.3s2.5,1.5,2.5,3.3s-0.4,3.3-2.5,3.3S21.1,139.8,21.1,138z M22.1,138
				c0,1.5,0.3,2.4,1.5,2.4s1.5-0.9,1.5-2.4s-0.3-2.4-1.5-2.4S22.1,136.5,22.1,138L22.1,138z"/>
		</g>
		<g>
			<path class="st1" d="M30.5,141.2l-2.8-4.5v4.5h-0.9v-6.4h0.9l2.8,4.5v-4.5h0.9v6.4H30.5z"/>
		</g>
		<g>
			<path class="st1" d="M32.3,141.2v-6.4h1.9c2.1,0,2.7,1.4,2.7,3.2s-0.6,3.2-2.7,3.2H32.3z M33.3,140.3h1c1.3,0,1.7-0.9,1.7-2.3
				s-0.4-2.3-1.7-2.3h-1V140.3z"/>
		</g>
		<g>
			<path class="st1" d="M40.6,139.6h-2l-0.5,1.6h-1l2-6.4h1l2,6.4H41L40.6,139.6z M39.6,136l-0.8,2.8h1.6L39.6,136z"/>
		</g>
		<g>
			<path class="st1" d="M43.5,141.2h-1v-6.4h2.1c1.7,0,2.2,0.7,2.2,1.9c0.1,0.7-0.3,1.4-1,1.7l1.3,2.8H46l-1.2-2.6h-1.3V141.2z
				 M43.5,137.7h1.3c0.9,0,1-0.5,1-1s-0.1-1-1-1h-1.3V137.7z"/>
		</g>
		<g>
			<path class="st1" d="M50.1,138.6v2.6h-1v-2.6l-2.1-3.8h1.1l1.6,3l1.6-3h1.1L50.1,138.6z"/>
		</g>
		<g>
			<path class="st1" d="M10.5,147.3H7.8v2h2.9v0.9H6.9v-6.4h3.9v0.9H7.8v1.8h2.6V147.3z"/>
		</g>
		<g>
			<path class="st1" d="M11.6,150.2v-6.4h1.9c2.1,0,2.7,1.4,2.7,3.2s-0.6,3.2-2.7,3.2H11.6z M12.6,149.3h1c1.3,0,1.7-0.9,1.7-2.3
				s-0.4-2.3-1.7-2.3h-1V149.3z"/>
		</g>
		<g>
			<path class="st1" d="M16.9,148.2v-4.4h1v4.3c-0.1,0.6,0.4,1.2,1,1.3c0.1,0,0.2,0,0.3,0c0.6,0.1,1.2-0.3,1.4-1c0-0.1,0-0.2,0-0.3
				v-4.3h1v4.4c0.1,1.1-0.8,2.1-1.9,2.1c-0.2,0-0.3,0-0.4,0c-1.1,0.2-2.1-0.6-2.3-1.7C16.9,148.5,16.9,148.4,16.9,148.2z"/>
		</g>
		<g>
			<path class="st1" d="M24.8,143.7c0.5,0,1,0.1,1.5,0.3v0.9c-0.5-0.2-0.9-0.3-1.4-0.3c-1.2,0-1.7,0.8-1.7,2.4s0.5,2.4,1.7,2.4
				c0.5,0,1-0.1,1.4-0.3v0.9c-0.5,0.2-1,0.3-1.5,0.3c-1.9,0-2.6-1.2-2.6-3.3S22.9,143.7,24.8,143.7z"/>
		</g>
		<g>
			<path class="st1" d="M30.2,148.6h-2l-0.5,1.6h-1l2-6.4h1l2,6.4h-1L30.2,148.6z M29.2,145l-0.8,2.8H30L29.2,145z"/>
		</g>
		<g>
			<path class="st1" d="M33.8,144.7v5.5h-1v-5.5h-1.6v-0.9h4.3v0.9H33.8z"/>
		</g>
		<g>
			<path class="st1" d="M36.3,150.2v-6.4h1v6.4H36.3z"/>
		</g>
		<g>
			<path class="st1" d="M38.2,147c0-1.8,0.4-3.3,2.5-3.3s2.5,1.5,2.5,3.3s-0.4,3.3-2.5,3.3S38.2,148.8,38.2,147z M39.2,147
				c0,1.5,0.3,2.4,1.5,2.4s1.5-0.9,1.5-2.4s-0.3-2.4-1.5-2.4S39.2,145.5,39.2,147L39.2,147z"/>
		</g>
		<g>
			<path class="st1" d="M47.6,150.2l-2.8-4.5v4.5h-0.9v-6.4h0.9l2.8,4.5v-4.5h0.9v6.4H47.6z"/>
		</g>
	</g>
	<g>
		<rect x="3.3" y="24" class="st1" width="94.8" height="94.8"/>
	</g>
	<g>
		<path class="st1" d="M98.2,20.7H3.3V3.3h94.8V20.7z M4.3,19.7h92.8V4.3H4.3L4.3,19.7z"/>
	</g>
	<g class="st2">
		<path class="st1" d="M6.7,6.9h4.5v1.4H9.9v8.8H8.1V8.3H6.7V6.9z"/>
	</g>
	<g class="st2">
		<path class="st1" d="M11.2,17.1l1.9-10.2h1.9L17,17.1h-1.8l-0.3-1.9h-1.8l-0.3,1.9H11.2z M13.3,13.9h1.4L14,9.8h0L13.3,13.9z"/>
	</g>
	<g class="st2">
		<path class="st1" d="M19.6,12.4v4.7h-1.7V6.9h2.5c1.7,0,2.4,0.9,2.4,2.3v1.3c0,1.1-0.4,1.7-1.4,2l1.6,4.6h-1.8L19.6,12.4z
			 M19.6,8.3v3.2h0.6c0.6,0,0.8-0.3,0.8-0.8V9.2c0-0.6-0.3-0.8-0.8-0.8H19.6z"/>
	</g>
	<g class="st2">
		<path class="st1" d="M26.4,11.7h2.4v5.4h-1.2V16c-0.2,0.8-0.7,1.2-1.6,1.2c-1.5,0-2.1-1.2-2.1-2.7V9.6c0-1.6,0.8-2.7,2.6-2.7
			c1.9,0,2.4,1.1,2.4,2.6v0.9h-1.6v-1c0-0.6-0.2-1-0.9-1c-0.6,0-0.9,0.4-0.9,1v5.5c0,0.6,0.3,1,0.8,1c0.6,0,0.8-0.3,0.8-1V13h-0.8
			V11.7z"/>
	</g>
	<g class="st2">
		<path class="st1" d="M30.2,6.9h4.1v1.4h-2.4v2.9h1.7v1.4h-1.7v3.1h2.4v1.4h-4.1V6.9z"/>
	</g>
	<g class="st2">
		<path class="st1" d="M35.1,6.9h4.5v1.4h-1.4v8.8h-1.7V8.3h-1.4V6.9z"/>
	</g>
	<g class="st2">
		<path class="st1" d="M80.5,14.4l3-7.5h1.7v7.2h0.7v1.3h-0.7v1.7h-1.6v-1.7h-3V14.4z M82,14.1h1.5V9.9h0L82,14.1z"/>
	</g>
	<g class="st2">
	</g>
	<g class="st2">
		<path class="st1" d="M88.6,10.8c0.7,0,1.2,0.6,1.2,1.2c0,0.7-0.6,1.2-1.2,1.2c-0.7,0-1.2-0.6-1.2-1.2
			C87.3,11.4,87.9,10.8,88.6,10.8z"/>
	</g>
	<g class="st2">
		<path class="st1" d="M94.1,6.9v10.2h-1.7V9.3h0l-1.2,1.2h0V8.8l1.6-1.8H94.1z"/>
	</g>
	<g>
		<path class="st1" d="M98.2,153.8H3.3v-31.6h94.8V153.8z M4.3,152.8h92.8v-29.6H4.3L4.3,152.8z"/>
	</g>
	<g>
		<g>
			<path class="st0" d="M57.5,45.1l-6.8-6.2l-7.2,6.2H21.9v24.9h57.5V45.1H57.5z M35.7,50.7h2.8v4.8h-2.8V50.7z M27.4,48.1h2.9v2.1
				h-2.9V48.1z M27.4,50.7h2.9v4.8h-2.9V50.7z M33.6,65.1h-2.9v-4.8h2.9V65.1z M33.6,59.8h-2.9v-2.1h-0.5v2.1h-2.9v0.5h2.9v4.8h-2.9
				v-7.4h6.2V59.8z M33.6,55.5h-2.9v-4.8h2.9V55.5z M33.6,50.2h-2.9v-2.1h2.9V50.2z M38.5,65.2h-2.8v-4.9h2.8V65.2z M41.9,65.2H39
				v-4.9h2.9L41.9,65.2z M41.9,59.8H39v-2h-0.5v2h-2.8v-2h6.2V59.8z M41.9,55.5H39v-4.8h2.9L41.9,55.5z M41.9,50.2H39v-2.1h-0.5v2.1
				h-2.8v-2.1h6.2V50.2z M50.6,44.5c1.8,0,3.2,1.5,3.2,3.2S52.4,51,50.6,51s-3.2-1.5-3.2-3.2C47.3,45.9,48.8,44.5,50.6,44.5
				C50.6,44.4,50.6,44.4,50.6,44.5L50.6,44.5z M50.4,69.5h-3.7V59.4h3.7V69.5z M54.7,69.5h-3.9V59.4h3.9V69.5z M54.7,58.9h-8.1v-0.7
				c0,0,1.2-1.2,4-1.2s4,1.2,4,1.2L54.7,58.9z M68.3,50.7h2.9v4.8h-2.9V50.7z M60.1,48.1h2.9v2.1H60L60.1,48.1z M60.1,50.7h2.9v4.8
				H60L60.1,50.7z M62.9,65.1H60v-4.8h2.9L62.9,65.1z M66.3,65.1h-2.9v-4.8h2.9V65.1z M66.3,59.8h-2.9v-2.1h-0.5v2.1H60v-2.1h6.2
				V59.8z M66.3,55.5h-2.9v-4.8h2.9V55.5z M66.3,50.2h-2.9v-2.1h2.9V50.2z M71.2,65.2h-2.9v-4.9h2.9V65.2z M74.5,65.2h-2.8v-4.9h2.8
				V65.2z M74.5,59.8h-2.8v-2h-0.5v2h-2.9v-2h6.2V59.8z M74.5,55.5h-2.8v-4.8h2.8V55.5z M74.5,50.2h-2.8v-2.1h-0.5v2.1h-2.9v-2.1
				h6.2V50.2z"/>
		</g>
		<g>
			<path class="st0" d="M49.4,49.2c0.1,0,0.1,0,0.2-0.1l1.3-1.3v-2.5c0-0.1-0.1-0.3-0.2-0.3s-0.3,0.1-0.3,0.2c0,0,0,0.1,0,0.1v2.3
				l-1.1,1.1c-0.1,0.1-0.1,0.3,0,0.4c0,0,0,0,0,0C49.3,49.1,49.4,49.2,49.4,49.2z"/>
		</g>
		<g>
			<path class="st0" d="M50.7,37l7.7,6.9h23.8L76.3,37H59.2c-0.5,0-1-0.2-1.5-0.5l-7-5.2l-7,5.3c-0.4,0.3-0.9,0.5-1.5,0.5H26
				l-6.7,6.8H43L50.7,37z"/>
		</g>
	</g>
	<g>
		<g>
			<path class="st0" d="M29.6,94.1c0,0-0.5-1.8-2-1.8h-1.5H22c-0.4,0-0.8-0.2-1-0.5c-0.5-0.5-2.1-3.3-2.2-3.4L18,87.2
				c-0.2-0.4-0.6-0.6-1-0.6c-0.7,0-1.2,0.6-1.2,1.2c0,0.2,0.1,0.4,0.1,0.5l4.2,7.5c0.1,0.3,0.2,0.5,0.2,0.8v0.8c0,0.3,0,0.5-0.1,0.8
				l-1.7,6.3h1.8v5.5l0,0c-0.1,0.9,0.7,1.7,1.6,1.8c0.9,0.1,1.7-0.7,1.8-1.6c0-0.1,0-0.2,0-0.3v-5.2c0-0.1,0-0.1,0-0.2h1
				c0,0.1,0,0.1,0,0.2v5.2c0,0.7,0.4,1.4,1.1,1.7c0.9,0.3,1.8-0.2,2.1-1.1c0.1-0.2,0.1-0.3,0.1-0.5v-5.5h1.8L27.3,96
				c0,0-0.1-0.4,0.2-0.5s0.4,0.3,0.4,0.3l2,6.3c0.1,0.6,0.8,1,1.4,0.9c0,0,0,0,0,0c1.1-0.3,0.7-1.5,0.7-1.5L29.6,94.1z"/>
		</g>
		<g>
			<path class="st0" d="M24.5,90.8c1.9,0,3.4-1.5,3.4-3.4S26.4,84,24.5,84c-1.9,0-3.4,1.5-3.4,3.4c0,0,0,0,0,0
				C21.1,89.3,22.6,90.8,24.5,90.8z"/>
		</g>
	</g>
	<g>
		<g>
			<path class="st0" d="M61.2,90.7c1.8,0,3.3-1.5,3.3-3.3c0-1.8-1.5-3.3-3.3-3.3s-3.3,1.5-3.3,3.3l0,0
				C57.8,89.2,59.3,90.7,61.2,90.7C61.2,90.7,61.2,90.7,61.2,90.7z"/>
		</g>
		<g>
			<path class="st0" d="M69.2,100.4c0-0.2-1-2.5-1.3-3.3c-2-5.2-2.3-5.2-4.2-5.2h-5.1c-1.8,0.1-2.2,0-4.2,5.2
				c-0.3,0.7-1.5,3.6-1.5,3.8s-0.5,1.2,0.6,1.6s1.4-0.8,1.4-0.8l2-5.1c0,0,0-0.1,0.1-0.1s0.1,0.1,0.1,0.2v13.2l0,0
				c0,1,0.7,1.8,1.7,1.8c0,0,0.1,0,0.1,0c0.9,0,1.7-0.8,1.7-1.7c0,0,0-0.1,0-0.1v-5.3c0,0-0.1-0.8,0.5-0.8s0.5,0.8,0.5,0.8v5.3
				c0,1,0.7,1.8,1.7,1.8c0,0,0,0,0.1,0c0.9,0,1.7-0.8,1.7-1.7c0,0,0-0.1,0-0.1l0,0V96.7c0-0.1,0-0.2,0.1-0.2s0.1,0.1,0.1,0.1
				l1.9,4.5c0,0,0.5,1.2,1.6,0.7S69.2,100.4,69.2,100.4z"/>
		</g>
	</g>
	<g>
		<g>
			<path class="st0" d="M82.4,84.7h-0.2h-6.2h-0.2c-2,0.2-3.5,1.8-3.5,3.8v7.9c0.1,0.6,0.6,1.1,1.2,1c0.5-0.1,0.9-0.5,1-1v-6.8
				c0-0.3,0.1-0.6,0.5-0.6c0.3,0,0.4,0.3,0.4,0.6v20.4c0.1,0.9,0.8,1.5,1.7,1.5c0.8-0.1,1.4-0.7,1.5-1.5V98.2c0-0.2,0.2-0.4,0.4-0.5
				c0,0,0,0,0.1,0l0,0c0.2,0,0.4,0.2,0.5,0.4c0,0,0,0,0,0.1v11.7c0,0.9,0.7,1.6,1.6,1.6c0.9,0,1.6-0.7,1.6-1.6V89.5
				c0-0.2,0.1-0.6,0.4-0.6c0.5,0,0.5,0.3,0.5,0.6v6.8c0,0.6,0.5,1.1,1.1,1.1s1.1-0.5,1.1-1.1v-7.9C85.8,86.5,84.3,84.9,82.4,84.7z"
				/>
		</g>
		<g>
			<path class="st0" d="M73.6,79.2c0.1-0.3,0.4-0.7,1.4-0.9c0.2,0,0.4-0.1,0.5-0.2c0.2-0.3,0.4-0.6,0.6-0.9c0-0.1,0-0.1,0-0.2
				c-0.1-0.4-0.5-1-1.5-0.5c-1.2,0.6-1.1,2.4-1.1,2.4S73.6,79.3,73.6,79.2z"/>
		</g>
		<g>
			<path class="st0" d="M83,78.4c1,0.1,1.3,0.6,1.4,0.9c0,0.1,0,0,0.1-0.2s0.1-1.8-1.1-2.4c-1-0.5-1.5,0.1-1.5,0.5
				c0,0.1,0,0.2,0,0.2c0.2,0.2,0.4,0.5,0.6,0.8C82.6,78.3,82.8,78.4,83,78.4z"/>
		</g>
		<g>
			<path class="st0" d="M79,83.5c1.9,0,3.4-1.5,3.4-3.4s-1.5-3.4-3.4-3.4c-1.9,0-3.4,1.5-3.4,3.4c0,0,0,0,0,0
				C75.6,82,77.1,83.5,79,83.5z"/>
		</g>
	</g>
	<g>
		<g>
			<path class="st0" d="M46.4,83.8h-7.1c-2,0.2-3.5,1.9-3.5,3.9v8.2c0,0.6,0.5,1.1,1.2,1.1c0.6,0,1.1-0.5,1.1-1.1v-7.1
				c0-0.3,0.1-0.6,0.6-0.6s0.4,0.3,0.4,0.6V110c0,0.9,0.7,1.6,1.7,1.6c0.9,0,1.6-0.7,1.6-1.6V97.8c0-0.3,0.2-0.5,0.4-0.5
				c0,0,0,0,0,0l0,0c0.2,0,0.5,0.2,0.5,0.4c0,0,0,0,0,0.1V110c0.1,0.9,0.9,1.6,1.8,1.5c0.8-0.1,1.5-0.7,1.5-1.5V88.8
				c0-0.2,0.1-0.6,0.4-0.6s0.6,0.4,0.6,0.6v7.1c0,0.6,0.5,1.1,1.2,1.1c0.6,0,1.1-0.5,1.1-1.1v-8.2C49.9,85.7,48.4,84,46.4,83.8z"/>
		</g>
		<g>
			<path class="st0" d="M45.1,78.8c-0.3-0.2-0.5-0.4-1-0.2c-0.3,0.2-0.4,0.2-0.8,0.4c-0.7,0.3-1.4,0.5-2.1,0.6
				c-0.6,0.1-1.1,0.1-1.7,0.1c0.2,1.8,1.8,3.2,3.7,3c1.6-0.2,2.8-1.4,3-2.9C45.8,79.4,45.5,79.1,45.1,78.8z"/>
		</g>
		<g>
			<path class="st0" d="M39.5,79c0.5,0,1,0,1.5-0.1c0.7-0.1,1.3-0.3,1.9-0.6c0.3-0.2,0.7-0.3,1-0.4c0.2-0.1,0.5-0.1,0.7-0.1
				c0.1,0,0.2,0.1,0.3,0.2l0.3,0.2c0,0,0.1,0.1,0.9,0.7c0.1,0.1,0.2,0.2,0.2,0.1s0.1-0.6,0.1-0.9c-0.1-0.8-0.5-1.6-1-2.3
				c-0.2-0.2-0.4-0.4-0.7-0.3c-0.4,0.1-0.4-0.2-0.7-0.4c-1-0.4-2.1-0.2-2.9,0.5c-1,0.8-1.7,1.8-2.2,3C38.8,78.8,39.1,79,39.5,79z"/>
		</g>
	</g>
</g>
</svg>
