<?xml version="1.0" encoding="utf-8"?>
<!-- Generator: Adobe Illustrator 22.0.1, SVG Export Plug-In . SVG Version: 6.00 Build 0)  -->
<svg version="1.1" id="Layer_1" xmlns="http://www.w3.org/2000/svg" xmlns:xlink="http://www.w3.org/1999/xlink" x="0px" y="0px"
	 viewBox="0 0 101.5 166.1" style="enable-background:new 0 0 101.5 166.1;" xml:space="preserve">
<style type="text/css">
	.st0{fill:#FFFFFF;}
	.st1{fill:#C5192D;}
	.st2{enable-background:new    ;}
	.st3{fill:#C22033;}
</style>
<title>TARGET 1 B</title>
<g id="WHITE_BG">
	<g>
		<rect y="0" class="st0" width="101.5" height="166.1"/>
	</g>
</g>
<g id="TARGETS">
	<g>
		<g>
			<path class="st1" d="M10.5,129.3H7.8v2h2.9v0.9H6.9v-6.4h3.9v0.9H7.8v1.8h2.6V129.3z"/>
		</g>
		<g>
			<path class="st1" d="M11.6,132.2v-6.4h1.9c2.1,0,2.7,1.4,2.7,3.2s-0.6,3.2-2.7,3.2L11.6,132.2z M12.6,131.3h1
				c1.3,0,1.7-0.9,1.7-2.3s-0.4-2.3-1.7-2.3h-1V131.3z"/>
		</g>
		<g>
			<path class="st1" d="M16.9,130.2v-4.4h1v4.3c-0.1,0.7,0.4,1.2,1,1.3c0.1,0,0.2,0,0.3,0c0.6,0.1,1.3-0.3,1.4-1c0-0.1,0-0.2,0-0.3
				v-4.3h1v4.4c0.1,1.1-0.8,2.1-1.9,2.1c-0.1,0-0.3,0-0.4,0c-1.1,0.2-2.1-0.6-2.3-1.7C16.9,130.5,16.9,130.3,16.9,130.2z"/>
		</g>
		<g>
			<path class="st1" d="M24.8,125.7c0.5,0,1,0.1,1.5,0.3v0.9c-0.5-0.2-0.9-0.3-1.4-0.3c-1.2,0-1.7,0.8-1.7,2.4s0.5,2.4,1.7,2.4
				c0.5,0,1-0.1,1.4-0.3v0.9c-0.5,0.2-1,0.3-1.5,0.3c-1.9,0-2.6-1.2-2.6-3.3S22.9,125.7,24.8,125.7z"/>
		</g>
		<g>
			<path class="st1" d="M30.2,130.6h-2l-0.5,1.6h-1l2-6.4h1l2,6.4h-1L30.2,130.6z M29.2,127l-0.8,2.8H30L29.2,127z"/>
		</g>
		<g>
			<path class="st1" d="M33.7,126.7v5.5h-1v-5.5h-1.6v-0.9h4.3v0.9H33.7z"/>
		</g>
		<g>
			<path class="st1" d="M36,132.2v-6.4h1v6.4H36z"/>
		</g>
		<g>
			<path class="st1" d="M38,129c0-1.8,0.4-3.3,2.5-3.3s2.5,1.5,2.5,3.3s-0.4,3.3-2.5,3.3S38,130.8,38,129z M39,129
				c0,1.5,0.3,2.4,1.5,2.4s1.5-0.9,1.5-2.4s-0.3-2.4-1.5-2.4S39,127.5,39,129z"/>
		</g>
		<g>
			<path class="st1" d="M47.3,132.2l-2.8-4.5v4.5h-1v-6.4h0.9l2.8,4.5v-4.5h1v6.4H47.3z"/>
		</g>
		<g>
			<path class="st1" d="M54,129.4h-2.6v2.8h-1v-6.4h3.8v0.9h-2.9v1.8h2.6L54,129.4z"/>
		</g>
		<g>
			<path class="st1" d="M54.8,129c0-1.8,0.4-3.3,2.5-3.3s2.5,1.5,2.5,3.3s-0.4,3.3-2.5,3.3S54.8,130.8,54.8,129z M55.8,129
				c0,1.5,0.3,2.4,1.5,2.4s1.5-0.9,1.5-2.4s-0.3-2.4-1.5-2.4S55.8,127.5,55.8,129L55.8,129z"/>
		</g>
		<g>
			<path class="st1" d="M61.4,132.2h-1v-6.4h2.1c1.7,0,2.2,0.7,2.2,1.9c0.1,0.7-0.3,1.4-1,1.7l1.3,2.8h-1.1l-1.2-2.6h-1.3V132.2z
				 M61.4,128.7h1.3c0.9,0,1-0.5,1-1s-0.1-1-1-1h-1.3V128.7z"/>
		</g>
		<g>
			<path class="st1" d="M11.1,139.3c0,1.2-0.7,2-2.4,2c-0.6,0-1.3-0.1-1.9-0.4V140c0.6,0.3,1.2,0.4,1.8,0.4c1.1,0,1.5-0.5,1.5-1.1
				s-0.3-0.9-1.2-1c-1.6-0.2-2.2-0.6-2.2-1.8c0-0.9,0.5-1.8,2.3-1.8c0.6,0,1.2,0.1,1.7,0.3v1c-0.5-0.2-1.1-0.3-1.7-0.3
				c-1,0-1.3,0.4-1.3,1s0.4,0.8,1.2,0.9C10.3,137.7,11.1,138,11.1,139.3z"/>
		</g>
		<g>
			<path class="st1" d="M11.7,139.2v-4.4h1v4.3c-0.1,0.7,0.4,1.3,1.1,1.3c0.1,0,0.2,0,0.3,0c0.6,0.1,1.3-0.3,1.4-1
				c0-0.1,0-0.2,0-0.3v-4.3h0.9v4.4c0.1,1.1-0.8,2.1-1.9,2.1c-0.1,0-0.3,0-0.4,0c-1.1,0.2-2.1-0.6-2.3-1.7
				C11.7,139.5,11.7,139.3,11.7,139.2z"/>
		</g>
		<g>
			<path class="st1" d="M21.4,139.3c0,1.2-0.7,2-2.4,2c-0.6,0-1.3-0.1-1.9-0.4V140c0.6,0.3,1.2,0.4,1.8,0.4c1.1,0,1.5-0.5,1.5-1.1
				s-0.3-0.9-1.1-1c-1.6-0.2-2.2-0.6-2.2-1.8c0-0.9,0.5-1.8,2.3-1.8c0.6,0,1.2,0.1,1.7,0.3v1c-0.5-0.2-1.1-0.3-1.7-0.3
				c-1,0-1.3,0.4-1.3,1s0.4,0.8,1.2,0.9C20.6,137.7,21.4,138,21.4,139.3z"/>
		</g>
		<g>
			<path class="st1" d="M24.1,135.7v5.5h-1v-5.5h-1.6v-0.9h4.3v0.9H24.1z"/>
		</g>
		<g>
			<path class="st1" d="M28.9,139.6h-2l-0.5,1.6h-1l2-6.4h1l2,6.4h-1L28.9,139.6z M27.9,136l-0.9,2.8h1.6L27.9,136z"/>
		</g>
		<g>
			<path class="st1" d="M31,141.2v-6.4h1v6.4H31z"/>
		</g>
		<g>
			<path class="st1" d="M36.7,141.2l-2.7-4.5v4.5h-1v-6.4h0.9l2.8,4.5v-4.5h0.9v6.4H36.7z"/>
		</g>
		<g>
			<path class="st1" d="M41.7,139.6h-2l-0.5,1.6h-1l2-6.4h1l2,6.4h-1L41.7,139.6z M40.7,136l-0.8,2.8h1.6L40.7,136z"/>
		</g>
		<g>
			<path class="st1" d="M43.7,134.8h2.1c1.6,0,2,0.8,2,1.7c0,0.5-0.3,1-0.8,1.3c0.6,0.2,1.1,0.8,1,1.5c0,1.1-0.5,1.9-2.2,1.9h-2.2
				V134.8z M45.8,135.7h-1.2v1.8h1.2c0.8,0,0.9-0.5,0.9-0.9S46.7,135.7,45.8,135.7z M44.6,140.3h1.3c0.9,0,1.1-0.5,1.1-1
				s-0.3-1-1.1-1h-1.3V140.3z"/>
		</g>
		<g>
			<path class="st1" d="M49.7,140.3h2.8v0.9h-3.7v-6.4h1L49.7,140.3z"/>
		</g>
		<g>
			<path class="st1" d="M56.6,138.3h-2.7v2h2.9v0.9H53v-6.4h3.9v0.9h-2.9v1.8h2.7V138.3z"/>
		</g>
		<g>
			<path class="st1" d="M6.9,150.2v-6.4h1.9c2.1,0,2.7,1.4,2.7,3.2s-0.6,3.2-2.7,3.2H6.9z M7.9,149.3h1c1.3,0,1.7-0.9,1.7-2.3
				s-0.4-2.3-1.7-2.3h-1L7.9,149.3z"/>
		</g>
		<g>
			<path class="st1" d="M15.8,147.3h-2.7v2h2.9v0.9h-3.9v-6.4h3.9v0.9h-2.9v1.8h2.7V147.3z"/>
		</g>
		<g>
			<path class="st1" d="M21.5,143.8l-2,6.4h-1l-2-6.4h1L19,149l1.5-5.2L21.5,143.8z"/>
		</g>
		<g>
			<path class="st1" d="M25.6,147.3H23v2h2.9v0.9H22v-6.4h3.9v0.9H23v1.8h2.6L25.6,147.3z"/>
		</g>
		<g>
			<path class="st1" d="M27.7,149.3h2.8v0.9h-3.7v-6.4h1L27.7,149.3z"/>
		</g>
		<g>
			<path class="st1" d="M30.5,147c0-1.8,0.4-3.3,2.5-3.3s2.5,1.5,2.5,3.3s-0.4,3.3-2.5,3.3S30.5,148.8,30.5,147z M31.5,147
				c0,1.5,0.3,2.4,1.5,2.4c1.2,0,1.5-0.9,1.5-2.4s-0.3-2.4-1.5-2.4S31.5,145.5,31.5,147L31.5,147z"/>
		</g>
		<g>
			<path class="st1" d="M37.1,150.2h-1v-6.4h2c1.6,0,2.2,0.9,2.2,2s-0.6,2-2.2,2H37L37.1,150.2z M37.1,146.9h1.1
				c0.6,0.1,1.2-0.4,1.2-1s-0.4-1.2-1-1.2c-0.1,0-0.1,0-0.2,0h-1.1V146.9z"/>
		</g>
		<g>
			<path class="st1" d="M44.4,149.3h-0.9l-1.6-3.9v4.8H41v-6.4h1.2l1.7,4.3l1.7-4.3h1.2v6.4h-1l0-4.8L44.4,149.3z"/>
		</g>
		<g>
			<path class="st1" d="M51.4,147.3h-2.6v2h2.9v0.9h-3.9v-6.4h3.9v0.9h-2.9v1.8h2.7L51.4,147.3z"/>
		</g>
		<g>
			<path class="st1" d="M56.2,150.2l-2.8-4.5v4.5h-0.9v-6.4h0.9l2.8,4.5v-4.5h0.9v6.4H56.2z"/>
		</g>
		<g>
			<path class="st1" d="M60.2,144.7v5.5h-1v-5.5h-1.6v-0.9h4.3v0.9H60.2z"/>
		</g>
		<g>
			<path class="st1" d="M66.9,148.6h-2l-0.4,1.6h-1l2-6.4h1l2,6.4h-1L66.9,148.6z M65.9,145l-0.8,2.8h1.6L65.9,145z"/>
		</g>
		<g>
			<path class="st1" d="M72.6,150.2l-2.8-4.5v4.5h-0.9v-6.4h0.9l2.8,4.5v-4.5h0.9v6.4H72.6z"/>
		</g>
		<g>
			<path class="st1" d="M74.4,150.2v-6.4h1.9c2.1,0,2.7,1.4,2.7,3.2s-0.6,3.2-2.7,3.2H74.4z M75.3,149.3h1c1.3,0,1.7-0.9,1.7-2.3
				s-0.4-2.3-1.7-2.3h-1V149.3z"/>
		</g>
		<g>
			<path class="st1" d="M6.8,156c0-2,0.7-3.3,2.6-3.3c0.6,0,1.3,0.1,1.8,0.3v1c-0.5-0.2-1.1-0.4-1.7-0.4c-1.3,0-1.8,0.9-1.8,2.4
				s0.5,2.4,1.8,2.4c0.3,0,0.6,0,0.9-0.1v-1.7H9.3v-0.9h2.1v3.2c-0.6,0.3-1.3,0.4-2,0.4C7.5,159.3,6.8,158,6.8,156z"/>
		</g>
		<g>
			<path class="st1" d="M13.3,158.3h2.8v0.9h-3.7v-6.4h0.9V158.3z"/>
		</g>
		<g>
			<path class="st1" d="M16.1,156c0-1.8,0.4-3.3,2.5-3.3s2.5,1.5,2.5,3.3s-0.4,3.3-2.5,3.3S16.1,157.8,16.1,156z M17.1,156
				c0,1.5,0.3,2.4,1.5,2.4s1.5-0.9,1.5-2.4s-0.3-2.4-1.5-2.4S17,154.5,17.1,156L17.1,156z"/>
		</g>
		<g>
			<path class="st1" d="M21.7,152.8h2.1c1.6,0,2,0.8,2,1.7c0,0.5-0.3,1-0.8,1.3c0.6,0.2,1.1,0.8,1,1.5c0,1.1-0.5,1.9-2.2,1.9h-2.2
				V152.8z M23.9,153.7h-1.2v1.8h1.2c0.8,0,1-0.5,1-0.9S24.7,153.7,23.9,153.7z M22.7,158.3H24c0.9,0,1.1-0.5,1.1-1s-0.3-1-1.1-1
				h-1.3V158.3z"/>
		</g>
		<g>
			<path class="st1" d="M29.9,157.6h-2l-0.5,1.6h-1l2-6.4h1l2,6.4h-1L29.9,157.6z M28.9,154l-0.9,2.8h1.6L28.9,154z"/>
		</g>
		<g>
			<path class="st1" d="M32.8,158.3h2.8v0.9h-3.7v-6.4h1L32.8,158.3z"/>
		</g>
		<g>
			<path class="st1" d="M40.1,152.7c0.5,0,1,0.1,1.5,0.3v0.9c-0.5-0.2-0.9-0.3-1.4-0.3c-1.2,0-1.7,0.8-1.7,2.4s0.5,2.4,1.7,2.4
				c0.5,0,1-0.1,1.4-0.3v0.9c-0.5,0.2-1,0.3-1.5,0.3c-1.9,0-2.6-1.2-2.6-3.3S38.2,152.7,40.1,152.7z"/>
		</g>
		<g>
			<path class="st1" d="M42.5,159.2v-6.4h1v6.4H42.5z"/>
		</g>
		<g>
			<path class="st1" d="M46.7,153.7v5.5h-1v-5.5h-1.6v-0.9h4.3v0.9H46.7z"/>
		</g>
		<g>
			<path class="st1" d="M49.1,159.2v-6.4h1v6.4H49.1z"/>
		</g>
		<g>
			<path class="st1" d="M50.8,159.2v-0.6l3.3-4.8H51v-0.9h4.3v0.6l-3.3,4.8h3.4v0.9L50.8,159.2z"/>
		</g>
		<g>
			<path class="st1" d="M59.8,156.3h-2.7v2h2.9v0.9h-3.9v-6.4h3.9v0.9h-2.9v1.8h2.7V156.3z"/>
		</g>
		<g>
			<path class="st1" d="M64.6,159.2l-2.8-4.5v4.5h-1v-6.4h0.9l2.8,4.5v-4.5h0.9v6.4H64.6z"/>
		</g>
		<g>
			<path class="st1" d="M70.6,157.3c0,1.2-0.7,2-2.4,2c-0.6,0-1.3-0.1-1.9-0.4V158c0.6,0.3,1.2,0.4,1.8,0.4c1.2,0,1.5-0.5,1.5-1.1
				s-0.3-0.9-1.2-1c-1.6-0.2-2.2-0.6-2.2-1.8c0-0.9,0.5-1.8,2.3-1.8c0.6,0,1.2,0.1,1.7,0.3v1c-0.5-0.2-1.1-0.3-1.7-0.3
				c-1,0-1.3,0.4-1.3,1s0.4,0.8,1.2,0.9C69.8,155.7,70.6,156,70.6,157.3z"/>
		</g>
		<g>
			<path class="st1" d="M74.9,159.2v-2.9h-2.6v2.9h-1v-6.4h1v2.6h2.6v-2.6h1v6.4H74.9z"/>
		</g>
		<g>
			<path class="st1" d="M77,159.2v-6.4h1v6.4H77z"/>
		</g>
		<g>
			<path class="st1" d="M80,159.2h-1v-6.4h2c1.6,0,2.2,0.9,2.2,2s-0.6,2-2.2,2h-1V159.2z M80,156h1.1c0.6,0.1,1.2-0.4,1.2-1
				c0.1-0.6-0.4-1.2-1-1.2c-0.1,0-0.1,0-0.2,0H80V156z"/>
		</g>
	</g>
	<g>
		<rect x="3.3" y="24" class="st1" width="94.8" height="94.8"/>
	</g>
	<g>
		<path class="st1" d="M98.2,20.7H3.3V3.3h94.8V20.7z M4.3,19.7h92.8V4.3H4.3L4.3,19.7z"/>
	</g>
	<g class="st2">
		<path class="st1" d="M6.7,6.9h4.5v1.4H9.9v8.8H8.1V8.3H6.7V6.9z"/>
	</g>
	<g class="st2">
		<path class="st1" d="M11.2,17.1l1.9-10.2h1.9L17,17.1h-1.8l-0.3-1.9h-1.8l-0.3,1.9H11.2z M13.3,13.9h1.4L14,9.8h0L13.3,13.9z"/>
	</g>
	<g class="st2">
		<path class="st1" d="M19.6,12.4v4.7h-1.7V6.9h2.5c1.7,0,2.4,0.9,2.4,2.3v1.3c0,1.1-0.4,1.7-1.4,2l1.6,4.6h-1.8L19.6,12.4z
			 M19.6,8.3v3.2h0.6c0.6,0,0.8-0.3,0.8-0.8V9.2c0-0.6-0.3-0.8-0.8-0.8H19.6z"/>
	</g>
	<g class="st2">
		<path class="st1" d="M26.4,11.7h2.4v5.4h-1.2V16c-0.2,0.8-0.7,1.2-1.6,1.2c-1.5,0-2.1-1.2-2.1-2.7V9.6c0-1.6,0.8-2.7,2.6-2.7
			c1.9,0,2.4,1.1,2.4,2.6v0.9h-1.6v-1c0-0.6-0.2-1-0.9-1c-0.6,0-0.9,0.4-0.9,1v5.5c0,0.6,0.3,1,0.8,1c0.6,0,0.8-0.3,0.8-1V13h-0.8
			V11.7z"/>
	</g>
	<g class="st2">
		<path class="st1" d="M30.2,6.9h4.1v1.4h-2.4v2.9h1.7v1.4h-1.7v3.1h2.4v1.4h-4.1V6.9z"/>
	</g>
	<g class="st2">
		<path class="st1" d="M35.1,6.9h4.5v1.4h-1.4v8.8h-1.7V8.3h-1.4V6.9z"/>
	</g>
	<g class="st2">
		<path class="st1" d="M79.2,14.4l3-7.5h1.7v7.2h0.7v1.3h-0.7v1.7h-1.6v-1.7h-3V14.4z M80.7,14.1h1.5V9.9h0L80.7,14.1z"/>
	</g>
	<g class="st2">
	</g>
	<g class="st2">
		<path class="st1" d="M87.3,10.8c0.7,0,1.2,0.6,1.2,1.2c0,0.7-0.6,1.2-1.2,1.2c-0.7,0-1.2-0.6-1.2-1.2
			C86.1,11.4,86.6,10.8,87.3,10.8z"/>
	</g>
	<g class="st2">
		<path class="st1" d="M90.1,6.9h4.3v1.6l-2.2,8.6h-1.7l2.3-8.8h-2.6V6.9z"/>
	</g>
	<g>
		<g>
			<path class="st0" d="M35.7,56.2L24.5,44c-2.8,2.7-5.2,5.8-7.1,9.2l14.8,7.4C33.2,59,34.4,57.6,35.7,56.2z"/>
		</g>
		<g>
			<path class="st0" d="M64.3,54.9l11.2-12.2c-3-2.6-6.3-4.6-9.9-6.2l-6,15.5C61.3,52.8,62.9,53.7,64.3,54.9z"/>
		</g>
		<g>
			<path class="st0" d="M71.9,68.3l16.5-1.6c-0.5-3.8-1.5-7.6-3.2-11.1L70.4,63C71.1,64.7,71.6,66.5,71.9,68.3z"/>
		</g>
		<g>
			<path class="st0" d="M69.4,60.9l14.8-7.4c-1.8-3.4-4.2-6.5-6.9-9.2L66.1,56.5C67.4,57.8,68.5,59.3,69.4,60.9z"/>
		</g>
		<g>
			<path class="st0" d="M29.3,71.4c0-0.3,0-0.7,0-1L12.9,69c-0.1,0.8-0.1,1.7-0.1,2.5c0,3.1,0.4,6.2,1.1,9.2l15.9-4.6
				C29.5,74.6,29.3,73,29.3,71.4z"/>
		</g>
		<g>
			<path class="st0" d="M63.3,88.8l8.7,14.1c3.2-2.2,6.1-4.9,8.5-7.9L67.3,85C66.1,86.4,64.8,87.7,63.3,88.8z"/>
		</g>
		<g>
			<path class="st0" d="M88.6,69.1l-16.5,1.6c0,0.3,0,0.5,0,0.8c0,1.5-0.2,3.1-0.5,4.6l15.9,4.6c0.7-3,1.1-6.1,1.1-9.1
				C88.7,70.7,88.7,69.9,88.6,69.1z"/>
		</g>
		<g>
			<path class="st0" d="M34.5,85.3l-13.2,10c2.5,3,5.4,5.7,8.6,7.8L38.6,89C37.1,88,35.7,86.7,34.5,85.3z"/>
		</g>
		<g>
			<path class="st0" d="M31.2,62.7l-14.8-7.4c-1.7,3.5-2.8,7.3-3.3,11.2l16.5,1.5C29.9,66.2,30.4,64.4,31.2,62.7z"/>
		</g>
		<g>
			<path class="st0" d="M56.2,92.2l3.1,16.3c3.8-0.9,7.4-2.3,10.8-4.3l-8.7-14.1C59.7,91,58,91.7,56.2,92.2z"/>
		</g>
		<g>
			<path class="st0" d="M68.7,83.1l13.2,10c2.2-3.1,3.9-6.5,5-10.2L71,78.3C70.4,80,69.7,81.6,68.7,83.1z"/>
		</g>
		<g>
			<path class="st0" d="M50.7,92.9c-0.8,0-1.7-0.1-2.5-0.2L45.2,109c3.9,0.6,7.8,0.5,11.7-0.1l-3.1-16.3
				C52.8,92.8,51.8,92.9,50.7,92.9z"/>
		</g>
		<g>
			<path class="st0" d="M63.4,35.6c-3.6-1.3-7.4-2-11.2-2.1v16.6c1.8,0.1,3.6,0.4,5.3,1L63.4,35.6z"/>
		</g>
		<g>
			<path class="st0" d="M40.6,90.3l-8.7,14.1c3.4,1.9,7.1,3.4,10.9,4.2l3.1-16.3C44.1,91.9,42.3,91.2,40.6,90.3z"/>
		</g>
		<g>
			<path class="st0" d="M49.7,50.1V33.5c-3.9,0.1-7.7,0.8-11.4,2.1l6,15.5C46.1,50.5,47.9,50.2,49.7,50.1z"/>
		</g>
		<g>
			<path class="st0" d="M30.5,78.4l-15.9,4.6c1.2,3.8,3,7.3,5.3,10.5l13.2-10C31.9,81.9,31.1,80.2,30.5,78.4z"/>
		</g>
		<g>
			<path class="st0" d="M42.1,51.9l-6-15.5c-3.5,1.5-6.8,3.5-9.8,6l11.2,12.2C38.9,53.5,40.4,52.6,42.1,51.9z"/>
		</g>
		<g>
			<g>
				<polygon class="st0" points="40.3,79.2 50.4,82.3 50.4,64.4 40.3,60.2 				"/>
			</g>
			<g>
				<polygon class="st0" points="61.8,60.2 51.6,64.5 51.6,82.3 61.8,79.2 				"/>
			</g>
			<g>
				<polygon class="st0" points="39.2,80.2 39.2,60.2 38.1,61 38.1,81 50.4,84.4 51,84.4 51.1,84.4 51.6,84.4 63,80.8 64,80.5 
					64,61 62.9,60.2 62.9,79.7 51.6,83.4 51.1,83.4 51,83.4 50.4,83.4 				"/>
			</g>
		</g>
	</g>
	<g>
		<path class="st3" d="M98.2,162.8h-95v-40.6h95V162.8z M4.2,161.8h93v-38.6h-93V161.8z"/>
	</g>
</g>
</svg>
