<?xml version="1.0" encoding="utf-8"?>
<!-- Generator: Adobe Illustrator 22.0.1, SVG Export Plug-In . SVG Version: 6.00 Build 0)  -->
<svg version="1.1" id="Layer_1" xmlns="http://www.w3.org/2000/svg" xmlns:xlink="http://www.w3.org/1999/xlink" x="0px" y="0px"
	 viewBox="0 0 101.5 175.2" style="enable-background:new 0 0 101.5 175.2;" xml:space="preserve">
<style type="text/css">
	.st0{fill:#FFFFFF;}
	.st1{fill:#C5192D;}
	.st2{enable-background:new    ;}
	.st3{fill:#C22033;}
</style>
<title>TARGET 1 B copy 5</title>
<g id="WHITE_BG">
	<g>
		<rect y="0" class="st0" width="101.5" height="175.2"/>
	</g>
</g>
<g id="TARGETS">
	<g>
		<g>
			<path class="st1" d="M7,132.2v-6.4h1v6.4H7z"/>
		</g>
		<g>
			<path class="st1" d="M12.8,132.2l-2.8-4.5v4.5H9.1v-6.4h0.9l2.8,4.5v-4.5h0.9v6.4H12.8z"/>
		</g>
		<g>
			<path class="st1" d="M17,125.7c0.5,0,1,0.1,1.5,0.3v0.9c-0.4-0.2-0.9-0.3-1.4-0.3c-1.2,0-1.7,0.8-1.7,2.4s0.5,2.4,1.7,2.4
				c0.5,0,1-0.1,1.4-0.3v0.9c-0.5,0.2-1,0.3-1.5,0.3c-1.9,0-2.6-1.2-2.6-3.3S15.1,125.7,17,125.7z"/>
		</g>
		<g>
			<path class="st1" d="M20.2,132.2h-1v-6.4h2.1c1.6,0,2.2,0.7,2.2,1.9c0.1,0.7-0.3,1.4-1,1.7l1.3,2.8h-1.1l-1.2-2.6h-1.3V132.2z
				 M20.2,128.7h1.3c0.9,0,1-0.5,1-1s-0.1-1-1-1h-1.3V128.7z"/>
		</g>
		<g>
			<path class="st1" d="M28,129.3h-2.6v2h2.9v0.9h-3.9v-6.4h3.9v0.9h-2.9v1.8H28V129.3z"/>
		</g>
		<g>
			<path class="st1" d="M32.2,130.6h-2l-0.5,1.6h-1l2-6.4h1l2,6.4h-1L32.2,130.6z M31.2,127l-0.8,2.8H32L31.2,127z"/>
		</g>
		<g>
			<path class="st1" d="M38.2,130.3c0,1.2-0.7,2-2.4,2c-0.6,0-1.3-0.1-1.9-0.4V131c0.6,0.3,1.2,0.4,1.8,0.4c1.1,0,1.5-0.5,1.5-1.1
				s-0.3-0.9-1.2-1c-1.6-0.2-2.2-0.6-2.2-1.8c0-0.9,0.5-1.8,2.3-1.8c0.6,0,1.2,0.1,1.7,0.3v1c-0.5-0.2-1.1-0.3-1.7-0.3
				c-1,0-1.3,0.4-1.3,1c0,0.7,0.4,0.8,1.2,0.9C37.5,128.7,38.2,129,38.2,130.3z"/>
		</g>
		<g>
			<path class="st1" d="M42.6,129.3H40v2h2.9v0.9H39v-6.4h3.9v0.9H40v1.8h2.7L42.6,129.3z"/>
		</g>
		<g>
			<path class="st1" d="M47.2,126.7v5.5h-1v-5.5h-1.6v-0.9h4.3v0.9H47.2z"/>
		</g>
		<g>
			<path class="st1" d="M52.9,132.2v-2.9h-2.6v2.9h-1v-6.4h1v2.6h2.6v-2.6h1v6.4H52.9z"/>
		</g>
		<g>
			<path class="st1" d="M58.4,129.3h-2.6v2h2.9v0.9h-3.9v-6.4h3.9v0.9h-2.9v1.8h2.7L58.4,129.3z"/>
		</g>
		<g>
			<path class="st1" d="M65.1,130.3c0,1.2-0.7,2-2.4,2c-0.6,0-1.3-0.1-1.9-0.4V131c0.6,0.3,1.2,0.4,1.8,0.4c1.2,0,1.5-0.5,1.5-1.1
				s-0.3-0.9-1.2-1c-1.5-0.2-2.2-0.6-2.2-1.8c0-0.9,0.5-1.8,2.3-1.8c0.6,0,1.2,0.1,1.7,0.3v1c-0.5-0.2-1.1-0.3-1.7-0.3
				c-1,0-1.3,0.4-1.3,1c0,0.7,0.4,0.8,1.2,0.9C64.3,128.7,65.1,129,65.1,130.3z"/>
		</g>
		<g>
			<path class="st1" d="M65.7,130.2v-4.4h1v4.3c0.1,0.7,0.7,1.3,1.5,1.2c0.7-0.1,1.2-0.6,1.2-1.2v-4.3h1v4.4
				c-0.1,1.3-1.3,2.2-2.6,2.1C66.7,132.1,65.9,131.3,65.7,130.2L65.7,130.2z"/>
		</g>
		<g>
			<path class="st1" d="M72.2,132.2h-1v-6.4h2c1.7,0,2.2,1,2.2,2c0,1-0.6,2-2.2,2h-1V132.2z M72.2,128.9h1.1c0.6,0.1,1.2-0.4,1.2-1
				c0.1-0.6-0.4-1.2-1-1.2c-0.1,0-0.1,0-0.2,0h-1.1V128.9z"/>
		</g>
		<g>
			<path class="st1" d="M77,132.2h-1v-6.4h2.1c1.6,0,2.2,1,2.2,2c0,1-0.6,2-2.2,2H77V132.2z M77,129h1.1c0.6,0.1,1.2-0.4,1.2-1
				c0.1-0.6-0.4-1.2-1-1.2c-0.1,0-0.1,0-0.2,0H77V129z"/>
		</g>
		<g>
			<path class="st1" d="M81.9,131.3h2.8v0.9h-3.7v-6.4h1L81.9,131.3z"/>
		</g>
		<g>
			<path class="st1" d="M86.7,129.6v2.6h-1v-2.6l-2.2-3.8h1.1l1.6,3l1.6-3h1.1L86.7,129.6z"/>
		</g>
		<g>
			<path class="st1" d="M6.8,138c0-1.8,0.4-3.3,2.5-3.3s2.5,1.5,2.5,3.3s-0.4,3.3-2.5,3.3S6.8,139.8,6.8,138z M7.8,138
				c0,1.5,0.3,2.4,1.5,2.4s1.5-0.9,1.5-2.4s-0.3-2.4-1.5-2.4S7.8,136.5,7.8,138L7.8,138z"/>
		</g>
		<g>
			<path class="st1" d="M16,138.4h-2.6v2.8h-0.9v-6.4h3.8v0.9h-2.9v1.8H16V138.4z"/>
		</g>
		<g>
			<path class="st1" d="M21.8,141l2,0.4v1l-4-1.2c-1.3-0.4-1.6-1.6-1.6-3.2c0-1.9,0.4-3.3,2.5-3.3s2.5,1.4,2.5,3.3
				C23.2,139.5,23,140.6,21.8,141L21.8,141z M19.2,138c0,1.5,0.3,2.4,1.5,2.4s1.5-0.9,1.5-2.4s-0.3-2.4-1.5-2.4S19.2,136.5,19.2,138
				z"/>
		</g>
		<g>
			<path class="st1" d="M23.9,139.2v-4.4h1v4.3c-0.1,0.7,0.4,1.3,1,1.3c0.1,0,0.2,0,0.3,0c0.6,0.1,1.3-0.3,1.4-1c0-0.1,0-0.2,0-0.3
				v-4.3h1v4.4c0,1.1-0.8,2.1-2,2.1c-0.1,0-0.2,0-0.3,0c-1.1,0.2-2.1-0.5-2.3-1.6C23.9,139.5,23.9,139.4,23.9,139.2z"/>
		</g>
		<g>
			<path class="st1" d="M32.3,139.6h-2l-0.5,1.6h-1l2-6.4h1l2,6.4h-1L32.3,139.6z M31.3,136l-0.8,2.8h1.6L31.3,136z"/>
		</g>
		<g>
			<path class="st1" d="M35.3,140.3h2.8v0.9h-3.7v-6.4h1V140.3z"/>
		</g>
		<g>
			<path class="st1" d="M38.7,141.2v-6.4h1v6.4H38.7z"/>
		</g>
		<g>
			<path class="st1" d="M44.3,138.4h-2.6v2.8h-1v-6.4h3.8v0.9h-2.8v1.8h2.6V138.4z"/>
		</g>
		<g>
			<path class="st1" d="M45.3,141.2v-6.4h1v6.4H45.3z"/>
		</g>
		<g>
			<path class="st1" d="M51,138.3h-2.7v2h2.9v0.9h-3.9v-6.4h3.9v0.9h-2.9v1.8H51V138.3z"/>
		</g>
		<g>
			<path class="st1" d="M52.1,141.2v-6.4H54c2.1,0,2.7,1.4,2.7,3.2s-0.6,3.2-2.7,3.2H52.1z M53.1,140.3h1c1.3,0,1.7-0.9,1.7-2.3
				s-0.4-2.3-1.7-2.3H53L53.1,140.3z"/>
		</g>
		<g>
			<path class="st1" d="M9.2,144.7v5.5h-1v-5.5H6.6v-0.9h4.3v0.9H9.2z"/>
		</g>
		<g>
			<path class="st1" d="M15.1,147.3h-2.7v2h2.9v0.9h-3.9v-6.4h3.9v0.9h-2.9v1.8h2.6L15.1,147.3z"/>
		</g>
		<g>
			<path class="st1" d="M19.3,148.6h-2l-0.5,1.6h-1l2-6.4h1l2,6.4h-1L19.3,148.6z M18.3,145l-0.8,2.8h1.6L18.3,145z"/>
		</g>
		<g>
			<path class="st1" d="M23.7,143.7c0.5,0,1,0.1,1.5,0.3v0.9c-0.5-0.2-0.9-0.3-1.4-0.3c-1.2,0-1.7,0.8-1.7,2.4s0.5,2.4,1.7,2.4
				c0.5,0,1-0.1,1.4-0.3v0.9c-0.5,0.2-1,0.3-1.5,0.3c-1.9,0-2.6-1.2-2.6-3.3S21.8,143.7,23.7,143.7z"/>
		</g>
		<g>
			<path class="st1" d="M29.5,150.2v-2.9h-2.6v2.9H26v-6.4h1v2.6h2.6v-2.6h1v6.4H29.5z"/>
		</g>
		<g>
			<path class="st1" d="M35,147.3h-2.7v2h2.9v0.9h-3.9v-6.4h3.9v0.9h-2.9v1.8H35V147.3z"/>
		</g>
		<g>
			<path class="st1" d="M37.1,150.2h-1v-6.4h2.1c1.7,0,2.2,0.7,2.2,1.9c0.1,0.7-0.3,1.4-1,1.7l1.3,2.8h-1.1l-1.2-2.6h-1.3V150.2z
				 M37.1,146.7h1.3c0.9,0,1-0.5,1-1s-0.1-1-1-1h-1.3V146.7z"/>
		</g>
		<g>
			<path class="st1" d="M45.5,148.3c0,1.2-0.7,2-2.4,2c-0.6,0-1.3-0.1-1.9-0.4V149c0.6,0.3,1.2,0.4,1.8,0.4c1.2,0,1.5-0.5,1.5-1.1
				s-0.3-0.9-1.2-1c-1.6-0.2-2.2-0.6-2.2-1.8c0-0.9,0.5-1.8,2.3-1.8c0.6,0,1.2,0.1,1.7,0.3v1c-0.5-0.2-1.1-0.3-1.7-0.3
				c-1,0-1.3,0.4-1.3,1s0.4,0.8,1.2,0.9C44.7,146.7,45.5,147,45.5,148.3z"/>
		</g>
		<g>
			<path class="st1" d="M47.8,150.2v-6.4h1v6.4H47.8z"/>
		</g>
		<g>
			<path class="st1" d="M53.5,150.2l-2.8-4.5v4.5h-1v-6.4h0.9l2.8,4.5v-4.5h0.9v6.4H53.5z"/>
		</g>
		<g>
			<path class="st1" d="M6.9,159.2v-6.4h1.9c2.1,0,2.7,1.4,2.7,3.2s-0.6,3.2-2.7,3.2H6.9z M7.9,158.3h1c1.3,0,1.7-0.9,1.7-2.3
				s-0.4-2.3-1.7-2.3h-1L7.9,158.3z"/>
		</g>
		<g>
			<path class="st1" d="M15.8,156.3h-2.7v2h2.9v0.9h-3.9v-6.4h3.9v0.9h-2.9v1.8h2.7L15.8,156.3z"/>
		</g>
		<g>
			<path class="st1" d="M21.5,152.8l-2,6.4h-1l-2-6.4h1L19,158l1.5-5.2L21.5,152.8z"/>
		</g>
		<g>
			<path class="st1" d="M25.6,156.3H23v2h2.9v0.9H22v-6.4h3.9v0.9H23v1.8h2.6L25.6,156.3z"/>
		</g>
		<g>
			<path class="st1" d="M27.7,158.3h2.8v0.9h-3.7v-6.4h1L27.7,158.3z"/>
		</g>
		<g>
			<path class="st1" d="M30.5,156c0-1.8,0.4-3.3,2.5-3.3s2.5,1.5,2.5,3.3s-0.4,3.3-2.5,3.3S30.5,157.8,30.5,156z M31.5,156
				c0,1.5,0.3,2.4,1.5,2.4c1.2,0,1.5-0.9,1.5-2.4s-0.3-2.4-1.5-2.4S31.5,154.5,31.5,156L31.5,156z"/>
		</g>
		<g>
			<path class="st1" d="M37.1,159.2h-1v-6.4h2c1.6,0,2.2,0.9,2.2,2s-0.6,2-2.2,2H37L37.1,159.2z M37.1,155.9h1.1
				c0.6,0.1,1.2-0.4,1.2-1s-0.4-1.2-1-1.2c-0.1,0-0.1,0-0.2,0h-1.1V155.9z"/>
		</g>
		<g>
			<path class="st1" d="M41,159.2v-6.4h1v6.4H41z"/>
		</g>
		<g>
			<path class="st1" d="M46.7,159.2l-2.8-4.5v4.5H43v-6.4h0.9l2.8,4.5v-4.5h0.9v6.4H46.7z"/>
		</g>
		<g>
			<path class="st1" d="M48.3,156c0-2,0.7-3.3,2.6-3.3c0.6,0,1.3,0.1,1.8,0.3v1c-0.5-0.2-1.1-0.4-1.7-0.4c-1.3,0-1.8,0.9-1.8,2.4
				s0.5,2.4,1.8,2.4c0.3,0,0.6,0,0.9-0.1v-1.7h-1.1v-0.9h2.1v3.2c-0.6,0.3-1.3,0.4-2,0.4C49,159.3,48.3,158,48.3,156z"/>
		</g>
		<g>
			<path class="st1" d="M9.4,161.7c0.5,0,1,0.1,1.5,0.3v0.9c-0.5-0.2-0.9-0.3-1.4-0.3c-1.2,0-1.7,0.8-1.7,2.4s0.5,2.4,1.7,2.4
				c0.5,0,1-0.1,1.4-0.3v0.9c-0.5,0.2-1,0.3-1.5,0.3c-1.9,0-2.6-1.2-2.6-3.3S7.5,161.7,9.4,161.7z"/>
		</g>
		<g>
			<path class="st1" d="M11.6,165c0-1.8,0.4-3.3,2.5-3.3s2.4,1.5,2.4,3.3s-0.4,3.3-2.4,3.3S11.6,166.8,11.6,165z M12.6,165
				c0,1.5,0.3,2.4,1.5,2.4s1.5-0.9,1.5-2.4s-0.3-2.4-1.5-2.4S12.6,163.5,12.6,165L12.6,165z"/>
		</g>
		<g>
			<path class="st1" d="M17.2,166.2v-4.4h1v4.3c-0.1,0.7,0.4,1.3,1,1.3c0.1,0,0.2,0,0.3,0c0.6,0.1,1.3-0.3,1.4-1c0-0.1,0-0.2,0-0.3
				v-4.3h1v4.4c0.1,1.1-0.8,2.1-1.9,2.1c-0.1,0-0.3,0-0.4,0c-1.1,0.2-2.1-0.6-2.3-1.7C17.2,166.5,17.2,166.3,17.2,166.2z"/>
		</g>
		<g>
			<path class="st1" d="M26.4,168.2l-2.8-4.5v4.5h-0.9v-6.4h0.9l2.8,4.5v-4.5h0.9v6.4H26.4z"/>
		</g>
		<g>
			<path class="st1" d="M30.4,162.7v5.5h-1v-5.5h-1.6v-0.9h4.3v0.9H30.4z"/>
		</g>
		<g>
			<path class="st1" d="M33.7,168.2h-1v-6.4h2.1c1.7,0,2.2,0.7,2.2,1.9c0.1,0.7-0.3,1.4-1,1.7l1.3,2.8h-1.1l-1.2-2.6h-1.3V168.2z
				 M33.7,164.7H35c0.9,0,1-0.5,1-1s-0.1-1-1-1h-1.3V164.7z"/>
		</g>
		<g>
			<path class="st1" d="M38.1,168.2v-6.4h1v6.4H38.1z"/>
		</g>
		<g>
			<path class="st1" d="M43.7,165.3h-2.7v2H44v0.9h-3.9v-6.4H44v0.9h-2.9v1.8h2.7V165.3z"/>
		</g>
		<g>
			<path class="st1" d="M48.9,166.3c0,1.2-0.7,2-2.4,2c-0.6,0-1.3-0.1-1.9-0.4V167c0.6,0.3,1.2,0.4,1.8,0.4c1.1,0,1.5-0.5,1.5-1.1
				s-0.3-0.9-1.2-1c-1.6-0.2-2.2-0.6-2.2-1.8c0-0.9,0.5-1.8,2.3-1.8c0.6,0,1.2,0.1,1.7,0.3v1c-0.5-0.2-1.1-0.3-1.7-0.3
				c-1,0-1.3,0.4-1.3,1s0.4,0.8,1.2,0.9C48.1,164.7,48.9,165,48.9,166.3z"/>
		</g>
	</g>
	<g>
		<rect x="3.3" y="24" class="st1" width="94.8" height="94.8"/>
	</g>
	<g>
		<path class="st1" d="M98.2,20.7H3.3V3.3h94.8V20.7z M4.3,19.7h92.8V4.3H4.3L4.3,19.7z"/>
	</g>
	<g class="st2">
		<path class="st1" d="M6.7,6.9h4.5v1.4H9.9v8.8H8.1V8.3H6.7V6.9z"/>
	</g>
	<g class="st2">
		<path class="st1" d="M11.2,17.1l1.9-10.2h1.9L17,17.1h-1.8l-0.3-1.9h-1.8l-0.3,1.9H11.2z M13.3,13.9h1.4L14,9.8h0L13.3,13.9z"/>
	</g>
	<g class="st2">
		<path class="st1" d="M19.6,12.4v4.7h-1.7V6.9h2.5c1.7,0,2.4,0.9,2.4,2.3v1.3c0,1.1-0.4,1.7-1.4,2l1.6,4.6h-1.8L19.6,12.4z
			 M19.6,8.3v3.2h0.6c0.6,0,0.8-0.3,0.8-0.8V9.2c0-0.6-0.3-0.8-0.8-0.8H19.6z"/>
	</g>
	<g class="st2">
		<path class="st1" d="M26.4,11.7h2.4v5.4h-1.2V16c-0.2,0.8-0.7,1.2-1.6,1.2c-1.5,0-2.1-1.2-2.1-2.7V9.6c0-1.6,0.8-2.7,2.6-2.7
			c1.9,0,2.4,1.1,2.4,2.6v0.9h-1.6v-1c0-0.6-0.2-1-0.9-1c-0.6,0-0.9,0.4-0.9,1v5.5c0,0.6,0.3,1,0.8,1c0.6,0,0.8-0.3,0.8-1V13h-0.8
			V11.7z"/>
	</g>
	<g class="st2">
		<path class="st1" d="M30.2,6.9h4.1v1.4h-2.4v2.9h1.7v1.4h-1.7v3.1h2.4v1.4h-4.1V6.9z"/>
	</g>
	<g class="st2">
		<path class="st1" d="M35.1,6.9h4.5v1.4h-1.4v8.8h-1.7V8.3h-1.4V6.9z"/>
	</g>
	<g class="st2">
		<path class="st1" d="M89.4,14.5V9.6c0-1.6,0.8-2.7,2.5-2.7c1.9,0,2.4,1.1,2.4,2.6v1.2h-1.6V9.2c0-0.6-0.2-1-0.8-1
			c-0.6,0-0.9,0.4-0.9,1v5.5c0,0.6,0.3,1,0.9,1c0.6,0,0.8-0.4,0.8-1v-1.9h1.6v1.8c0,1.5-0.6,2.5-2.4,2.5
			C90.2,17.2,89.4,16.1,89.4,14.5z"/>
	</g>
	<g class="st2">
		<path class="st1" d="M77.9,14.4l3-7.5h1.7v7.2h0.7v1.3h-0.7v1.7H81v-1.7h-3V14.4z M79.4,14.1H81V9.9h0L79.4,14.1z"/>
	</g>
	<g>
		<polygon class="st1" points="85.4,9.9 85.4,14.1 87.6,12 		"/>
	</g>
	<g>
		<path class="st3" d="M98.2,171.9h-95v-49.7h95V171.9z M4.2,170.9h93v-47.7h-93V170.9z"/>
	</g>
	<g>
		<g>
			<path class="st0" d="M83.3,56.2V35.8h-35v20.4h0.6l1.7-3.2c0.3-0.6,1-1,1.7-1c0.3,0,0.6,0.1,0.9,0.2l0.2,0.1
				c0.9,0.5,1.3,1.6,0.8,2.5l-0.7,1.4L83.3,56.2L83.3,56.2z"/>
		</g>
		<g>
			<path class="st0" d="M85.8,32.7H45.6c-0.3,0-0.5,0.2-0.5,0.5v25.7c0,0.3,0.2,0.5,0.5,0.5h1.6l0.5-1h-1.6V33.7h39.2v24.7H52.2
				l-0.5,1h34.2c0.3,0,0.5-0.2,0.5-0.5V33.2C86.3,32.9,86.1,32.7,85.8,32.7z"/>
		</g>
		<g>
			<rect x="51.4" y="78.5" class="st0" width="35" height="4.1"/>
		</g>
		<g>
			<rect x="53.5" y="84.7" class="st0" width="2.9" height="25.6"/>
		</g>
		<g>
			<g>
				<rect x="68.5" y="84.7" class="st0" width="15.8" height="6.3"/>
			</g>
			<g>
				<rect x="68.5" y="92.3" class="st0" width="15.8" height="6.3"/>
			</g>
			<g>
				<rect x="68.5" y="99.9" class="st0" width="15.8" height="10.3"/>
			</g>
		</g>
		<g>
			<path class="st0" d="M24.6,53.2c0,3.1,2.5,5.6,5.5,5.6c3.1,0,5.6-2.5,5.6-5.5c0-2-1.1-3.9-2.9-4.9c0.2-0.3,0.3-0.6,0.3-1
				C33,46,31.7,45,30.4,45.2C29,45,27.7,46,27.6,47.4c0,0.3,0.1,0.6,0.2,0.8C25.8,49.1,24.6,51.1,24.6,53.2z"/>
		</g>
		<g>
			<path class="st0" d="M52.6,53.5l-0.2-0.1c-0.1,0-0.1,0-0.2,0c-0.1,0-0.3,0.1-0.3,0.2l-1.3,2.5l-1.2,2.2l-0.5,1L47.6,62l-0.6,1.2
				h-0.7c-0.8,0-1.5,0.4-1.8,1.1l-2.2,4l-1.1-3.6c0,0-1.3-3.3-4.1-4c-0.4-0.1-0.9-0.1-1.3-0.2H34l-3.8,3.8l-3.8-3.8h-1.7
				c-0.4,0-0.8,0.1-1.2,0.2c-2.5,0.9-3.7,3.9-3.7,3.9L15.3,79c0,0-0.8,2.6,1.5,3.3s2.9-1.9,2.9-1.9l3.6-12c0,0,0.2-0.9,0.9-0.7
				s0.4,1.2,0.4,1.2l-6.2,22.5h5.8v16.1c0.1,1.5,1.4,2.7,2.9,2.6c1.4-0.1,2.5-1.2,2.6-2.6V91.3h1.6v16.1c0,1.5,1.2,2.8,2.8,2.8
				s2.8-1.2,2.8-2.8l0,0V91.3h5.8l-6.2-22.5c0,0-0.3-1,0.4-1.2s0.9,0.7,0.9,0.7l1.2,4l0,0l0.7,2.2c0.3,1.1,1.5,1.7,2.6,1.4
				c0.5-0.1,0.9-0.5,1.2-0.9l0,0l0,0c0,0,0.1-0.1,0.1-0.1l4-7.4c0.9-0.3,1.6-1.2,1.5-2.1c0-0.8-0.4-1.5-1-1.9l2.2-4.2l0.5-1l1.2-2.2
				l1.1-2.1C52.9,53.9,52.8,53.6,52.6,53.5C52.6,53.5,52.6,53.5,52.6,53.5z"/>
		</g>
	</g>
</g>
</svg>
