<?xml version="1.0" encoding="utf-8"?>
<!-- Generator: Adobe Illustrator 22.0.1, SVG Export Plug-In . SVG Version: 6.00 Build 0)  -->
<svg version="1.1" id="Layer_1" xmlns="http://www.w3.org/2000/svg" xmlns:xlink="http://www.w3.org/1999/xlink" x="0px" y="0px"
	 viewBox="0 0 101.5 175.2" style="enable-background:new 0 0 101.5 175.2;" xml:space="preserve">
<style type="text/css">
	.st0{fill:#FFFFFF;}
	.st1{fill:#C5192D;}
	.st2{enable-background:new    ;}
</style>
<title>TARGET 1.3</title>
<g id="WHITE_BG">
	<g>
		<rect y="0" class="st0" width="101.5" height="175.2"/>
	</g>
</g>
<g id="TARGETS">
	<g>
		<g>
			<path class="st1" d="M10.5,129.3H7.8v2h2.9v0.9H6.9v-6.4h3.9v0.9H7.8v1.8h2.6V129.3z"/>
		</g>
		<g>
			<path class="st1" d="M15,132l2,0.4v1l-4-1.2c-1.3-0.4-1.6-1.6-1.6-3.2c0-1.9,0.4-3.3,2.5-3.3s2.5,1.4,2.5,3.3
				C16.3,130.5,16.1,131.6,15,132L15,132z M12.4,129c0,1.5,0.3,2.4,1.5,2.4s1.5-0.9,1.5-2.4s-0.3-2.4-1.5-2.4S12.4,127.5,12.4,129
				L12.4,129z"/>
		</g>
		<g>
			<path class="st1" d="M17,130.2v-4.4h1v4.3c-0.1,0.6,0.4,1.2,1,1.3c0.1,0,0.2,0,0.3,0c0.6,0.1,1.3-0.3,1.4-1c0-0.1,0-0.2,0-0.3
				v-4.3h1v4.4c0,1.1-0.8,2.1-2,2.1c-0.1,0-0.2,0-0.3,0c-1.1,0.2-2.2-0.6-2.3-1.7C17,130.5,17,130.3,17,130.2z"/>
		</g>
		<g>
			<path class="st1" d="M25.5,130.6h-2l-0.5,1.6h-1l2-6.4h1l2,6.4h-1L25.5,130.6z M24.5,127l-0.8,2.8h1.6L24.5,127z"/>
		</g>
		<g>
			<path class="st1" d="M28.4,131.3h2.8v0.9h-3.7v-6.4h1L28.4,131.3z"/>
		</g>
		<g>
			<path class="st1" d="M36.4,130.6h-2l-0.5,1.6h-1l2-6.4h1l2,6.4h-1L36.4,130.6z M35.4,127l-0.8,2.8h1.6L35.4,127z"/>
		</g>
		<g>
			<path class="st1" d="M40.8,125.7c0.5,0,1,0.1,1.5,0.3v0.9c-0.5-0.2-0.9-0.3-1.4-0.3c-1.2,0-1.7,0.8-1.7,2.4
				c0,1.6,0.5,2.4,1.7,2.4c0.5,0,1-0.1,1.4-0.3v0.9c-0.5,0.2-1,0.3-1.5,0.3c-1.9,0-2.6-1.2-2.6-3.3S38.9,125.7,40.8,125.7z"/>
		</g>
		<g>
			<path class="st1" d="M45.5,125.7c0.5,0,1,0.1,1.5,0.3v0.9c-0.5-0.2-0.9-0.3-1.4-0.3c-1.2,0-1.7,0.8-1.7,2.4
				c0,1.6,0.5,2.4,1.7,2.4c0.5,0,1-0.1,1.4-0.3v0.9c-0.5,0.2-1,0.3-1.5,0.3c-1.9,0-2.6-1.2-2.6-3.3S43.6,125.7,45.5,125.7z"/>
		</g>
		<g>
			<path class="st1" d="M51.5,129.3h-2.7v2h2.9v0.9h-3.9v-6.4h3.9v0.9h-2.9v1.8h2.7V129.3z"/>
		</g>
		<g>
			<path class="st1" d="M56.6,130.3c0,1.2-0.7,2-2.4,2c-0.6,0-1.3-0.1-1.9-0.4v-1c0.6,0.3,1.2,0.4,1.8,0.4c1.2,0,1.5-0.5,1.5-1.1
				s-0.3-0.9-1.2-1c-1.6-0.2-2.2-0.6-2.2-1.8c0-0.9,0.5-1.8,2.3-1.8c0.6,0,1.2,0.1,1.7,0.3v1c-0.5-0.2-1.1-0.3-1.7-0.3
				c-1,0-1.3,0.4-1.3,1s0.4,0.8,1.2,0.9C55.8,128.7,56.6,129,56.6,130.3z"/>
		</g>
		<g>
			<path class="st1" d="M61.5,130.3c0,1.2-0.7,2-2.4,2c-0.6,0-1.3-0.1-1.9-0.4v-1c0.6,0.3,1.2,0.4,1.8,0.4c1.2,0,1.5-0.5,1.5-1.1
				s-0.3-0.9-1.2-1c-1.5-0.2-2.2-0.6-2.2-1.8c0-0.9,0.5-1.8,2.3-1.8c0.6,0,1.2,0.1,1.7,0.3v1c-0.5-0.2-1.1-0.3-1.7-0.3
				c-1,0-1.3,0.4-1.3,1s0.4,0.8,1.2,0.9C60.7,128.7,61.5,129,61.5,130.3z"/>
		</g>
		<g>
			<path class="st1" d="M65.7,126.7v5.5h-1v-5.5h-1.6v-0.9h4.3v0.9L65.7,126.7z"/>
		</g>
		<g>
			<path class="st1" d="M67.5,129c0-1.8,0.4-3.3,2.4-3.3s2.5,1.5,2.5,3.3s-0.4,3.3-2.4,3.3S67.5,130.8,67.5,129z M68.5,129
				c0,1.5,0.3,2.4,1.5,2.4s1.5-0.9,1.5-2.4s-0.3-2.4-1.5-2.4S68.5,127.5,68.5,129L68.5,129z"/>
		</g>
		<g>
			<path class="st1" d="M10.1,139.6h-2l-0.4,1.6h-1l2-6.4h1l2,6.4h-1L10.1,139.6z M9.1,136l-0.8,2.8h1.6L9.1,136z"/>
		</g>
		<g>
			<path class="st1" d="M15.6,138.4h-2.6v2.8h-1v-6.4h3.8v0.9h-2.8v1.8h2.6V138.4z"/>
		</g>
		<g>
			<path class="st1" d="M20.1,138.4h-2.6v2.8h-1v-6.4h3.8v0.9h-2.9v1.8h2.6V138.4z"/>
		</g>
		<g>
			<path class="st1" d="M20.9,138c0-1.8,0.4-3.3,2.5-3.3s2.5,1.5,2.5,3.3s-0.4,3.3-2.5,3.3S20.9,139.8,20.9,138z M21.9,138
				c0,1.5,0.3,2.4,1.5,2.4s1.5-0.9,1.5-2.4s-0.3-2.4-1.5-2.4S21.8,136.5,21.9,138L21.9,138z"/>
		</g>
		<g>
			<path class="st1" d="M27.6,141.2h-1v-6.4h2.1c1.6,0,2.2,0.7,2.2,1.9c0.1,0.7-0.3,1.4-1,1.7l1.3,2.8h-1.1l-1.2-2.6h-1.3V141.2z
				 M27.6,137.7h1.3c0.9,0,1-0.5,1-1s-0.1-1-1-1h-1.3V137.7z"/>
		</g>
		<g>
			<path class="st1" d="M31.8,141.2v-6.4h1.9c2.1,0,2.7,1.4,2.7,3.2s-0.6,3.2-2.7,3.2H31.8z M32.8,140.3h1c1.3,0,1.7-0.9,1.7-2.3
				s-0.4-2.3-1.7-2.3h-1V140.3z"/>
		</g>
		<g>
			<path class="st1" d="M40.1,139.6h-2l-0.5,1.6h-1l2-6.4h1l2,6.4h-1L40.1,139.6z M39.1,136l-0.8,2.8h1.6L39.1,136z"/>
		</g>
		<g>
			<path class="st1" d="M42.1,134.8h2.1c1.5,0,2,0.8,2,1.8c0,0.5-0.3,1-0.8,1.3c0.6,0.2,1.1,0.8,1,1.5c0,1-0.5,1.9-2.2,1.9h-2.2
				V134.8z M44.3,135.7h-1.2v1.8h1.2c0.4,0.1,0.9-0.2,0.9-0.7c0-0.1,0-0.1,0-0.2C45.3,136.2,45.1,135.7,44.3,135.7z M43.1,140.3h1.3
				c0.9,0,1.1-0.5,1.1-1s-0.3-1-1.1-1h-1.3V140.3z"/>
		</g>
		<g>
			<path class="st1" d="M48.2,140.3h2.8v0.9h-3.7v-6.4h1V140.3z"/>
		</g>
		<g>
			<path class="st1" d="M55,138.3h-2.6v2h2.9v0.9h-3.9v-6.4h3.9v0.9h-2.9v1.8H55V138.3z"/>
		</g>
		<g>
			<path class="st1" d="M9.2,144.7v5.5h-1v-5.5H6.6v-0.9h4.3v0.9H9.2z"/>
		</g>
		<g>
			<path class="st1" d="M15.1,147.3h-2.7v2h2.9v0.9h-3.9v-6.4h3.9v0.9h-2.9v1.8h2.6L15.1,147.3z"/>
		</g>
		<g>
			<path class="st1" d="M18.7,143.7c0.5,0,1,0.1,1.5,0.3v0.9c-0.5-0.2-0.9-0.3-1.4-0.3c-1.2,0-1.7,0.8-1.7,2.4s0.5,2.4,1.7,2.4
				c0.5,0,1-0.1,1.4-0.3v0.9c-0.5,0.2-1,0.3-1.5,0.3c-1.9,0-2.6-1.2-2.6-3.3S16.8,143.7,18.7,143.7z"/>
		</g>
		<g>
			<path class="st1" d="M24.4,150.2v-2.9h-2.6v2.9h-1v-6.4h1v2.6h2.6v-2.6h1v6.4H24.4z"/>
		</g>
		<g>
			<path class="st1" d="M30,150.2l-2.8-4.5v4.5h-0.9v-6.4h0.9l2.9,4.5v-4.5h0.9v6.4H30z"/>
		</g>
		<g>
			<path class="st1" d="M32,150.2v-6.4h1v6.4H32z"/>
		</g>
		<g>
			<path class="st1" d="M36.6,143.7c0.5,0,1,0.1,1.5,0.3v0.9c-0.5-0.2-0.9-0.3-1.4-0.3c-1.2,0-1.7,0.8-1.7,2.4s0.5,2.4,1.7,2.4
				c0.5,0,1-0.1,1.4-0.3v0.9c-0.5,0.2-1,0.3-1.5,0.3c-1.9,0-2.6-1.2-2.6-3.3S34.7,143.7,36.6,143.7z"/>
		</g>
		<g>
			<path class="st1" d="M41.9,148.6h-2l-0.5,1.6h-1l2-6.4h1l2,6.4h-1L41.9,148.6z M40.9,145l-0.8,2.8h1.6L40.9,145z"/>
		</g>
		<g>
			<path class="st1" d="M44.9,149.3h2.8v0.9h-3.7v-6.4h1L44.9,149.3z"/>
		</g>
		<g>
			<path class="st1" d="M49.1,149.3l-0.7,2h-0.7l0.2-2H49.1z"/>
		</g>
		<g>
			<path class="st1" d="M11.6,152.8l-2,6.5h-1l-2-6.5h1l1.5,5.2l1.5-5.2L11.6,152.8z"/>
		</g>
		<g>
			<path class="st1" d="M11.8,156c0-1.8,0.4-3.3,2.5-3.3s2.4,1.5,2.4,3.3s-0.4,3.3-2.4,3.3S11.8,157.8,11.8,156z M12.8,156
				c0,1.5,0.3,2.4,1.5,2.4s1.5-0.9,1.5-2.4s-0.3-2.4-1.5-2.4S12.8,154.5,12.8,156L12.8,156z"/>
		</g>
		<g>
			<path class="st1" d="M20,152.7c0.5,0,1,0.1,1.5,0.3v0.9c-0.5-0.2-0.9-0.3-1.4-0.3c-1.2,0-1.7,0.8-1.7,2.4s0.5,2.4,1.7,2.4
				c0.5,0,1-0.1,1.4-0.3v0.9c-0.5,0.2-1,0.3-1.5,0.3c-1.9,0-2.6-1.2-2.6-3.3S18.1,152.7,20,152.7z"/>
		</g>
		<g>
			<path class="st1" d="M25.4,157.6h-2l-0.5,1.6h-1l2-6.4h1l2,6.4h-1L25.4,157.6z M24.4,154l-0.8,2.8h1.6L24.4,154z"/>
		</g>
		<g>
			<path class="st1" d="M28.9,153.7v5.5H28v-5.5h-1.7v-0.9h4.3v0.9H28.9z"/>
		</g>
		<g>
			<path class="st1" d="M31.4,159.2v-6.4h1v6.4H31.4z"/>
		</g>
		<g>
			<path class="st1" d="M33.3,156c0-1.8,0.4-3.3,2.5-3.3s2.5,1.5,2.5,3.3s-0.4,3.3-2.5,3.3S33.3,157.8,33.3,156z M34.3,156
				c0,1.5,0.3,2.4,1.5,2.4s1.5-0.9,1.5-2.4s-0.3-2.4-1.5-2.4S34.3,154.5,34.3,156L34.3,156z"/>
		</g>
		<g>
			<path class="st1" d="M42.7,159.2l-2.8-4.5v4.5H39v-6.4h0.9l2.8,4.5v-4.5h0.9v6.4H42.7z"/>
		</g>
		<g>
			<path class="st1" d="M47.6,157.6h-2l-0.5,1.6H44l2-6.4h1l2,6.4h-1L47.6,157.6z M46.6,154l-0.8,2.8h1.6L46.6,154z"/>
		</g>
		<g>
			<path class="st1" d="M50.5,158.3h2.8v0.9h-3.7v-6.4h1L50.5,158.3z"/>
		</g>
		<g>
			<path class="st1" d="M58.5,157.6h-2l-0.5,1.6h-1l2-6.4h1l2,6.4h-1L58.5,157.6z M57.5,154l-0.8,2.8h1.6L57.5,154z"/>
		</g>
		<g>
			<path class="st1" d="M64.2,159.2l-2.8-4.5v4.5h-1v-6.4h0.9l2.8,4.5v-4.5h0.9v6.4H64.2z"/>
		</g>
		<g>
			<path class="st1" d="M66,159.2v-6.4h1.9c2.1,0,2.7,1.4,2.7,3.2s-0.6,3.2-2.7,3.2H66z M66.9,158.3h1c1.3,0,1.7-0.9,1.7-2.3
				s-0.4-2.3-1.7-2.3H67L66.9,158.3z"/>
		</g>
		<g>
			<path class="st1" d="M10.4,168.2v-2.9H7.8v2.9h-1v-6.4h1v2.6h2.6v-2.6h1v6.4H10.4z"/>
		</g>
		<g>
			<path class="st1" d="M12.5,168.2v-6.4h0.9v6.4H12.5z"/>
		</g>
		<g>
			<path class="st1" d="M14.4,165c0-2,0.7-3.3,2.6-3.3c0.6,0,1.3,0.1,1.8,0.3v0.9c-0.5-0.2-1.1-0.4-1.7-0.4c-1.3,0-1.8,0.9-1.8,2.4
				s0.5,2.4,1.8,2.4c0.3,0,0.6,0,0.9-0.1v-1.7h-1.1v-0.9H19v3.2c-0.6,0.3-1.3,0.4-2,0.4C15.1,168.3,14.4,167,14.4,165z"/>
		</g>
		<g>
			<path class="st1" d="M23.5,168.2v-2.9h-2.6v2.9H20v-6.4h1v2.6h2.6v-2.6h1v6.4H23.5z"/>
		</g>
		<g>
			<path class="st1" d="M29,165.3h-2.6v2h2.9v0.9h-3.9v-6.4h3.9v0.9h-2.9v1.8H29V165.3z"/>
		</g>
		<g>
			<path class="st1" d="M31.1,168.2h-1v-6.4h2.1c1.6,0,2.2,0.7,2.2,1.9c0.1,0.7-0.3,1.4-1,1.7l1.3,2.8h-1.2l-1.2-2.6h-1.3V168.2z
				 M31.1,164.7h1.3c0.9,0,1-0.5,1-1s-0.1-1-1-1h-1.3V164.7z"/>
		</g>
		<g>
			<path class="st1" d="M40.3,165.3h-2.7v2h2.9v0.9h-3.9v-6.4h3.9v0.9h-2.9v1.8h2.7V165.3z"/>
		</g>
		<g>
			<path class="st1" d="M41.4,168.2v-6.4h1.9c2.1,0,2.7,1.4,2.7,3.2s-0.6,3.2-2.7,3.2H41.4z M42.4,167.3h1c1.3,0,1.7-0.9,1.7-2.3
				s-0.4-2.3-1.7-2.3h-1V167.3z"/>
		</g>
		<g>
			<path class="st1" d="M46.7,166.2v-4.4h1v4.3c0.1,0.7,0.7,1.3,1.5,1.2c0.7-0.1,1.2-0.6,1.2-1.2v-4.3h1v4.4c0,1.1-0.8,2.1-2,2.1
				c-0.1,0-0.3,0-0.4,0c-1.1,0.2-2.2-0.6-2.3-1.7C46.7,166.5,46.6,166.3,46.7,166.2z"/>
		</g>
		<g>
			<path class="st1" d="M54.6,161.7c0.5,0,1,0.1,1.5,0.3v0.9c-0.5-0.2-0.9-0.3-1.4-0.3c-1.2,0-1.7,0.8-1.7,2.4s0.5,2.4,1.7,2.4
				c0.5,0,1-0.1,1.4-0.3v0.9c-0.5,0.2-1,0.3-1.5,0.3c-1.9,0-2.6-1.2-2.6-3.3S52.7,161.7,54.6,161.7z"/>
		</g>
		<g>
			<path class="st1" d="M60,166.6h-2l-0.5,1.6h-1l2-6.4h1l2,6.4h-1L60,166.6z M59,163l-0.8,2.8h1.6L59,163z"/>
		</g>
		<g>
			<path class="st1" d="M63.5,162.7v5.5h-1v-5.5h-1.6v-0.9h4.3v0.9H63.5z"/>
		</g>
		<g>
			<path class="st1" d="M66,168.2v-6.4h1v6.4H66z"/>
		</g>
		<g>
			<path class="st1" d="M67.9,165c0-1.8,0.4-3.3,2.5-3.3s2.5,1.5,2.5,3.3s-0.4,3.3-2.5,3.3S67.9,166.8,67.9,165z M68.9,165
				c0,1.5,0.3,2.4,1.5,2.4s1.5-0.9,1.5-2.4s-0.3-2.4-1.5-2.4S68.9,163.5,68.9,165L68.9,165z"/>
		</g>
		<g>
			<path class="st1" d="M77.4,168.2l-2.8-4.5v4.5h-0.9v-6.4h0.9l2.8,4.5v-4.5h0.9v6.4H77.4z"/>
		</g>
	</g>
	<g>
		<rect x="3.3" y="24" class="st1" width="94.8" height="94.8"/>
	</g>
	<g>
		<path class="st1" d="M98.2,20.7H3.3V3.3h94.8V20.7z M4.3,19.7h92.8V4.3H4.3L4.3,19.7z"/>
	</g>
	<g class="st2">
		<path class="st1" d="M6.7,6.9h4.5v1.4H9.9v8.8H8.1V8.3H6.7V6.9z"/>
	</g>
	<g class="st2">
		<path class="st1" d="M11.2,17.1l1.9-10.2h1.9L17,17.1h-1.8l-0.3-1.9h-1.8l-0.3,1.9H11.2z M13.3,13.9h1.4L14,9.8h0L13.3,13.9z"/>
	</g>
	<g class="st2">
		<path class="st1" d="M19.6,12.4v4.7h-1.7V6.9h2.5c1.7,0,2.4,0.9,2.4,2.3v1.3c0,1.1-0.4,1.7-1.4,2l1.6,4.6h-1.8L19.6,12.4z
			 M19.6,8.3v3.2h0.6c0.6,0,0.8-0.3,0.8-0.8V9.2c0-0.6-0.3-0.8-0.8-0.8H19.6z"/>
	</g>
	<g class="st2">
		<path class="st1" d="M26.4,11.7h2.4v5.4h-1.2V16c-0.2,0.8-0.7,1.2-1.6,1.2c-1.5,0-2.1-1.2-2.1-2.7V9.6c0-1.6,0.8-2.7,2.6-2.7
			c1.9,0,2.4,1.1,2.4,2.6v0.9h-1.6v-1c0-0.6-0.2-1-0.9-1c-0.6,0-0.9,0.4-0.9,1v5.5c0,0.6,0.3,1,0.8,1c0.6,0,0.8-0.3,0.8-1V13h-0.8
			V11.7z"/>
	</g>
	<g class="st2">
		<path class="st1" d="M30.2,6.9h4.1v1.4h-2.4v2.9h1.7v1.4h-1.7v3.1h2.4v1.4h-4.1V6.9z"/>
	</g>
	<g class="st2">
		<path class="st1" d="M35.1,6.9h4.5v1.4h-1.4v8.8h-1.7V8.3h-1.4V6.9z"/>
	</g>
	<g class="st2">
		<path class="st1" d="M78.7,14.4l3-7.5h1.7v7.2H84v1.3h-0.7v1.7h-1.6v-1.7h-3V14.4z M80.2,14.1h1.5V9.9h0L80.2,14.1z"/>
	</g>
	<g class="st2">
	</g>
	<g class="st2">
		<path class="st1" d="M86.8,10.8c0.7,0,1.2,0.6,1.2,1.2c0,0.7-0.6,1.2-1.2,1.2c-0.7,0-1.2-0.6-1.2-1.2
			C85.6,11.4,86.1,10.8,86.8,10.8z"/>
	</g>
	<g class="st2">
		<path class="st1" d="M94.3,9.1V10c0,0.9-0.5,1.4-1.2,1.7c0.9,0.2,1.3,0.8,1.3,1.7v1.5c0,1.4-0.8,2.3-2.5,2.3c-1.7,0-2.4-1-2.4-2.5
			v-1.3h1.6v1.5c0,0.6,0.2,1,0.8,1c0.5,0,0.8-0.4,0.8-0.9v-1.7c0-0.5-0.2-0.8-0.8-0.8h-0.7v-1.3h0.6c0.6,0,0.9-0.3,0.9-0.8V9.2
			c0-0.6-0.2-0.9-0.7-0.9s-0.7,0.4-0.7,1v1h-1.6V9.4c0-1.5,0.6-2.6,2.4-2.6C93.6,6.8,94.3,7.7,94.3,9.1z"/>
	</g>
	<g>
		<path class="st1" d="M98.2,171.9h-95v-49.7h95V171.9z M4.2,170.9h93v-47.7h-93V170.9z"/>
	</g>
	<g>
		<g>
			<path class="st0" d="M85.8,50.3v6.1c0,0.3-0.2,0.5-0.5,0.5c0,0,0,0,0,0H81c-0.3,0-0.5-0.2-0.6-0.5c0,0,0,0,0,0v-6.1
				c-3.5,1.5-5,5.5-3.5,9c0.7,1.6,2,2.9,3.6,3.6v20.9c0,1.6,1.3,2.9,2.9,2.9s2.9-1.3,2.9-2.9l0,0V62.6c3.3-1.7,4.6-5.9,2.9-9.2
				c-0.3-0.6-0.7-1.2-1.2-1.7C87.4,51.2,86.6,50.7,85.8,50.3z"/>
		</g>
		<g>
			<g>
				<polyline class="st0" points="64.6,80.5 66.9,86.6 69.3,80.5 64.6,80.5 				"/>
			</g>
			<g>
				<path class="st0" d="M69.2,79.6V52.1c0-1-1-1.8-2.4-1.8s-2.4,0.8-2.4,1.8v27.5L69.2,79.6z"/>
			</g>
		</g>
		<g>
			<g>
				<polygon class="st0" points="57.3,86 57.3,51.6 55.5,50.2 55.3,50.1 55.3,84.6 35.4,91 34.6,91 34.5,91 34.4,91 34.3,91 
					33.5,91 33.3,91 13.5,85.5 13.5,50.2 13.5,50.1 11.5,51.6 11.5,86.8 33.3,92.9 33.4,92.9 34.3,92.9 34.4,92.9 34.5,92.9 
					34.6,92.9 35.5,92.9 55.5,86.5 				"/>
			</g>
			<g>
				<path class="st0" d="M53.2,83.5V50.1l-18,7.1v31.6h0.1L53.2,83.5z M39.2,70.5V70c0-0.1,0-0.1,0-0.2l0,0
					c-0.4-0.1-0.7-0.3-0.9-0.5l0,0c0,0-0.1,0-0.1,0.1l-0.3,0.2c-0.2,0.1-0.3,0.1-0.3-0.1c-0.1-0.2-0.2-0.5-0.3-0.7
					c0-0.1,0-0.3,0.2-0.4l0.3-0.3c0,0,0.1-0.1,0.1-0.1l0,0c0-0.3,0.1-0.7,0.2-1l0,0c0,0,0-0.1-0.1-0.1l-0.3-0.2
					c-0.1-0.1-0.1-0.2,0-0.4c0.1-0.3,0.3-0.6,0.5-0.8c0.1-0.1,0.2-0.2,0.3-0.1l0.3,0.2c0.1,0,0.1,0,0.2,0c0.2-0.2,0.5-0.4,0.8-0.6
					l0,0c0-0.1,0-0.1,0-0.2c0-0.1,0-0.3,0-0.4c0-0.2,0.1-0.3,0.3-0.3c0.3-0.1,0.5-0.1,0.8-0.1c0.1,0,0.2,0.1,0.2,0.2s0,0.3,0,0.4
					c0,0.1,0,0.1,0,0.2c0.4,0.1,0.7,0.3,0.9,0.5l0,0c0,0,0.1,0,0.1-0.1l0.3-0.2c0.2-0.1,0.3-0.1,0.3,0.1c0.1,0.2,0.2,0.5,0.3,0.7
					c0,0.1,0,0.3-0.1,0.4l-0.3,0.3c-0.1,0-0.1,0.1-0.2,0.2l0,0c0,0.3,0,0.7-0.2,1l0,0c0,0,0,0.1,0.1,0.1l0.3,0.2
					c0.1,0.1,0.1,0.2,0,0.4c-0.1,0.3-0.3,0.6-0.5,0.8c-0.1,0.1-0.2,0.2-0.3,0.1l-0.3-0.2c-0.1,0-0.1,0-0.2,0l0,0
					c-0.2,0.2-0.5,0.4-0.8,0.5l0,0c0,0,0,0.1,0,0.2c0,0.1,0,0.3,0,0.4c0,0.2-0.1,0.3-0.3,0.3c-0.3,0.1-0.5,0.1-0.8,0.2
					C39.3,70.7,39.2,70.6,39.2,70.5L39.2,70.5z M45,61c0-0.1,0-0.1,0-0.2c-0.1-0.1-0.1-0.3-0.2-0.4c-0.1-0.2,0-0.4,0.1-0.5
					c0.3-0.3,0.6-0.5,0.9-0.7c0.2-0.1,0.3-0.1,0.4,0l0.2,0.4c0,0.1,0.1,0.1,0.2,0.1c0.3-0.1,0.7-0.2,1.1-0.2l0,0
					c0.1,0,0.1-0.1,0.1-0.2l0.2-0.5c0.1-0.2,0.2-0.3,0.5-0.3c0.3,0.1,0.6,0.2,0.9,0.3c0.1,0.1,0.2,0.2,0.1,0.4l-0.2,0.5
					c0,0.1,0,0.2,0,0.3c0.3,0.3,0.6,0.8,0.6,1.2l0,0c0.1,0,0.1,0,0.2,0l0.5-0.1c0.2,0,0.3,0,0.3,0.3c0,0.4,0,0.8-0.1,1.1
					c0,0.2-0.2,0.3-0.3,0.4l-0.5,0.1c-0.1,0-0.2,0.1-0.2,0.1l0,0c-0.2,0.4-0.4,0.9-0.7,1.2l0,0c0,0.1,0,0.1,0,0.2l0.2,0.4
					c0.1,0.2,0,0.4-0.1,0.5c-0.3,0.3-0.6,0.5-0.9,0.7c-0.2,0.1-0.3,0.1-0.4,0L47.5,66c0-0.1-0.1-0.1-0.2-0.1l0,0
					c-0.3,0.1-0.7,0.2-1,0.2l0,0c-0.1,0-0.1,0.1-0.1,0.2L46,66.7C45.9,67,45.8,67,45.5,67c-0.3,0-0.6-0.1-0.9-0.3
					c-0.2-0.1-0.2-0.2-0.1-0.4l0.2-0.5c0-0.1,0-0.2,0-0.3l0,0c-0.4-0.3-0.6-0.8-0.7-1.3l0,0c-0.1,0-0.1,0-0.2,0h-0.5
					c-0.2,0-0.3,0-0.3-0.3c0-0.4,0-0.8,0.1-1.1c0-0.2,0.2-0.3,0.3-0.4l0.4,0c0.1,0,0.2-0.1,0.2-0.1l0,0C44.4,61.8,44.7,61.4,45,61
					L45,61z M48.4,76.5L48,76.3c-0.2-0.1-0.4-0.1-0.5,0.1L47,76.8c-0.2,0.1-0.3,0.3-0.3,0.5c0,0.2,0,0.4,0,0.6
					c0,0.2-0.1,0.4-0.3,0.5l-1.1,0.4c-0.2,0.1-0.4,0-0.4-0.2s0-0.4-0.1-0.6c0-0.2-0.1-0.3-0.3-0.3h-0.6c-0.2,0-0.4,0.1-0.5,0.3
					l-0.4,0.5c-0.2,0.2-0.3,0.3-0.5,0.2c-0.3-0.1-0.6-0.3-0.9-0.6c-0.1-0.1-0.1-0.3,0-0.5L42,77c0.1-0.2,0.1-0.4,0-0.5
					c-0.1-0.2-0.2-0.3-0.2-0.5c-0.1-0.2-0.3-0.2-0.4-0.2c0,0,0,0,0,0L40.8,76c-0.2,0.1-0.3,0-0.3-0.2l-0.1-1.2
					c0-0.2,0.1-0.4,0.3-0.5l0.6-0.2c0.2-0.1,0.3-0.2,0.3-0.4c0.1-0.2,0.1-0.5,0.2-0.7c0.1-0.2,0-0.4-0.1-0.5l-0.4-0.3
					c-0.1-0.1-0.1-0.3,0-0.4c0.2-0.5,0.5-0.9,0.8-1.3c0.2-0.2,0.3-0.2,0.5-0.1s0.3,0.2,0.4,0.2c0.2,0.1,0.4,0.1,0.5-0.1l0.5-0.4
					c0.2-0.1,0.3-0.3,0.3-0.5c0-0.2,0-0.4,0-0.6c0-0.2,0.1-0.4,0.3-0.5l1.2-0.4c0.2-0.1,0.3,0,0.4,0.2s0,0.4,0.1,0.6
					s0.1,0.3,0.3,0.3L47,69c0.2,0,0.4-0.1,0.5-0.3l0.4-0.5c0.2-0.2,0.3-0.3,0.5-0.2c0.3,0.1,0.6,0.3,0.9,0.6c0.1,0.1,0.1,0.4,0,0.5
					l-0.3,0.6c-0.1,0.2-0.1,0.4,0,0.5l0.3,0.5c0.1,0.2,0.3,0.2,0.4,0.2c0,0,0,0,0,0l0.6-0.2c0.2-0.1,0.3,0,0.3,0.2
					c0,0.4,0.1,0.8,0.1,1.2c0,0.2-0.1,0.4-0.3,0.5l-0.6,0.2c-0.2,0.1-0.3,0.2-0.3,0.4c-0.1,0.2-0.1,0.5-0.2,0.7
					c-0.1,0.2,0,0.3,0.1,0.5c0.1,0.1,0.3,0.2,0.4,0.3c0.1,0.1,0.2,0.3,0.1,0.5c-0.2,0.4-0.5,0.9-0.8,1.2c-0.1,0.1-0.2,0.2-0.3,0.2
					L48.4,76.5z"/>
			</g>
			<g>
				<path class="st0" d="M47.2,75c1-1.2,1.1-2.8,0.3-3.6s-2.3-0.6-3.3,0.6s-1.1,2.8-0.3,3.6S46.2,76.1,47.2,75z"/>
			</g>
			<g>
				<path class="st0" d="M46,64.3c0.7,0.5,1.7,0.4,2.2-0.3c0,0,0-0.1,0.1-0.1c0.7-0.7,0.8-1.7,0.2-2.5c-0.7-0.5-1.7-0.4-2.2,0.3
					c0,0,0,0.1-0.1,0.1C45.5,62.5,45.4,63.6,46,64.3z"/>
			</g>
			<g>
				<path class="st0" d="M41.1,68.2c0.5-0.5,0.6-1.4,0.1-1.9c-0.6-0.4-1.3-0.3-1.7,0.3c0,0,0,0,0,0.1c-0.6,0.5-0.6,1.4-0.1,2
					C39.9,69,40.7,68.8,41.1,68.2C41.1,68.3,41.1,68.2,41.1,68.2z"/>
			</g>
			<g>
				<path class="st0" d="M33.2,88.8V57.2l-17.7-7l-0.1-0.1v33.3L33.2,88.8L33.2,88.8z M23.6,73.1l-0.1,8l-1.2-0.4l0.1-6.1l0,0
					l-0.9,0.7l0,0v-1.4l1.1-1L23.6,73.1z M27.2,74.4v1.2l-1.6,6.2l-1.2-0.4l1.6-6.3l-1.8-0.7v-1.1L27.2,74.4z M22.9,58.7l1.1-1
					l1,0.3l-0.1,8l-1.2-0.4l0.1-6.1l0,0l-0.8,0.7l0,0L22.9,58.7z M30.7,70.9l0.1,1.1l-12.5-3.9L18.2,67L30.7,70.9z"/>
			</g>
		</g>
	</g>
</g>
</svg>
