<?xml version="1.0" encoding="utf-8"?>
<!-- Generator: Adobe Illustrator 22.0.1, SVG Export Plug-In . SVG Version: 6.00 Build 0)  -->
<svg version="1.1" id="Layer_1" xmlns="http://www.w3.org/2000/svg" xmlns:xlink="http://www.w3.org/1999/xlink" x="0px" y="0px"
	 viewBox="0 0 101.5 148.1" style="enable-background:new 0 0 101.5 148.1;" xml:space="preserve">
<style type="text/css">
	.st0{fill:#FFFFFF;}
	.st1{fill:#C5192D;}
	.st2{enable-background:new    ;}
</style>
<title>TARGET 1 A</title>
<g id="WHITE_BG">
	<g>
		<rect y="0" class="st0" width="101.5" height="148.1"/>
	</g>
</g>
<g id="TARGETS">
	<g>
		<g>
			<path class="st1" d="M6.8,130.2v-4.4h1v4.3c-0.1,0.7,0.4,1.2,1,1.3c0.1,0,0.2,0,0.3,0c0.6,0.1,1.3-0.3,1.4-1c0-0.1,0-0.2,0-0.3
				v-4.3h1v4.4c0,1.1-0.8,2.1-2,2.1c-0.1,0-0.2,0-0.3,0c-1.1,0.2-2.2-0.5-2.4-1.7C6.9,130.5,6.8,130.4,6.8,130.2z"/>
		</g>
		<g>
			<path class="st1" d="M16.1,132.2l-2.8-4.5v4.5h-0.9v-6.4h0.9l2.8,4.5v-4.5h1v6.4L16.1,132.2z"/>
		</g>
		<g>
			<path class="st1" d="M18,132.2v-6.4h1v6.4H18z"/>
		</g>
		<g>
			<path class="st1" d="M24.6,125.8l-2,6.4h-1l-2-6.4h1l1.5,5.2l1.5-5.2L24.6,125.8z"/>
		</g>
		<g>
			<path class="st1" d="M28.8,129.3h-2.6v2H29v0.9h-3.8v-6.4H29v0.9h-2.9v1.8h2.6V129.3z"/>
		</g>
		<g>
			<path class="st1" d="M30.8,132.2h-1v-6.4H32c1.7,0,2.2,0.7,2.2,1.9c0.1,0.7-0.3,1.4-1,1.7l1.3,2.8h-1.2l-1.2-2.6h-1.3V132.2z
				 M30.8,128.7h1.3c0.9,0,1-0.5,1-1s-0.1-1-1-1h-1.3V128.7z"/>
		</g>
		<g>
			<path class="st1" d="M39.1,130.3c0,1.2-0.7,2-2.4,2c-0.6,0-1.3-0.1-1.9-0.4V131c0.6,0.3,1.2,0.4,1.8,0.4c1.2,0,1.5-0.5,1.5-1.1
				s-0.3-0.9-1.2-1c-1.5-0.2-2.2-0.6-2.2-1.8c0-0.9,0.5-1.8,2.3-1.8c0.6,0,1.2,0.1,1.7,0.3v1c-0.5-0.2-1.1-0.3-1.7-0.3
				c-1,0-1.3,0.4-1.3,1c0,0.7,0.4,0.8,1.2,0.9C38.3,128.7,39.1,129,39.1,130.3z"/>
		</g>
		<g>
			<path class="st1" d="M42.8,130.7h-2l-0.5,1.6h-1l2-6.4h1l2,6.4h-1L42.8,130.7z M41.8,127l-0.8,2.8h1.6L41.8,127z"/>
		</g>
		<g>
			<path class="st1" d="M45.8,131.3h2.8v0.9h-3.7v-6.4h1V131.3z"/>
		</g>
		<g>
			<path class="st1" d="M51.5,131.3h2.8v0.9h-3.7v-6.4h1L51.5,131.3z"/>
		</g>
		<g>
			<path class="st1" d="M55,132.2v-6.4h1v6.4H55z"/>
		</g>
		<g>
			<path class="st1" d="M59.2,126.7v5.5h-1v-5.5h-1.7v-0.9h4.3v0.9L59.2,126.7z"/>
		</g>
		<g>
			<path class="st1" d="M65,129.3h-2.7v2h2.9v0.9h-3.9v-6.4h3.9v0.9h-2.9v1.8H65V129.3z"/>
		</g>
		<g>
			<path class="st1" d="M67.1,132.2h-1v-6.4h2.1c1.7,0,2.2,0.7,2.2,1.9c0.1,0.7-0.3,1.4-1,1.7l1.3,2.8h-1.1l-1.2-2.6h-1.3V132.2z
				 M67.1,128.7h1.3c0.9,0,1-0.5,1-1s-0.1-1-1-1h-1.3V128.7z"/>
		</g>
		<g>
			<path class="st1" d="M74.4,130.7h-2l-0.4,1.6h-1l2-6.4h1l2,6.4h-1L74.4,130.7z M73.4,127l-0.8,2.8h1.6L73.4,127z"/>
		</g>
		<g>
			<path class="st1" d="M78.8,125.7c0.5,0,1,0.1,1.5,0.3v0.9c-0.4-0.2-0.9-0.3-1.4-0.3c-1.2,0-1.7,0.8-1.7,2.4s0.5,2.4,1.7,2.4
				c0.5,0,1-0.1,1.4-0.3v0.9c-0.5,0.2-1,0.3-1.5,0.3c-1.9,0-2.6-1.2-2.6-3.3S76.9,125.7,78.8,125.7z"/>
		</g>
		<g>
			<path class="st1" d="M83.7,129.7v2.6h-1v-2.6l-2.2-3.8h1.1l1.6,3l1.6-3h1.1L83.7,129.7z"/>
		</g>
		<g>
			<path class="st1" d="M10.1,139.7h-2l-0.4,1.6h-1l2-6.4h1l2,6.4h-1L10.1,139.7z M9.1,136l-0.8,2.8h1.6L9.1,136z"/>
		</g>
		<g>
			<path class="st1" d="M15.8,141.2l-2.8-4.5v4.5h-0.9v-6.4H13l2.8,4.5v-4.5h0.9v6.4L15.8,141.2z"/>
		</g>
		<g>
			<path class="st1" d="M17.6,141.2v-6.4h1.9c2.1,0,2.7,1.4,2.7,3.2s-0.6,3.2-2.7,3.2H17.6z M18.6,140.3h1c1.3,0,1.7-0.9,1.7-2.3
				s-0.4-2.3-1.7-2.3h-1V140.3z"/>
		</g>
		<g>
			<path class="st1" d="M28.1,141.2l-2.8-4.5v4.5h-0.9v-6.4h0.9l2.8,4.5v-4.5h1v6.4H28.1z"/>
		</g>
		<g>
			<path class="st1" d="M30,139.2v-4.4h1v4.3c-0.1,0.7,0.4,1.2,1,1.3c0.1,0,0.2,0,0.3,0c0.6,0.1,1.3-0.3,1.4-1c0-0.1,0-0.2,0-0.3
				v-4.3h1v4.4c0,1.1-0.8,2.1-2,2.1c-0.1,0-0.2,0-0.3,0c-1.1,0.2-2.2-0.5-2.4-1.7C30,139.5,30,139.4,30,139.2z"/>
		</g>
		<g>
			<path class="st1" d="M38.9,140.3H38l-1.6-3.9v4.8h-1v-6.4h1.2l1.7,4.3l1.7-4.3h1.3v6.4h-1v-4.8L38.9,140.3z"/>
		</g>
		<g>
			<path class="st1" d="M46,138.3h-2.7v2h2.9v0.9h-3.9v-6.4h3.9v0.9h-2.9v1.8H46V138.3z"/>
		</g>
		<g>
			<path class="st1" d="M48,141.2h-1v-6.4h2.1c1.7,0,2.2,0.7,2.2,1.9c0.1,0.7-0.3,1.4-1,1.7l1.3,2.8h-1.1l-1.2-2.6H48V141.2z
				 M48,137.7h1.3c0.9,0,1-0.5,1-1s-0.1-1-1-1H48V137.7z"/>
		</g>
		<g>
			<path class="st1" d="M55.4,139.7h-2l-0.5,1.6h-1l2-6.4h1l2,6.4h-1L55.4,139.7z M54.4,136l-0.8,2.8h1.6L54.4,136z"/>
		</g>
		<g>
			<path class="st1" d="M59.7,134.7c0.5,0,1,0.1,1.5,0.3v0.9c-0.5-0.2-0.9-0.3-1.4-0.3c-1.2,0-1.7,0.8-1.7,2.4s0.5,2.4,1.7,2.4
				c0.5,0,1-0.1,1.4-0.3v0.9c-0.5,0.2-1,0.3-1.5,0.3c-1.9,0-2.6-1.2-2.6-3.3S57.8,134.7,59.7,134.7z"/>
		</g>
		<g>
			<path class="st1" d="M64.7,138.7v2.6h-1v-2.6l-2.2-3.8h1.1l1.6,3l1.6-3h1.1L64.7,138.7z"/>
		</g>
	</g>
	<g>
		<rect x="3.3" y="24" class="st1" width="94.8" height="94.8"/>
	</g>
	<g>
		<path class="st1" d="M98.2,20.7H3.3V3.3h94.8V20.7z M4.3,19.7h92.8V4.3H4.3L4.3,19.7z"/>
	</g>
	<g class="st2">
		<path class="st1" d="M6.7,6.9h4.5v1.4H9.9v8.8H8.1V8.3H6.7V6.9z"/>
	</g>
	<g class="st2">
		<path class="st1" d="M11.2,17.1l1.9-10.2h1.9L17,17.1h-1.8l-0.3-1.9h-1.8l-0.3,1.9H11.2z M13.3,13.9h1.4L14,9.8h0L13.3,13.9z"/>
	</g>
	<g class="st2">
		<path class="st1" d="M19.6,12.5v4.7h-1.7V6.9h2.5c1.7,0,2.4,0.9,2.4,2.3v1.3c0,1.1-0.4,1.7-1.4,2l1.6,4.6h-1.8L19.6,12.5z
			 M19.6,8.3v3.2h0.6c0.6,0,0.8-0.3,0.8-0.8V9.2c0-0.6-0.3-0.8-0.8-0.8H19.6z"/>
	</g>
	<g class="st2">
		<path class="st1" d="M26.4,11.7h2.4v5.4h-1.2V16c-0.2,0.8-0.7,1.2-1.6,1.2c-1.5,0-2.1-1.2-2.1-2.7V9.6c0-1.6,0.8-2.7,2.6-2.7
			c1.9,0,2.4,1.1,2.4,2.6v0.9h-1.6v-1c0-0.6-0.2-1-0.9-1c-0.6,0-0.9,0.4-0.9,1v5.5c0,0.6,0.3,1,0.8,1c0.6,0,0.8-0.3,0.8-1V13h-0.8
			V11.7z"/>
	</g>
	<g class="st2">
		<path class="st1" d="M30.2,6.9h4.1v1.4h-2.4v2.9h1.7v1.4h-1.7v3.1h2.4v1.4h-4.1V6.9z"/>
	</g>
	<g class="st2">
		<path class="st1" d="M35.1,6.9h4.5v1.4h-1.4v8.8h-1.7V8.3h-1.4V6.9z"/>
	</g>
	<g class="st2">
		<path class="st1" d="M78.3,14.4l3-7.5h1.7v7.2h0.7v1.3h-0.7v1.7h-1.6v-1.7h-3V14.4z M79.8,14.1h1.5V9.9h0L79.8,14.1z"/>
	</g>
	<g class="st2">
	</g>
	<g class="st2">
		<path class="st1" d="M86.4,10.8c0.7,0,1.2,0.6,1.2,1.2c0,0.7-0.6,1.2-1.2,1.2c-0.7,0-1.2-0.6-1.2-1.2
			C85.2,11.4,85.7,10.8,86.4,10.8z"/>
	</g>
	<g class="st2">
		<path class="st1" d="M89.3,14.5v-5c0-1.6,0.7-2.7,2.5-2.7c1.9,0,2.4,1.1,2.4,2.6v0.5h-1.6V9.2c0-0.6-0.2-1-0.8-1
			c-0.6,0-0.8,0.4-0.8,1v2.2h0c0.3-0.5,0.7-0.8,1.4-0.8c1.2,0,1.9,0.8,1.9,2.5v1.5c0,1.6-0.7,2.6-2.5,2.6
			C90,17.2,89.3,16.1,89.3,14.5z M92.7,14.8v-1.8c0-0.7-0.2-1-0.8-1c-0.5,0-0.8,0.4-0.8,0.9v1.9c0,0.6,0.2,1,0.8,1
			C92.4,15.8,92.7,15.5,92.7,14.8z"/>
	</g>
	<g>
		<path class="st1" d="M98.2,144.8H3.3v-22.6h94.8V144.8z M4.3,143.8h92.8v-20.6H4.3L4.3,143.8z"/>
	</g>
	<g>
		<g>
			<path class="st0" d="M80.8,69.3c-1.1-0.8-2.4-1.2-3.7-1.2h-4.5l-3.6,3.6l-1.8-1.8l-1.8-1.8h-4.8c-1.9,0-3.7,0.9-5,2.3l13.5,4l0,0
				l13.1-3.9C81.8,70.1,81.3,69.7,80.8,69.3z"/>
		</g>
		<g>
			<path class="st0" d="M44.4,69.3c-1.1-0.8-2.4-1.2-3.7-1.2h-4.5l-3.6,3.6l-1.8-1.8L29,68.1h-4.8c-1.9,0-3.7,0.9-5,2.3l13.5,4l0,0
				l13.1-3.9C45.4,70.1,44.9,69.7,44.4,69.3z"/>
		</g>
		<g>
			<path class="st0" d="M57.8,72.6L55,71.8l-0.7-0.2l-0.5-0.2l-2-0.6l0,0v7.8c0.2,0,0.4,0,0.6,0.1c1,0.3,1.7,1.2,1.7,2.3
				c0,1.3-1,2.4-2.3,2.4v6.5l16.3,3.7l0,0v-8.2v-2.9v-3.5v-3.4l-7.7-2.3L57.8,72.6z"/>
		</g>
		<g>
			<path class="st0" d="M84.7,79c0.4-0.3,0.8-0.4,1.3-0.4h0.1v-7.8l0,0l-1.6,0.5l-0.6,0.2l-0.6,0.2l-3.3,1l-2.6,0.8l-7.7,2.3v9.8
				v8.1l0,0l16.3-3.7v-6.5H86c-0.5,0-0.9-0.1-1.3-0.4c-0.1,0-0.2-0.1-0.2-0.2c-1-0.8-1.2-2.4-0.3-3.4C84.3,79.2,84.5,79.1,84.7,79
				L84.7,79z M81.9,86.8l-9,2.3v-1.3l9-2.3V86.8z M81.9,84l-9,2.3V85l9-2.3V84z M81.9,81.2l-9,2.3v-1.3l9-2.4V81.2z M81.9,78.5
				l-9,2.3v-1.3l9-2.4V78.5z"/>
		</g>
		<g>
			<path class="st0" d="M73.8,57.6c-0.6-0.5-1.1-1-2.1-0.5c-0.7,0.3-0.9,0.5-1.7,0.9c-1.4,0.7-3,1.1-4.6,1.4
				c-1.2,0.2-2.4,0.3-3.6,0.2c0.4,4,4,6.9,8,6.4c3.3-0.4,6-2.9,6.4-6.3C75.4,59,74.6,58.3,73.8,57.6z"/>
		</g>
		<g>
			<path class="st0" d="M61.8,58c1,0.1,2.1,0,3.1-0.2c1.5-0.2,3-0.7,4.3-1.3c0.7-0.3,1.5-0.7,2.3-0.9c0.5-0.2,1-0.3,1.5-0.2
				c0.2,0.1,0.5,0.2,0.7,0.4c0.3,0.2,0.4,0.3,0.6,0.5c0,0,0.3,0.2,2,1.5c0.2,0.2,0.4,0.3,0.5,0.3c0.4-0.1,0.2-1.3,0.1-1.9
				c-0.3-1.8-1.1-3.6-2.3-5c-0.3-0.5-0.9-0.8-1.5-0.7c-0.8,0-1.5-0.3-2.1-0.9c-0.9-0.6-3.1-0.4-5.6,0.9c-1.8,0.9-3.9,3.9-4.9,6.6
				C60.1,57.7,61.2,57.9,61.8,58z"/>
		</g>
		<g>
			<path class="st0" d="M48,71.3l-0.6,0.2l-0.6,0.2l-3.3,1l-2.6,0.8l-7.7,2.3v3.4v3.4v3v8.1l0,0L49.6,90v-6.6h-0.1
				c-0.5,0-0.9-0.2-1.3-0.4c-0.1,0-0.2-0.1-0.2-0.2c-1-0.8-1.2-2.4-0.3-3.4c0.5-0.6,1.1-0.9,1.8-0.9h0.1v-7.8l0,0L48,71.3z
				 M45.5,86.7l-9,2.3v-1.3l9-2.3V86.7z M45.5,84l-9,2.3V85l9-2.3V84z M45.5,81.2l-9,2.3v-1.3l9-2.4V81.2z M45.5,78.4l-9,2.3v-1.3
				l9-2.4V78.4z"/>
		</g>
		<g>
			<path class="st0" d="M24.1,73.4l-2.2-0.7l-0.4-0.1L21,72.5l-2.4-0.7L18,71.6h-0.1l-0.5-0.2l-2-0.6l0,0v7.8l0,0
				c0.3,0,0.6,0.1,0.9,0.2c0.1,0,0.2,0.1,0.3,0.2c0.2,0.1,0.4,0.2,0.5,0.4c0.9,0.9,0.9,2.5,0,3.4c-0.4,0.4-1,0.7-1.7,0.7v6.5
				l16.3,3.7l0,0v-8.2v-9.8l-1.2-0.4L24.1,73.4z"/>
		</g>
		<g>
			<path class="st0" d="M20.3,56.7c0.2-0.6,0.9-1.7,3.1-1.9c0.4-0.1,0.8-0.2,1.2-0.4c0.4-0.7,0.8-1.3,1.4-1.9c0-0.1,0-0.2,0-0.4
				c-0.1-1-1.2-2.2-3.4-1.2c-2.8,1.3-2.5,5.4-2.5,5.4C20.2,56.6,20.2,56.8,20.3,56.7z"/>
		</g>
		<g>
			<path class="st0" d="M40.2,54.3c0.4,0.2,0.8,0.4,1.3,0.4c2.2,0.3,2.9,1.3,3.1,1.9c0,0.2,0.1-0.1,0.2-0.5c0,0,0.3-4.1-2.5-5.4
				c-2.2-1-3.3,0.2-3.4,1.2c0,0.2,0,0.4,0,0.5C39.4,53.1,39.9,53.6,40.2,54.3z"/>
		</g>
		<g>
			<path class="st0" d="M32.4,66.2c4.2,0,7.6-3.4,7.6-7.6S36.6,51,32.4,51s-7.6,3.4-7.6,7.6c0,0,0,0,0,0
				C24.8,62.8,28.2,66.2,32.4,66.2C32.4,66.2,32.4,66.2,32.4,66.2z"/>
		</g>
	</g>
</g>
</svg>
