<?xml version="1.0" encoding="utf-8"?>
<!-- Generator: Adobe Illustrator 22.0.1, SVG Export Plug-In . SVG Version: 6.00 Build 0)  -->
<svg version="1.1" id="Layer_1" xmlns="http://www.w3.org/2000/svg" xmlns:xlink="http://www.w3.org/1999/xlink" x="0px" y="0px"
	 viewBox="0 0 101.5 157.1" style="enable-background:new 0 0 101.5 157.1;" xml:space="preserve">
<style type="text/css">
	.st0{fill:#FFFFFF;}
	.st1{fill:#C5192D;}
	.st2{enable-background:new    ;}
	.st3{fill:#C22033;}
</style>
<title>TARGET 1 B copy 3</title>
<g id="WHITE_BG">
	<g>
		<rect y="0" class="st0" width="101.5" height="157.1"/>
	</g>
</g>
<g id="TARGETS">
	<g>
		<g>
			<path class="st1" d="M6.9,125.8H9c1.6,0,2,0.8,2,1.7c0,0.5-0.3,1-0.8,1.3c0.6,0.2,1.1,0.8,1,1.5c0,1.1-0.5,1.9-2.2,1.9H6.9V125.8
				z M9.1,126.7H7.8v1.8h1.2c0.4,0.1,0.9-0.2,0.9-0.7c0-0.1,0-0.1,0-0.2C10,127.2,9.9,126.7,9.1,126.7z M7.8,131.3h1.3
				c0.9,0,1.1-0.5,1.1-1s-0.3-1-1.1-1H7.8L7.8,131.3z"/>
		</g>
		<g>
			<path class="st1" d="M11.9,130.2v-4.4h1v4.3c-0.1,0.7,0.4,1.2,1,1.3c0.1,0,0.2,0,0.3,0c0.6,0.1,1.3-0.3,1.4-1c0-0.1,0-0.2,0-0.3
				v-4.3h1v4.4c0.1,1.1-0.8,2.1-1.9,2.1c-0.1,0-0.3,0-0.4,0c-1.1,0.2-2.1-0.5-2.4-1.5C11.9,130.6,11.9,130.4,11.9,130.2z"/>
		</g>
		<g>
			<path class="st1" d="M17.6,132.2v-6.4h1v6.4H17.6z"/>
		</g>
		<g>
			<path class="st1" d="M20.6,131.3h2.8v0.9h-3.7v-6.4h1V131.3z"/>
		</g>
		<g>
			<path class="st1" d="M23.9,132.2v-6.4h1.9c2.1,0,2.7,1.4,2.7,3.2s-0.6,3.2-2.7,3.2L23.9,132.2z M24.8,131.3h1
				c1.3,0,1.7-0.9,1.7-2.3s-0.4-2.3-1.7-2.3h-1V131.3z"/>
		</g>
		<g>
			<path class="st1" d="M33.9,130.6h-2l-0.5,1.6h-1l2-6.4h1l2,6.4h-1L33.9,130.6z M32.9,127l-0.8,2.8h1.6L32.9,127z"/>
		</g>
		<g>
			<path class="st1" d="M39.6,132.2l-2.8-4.5v4.5h-0.9v-6.4h0.9l2.8,4.5v-4.5h0.9v6.4H39.6z"/>
		</g>
		<g>
			<path class="st1" d="M41.4,132.2v-6.4h1.9c2.1,0,2.7,1.4,2.7,3.2s-0.6,3.2-2.7,3.2L41.4,132.2z M42.4,131.3h1
				c1.3,0,1.7-0.9,1.7-2.3s-0.4-2.3-1.7-2.3h-1V131.3z"/>
		</g>
		<g>
			<path class="st1" d="M48.2,130.2v-4.4h1v4.3c0,0.8,0.6,1.4,1.4,1.4s1.4-0.6,1.4-1.4v-4.3h1v4.4c0.1,1.1-0.8,2.1-1.9,2.1
				c-0.1,0-0.3,0-0.4,0c-1.1,0.2-2.2-0.6-2.3-1.7C48.2,130.5,48.2,130.3,48.2,130.2z"/>
		</g>
		<g>
			<path class="st1" d="M54.7,132.2h-1v-6.4h2c1.6,0,2.2,1,2.2,2c0,1-0.6,2-2.2,2h-1.1L54.7,132.2z M54.7,128.9h1.1
				c0.6,0.1,1.2-0.4,1.2-1s-0.4-1.2-1-1.2c-0.1,0-0.1,0-0.2,0h-1.1V128.9z"/>
		</g>
		<g>
			<path class="st1" d="M58.3,129c0-2,0.7-3.3,2.6-3.3c0.6,0,1.3,0.1,1.8,0.3v1c-0.5-0.2-1.1-0.4-1.7-0.4c-1.3,0-1.8,0.9-1.8,2.4
				s0.5,2.4,1.8,2.4c0.3,0,0.6,0,0.9-0.1v-1.7h-1.1v-0.9h2.1v3.2c-0.6,0.3-1.3,0.4-2,0.4C59,132.3,58.3,131,58.3,129z"/>
		</g>
		<g>
			<path class="st1" d="M64.8,132.2h-1v-6.4H66c1.7,0,2.2,0.7,2.2,1.9c0.1,0.7-0.3,1.4-1,1.7l1.3,2.8h-1.2l-1.2-2.6h-1.3V132.2z
				 M64.8,128.7h1.2c0.9,0,1-0.5,1-1s-0.1-1-1-1h-1.2V128.7z"/>
		</g>
		<g>
			<path class="st1" d="M72.2,130.6h-2l-0.4,1.6h-1l2-6.4h1l2,6.4h-1L72.2,130.6z M71.2,127l-0.8,2.8H72L71.2,127z"/>
		</g>
		<g>
			<path class="st1" d="M74.2,132.2v-6.4h1.9c2.1,0,2.7,1.4,2.7,3.2s-0.6,3.2-2.7,3.2L74.2,132.2z M75.2,131.3h1
				c1.3,0,1.7-0.9,1.7-2.3s-0.4-2.3-1.7-2.3h-1V131.3z"/>
		</g>
		<g>
			<path class="st1" d="M83.2,129.3h-2.7v2h2.9v0.9h-3.9v-6.4h3.9v0.9h-2.9v1.8h2.7V129.3z"/>
		</g>
		<g>
			<path class="st1" d="M7,141.2v-6.4h1v6.4H7z"/>
		</g>
		<g>
			<path class="st1" d="M12.8,141.2l-2.8-4.5v4.5H9.1v-6.4h0.9l2.8,4.5v-4.5h0.9v6.4H12.8z"/>
		</g>
		<g>
			<path class="st1" d="M17,134.7c0.5,0,1,0.1,1.5,0.3v0.9c-0.5-0.2-0.9-0.3-1.4-0.3c-1.2,0-1.7,0.8-1.7,2.4s0.5,2.4,1.7,2.4
				c0.5,0,1-0.1,1.4-0.3v0.9c-0.5,0.2-1,0.3-1.5,0.3c-1.9,0-2.6-1.2-2.6-3.3S15.1,134.7,17,134.7z"/>
		</g>
		<g>
			<path class="st1" d="M20.2,140.3h2.8v0.9h-3.7v-6.4h1L20.2,140.3z"/>
		</g>
		<g>
			<path class="st1" d="M23.4,139.2v-4.4h1v4.3c-0.1,0.7,0.4,1.2,1,1.3c0.1,0,0.2,0,0.3,0c0.6,0.1,1.3-0.3,1.4-1c0-0.1,0-0.2,0-0.3
				v-4.3H28v4.4c0.1,1.1-0.8,2.1-1.9,2.1c-0.1,0-0.3,0-0.4,0c-1.1,0.2-2.1-0.6-2.3-1.7C23.4,139.5,23.4,139.3,23.4,139.2z"/>
		</g>
		<g>
			<path class="st1" d="M33,139.3c0,1.2-0.7,2-2.4,2c-0.6,0-1.3-0.1-1.9-0.4V140c0.6,0.3,1.2,0.4,1.8,0.4c1.1,0,1.5-0.5,1.5-1.1
				s-0.3-0.9-1.1-1c-1.6-0.2-2.2-0.6-2.2-1.8c0-0.9,0.5-1.8,2.3-1.8c0.6,0,1.2,0.1,1.7,0.3v1c-0.5-0.2-1.1-0.3-1.7-0.3
				c-1,0-1.3,0.4-1.3,1s0.4,0.8,1.2,0.9C32.2,137.7,33,138,33,139.3z"/>
		</g>
		<g>
			<path class="st1" d="M33.9,141.2v-6.4h1v6.4H33.9z"/>
		</g>
		<g>
			<path class="st1" d="M40.5,134.8l-2,6.4h-1l-2-6.4h1L38,140l1.5-5.2L40.5,134.8z"/>
		</g>
		<g>
			<path class="st1" d="M44.6,138.3H42v2h2.9v0.9H41v-6.4h3.9v0.9H42v1.8h2.7L44.6,138.3z"/>
		</g>
		<g>
			<path class="st1" d="M50.3,139.6h-2l-0.5,1.6h-1l2-6.4h1l2,6.4h-1L50.3,139.6z M49.3,136l-0.8,2.8h1.6L49.3,136z"/>
		</g>
		<g>
			<path class="st1" d="M56,141.2l-2.8-4.5v4.5h-0.9v-6.4h0.9l2.8,4.5v-4.5h0.9v6.4H56z"/>
		</g>
		<g>
			<path class="st1" d="M57.8,141.2v-6.4h1.9c2.1,0,2.7,1.4,2.7,3.2s-0.6,3.2-2.7,3.2H57.8z M58.8,140.3h1c1.3,0,1.7-0.9,1.7-2.3
				s-0.4-2.3-1.7-2.3h-1V140.3z"/>
		</g>
		<g>
			<path class="st1" d="M68.8,139.3c0,1.2-0.7,2-2.4,2c-0.6,0-1.3-0.1-1.9-0.4V140c0.6,0.3,1.2,0.4,1.8,0.4c1.2,0,1.5-0.5,1.5-1.1
				s-0.3-0.9-1.2-1c-1.6-0.2-2.2-0.6-2.2-1.8c0-0.9,0.5-1.8,2.3-1.8c0.6,0,1.2,0.1,1.7,0.3v1c-0.5-0.2-1.1-0.3-1.7-0.3
				c-1,0-1.3,0.4-1.3,1s0.4,0.8,1.2,0.9C68.1,137.7,68.8,138,68.8,139.3z"/>
		</g>
		<g>
			<path class="st1" d="M72.5,139.6h-2l-0.4,1.6H69l2-6.4h1l2,6.4h-1L72.5,139.6z M71.5,136l-0.8,2.8h1.6L71.5,136z"/>
		</g>
		<g>
			<path class="st1" d="M78.1,138.4h-2.6v2.8h-1v-6.4h3.8v0.9h-2.8v1.8h2.6V138.4z"/>
		</g>
		<g>
			<path class="st1" d="M82.7,138.3H80v2h3v0.9h-3.9v-6.4H83v0.9h-3v1.8h2.7L82.7,138.3z"/>
		</g>
		<g>
			<path class="st1" d="M11.1,148.3c0,1.2-0.7,2-2.4,2c-0.6,0-1.3-0.1-1.9-0.4V149c0.6,0.3,1.2,0.4,1.8,0.4c1.1,0,1.5-0.5,1.5-1.1
				s-0.3-0.9-1.2-1c-1.6-0.2-2.2-0.6-2.2-1.8c0-0.9,0.5-1.8,2.3-1.8c0.6,0,1.2,0.1,1.7,0.3v1c-0.5-0.2-1.1-0.3-1.7-0.3
				c-1,0-1.3,0.4-1.3,1s0.4,0.8,1.2,0.9C10.3,146.7,11.1,147,11.1,148.3z"/>
		</g>
		<g>
			<path class="st1" d="M14.3,143.7c0.5,0,1,0.1,1.5,0.3v0.9c-0.5-0.2-0.9-0.3-1.4-0.3c-1.2,0-1.7,0.8-1.7,2.4s0.5,2.4,1.7,2.4
				c0.5,0,1-0.1,1.4-0.3v0.9c-0.5,0.2-1,0.3-1.5,0.3c-1.9,0-2.6-1.2-2.6-3.3S12.4,143.7,14.3,143.7z"/>
		</g>
		<g>
			<path class="st1" d="M20.2,150.2v-2.9h-2.6v2.9h-1v-6.4h1v2.6h2.6v-2.6h1v6.4H20.2z"/>
		</g>
		<g>
			<path class="st1" d="M22,147c0-1.8,0.4-3.3,2.5-3.3s2.5,1.5,2.5,3.3s-0.4,3.3-2.5,3.3S22,148.8,22,147z M23,147
				c0,1.5,0.3,2.4,1.5,2.4s1.5-0.9,1.5-2.4s-0.3-2.4-1.5-2.4S23,145.5,23,147z"/>
		</g>
		<g>
			<path class="st1" d="M27.6,147c0-1.8,0.4-3.3,2.5-3.3s2.5,1.5,2.5,3.3s-0.4,3.3-2.5,3.3S27.6,148.8,27.6,147z M28.6,147
				c0,1.5,0.3,2.4,1.5,2.4s1.5-0.9,1.5-2.4s-0.3-2.4-1.5-2.4S28.5,145.5,28.6,147L28.6,147z"/>
		</g>
		<g>
			<path class="st1" d="M34.3,149.3h2.8v0.9h-3.7v-6.4h1V149.3z"/>
		</g>
		<g>
			<path class="st1" d="M41.8,148.3c0,1.2-0.7,2-2.4,2c-0.6,0-1.3-0.1-1.9-0.4V149c0.6,0.3,1.2,0.4,1.8,0.4c1.2,0,1.5-0.5,1.5-1.1
				s-0.3-0.9-1.2-1c-1.6-0.2-2.2-0.6-2.2-1.8c0-0.9,0.5-1.8,2.3-1.8c0.6,0,1.2,0.1,1.7,0.3v1c-0.5-0.2-1.1-0.3-1.7-0.3
				c-1,0-1.3,0.4-1.3,1s0.4,0.8,1.2,0.9C41,146.7,41.8,147,41.8,148.3z"/>
		</g>
	</g>
	<g>
		<rect x="3.3" y="24" class="st1" width="94.8" height="94.8"/>
	</g>
	<g>
		<path class="st1" d="M98.2,20.7H3.3V3.3h94.8V20.7z M4.3,19.7h92.8V4.3H4.3L4.3,19.7z"/>
	</g>
	<g class="st2">
		<path class="st1" d="M6.7,6.9h4.5v1.4H9.9v8.8H8.1V8.3H6.7V6.9z"/>
	</g>
	<g class="st2">
		<path class="st1" d="M11.2,17.1l1.9-10.2h1.9L17,17.1h-1.8l-0.3-1.9h-1.8l-0.3,1.9H11.2z M13.3,13.9h1.4L14,9.8h0L13.3,13.9z"/>
	</g>
	<g class="st2">
		<path class="st1" d="M19.6,12.4v4.7h-1.7V6.9h2.5c1.7,0,2.4,0.9,2.4,2.3v1.3c0,1.1-0.4,1.7-1.4,2l1.6,4.6h-1.8L19.6,12.4z
			 M19.6,8.3v3.2h0.6c0.6,0,0.8-0.3,0.8-0.8V9.2c0-0.6-0.3-0.8-0.8-0.8H19.6z"/>
	</g>
	<g class="st2">
		<path class="st1" d="M26.4,11.7h2.4v5.4h-1.2V16c-0.2,0.8-0.7,1.2-1.6,1.2c-1.5,0-2.1-1.2-2.1-2.7V9.6c0-1.6,0.8-2.7,2.6-2.7
			c1.9,0,2.4,1.1,2.4,2.6v0.9h-1.6v-1c0-0.6-0.2-1-0.9-1c-0.6,0-0.9,0.4-0.9,1v5.5c0,0.6,0.3,1,0.8,1c0.6,0,0.8-0.3,0.8-1V13h-0.8
			V11.7z"/>
	</g>
	<g class="st2">
		<path class="st1" d="M30.2,6.9h4.1v1.4h-2.4v2.9h1.7v1.4h-1.7v3.1h2.4v1.4h-4.1V6.9z"/>
	</g>
	<g class="st2">
		<path class="st1" d="M35.1,6.9h4.5v1.4h-1.4v8.8h-1.7V8.3h-1.4V6.9z"/>
	</g>
	<g class="st2">
		<path class="st1" d="M88.8,17.1l1.9-10.2h1.9l1.9,10.2h-1.8l-0.3-1.9h-1.8l-0.3,1.9H88.8z M90.9,13.9h1.4l-0.7-4.1h0L90.9,13.9z"
			/>
	</g>
	<g class="st2">
		<path class="st1" d="M77.9,14.4l3-7.5h1.7v7.2h0.7v1.3h-0.7v1.7H81v-1.7h-3V14.4z M79.4,14.1H81V9.9h0L79.4,14.1z"/>
	</g>
	<g>
		<polygon class="st1" points="85.4,9.9 85.4,14.1 87.6,12 		"/>
	</g>
	<g>
		<path class="st3" d="M98.2,153.8h-95v-31.7h95V153.8z M4.2,152.8h93v-29.7h-93V152.8z"/>
	</g>
	<g>
		<g>
			<g>
				<path class="st0" d="M51.5,38.2l8.6,7.7h26.6l-6.5-7.7H61c-0.6,0-1.1-0.2-1.6-0.5l-7.9-5.8L34.9,45.9h8L51.5,38.2z"/>
			</g>
			<g>
				<path class="st0" d="M35.7,75V47.2h-1v3.4H20v-3.4h-1v3.4h-3.2v-3.4h-1v27.8h1v-2.3H19V75l0,0v0.2h1v-2.4h14.7V75H35.7z
					 M19,71.7h-3.2v-2.5H19V71.7z M19,68.2h-3.2v-2.5H19V68.2z M19,64.7h-3.2v-2.5H19V64.7z M19,61.2h-3.2v-2.5H19V61.2z M19,57.7
					h-3.2v-2.5H19V57.7z M19,54.2h-3.2v-2.5H19V54.2z M34.7,64.5l-6.1-2.8l6.1-2.8V64.5z M21.9,64.7l5.4-2.5l5.4,2.5H21.9z
					 M32.7,65.7l-5.4,2.5L22,65.7L32.7,65.7z M31.9,58.7h0.9l-5.4,2.5l-5.3-2.4L31.9,58.7z M21.9,57.7l5.3-2.4l5.3,2.4H21.9
					L21.9,57.7z M34.7,57.6l-6.3-2.9l6.3-2.9V57.6z M32.5,51.7l-5.4,2.5l-5.4-2.5H32.5z M20,51.9l6,2.7l-6,2.7V51.9z M20,58.8
					l6.1,2.8L20,64.5V58.8z M20,65.8l6.2,2.8L20,71.5V65.8z M22,71.7l5.4-2.5l5.4,2.5H22z M28.5,68.7l6.1-2.8v5.6L28.5,68.7z"/>
			</g>
			<g>
				<rect x="51.9" y="75.9" class="st0" width="10" height="1.2"/>
			</g>
			<g>
				<path class="st0" d="M59,47.3l-7.6-7l-8.1,7H37v27.8h1.4l8.5-1.9v-10h4.2v9.3h0.5v-9.3H56v10.5h-4.1v1.4h31.7V47.3H59z
					 M71.2,50.6h3.2V53h-3.2V50.6z M71.2,53.5h3.2v5.4h-3.2V53.5z M51.4,46.5c2,0,3.6,1.6,3.6,3.6c0,2-1.6,3.6-3.6,3.6
					c-2,0-3.6-1.6-3.6-3.6C47.8,48.1,49.4,46.5,51.4,46.5L51.4,46.5z M46.9,62.7v-0.8c0,0,1.3-1.3,4.5-1.3s4.6,1.3,4.6,1.3v0.8H46.9
					z M65.1,69.6h-3.2v-5.4h3.2V69.6z M65.1,63.7h-3.2v-2.4h3.2V63.7z M65.1,58.8h-3.2v-5.4h3.2V58.8z M68.9,69.6h-3.2v-5.4h3.2
					V69.6z M68.9,63.7h-3.2v-2.4h3.2V63.7z M68.9,58.8h-3.2v-5.4h3.2V58.8z M68.9,53h-3.2v-2.4h-0.5V53h-3.2v-2.4h6.9V53z
					 M74.4,69.7h-3.2v-5.5h3.2V69.7z M78.1,69.7h-3.2v-5.5h3.2V69.7z M78.1,63.7h-3.2v-2.3h-0.5v2.3h-3.2v-2.3h6.9V63.7z M78.1,58.9
					h-3.2v-5.4h3.2V58.9z M78.1,53h-3.2v-2.4h3.2V53z"/>
			</g>
			<g>
				<polygon class="st0" points="43.9,75.1 35.1,77.1 50.8,77.1 50.8,73.6 46.9,74.5 				"/>
			</g>
			<g>
				<path class="st0" d="M50,51.8c0.1,0,0.1,0,0.2-0.1l1.4-1.4v-2.8c0-0.1-0.1-0.3-0.3-0.3s-0.3,0.1-0.3,0.3V50l-1.2,1.3
					c-0.1,0.1-0.1,0.3,0,0.4C49.9,51.7,50,51.7,50,51.8L50,51.8z"/>
			</g>
		</g>
		<g>
			<g>
				<g>
					<path class="st0" d="M85.7,97.5c0,0-0.4-1.4-1.6-1.4H83h-3.2c-0.3,0-0.6-0.1-0.8-0.4c-0.4-0.4-1.6-2.6-1.7-2.7l-0.6-1
						c-0.2-0.3-0.5-0.5-0.8-0.5c-0.6,0-1,0.4-1,1c0,0.1,0,0.3,0.1,0.4l3.3,5.9c0.1,0.2,0.1,0.4,0.2,0.6v0.7c0,0.2,0,0.4-0.1,0.6
						l-1.2,4.8h1.4v4.2l0,0c0,0.7,0.6,1.3,1.3,1.3c0.1,0,0.2,0,0.4-0.1c0.5-0.2,0.9-0.7,0.9-1.3v-4c0-0.1,0-0.1,0-0.2h0.8
						c0,0.1,0,0.1,0,0.2v4c0,0.6,0.3,1.1,0.9,1.3c0.7,0.2,1.4-0.1,1.7-0.8c0-0.1,0.1-0.3,0.1-0.4v-4.2h1.4l-1.9-6.6
						c0,0-0.1-0.3,0.2-0.4s0.3,0.2,0.3,0.2l1.6,4.9c0.1,0.5,0.6,0.8,1.1,0.7c0.8-0.2,0.5-1.1,0.5-1.1L85.7,97.5z"/>
				</g>
				<g>
					<path class="st0" d="M81.7,94.9c1.5,0,2.6-1.2,2.6-2.6s-1.2-2.6-2.6-2.6s-2.6,1.2-2.6,2.6l0,0C79.1,93.7,80.3,94.9,81.7,94.9z"
						/>
				</g>
			</g>
			<g>
				<g>
					<path class="st0" d="M20.3,94.7c1.4,0,2.6-1.2,2.6-2.6c0-1.4-1.2-2.6-2.6-2.6c-1.4,0-2.6,1.2-2.6,2.6c0,0,0,0,0,0
						C17.7,93.6,18.9,94.7,20.3,94.7C20.3,94.7,20.3,94.7,20.3,94.7z"/>
				</g>
				<g>
					<path class="st0" d="M26.5,102.3c0-0.1-0.8-2-1-2.5c-1.6-4-1.8-4-3.2-4h-4c-1.4,0-1.7,0-3.2,4c-0.2,0.6-1.2,2.8-1.2,2.9
						s-0.4,1,0.5,1.3s1.1-0.7,1.1-0.7l1.6-3.9c0,0,0-0.1,0.1-0.1s0.1,0.1,0.1,0.1v10.2l0,0c0,0.7,0.5,1.4,1.3,1.4c0,0,0,0,0.1,0
						c0.7,0,1.3-0.6,1.3-1.3c0,0,0,0,0-0.1v-4.1c0,0,0-0.6,0.4-0.6s0.4,0.6,0.4,0.6v4.1c0,0.7,0.5,1.4,1.3,1.4c0,0,0,0,0.1,0
						c0.7,0,1.3-0.6,1.3-1.3c0,0,0-0.1,0-0.1l0,0V99.4c0-0.1,0-0.1,0-0.1s0.1,0.1,0.1,0.1l1.5,3.5c0,0,0.4,0.9,1.2,0.6
						S26.5,102.3,26.5,102.3z"/>
				</g>
			</g>
			<g>
				<g>
					<path class="st0" d="M68.6,89.4h-5.5c-1.5,0.2-2.7,1.5-2.7,3v6.4c0.1,0.5,0.5,0.9,1,0.8c0.4,0,0.8-0.4,0.8-0.8v-5.4
						c0-0.2,0.1-0.5,0.4-0.5s0.3,0.3,0.3,0.4v16.4c0,0.7,0.6,1.3,1.3,1.3c0.7,0,1.3-0.6,1.3-1.3v-9.5c0-0.2,0.1-0.4,0.3-0.4
						c0,0,0,0,0,0l0,0c0.2,0,0.4,0.1,0.4,0.3c0,0,0,0,0,0v9.5c0.1,0.7,0.7,1.2,1.4,1.2c0.6-0.1,1.1-0.5,1.2-1.2V93.3
						c0-0.2,0.1-0.4,0.3-0.4s0.4,0.3,0.4,0.5v5.5c0,0.5,0.4,0.9,0.9,0.9c0.5,0,0.9-0.4,0.9-0.9v-6.4C71.4,90.9,70.2,89.6,68.6,89.4z
						"/>
				</g>
				<g>
					<g>
						<path class="st0" d="M67.6,85.6c-0.2-0.2-0.4-0.4-0.8-0.2s-0.3,0.2-0.6,0.3c-0.9,0.4-1.9,0.6-2.9,0.6c0.1,1.4,1.4,2.5,2.8,2.4
							c1.2-0.1,2.2-1.1,2.3-2.3C68.2,86.1,67.9,85.8,67.6,85.6z"/>
					</g>
					<g>
						<path class="st0" d="M64.4,85.6c0.5-0.1,1.1-0.2,1.6-0.5c0.3-0.1,0.5-0.2,0.8-0.3c0.2-0.1,0.4-0.1,0.5-0.1
							c0.1,0,0.2,0.1,0.2,0.2l0.2,0.2c0,0,0.1,0.1,0.7,0.6c0.1,0.1,0.1,0.1,0.2,0.1s0.1-0.4,0-0.7c-0.1-0.7-0.4-1.3-0.8-1.8
							c-0.1,0-0.3-0.2-0.5-0.2s-0.6-0.2-0.8-0.3c-0.7-0.2-1.4-0.1-2,0.3c-0.8,0.6-1.4,1.4-1.8,2.4c-0.1,0.2,0.3,0.3,0.5,0.3
							C63.7,85.7,64,85.7,64.4,85.6z"/>
					</g>
				</g>
			</g>
			<g>
				<g>
					<path class="st0" d="M55.8,101.6c-0.3-0.5-0.8-0.7-1.3-0.6h-2.6v-4c0-0.9-0.8-1.7-1.7-1.7h-0.7c-0.1,0-0.3,0-0.4,0.1l0,0
						l-0.3,0.1l-3.4,1.1h-0.1h-0.1l0,0c-0.2,0.1-0.3,0.3-0.4,0.5l-1,2.9c-0.2,0.5,0.1,1,0.6,1.2c0.5,0.2,1-0.1,1.2-0.6l0,0l0.9-2.5
						l1.4-0.4l0,0v4.8c0,0.3,0.1,0.5,0.2,0.7c0.2,0.6,0.8,1,1.4,1h4.8l2.1,3.7c0.4,0.6,1.1,0.8,1.7,0.5h0.1c0.6-0.3,0.8-1.1,0.5-1.7
						L55.8,101.6z"/>
				</g>
				<g>
					<path class="st0" d="M53.8,106h-1.4c-0.6,2.3-2.9,3.7-5.2,3.1s-3.7-2.9-3.1-5.2c0.1-0.3,0.2-0.6,0.3-0.8l-0.1-0.1l-0.1-0.1
						l-1-0.6l-0.1-0.1l-0.1-0.1c-0.5,0.9-0.7,1.8-0.7,2.8c0.2,3.3,3,5.8,6.3,5.7c2.7-0.1,4.9-2,5.5-4.7L53.8,106L53.8,106z"/>
				</g>
				<g>
					<path class="st0" d="M50.1,94.4c1.4,0,2.5-1.1,2.5-2.5s-1.1-2.5-2.5-2.5c-1.4,0-2.5,1.1-2.5,2.4C47.6,93.3,48.7,94.4,50.1,94.4
						C50.1,94.4,50.1,94.4,50.1,94.4z"/>
				</g>
			</g>
			<g>
				<g>
					<path class="st0" d="M37.3,90.3h-5.2c-1.5,0.2-2.7,1.5-2.7,3v6.2c-0.1,0.5,0.3,0.9,0.8,0.9c0.5,0.1,0.9-0.3,0.9-0.8
						c0-0.1,0-0.1,0-0.2v-5.3c0-0.2,0.1-0.5,0.4-0.5s0.3,0.3,0.3,0.4v15.8c0.1,0.7,0.7,1.2,1.3,1.1c0.6-0.1,1.1-0.5,1.1-1.1v-9.1
						c0-0.2,0.1-0.4,0.3-0.4c0,0,0,0,0,0l0,0c0.2,0,0.3,0.1,0.3,0.3c0,0,0,0,0,0.1v9.1c0,0.7,0.6,1.2,1.2,1.2c0.7,0,1.2-0.6,1.2-1.2
						V94c0-0.2,0.1-0.4,0.3-0.4s0.4,0.3,0.4,0.5v5.3c0,0.5,0.4,0.9,0.9,0.9s0.9-0.4,0.9-0.9v-6.2C39.9,91.7,38.8,90.4,37.3,90.3z"/>
				</g>
				<g>
					<g>
						<path class="st0" d="M32.4,84.4c0-0.3-0.4-0.8-1.2-0.4c-1,0.4-0.8,1.9-0.8,1.9s0,0.2,0,0.2s0.3-0.6,1.1-0.7
							c0.1,0,0.3-0.1,0.4-0.1c0.1-0.2,0.3-0.5,0.5-0.7C32.4,84.5,32.4,84.5,32.4,84.4z"/>
					</g>
					<g>
						<path class="st0" d="M38.1,84c-0.8-0.4-1.1,0-1.2,0.4c0,0.1,0,0.1,0,0.2c0.2,0.2,0.3,0.4,0.4,0.6c0.1,0.1,0.3,0.1,0.4,0.2
							c0.8,0.1,1,0.5,1.1,0.7s0,0,0-0.2S39,84.5,38.1,84z"/>
					</g>
					<g>
						<path class="st0" d="M34.6,84.1c-1.5,0-2.6,1.2-2.6,2.6s1.2,2.6,2.6,2.6c1.5,0,2.6-1.2,2.6-2.6l0,0
							C37.3,85.3,36.1,84.1,34.6,84.1z"/>
					</g>
				</g>
			</g>
		</g>
	</g>
</g>
</svg>
