<?xml version="1.0" encoding="utf-8"?>
<!-- Generator: Adobe Illustrator 22.0.1, SVG Export Plug-In . SVG Version: 6.00 Build 0)  -->
<svg version="1.1" id="Layer_1" xmlns="http://www.w3.org/2000/svg" xmlns:xlink="http://www.w3.org/1999/xlink" x="0px" y="0px"
	 viewBox="0 0 101.5 157.1" style="enable-background:new 0 0 101.5 157.1;" xml:space="preserve">
<style type="text/css">
	.st0{fill:#FFFFFF;}
	.st1{fill:#C5192D;}
	.st2{enable-background:new    ;}
</style>
<title>TARGET 1.5</title>
<g id="WHITE_BG">
	<g>
		<rect y="0" class="st0" width="101.5" height="157.1"/>
	</g>
</g>
<g id="TARGETS">
	<g>
		<g>
			<path class="st1" d="M10.5,129.3H7.8v2h2.9v0.9H6.9v-6.4h3.9v0.9H7.8v1.8h2.6V129.3z"/>
		</g>
		<g>
			<path class="st1" d="M12.6,131.3h2.8v0.9h-3.7v-6.4h1L12.6,131.3z"/>
		</g>
		<g>
			<path class="st1" d="M16,132.2v-6.4h1v6.4H16z"/>
		</g>
		<g>
			<path class="st1" d="M21.4,131.3h-0.9l-1.6-3.9l0,4.8h-1v-6.4h1.2l1.8,4.3l1.7-4.3h1.2v6.4H23v-4.8L21.4,131.3z"/>
		</g>
		<g>
			<path class="st1" d="M25,132.2v-6.4h1v6.4H25z"/>
		</g>
		<g>
			<path class="st1" d="M30.7,132.2l-2.7-4.5v4.5h-0.9v-6.4h0.9l2.8,4.5v-4.5h1v6.4H30.7z"/>
		</g>
		<g>
			<path class="st1" d="M35.7,130.7h-2l-0.5,1.6h-1l2-6.4h1l2,6.4h-1L35.7,130.7z M34.7,127l-0.8,2.8h1.6L34.7,127z"/>
		</g>
		<g>
			<path class="st1" d="M39.2,126.7v5.5h-1v-5.5h-1.6v-0.9h4.3v0.9L39.2,126.7z"/>
		</g>
		<g>
			<path class="st1" d="M45,129.3h-2.7v2h2.9v0.9h-3.9v-6.4h3.9v0.9h-2.9v1.8H45V129.3z"/>
		</g>
		<g>
			<path class="st1" d="M50.7,130.7h-2l-0.5,1.6h-1l2-6.4h1l2,6.4h-1L50.7,130.7z M49.7,127l-0.8,2.8h1.6L49.7,127z"/>
		</g>
		<g>
			<path class="st1" d="M53.6,131.3h2.8v0.9h-3.7v-6.4h1V131.3z"/>
		</g>
		<g>
			<path class="st1" d="M57.9,131.3h2.8v0.9h-3.7v-6.4h1L57.9,131.3z"/>
		</g>
		<g>
			<path class="st1" d="M6.9,141.2v-6.4h1.9c2.1,0,2.7,1.4,2.7,3.2s-0.6,3.2-2.7,3.2H6.9z M7.9,140.3h1c1.3,0,1.7-0.9,1.7-2.3
				s-0.4-2.3-1.7-2.3h-1L7.9,140.3z"/>
		</g>
		<g>
			<path class="st1" d="M12.3,141.2v-6.4h0.9v6.4H12.3z"/>
		</g>
		<g>
			<path class="st1" d="M18.5,139.3c0,1.2-0.7,2-2.4,2c-0.6,0-1.3-0.1-1.9-0.4V140c0.6,0.3,1.2,0.4,1.8,0.4c1.1,0,1.5-0.5,1.5-1.1
				s-0.3-0.9-1.2-1c-1.6-0.2-2.2-0.6-2.2-1.8c0-0.9,0.5-1.8,2.3-1.8c0.6,0,1.2,0.1,1.7,0.3v1c-0.5-0.2-1.1-0.3-1.7-0.3
				c-1,0-1.3,0.4-1.3,1c0,0.7,0.4,0.8,1.2,0.9C17.8,137.7,18.5,138,18.5,139.3z"/>
		</g>
		<g>
			<path class="st1" d="M21.8,134.7c0.5,0,1,0.1,1.5,0.3v0.9c-0.5-0.2-0.9-0.3-1.4-0.3c-1.2,0-1.7,0.8-1.7,2.4s0.5,2.4,1.7,2.4
				c0.5,0,1-0.1,1.4-0.3v0.9c-0.5,0.2-1,0.3-1.5,0.3c-1.9,0-2.6-1.2-2.6-3.3S19.9,134.7,21.8,134.7z"/>
		</g>
		<g>
			<path class="st1" d="M25,141.2h-1v-6.4h2.1c1.6,0,2.2,0.7,2.2,1.9c0.1,0.7-0.3,1.4-1,1.7l1.3,2.8h-1.2l-1.1-2.6H25V141.2z
				 M25,137.7h1.3c0.9,0,1-0.5,1-1s-0.1-1-1-1H25V137.7z"/>
		</g>
		<g>
			<path class="st1" d="M29.2,141.2v-6.4h1v6.4H29.2z"/>
		</g>
		<g>
			<path class="st1" d="M34.6,140.3h-0.9l-1.6-3.9v4.8h-1v-6.4h1.2l1.7,4.3l1.7-4.3h1.2v6.4h-1v-4.8L34.6,140.3z"/>
		</g>
		<g>
			<path class="st1" d="M38.2,141.2v-6.4h1v6.4H38.2z"/>
		</g>
		<g>
			<path class="st1" d="M44,141.2l-2.8-4.5v4.5h-0.9v-6.4h0.9l2.8,4.5v-4.5h0.9v6.4H44z"/>
		</g>
		<g>
			<path class="st1" d="M49.1,139.7H47l-0.5,1.6h-1l2-6.4h1l2,6.4h-1L49.1,139.7z M48.1,136l-0.8,2.8h1.6L48.1,136z"/>
		</g>
		<g>
			<path class="st1" d="M52.6,135.7v5.5h-1v-5.5H50v-0.9h4.3v0.9H52.6z"/>
		</g>
		<g>
			<path class="st1" d="M54.9,141.2v-6.4h1v6.4H54.9z"/>
		</g>
		<g>
			<path class="st1" d="M56.7,138c0-1.8,0.4-3.3,2.5-3.3s2.5,1.5,2.5,3.3s-0.4,3.3-2.5,3.3S56.7,139.8,56.7,138z M57.7,138
				c0,1.5,0.3,2.4,1.5,2.4s1.5-0.9,1.5-2.4s-0.3-2.4-1.5-2.4S57.7,136.5,57.7,138L57.7,138z"/>
		</g>
		<g>
			<path class="st1" d="M66.1,141.2l-2.8-4.5v4.5h-1v-6.4h0.9l2.8,4.5v-4.5h0.9v6.4L66.1,141.2z"/>
		</g>
		<g>
			<path class="st1" d="M69.4,141.2v-6.4h1v6.4H69.4z"/>
		</g>
		<g>
			<path class="st1" d="M75.1,141.2l-2.8-4.5v4.5h-0.9v-6.4h0.9l2.8,4.5v-4.5H76v6.4H75.1z"/>
		</g>
		<g>
			<path class="st1" d="M10.5,147.3H7.8v2h2.9v0.9H6.9v-6.4h3.9v0.9H7.8v1.8h2.6V147.3z"/>
		</g>
		<g>
			<path class="st1" d="M11.6,150.2v-6.4h1.9c2.1,0,2.7,1.4,2.7,3.2s-0.6,3.2-2.7,3.2H11.6z M12.6,149.3h1c1.3,0,1.7-0.9,1.7-2.3
				s-0.4-2.3-1.7-2.3h-1V149.3z"/>
		</g>
		<g>
			<path class="st1" d="M16.9,148.2v-4.4h1v4.3c-0.1,0.7,0.4,1.2,1,1.3c0.1,0,0.2,0,0.3,0c0.6,0.1,1.3-0.3,1.4-1c0-0.1,0-0.2,0-0.3
				v-4.3h1v4.4c0,1.1-0.8,2.1-2,2.1c-0.1,0-0.2,0-0.3,0c-1.1,0.1-2.2-0.6-2.3-1.8C16.9,148.4,16.9,148.3,16.9,148.2z"/>
		</g>
		<g>
			<path class="st1" d="M24.8,143.7c0.5,0,1,0.1,1.5,0.3v0.9c-0.5-0.2-0.9-0.3-1.4-0.3c-1.2,0-1.7,0.8-1.7,2.4s0.5,2.4,1.7,2.4
				c0.5,0,1-0.1,1.4-0.3v0.9c-0.5,0.2-1,0.3-1.5,0.3c-1.9,0-2.6-1.2-2.6-3.3S22.9,143.7,24.8,143.7z"/>
		</g>
		<g>
			<path class="st1" d="M30.2,148.7h-2l-0.5,1.6h-1l2-6.4h1l2,6.4h-1L30.2,148.7z M29.2,145l-0.8,2.8H30L29.2,145z"/>
		</g>
		<g>
			<path class="st1" d="M33.7,144.7v5.5h-1v-5.5h-1.6v-0.9h4.3v0.9H33.7z"/>
		</g>
		<g>
			<path class="st1" d="M36,150.2v-6.4h1v6.4H36z"/>
		</g>
		<g>
			<path class="st1" d="M38,147c0-1.8,0.4-3.3,2.5-3.3s2.5,1.5,2.5,3.3s-0.4,3.3-2.5,3.3S38,148.8,38,147z M39,147
				c0,1.5,0.3,2.4,1.5,2.4s1.5-0.9,1.5-2.4s-0.3-2.4-1.5-2.4S39,145.5,39,147z"/>
		</g>
		<g>
			<path class="st1" d="M47.3,150.2l-2.8-4.5v4.5h-1v-6.4h0.9l2.8,4.5v-4.5h1v6.4H47.3z"/>
		</g>
	</g>
	<g>
		<rect x="3.3" y="24" class="st1" width="94.8" height="94.8"/>
	</g>
	<g>
		<path class="st1" d="M98.2,20.7H3.3V3.3h94.8V20.7z M4.3,19.7h92.8V4.3H4.3L4.3,19.7z"/>
	</g>
	<g class="st2">
		<path class="st1" d="M6.7,6.9h4.5v1.4H9.9v8.8H8.1V8.3H6.7V6.9z"/>
	</g>
	<g class="st2">
		<path class="st1" d="M11.2,17.1l1.9-10.2h1.9L17,17.1h-1.8l-0.3-1.9h-1.8l-0.3,1.9H11.2z M13.3,13.9h1.4L14,9.8h0L13.3,13.9z"/>
	</g>
	<g class="st2">
		<path class="st1" d="M19.6,12.5v4.7h-1.7V6.9h2.5c1.7,0,2.4,0.9,2.4,2.3v1.3c0,1.1-0.4,1.7-1.4,2l1.6,4.6h-1.8L19.6,12.5z
			 M19.6,8.3v3.2h0.6c0.6,0,0.8-0.3,0.8-0.8V9.2c0-0.6-0.3-0.8-0.8-0.8H19.6z"/>
	</g>
	<g class="st2">
		<path class="st1" d="M26.4,11.7h2.4v5.4h-1.2V16c-0.2,0.8-0.7,1.2-1.6,1.2c-1.5,0-2.1-1.2-2.1-2.7V9.6c0-1.6,0.8-2.7,2.6-2.7
			c1.9,0,2.4,1.1,2.4,2.6v0.9h-1.6v-1c0-0.6-0.2-1-0.9-1c-0.6,0-0.9,0.4-0.9,1v5.5c0,0.6,0.3,1,0.8,1c0.6,0,0.8-0.3,0.8-1V13h-0.8
			V11.7z"/>
	</g>
	<g class="st2">
		<path class="st1" d="M30.2,6.9h4.1v1.4h-2.4v2.9h1.7v1.4h-1.7v3.1h2.4v1.4h-4.1V6.9z"/>
	</g>
	<g class="st2">
		<path class="st1" d="M35.1,6.9h4.5v1.4h-1.4v8.8h-1.7V8.3h-1.4V6.9z"/>
	</g>
	<g class="st2">
		<path class="st1" d="M78.5,14.4l3-7.5h1.7v7.2h0.7v1.3h-0.7v1.7h-1.6v-1.7h-3V14.4z M80,14.1h1.5V9.9h0L80,14.1z"/>
	</g>
	<g class="st2">
	</g>
	<g class="st2">
		<path class="st1" d="M86.6,10.8c0.7,0,1.2,0.6,1.2,1.2c0,0.7-0.6,1.2-1.2,1.2c-0.7,0-1.2-0.6-1.2-1.2
			C85.3,11.4,85.9,10.8,86.6,10.8z"/>
	</g>
	<g class="st2">
		<path class="st1" d="M94.4,12.4v2.5c0,1.4-0.7,2.3-2.4,2.3c-1.7,0-2.4-1-2.4-2.5v-1.2h1.6v1.3c0,0.6,0.2,1,0.8,1
			c0.5,0,0.7-0.4,0.7-0.9v-2.5c0-0.6-0.2-0.9-0.7-0.9c-0.5,0-0.8,0.3-0.8,0.9v0.2h-1.6V6.9h4.5v1.4h-2.9v2.5h0
			c0.3-0.5,0.8-0.7,1.4-0.7C93.5,10.2,94.4,10.8,94.4,12.4z"/>
	</g>
	<g>
		<path class="st1" d="M98.2,153.8H3.3v-31.6h94.8V153.8z M4.3,152.8h92.8v-29.6H4.3L4.3,152.8z"/>
	</g>
	<g>
		<g>
			<g>
				<polygon class="st0" points="46.6,44.2 31.8,35.6 31.8,63.4 46.6,67.9 				"/>
			</g>
			<g>
				<polygon class="st0" points="48.3,44.3 48.3,67.9 63.2,63.4 63.2,35.6 				"/>
			</g>
			<g>
				<path class="st0" d="M74.9,35c0-1-0.8-1.8-1.8-1.8c-1,0-1.8,0.8-1.8,1.8v1.9h3.5V35z"/>
			</g>
			<g>
				<polygon class="st0" points="71.8,62.9 71.4,62.9 73.2,69.1 74.9,62.9 74.5,62.9 74.9,62.9 74.9,38.2 74.5,38.2 74,38.2 
					73.6,38.2 72.7,38.2 72.3,38.2 71.8,38.2 71.4,38.2 71.4,62.9 				"/>
			</g>
			<g>
				<polygon class="st0" points="66.4,36.8 64.8,35.6 64.8,64.2 48.3,69.5 47.5,69.5 47.4,69.5 46.6,69.5 30.2,64.9 30.2,35.6 
					28.6,36.8 28.6,66 46.5,71 47.4,71 47.5,71 48.4,71 65,65.8 66.4,65.3 				"/>
			</g>
		</g>
		<g>
			<g>
				<g>
					<path class="st0" d="M88.1,95.1c0,0-0.4-1.5-1.7-1.5h-4.7c-0.3,0-0.7-0.2-0.9-0.4c-0.4-0.4-1.8-2.8-1.8-2.8l-0.7-1.1
						c-0.2-0.3-0.5-0.5-0.9-0.5c-0.6,0-1,0.4-1,1c0,0.2,0,0.3,0.1,0.4l3.5,6.3c0.1,0.2,0.2,0.4,0.2,0.7v0.7c0,0.2,0,0.4-0.1,0.6
						l-1.4,5.2h1.5v4.5l0,0c0,0.8,0.6,1.4,1.4,1.4c0.8,0,1.4-0.6,1.4-1.4c0,0,0,0,0,0v-4.3c0-0.1,0-0.1,0-0.2h0.8c0,0.1,0,0.1,0,0.2
						v4.3c0,0.6,0.4,1.2,0.9,1.4c0.7,0.3,1.5-0.1,1.8-0.9c0.1-0.1,0.1-0.3,0.1-0.5v-4.5h1.5l-2-7.1c0,0-0.1-0.4,0.2-0.4
						s0.3,0.3,0.3,0.3l1.7,5.2c0.1,0.5,0.6,0.8,1.2,0.7c0.9-0.2,0.6-1.2,0.6-1.2L88.1,95.1z"/>
				</g>
				<g>
					<path class="st0" d="M83.9,92.3c1.6,0,2.8-1.3,2.8-2.8c0-1.6-1.3-2.8-2.8-2.8c-1.6,0-2.8,1.3-2.8,2.8c0,0,0,0,0,0
						C81,91.1,82.3,92.3,83.9,92.3z"/>
				</g>
			</g>
			<g>
				<g>
					<path class="st0" d="M18.2,92.2c1.5,0,2.8-1.2,2.8-2.8c0-1.5-1.2-2.8-2.8-2.8c-1.5,0-2.8,1.2-2.8,2.8c0,0,0,0,0,0
						C15.4,91,16.7,92.2,18.2,92.2z"/>
				</g>
				<g>
					<path class="st0" d="M24.9,100.3c0-0.1-0.8-2.1-1.1-2.7c-1.7-4.3-2-4.3-3.5-4.3h-4.2c-1.5,0-1.8,0-3.5,4.3
						c-0.2,0.6-1.2,3-1.3,3.1s-0.4,1,0.5,1.3s1.2-0.7,1.2-0.7l1.7-4.2c0,0,0-0.1,0.1-0.1s0.1,0.1,0.1,0.1v11l0,0
						c0,0.8,0.6,1.5,1.4,1.5c0,0,0,0,0.1,0c0.8,0,1.4-0.6,1.4-1.4c0,0,0,0,0-0.1v-4.4c0,0,0-0.7,0.4-0.7s0.4,0.7,0.4,0.7v4.4
						c0,0.8,0.6,1.5,1.4,1.5c0,0,0,0,0.1,0c0.8,0,1.4-0.6,1.4-1.4c0,0,0-0.1,0-0.1l0,0v-11c0-0.1,0-0.1,0-0.1s0.1,0.1,0.1,0.1
						l1.6,3.8c0,0,0.5,1,1.3,0.6S24.9,100.3,24.9,100.3z"/>
				</g>
			</g>
			<g>
				<g>
					<path class="st0" d="M56.1,99.5c-0.3-0.5-0.8-0.8-1.4-0.7H52v-4.3c0-1-0.8-1.8-1.8-1.8h-0.8c-0.1,0-0.3,0-0.4,0l0,0
						c-0.1,0-0.2,0-0.3,0.1l-3.7,1.2H45h-0.1l0,0c-0.2,0.1-0.3,0.3-0.4,0.5l-1.1,3.2c-0.2,0.5,0.1,1.1,0.6,1.3
						c0.5,0.2,1.1-0.1,1.3-0.6l1-2.7l1.5-0.5l0,0v5.1c0,0.3,0.1,0.5,0.2,0.8c0.3,0.6,0.9,1,1.5,1h5.2l2.3,3.9
						c0.4,0.6,1.2,0.9,1.8,0.5h0.1c0.6-0.4,0.9-1.2,0.5-1.8L56.1,99.5z"/>
				</g>
				<g>
					<path class="st0" d="M54,104.3h-1.5c-0.7,2.4-3.2,3.9-5.6,3.2c-1.9-0.5-3.3-2.2-3.4-4.2c0-0.7,0.2-1.5,0.5-2.1l-0.1-0.1
						l-0.1-0.1l-1-0.6l-0.1-0.1l-0.1-0.1c-0.5,0.9-0.8,2-0.8,3c0,3.5,2.9,6.4,6.4,6.3c3.1,0,5.7-2.3,6.2-5.3L54,104.3L54,104.3z"/>
				</g>
				<g>
					<path class="st0" d="M50,91.8c1.5,0,2.6-1.2,2.6-2.6c0-1.5-1.2-2.6-2.6-2.6c-1.5,0-2.6,1.2-2.6,2.6c0,0,0,0,0,0
						C47.4,90.7,48.5,91.8,50,91.8z"/>
				</g>
			</g>
			<g>
				<g>
					<path class="st0" d="M36.3,87.4h-5.5c-1.6,0.2-2.9,1.5-2.9,3.2v6.6c0.1,0.5,0.5,0.9,1,0.8c0.4,0,0.8-0.4,0.8-0.8v-5.7
						c0-0.2,0.1-0.5,0.5-0.5s0.3,0.3,0.3,0.5v16.9c0,0.7,0.6,1.3,1.3,1.3c0.7,0,1.3-0.6,1.3-1.3v-9.8c0-0.2,0.1-0.4,0.3-0.4
						c0,0,0,0,0,0l0,0c0.2,0,0.4,0.1,0.4,0.3c0,0,0,0,0,0v9.8c0.1,0.7,0.7,1.3,1.4,1.2c0.6-0.1,1.2-0.6,1.2-1.2V91.5
						c0-0.2,0.1-0.5,0.3-0.5s0.5,0.3,0.5,0.5v5.7c0.1,0.5,0.5,0.9,1,0.8c0.4,0,0.8-0.4,0.8-0.8v-6.6C39.2,89,38,87.6,36.3,87.4z"/>
				</g>
				<g>
					<g>
						<path class="st0" d="M31.1,81.2c0-0.4-0.4-0.8-1.3-0.4c-1,0.5-0.9,2-0.9,2s0,0.2,0.1,0.2c0.1-0.2,0.3-0.6,1.2-0.7
							c0.2,0,0.3-0.1,0.4-0.1c0.1-0.3,0.3-0.5,0.5-0.7C31.1,81.4,31.1,81.3,31.1,81.2z"/>
					</g>
					<g>
						<path class="st0" d="M37.2,80.8c-0.8-0.4-1.2,0.1-1.3,0.4c0,0.1,0,0.1,0,0.2c0.2,0.2,0.3,0.4,0.5,0.7c0.1,0.1,0.3,0.1,0.5,0.2
							c0.8,0.1,1.1,0.5,1.2,0.7c0,0.1,0,0,0.1-0.2S38.2,81.3,37.2,80.8z"/>
					</g>
					<g>
						<path class="st0" d="M33.5,80.8c-1.6,0-2.8,1.3-2.8,2.8s1.3,2.8,2.8,2.8c1.6,0,2.8-1.3,2.8-2.8C36.3,82.1,35.1,80.8,33.5,80.8
							C33.5,80.8,33.5,80.8,33.5,80.8z"/>
					</g>
				</g>
			</g>
			<g>
				<g>
					<path class="st0" d="M69.9,86.5H64c-1.7,0.2-2.9,1.6-2.9,3.3v6.8c0.2,0.5,0.7,0.8,1.3,0.7c0.3-0.1,0.6-0.3,0.7-0.7v-5.9
						c0-0.2,0.1-0.5,0.5-0.5s0.3,0.3,0.3,0.5v17.6c0.1,0.8,0.7,1.3,1.5,1.3c0.7-0.1,1.2-0.6,1.3-1.3V98.2c0-0.2,0.1-0.4,0.3-0.4
						c0,0,0,0,0.1,0l0,0c0.2,0,0.4,0.1,0.4,0.3c0,0,0,0,0,0.1v10.1c0.1,0.8,0.7,1.3,1.5,1.3c0.7-0.1,1.2-0.6,1.3-1.3V90.7
						c0-0.2,0.1-0.5,0.3-0.5s0.5,0.3,0.5,0.5v5.9c0.2,0.5,0.7,0.8,1.3,0.7c0.3-0.1,0.6-0.3,0.7-0.7v-6.8
						C72.8,88.1,71.5,86.7,69.9,86.5z"/>
				</g>
				<g>
					<g>
						<path class="st0" d="M68.8,82.4c-0.2-0.2-0.4-0.4-0.8-0.2s-0.3,0.2-0.7,0.3c-0.6,0.2-1.2,0.4-1.8,0.5
							c-0.5,0.1-0.9,0.1-1.4,0.1c0.1,1.5,1.5,2.7,3,2.5c1.3-0.1,2.4-1.1,2.5-2.5C69.4,82.9,69.1,82.7,68.8,82.4z"/>
					</g>
					<g>
						<path class="st0" d="M65.4,82.4c0.6-0.1,1.1-0.2,1.6-0.4c0.5-0.2,0.9-0.4,0.9-0.4c0.2-0.1,0.4-0.1,0.6-0.1
							c0.1,0,0.2,0.1,0.2,0.2l0.2,0.2c0.2,0.2,0.5,0.4,0.8,0.6c0.1,0.1,0.1,0.1,0.2,0.1s0.1-0.5,0.1-0.7c-0.1-0.7-0.4-1.4-0.9-2
							c-0.1,0-0.3-0.3-0.6-0.2s-0.7-0.2-0.8-0.3c-0.7-0.2-1.5-0.1-2.2,0.3c-0.9,0.6-1.5,1.5-1.9,2.5c-0.1,0.2,0.3,0.3,0.5,0.3
							C64.5,82.5,65,82.5,65.4,82.4z"/>
					</g>
				</g>
			</g>
		</g>
	</g>
</g>
</svg>
