<?xml version="1.0" encoding="UTF-8"?>
<svg xmlns="http://www.w3.org/2000/svg" xmlns:xlink="http://www.w3.org/1999/xlink" width="251pt" height="263pt" viewBox="0 0 251 263" version="1.1">
<g id="surface1">
<path style=" stroke:none;fill-rule:evenodd;fill:rgb(0%,65.098572%,31.399536%);fill-opacity:1;" d="M 12.429688 222.738281 C 12.429688 222.738281 -1.902344 234.179688 11.5 248.496094 L 76.117188 229.464844 L 12.429688 222.738281 "/>
<path style=" stroke:none;fill-rule:evenodd;fill:rgb(0%,65.098572%,31.399536%);fill-opacity:1;" d="M 232.4375 227.988281 L 118.34375 262.875 L 11.496094 248.5 L 18.527344 246.261719 L 126.671875 211.589844 L 126.746094 211.589844 L 177.582031 222.21875 L 227.214844 227.441406 L 232.4375 227.988281 "/>
<path style=" stroke:none;fill-rule:evenodd;fill:rgb(95.701599%,94.53125%,89.84375%);fill-opacity:1;" d="M 231.261719 207.414063 L 225.410156 210.320313 L 231.222656 208.238281 L 231.183594 209.925781 L 209.191406 219.3125 L 231.144531 210.75 L 230.828125 219.351563 L 222.386719 223.042969 L 230.789063 220.804688 L 230.59375 226.261719 L 227.214844 227.441406 L 118.699219 260.359375 L 118.421875 260.320313 L 18.527344 246.261719 L 13.304688 245.515625 C 10.554688 238.761719 11.066406 231.65625 14.089844 224.273438 L 126.671875 211.589844 L 126.746094 211.589844 L 226.039063 205.605469 L 231.339844 205.019531 L 231.261719 207.414063 "/>
<path style=" stroke:none;fill-rule:evenodd;fill:rgb(97.264099%,86.326599%,76.171875%);fill-opacity:1;" d="M 14.070313 224.253906 L 131.054688 198.261719 L 231.347656 205.03125 L 120.914063 238.613281 L 14.070313 224.253906 "/>
<path style=" stroke:none;fill-rule:evenodd;fill:rgb(94.53125%,74.414063%,58.006287%);fill-opacity:1;" d="M 119.238281 238.386719 L 14.070313 224.253906 L 17.707031 223.445313 L 119.273438 237.09375 L 227.699219 204.785156 L 231.273438 205.027344 L 226.039063 205.605469 L 203.570313 213.308594 L 150.1875 229.21875 L 119.285156 237.113281 Z M 231.339844 205.035156 L 231.339844 205.03125 L 231.347656 205.03125 Z M 231.339844 205.035156 "/>
<path style=" stroke:none;fill-rule:evenodd;fill:rgb(0%,65.098572%,31.399536%);fill-opacity:1;" d="M 12.429688 222.738281 L 121.421875 199.570313 C 126.703125 197.703125 132.289063 196.847656 137.886719 197.050781 L 233.28125 203.121094 L 119.273438 237.09375 L 12.429688 222.738281 "/>
<path style=" stroke:none;fill-rule:evenodd;fill:rgb(0%,65.098572%,31.399536%);fill-opacity:1;" d="M 118.34375 262.875 L 118.421875 260.320313 L 118.699219 260.359375 L 227.214844 227.441406 L 232.4375 227.988281 L 118.34375 262.875 "/>
<path style=" stroke:none;fill-rule:evenodd;fill:rgb(92.96875%,81.639099%,68.164063%);fill-opacity:1;" d="M 118.699219 260.359375 L 118.421875 260.320313 L 119.238281 238.386719 L 120.914063 238.613281 L 160.363281 226.617188 L 177.582031 222.21875 L 199.195313 214.808594 L 231.339844 205.035156 L 231.261719 207.414063 L 225.410156 210.320313 L 231.222656 208.238281 L 231.183594 209.925781 L 209.191406 219.3125 L 231.144531 210.75 L 230.828125 219.351563 L 222.386719 223.042969 L 230.789063 220.804688 L 230.59375 226.261719 L 227.214844 227.441406 L 118.699219 260.359375 "/>
<path style=" stroke:none;fill-rule:evenodd;fill:rgb(92.96875%,81.639099%,68.164063%);fill-opacity:1;" d="M 231.339844 205.03125 L 231.273438 205.027344 L 231.339844 205.019531 Z M 231.339844 205.03125 "/>
<path style=" stroke:none;fill-rule:evenodd;fill:rgb(94.53125%,74.414063%,58.006287%);fill-opacity:1;" d="M 120.914063 238.613281 L 119.238281 238.386719 L 119.359375 238.40625 L 150.1875 229.21875 L 160.363281 226.617188 Z M 199.195313 214.808594 L 203.570313 213.308594 L 231.339844 205.035156 Z M 199.195313 214.808594 "/>
<path style=" stroke:none;fill-rule:evenodd;fill:rgb(91.796875%,64.256287%,44.309998%);fill-opacity:1;" d="M 119.359375 238.40625 L 119.238281 238.386719 L 119.285156 237.113281 L 150.1875 229.21875 Z M 203.570313 213.308594 L 226.039063 205.605469 L 231.273438 205.027344 L 231.339844 205.03125 L 231.339844 205.035156 L 203.570313 213.308594 "/>
<path style=" stroke:none;fill-rule:evenodd;fill:rgb(92.576599%,57.226563%,36.473083%);fill-opacity:1;" d="M 7.160156 192.550781 C 7.160156 192.550781 -7.167969 203.996094 6.234375 218.3125 L 70.847656 199.28125 L 7.160156 192.550781 "/>
<path style=" stroke:none;fill-rule:evenodd;fill:rgb(92.576599%,57.226563%,36.473083%);fill-opacity:1;" d="M 227.171875 197.804688 L 113.074219 232.6875 L 6.230469 218.316406 L 13.257813 216.078125 L 121.402344 181.40625 L 121.480469 181.40625 L 172.3125 192.035156 L 221.945313 197.257813 L 227.171875 197.804688 "/>
<path style=" stroke:none;fill-rule:evenodd;fill:rgb(95.701599%,94.53125%,89.84375%);fill-opacity:1;" d="M 225.992188 177.230469 L 220.140625 180.136719 L 225.953125 178.054688 L 225.914063 179.742188 L 203.921875 189.128906 L 225.875 180.566406 L 225.558594 189.167969 L 217.117188 192.859375 L 225.519531 190.621094 L 225.324219 196.078125 L 221.945313 197.257813 L 113.429688 230.175781 L 113.152344 230.136719 L 13.257813 216.078125 L 8.035156 215.332031 C 5.285156 208.578125 5.796875 201.472656 8.820313 194.089844 L 121.402344 181.40625 L 121.480469 181.40625 L 220.769531 175.421875 L 226.070313 174.835938 L 225.992188 177.230469 "/>
<path style=" stroke:none;fill-rule:evenodd;fill:rgb(97.264099%,86.326599%,76.171875%);fill-opacity:1;" d="M 8.800781 194.070313 L 125.785156 168.078125 L 226.078125 174.847656 L 115.648438 208.429688 L 8.800781 194.070313 "/>
<path style=" stroke:none;fill-rule:evenodd;fill:rgb(94.53125%,74.414063%,58.006287%);fill-opacity:1;" d="M 113.972656 208.203125 L 8.800781 194.070313 L 12.441406 193.261719 L 114.007813 206.910156 L 116.84375 206.066406 L 117.207031 206.113281 L 114.019531 206.929688 L 113.972656 208.203125 "/>
<path style=" stroke:none;fill-rule:evenodd;fill:rgb(92.576599%,57.226563%,36.473083%);fill-opacity:1;" d="M 7.160156 192.550781 L 116.152344 169.386719 C 121.433594 167.519531 127.019531 166.664063 132.617188 166.867188 L 228.011719 172.9375 L 114.007813 206.910156 L 7.160156 192.550781 "/>
<path style=" stroke:none;fill-rule:evenodd;fill:rgb(90.234375%,49.414063%,27.830505%);fill-opacity:1;" d="M 113.074219 232.6875 L 113.152344 230.136719 L 113.429688 230.175781 L 211.769531 200.34375 C 212.039063 200.433594 212.3125 200.519531 212.578125 200.59375 C 213.898438 200.953125 214.984375 201.164063 215.910156 201.25 Z M 221.515625 199.535156 C 221.679688 199.414063 221.851563 199.292969 222.027344 199.167969 C 222.632813 198.746094 223.019531 198.105469 223.011719 197.367188 L 227.171875 197.804688 L 221.515625 199.535156 "/>
<path style=" stroke:none;fill-rule:evenodd;fill:rgb(92.96875%,81.639099%,68.164063%);fill-opacity:1;" d="M 113.429688 230.175781 L 113.152344 230.136719 L 113.972656 208.203125 L 115.648438 208.429688 L 121.402344 206.679688 L 129.441406 207.761719 L 145.675781 202.796875 C 145.710938 202.867188 145.746094 202.933594 145.785156 203.003906 L 145.789063 203.046875 C 146.59375 204.558594 147.234375 205.820313 147.539063 206.144531 C 150.621094 209.625 157.773438 211.453125 160.703125 211.453125 C 161.121094 211.453125 161.457031 211.414063 161.679688 211.339844 C 167.894531 209.210938 161.726563 205.597656 157.84375 200.03125 C 157.734375 199.738281 157.632813 199.453125 157.539063 199.171875 L 193.492188 188.175781 C 193.441406 189.097656 193.40625 189.855469 193.40625 190.320313 C 193.40625 190.558594 193.414063 190.71875 193.433594 190.785156 C 193.609375 191.390625 193.828125 192.964844 198.550781 194.261719 L 198.703125 194.324219 C 199.046875 194.433594 199.433594 194.511719 199.839844 194.613281 C 201.203125 194.933594 202.511719 195.453125 203.699219 196.191406 C 205.644531 197.382813 208.804688 199.347656 211.769531 200.34375 Z M 222.957031 196.902344 C 222.808594 196.234375 222.332031 195.519531 221.417969 194.832031 C 220.859375 194.414063 219.738281 193.578125 218.382813 192.523438 L 225.519531 190.621094 L 225.324219 196.078125 Z M 218.203125 192.382813 C 216.113281 190.75 213.511719 188.625 211.578125 186.695313 C 211.445313 186.5625 211.316406 186.429688 211.1875 186.292969 L 225.875 180.566406 L 225.558594 189.167969 Z M 211.007813 186.105469 C 210.152344 185.191406 209.417969 184.277344 208.835938 183.484375 L 220.691406 179.859375 L 220.140625 180.136719 L 222.15625 179.414063 L 225.949219 178.253906 L 225.914063 179.742188 L 211.007813 186.105469 "/>
<path style=" stroke:none;fill-rule:evenodd;fill:rgb(94.53125%,74.414063%,58.006287%);fill-opacity:1;" d="M 115.648438 208.429688 L 113.972656 208.203125 L 114.09375 208.21875 L 119.929688 206.480469 L 121.402344 206.679688 L 115.648438 208.429688 "/>
<path style=" stroke:none;fill-rule:evenodd;fill:rgb(91.796875%,64.256287%,44.309998%);fill-opacity:1;" d="M 114.09375 208.21875 L 113.972656 208.203125 L 114.019531 206.929688 L 117.207031 206.113281 L 119.929688 206.480469 L 114.09375 208.21875 "/>
<path style=" stroke:none;fill-rule:evenodd;fill:rgb(65.039063%,29.80957%,28.637695%);fill-opacity:1;" d="M 23.527344 167.625 C 23.527344 167.625 9.195313 179.066406 22.597656 193.382813 L 87.214844 174.351563 L 23.527344 167.625 "/>
<path style=" stroke:none;fill-rule:evenodd;fill:rgb(65.039063%,29.80957%,28.637695%);fill-opacity:1;" d="M 243.535156 172.878906 L 129.441406 207.761719 L 22.59375 193.386719 L 29.625 191.148438 L 137.769531 156.476563 L 137.847656 156.476563 L 188.679688 167.105469 L 238.3125 172.328125 L 243.535156 172.878906 "/>
<path style=" stroke:none;fill-rule:evenodd;fill:rgb(95.701599%,94.53125%,89.84375%);fill-opacity:1;" d="M 242.359375 152.300781 L 236.507813 155.207031 L 242.320313 153.125 L 242.28125 154.8125 L 220.289063 164.199219 L 242.238281 155.640625 L 241.925781 164.238281 L 233.484375 167.929688 L 241.886719 165.691406 L 241.691406 171.148438 L 238.3125 172.328125 L 129.796875 205.246094 L 129.519531 205.207031 L 29.625 191.148438 L 24.402344 190.40625 C 21.652344 183.648438 22.164063 176.542969 25.1875 169.160156 L 137.769531 156.476563 L 137.847656 156.476563 L 237.136719 150.496094 L 242.4375 149.90625 L 242.359375 152.300781 "/>
<path style=" stroke:none;fill-rule:evenodd;fill:rgb(97.264099%,86.326599%,76.171875%);fill-opacity:1;" d="M 25.167969 169.140625 L 142.152344 143.148438 L 242.445313 149.917969 L 132.015625 183.5 L 25.167969 169.140625 "/>
<path style=" stroke:none;fill-rule:evenodd;fill:rgb(94.53125%,74.414063%,58.006287%);fill-opacity:1;" d="M 130.339844 183.277344 L 25.167969 169.140625 L 28.804688 168.332031 L 130.371094 181.980469 L 143.1875 178.164063 L 146.777344 177.601563 C 146.726563 177.683594 146.671875 177.769531 146.617188 177.851563 L 130.386719 182 L 130.339844 183.277344 "/>
<path style=" stroke:none;fill-rule:evenodd;fill:rgb(65.039063%,29.80957%,28.637695%);fill-opacity:1;" d="M 23.527344 167.625 L 132.519531 144.460938 C 137.800781 142.589844 143.386719 141.734375 148.984375 141.9375 L 244.378906 148.007813 L 130.371094 181.980469 L 23.527344 167.625 "/>
<path style=" stroke:none;fill-rule:evenodd;fill:rgb(63.084412%,25.87738%,21.972656%);fill-opacity:1;" d="M 129.441406 207.761719 L 129.519531 205.207031 L 129.796875 205.246094 L 144.582031 200.761719 C 144.960938 201.449219 145.332031 202.144531 145.675781 202.796875 Z M 157.539063 199.171875 C 157.285156 198.425781 157.070313 197.710938 156.894531 197.027344 L 193.640625 185.878906 C 193.585938 186.695313 193.53125 187.480469 193.492188 188.175781 Z M 208.835938 183.484375 C 208.769531 183.394531 208.703125 183.304688 208.640625 183.21875 C 208.632813 183.203125 208.628906 183.195313 208.628906 183.195313 C 208.597656 183.15625 208.566406 183.113281 208.535156 183.074219 C 208.394531 182.875 208.261719 182.683594 208.144531 182.507813 C 208.273438 182.375 208.382813 182.238281 208.46875 182.09375 C 208.4375 181.894531 208.414063 181.664063 208.398438 181.402344 L 238.3125 172.328125 L 243.535156 172.878906 L 225.949219 178.253906 L 222.15625 179.414063 L 208.835938 183.484375 "/>
<path style=" stroke:none;fill-rule:evenodd;fill:rgb(92.96875%,81.639099%,68.164063%);fill-opacity:1;" d="M 129.796875 205.246094 L 129.519531 205.207031 L 130.339844 183.277344 L 132.015625 183.5 L 145.664063 179.351563 C 145.222656 180.042969 144.984375 180.421875 144.984375 180.421875 C 144.632813 180.921875 144.558594 181.546875 144.699219 182.242188 C 141.757813 184.636719 138.519531 187.386719 138.140625 188.175781 C 138.03125 188.40625 137.980469 188.71875 137.980469 189.085938 C 137.980469 191.113281 139.511719 194.867188 141.269531 196.0625 C 142.21875 196.714844 143.449219 198.710938 144.582031 200.761719 Z M 156.894531 197.027344 C 156.578125 195.789063 156.378906 194.652344 156.257813 193.617188 C 156.175781 192.875 156.132813 192.183594 156.121094 191.546875 C 156.902344 191.5 157.539063 191.171875 157.914063 190.492188 C 158.589844 189.285156 167.53125 181.835938 176.554688 172.921875 L 191.382813 170.59375 C 192.324219 176.4375 193.191406 181.890625 193.695313 185.128906 C 193.675781 185.378906 193.65625 185.632813 193.640625 185.878906 Z M 193.703125 184.96875 C 193.679688 184.621094 193.660156 184.242188 193.652344 183.835938 C 193.6875 183.886719 193.730469 183.933594 193.777344 183.980469 C 193.753906 184.308594 193.730469 184.640625 193.703125 184.96875 Z M 208.398438 181.402344 C 208.230469 179.015625 208.519531 174.019531 208.921875 167.835938 L 241.984375 162.644531 L 241.925781 164.238281 L 233.484375 167.929688 L 241.886719 165.691406 L 241.691406 171.148438 L 238.3125 172.328125 L 208.398438 181.402344 "/>
<path style=" stroke:none;fill-rule:evenodd;fill:rgb(94.53125%,74.414063%,58.006287%);fill-opacity:1;" d="M 132.015625 183.5 L 130.339844 183.277344 L 130.457031 183.292969 L 146.128906 178.621094 C 145.953125 178.894531 145.800781 179.136719 145.664063 179.351563 L 132.015625 183.5 "/>
<path style=" stroke:none;fill-rule:evenodd;fill:rgb(91.796875%,64.256287%,44.309998%);fill-opacity:1;" d="M 130.457031 183.292969 L 130.339844 183.277344 L 130.386719 182 L 146.617188 177.851563 C 146.441406 178.128906 146.277344 178.386719 146.128906 178.621094 L 130.457031 183.292969 "/>
<path style=" stroke:none;fill-rule:evenodd;fill:rgb(24.705505%,56.443787%,65.818787%);fill-opacity:1;" d="M 245.773438 162.046875 L 237.257813 160.152344 L 177.246094 146.707031 L 181.621094 146.039063 L 188.070313 145.023438 L 195.960938 143.757813 L 236.441406 137.390625 L 241.753906 136.574219 C 241.753906 136.574219 257.347656 146.230469 245.773438 162.046875 "/>
<path style=" stroke:none;fill-rule:evenodd;fill:rgb(0%,65.098572%,31.399536%);fill-opacity:1;" d="M 245.773438 162.046875 L 140.222656 178.628906 L 22.171875 156.804688 L 73.925781 145.5625 L 78.25 144.503906 L 101.980469 134.578125 L 125.777344 128.734375 L 150.761719 136.128906 L 184.933594 144.074219 L 187.753906 144.914063 L 188.070313 145.023438 L 188.464844 145.125 L 238.664063 159.945313 L 245.773438 162.046875 "/>
<path style=" stroke:none;fill-rule:evenodd;fill:rgb(97.264099%,86.326599%,76.171875%);fill-opacity:1;" d="M 30.878906 150.527344 L 22.058594 147.867188 L 20.722656 139.371094 L 43.546875 145.230469 L 20.59375 138.554688 L 20.328125 136.867188 L 26.359375 138.273438 L 20.203125 136.058594 L 241.769531 136.578125 C 245.964844 152.34375 245.566406 152.269531 243.621094 159.277344 L 139.761719 175.660156 L 23.132813 154.710938 L 22.28125 149.296875 L 30.878906 150.527344 "/>
<path style=" stroke:none;fill-rule:evenodd;fill:rgb(97.264099%,86.326599%,76.171875%);fill-opacity:1;" d="M 240.320313 138.28125 L 121.453125 121.511719 L 19.832031 133.714844 L 134.769531 154.871094 L 240.320313 138.28125 "/>
<path style=" stroke:none;fill-rule:evenodd;fill:rgb(94.53125%,74.414063%,58.006287%);fill-opacity:1;" d="M 136.453125 154.640625 L 136.363281 154.621094 L 136.449219 154.609375 Z M 136.453125 154.640625 "/>
<path style=" stroke:none;fill-rule:evenodd;fill:rgb(94.53125%,74.414063%,58.006287%);fill-opacity:1;" d="M 241.773438 136.585938 C 241.769531 136.582031 241.765625 136.578125 241.761719 136.578125 L 241.769531 136.578125 L 241.773438 136.585938 "/>
<path style=" stroke:none;fill-rule:evenodd;fill:rgb(94.53125%,74.414063%,58.006287%);fill-opacity:1;" d="M 136.363281 154.621094 L 19.832031 133.714844 L 23.558594 133.265625 L 136.203125 153.167969 L 136.449219 154.609375 L 136.363281 154.621094 "/>
<path style=" stroke:none;fill-rule:evenodd;fill:rgb(0%,65.098572%,31.399536%);fill-opacity:1;" d="M 241.769531 136.578125 L 131.171875 121.660156 C 125.707031 120.4375 120.058594 120.257813 114.527344 121.128906 L 17.859375 132.257813 L 136.214844 153.171875 L 241.769531 136.578125 "/>
<path style=" stroke:none;fill-rule:evenodd;fill:rgb(0%,65.098572%,31.399536%);fill-opacity:1;" d="M 245.773438 162.046875 L 238.917969 160.019531 L 243.621094 159.277344 C 245.53125 152.402344 245.949219 152.34375 241.996094 137.433594 L 241.929688 137.179688 C 241.878906 136.984375 241.824219 136.785156 241.773438 136.585938 C 242.191406 136.847656 250.050781 141.949219 250.046875 150.632813 C 250.046875 153.941406 248.902344 157.769531 245.773438 162.046875 "/>
<path style=" stroke:none;fill-rule:evenodd;fill:rgb(0%,65.098572%,31.399536%);fill-opacity:1;" d="M 140.222656 178.628906 L 139.761719 175.660156 L 148.945313 174.210938 C 148.105469 175.523438 147.375 176.664063 146.777344 177.601563 Z M 176.554688 172.921875 C 177.757813 171.734375 178.960938 170.519531 180.148438 169.289063 L 190.894531 167.59375 C 191.058594 168.597656 191.222656 169.601563 191.382813 170.59375 Z M 208.921875 167.835938 C 208.984375 166.828125 209.054688 165.785156 209.125 164.71875 L 238.917969 160.019531 L 245.773438 162.046875 L 208.921875 167.835938 "/>
<path style=" stroke:none;fill-rule:evenodd;fill:rgb(94.53125%,74.414063%,58.006287%);fill-opacity:1;" d="M 139.761719 175.660156 L 136.453125 154.640625 L 141.691406 153.785156 L 164.59375 150.183594 C 163.246094 152.203125 161.917969 154.234375 160.621094 156.222656 C 159.363281 158.105469 158.152344 159.960938 156.980469 161.761719 L 156.925781 161.859375 C 153.820313 166.625 151.039063 170.941406 148.945313 174.210938 Z M 180.148438 169.289063 C 183.503906 165.8125 186.722656 162.214844 189.355469 158.753906 C 189.730469 160.835938 190.109375 162.96875 190.480469 165.0625 C 190.621094 165.90625 190.757813 166.75 190.894531 167.59375 Z M 209.125 164.71875 C 209.570313 157.976563 210.082031 150.214844 210.28125 143.003906 L 240.320313 138.28125 L 238.441406 138.015625 L 241.996094 137.433594 C 245.949219 152.34375 245.53125 152.402344 243.621094 159.277344 L 238.917969 160.019531 Z M 241.929688 137.179688 L 241.773438 136.585938 C 241.824219 136.785156 241.878906 136.984375 241.929688 137.179688 "/>
<path style=" stroke:none;fill-rule:evenodd;fill:rgb(94.53125%,74.414063%,58.006287%);fill-opacity:1;" d="M 141.691406 153.785156 L 164.691406 150.035156 C 164.660156 150.085938 164.625 150.136719 164.59375 150.183594 Z M 210.28125 143.003906 C 210.285156 142.867188 210.289063 142.734375 210.292969 142.601563 L 238.441406 138.015625 L 240.320313 138.28125 L 210.28125 143.003906 "/>
<path style=" stroke:none;fill-rule:evenodd;fill:rgb(91.796875%,64.256287%,44.309998%);fill-opacity:1;" d="M 136.453125 154.640625 L 136.449219 154.609375 L 141.691406 153.785156 L 136.453125 154.640625 "/>
<path style=" stroke:none;fill-rule:evenodd;fill:rgb(23.143005%,41.967773%,38.035583%);fill-opacity:1;" d="M 241.996094 137.433594 C 241.976563 137.347656 241.953125 137.265625 241.929688 137.179688 L 241.996094 137.433594 "/>
<path style=" stroke:none;fill-rule:evenodd;fill:rgb(91.796875%,64.256287%,44.309998%);fill-opacity:1;" d="M 238.441406 138.015625 L 235.375 137.582031 L 241.761719 136.578125 C 241.765625 136.578125 241.769531 136.582031 241.773438 136.585938 L 241.929688 137.179688 C 241.953125 137.265625 241.976563 137.347656 241.996094 137.433594 L 238.441406 138.015625 "/>
<path style=" stroke:none;fill-rule:evenodd;fill:rgb(91.796875%,64.256287%,44.309998%);fill-opacity:1;" d="M 136.449219 154.609375 L 136.203125 153.167969 L 136.214844 153.171875 L 163.082031 148.945313 C 163.753906 149.105469 164.429688 149.261719 165.109375 149.414063 C 165.085938 149.441406 164.941406 149.65625 164.699219 150.023438 C 164.699219 150.027344 164.695313 150.03125 164.691406 150.035156 L 141.691406 153.785156 Z M 210.292969 142.601563 C 210.304688 142.238281 210.3125 141.878906 210.320313 141.519531 L 235.375 137.582031 L 238.441406 138.015625 L 210.292969 142.601563 "/>
<path style=" stroke:none;fill-rule:evenodd;fill:rgb(23.925781%,48.631287%,50.193787%);fill-opacity:1;" d="M 136.214844 153.171875 L 136.203125 153.167969 L 136.203125 153.15625 L 161.1875 148.496094 C 161.816406 148.648438 162.449219 148.796875 163.082031 148.945313 Z M 210.320313 141.519531 C 210.324219 141.253906 210.332031 140.988281 210.335938 140.722656 L 236.085938 137.328125 L 241.75 136.574219 L 241.757813 136.574219 C 241.757813 136.574219 241.761719 136.578125 241.761719 136.578125 L 235.375 137.582031 L 210.320313 141.519531 "/>
<path style=" stroke:none;fill-rule:evenodd;fill:rgb(23.143005%,34.104919%,39.598083%);fill-opacity:1;" d="M 222.027344 199.167969 C 219.753906 200.777344 218.410156 202.195313 212.578125 200.59375 C 209.398438 199.71875 205.820313 197.492188 203.699219 196.191406 C 202.511719 195.453125 201.203125 194.933594 199.839844 194.613281 C 199.433594 194.511719 199.046875 194.433594 198.703125 194.324219 L 198.550781 194.261719 C 193.828125 192.964844 193.609375 191.390625 193.433594 190.785156 C 193.230469 190.078125 194.226563 178.339844 194.226563 178.339844 L 207.300781 181.183594 C 207.300781 181.183594 208.949219 184.074219 211.578125 186.695313 C 214.839844 189.945313 219.988281 193.757813 221.417969 194.832031 C 223.601563 196.472656 223.277344 198.296875 222.027344 199.167969 "/>
<path style=" stroke:none;fill-rule:evenodd;fill:rgb(49.414063%,21.166992%,18.431091%);fill-opacity:1;" d="M 208.640625 183.21875 C 208.605469 183.171875 208.570313 183.121094 208.535156 183.074219 C 208.566406 183.113281 208.597656 183.15625 208.628906 183.195313 C 208.628906 183.195313 208.632813 183.203125 208.640625 183.21875 "/>
<path style=" stroke:none;fill-rule:evenodd;fill:rgb(18.041992%,27.830505%,32.93457%);fill-opacity:1;" d="M 198.550781 194.261719 C 193.828125 192.964844 193.609375 191.390625 193.433594 190.785156 C 193.414063 190.71875 193.40625 190.558594 193.40625 190.320313 C 193.40625 189.398438 193.539063 187.308594 193.695313 185.128906 C 193.714844 185.261719 193.734375 185.390625 193.753906 185.515625 C 193.734375 185.34375 193.71875 185.160156 193.703125 184.96875 C 193.730469 184.640625 193.753906 184.308594 193.777344 183.980469 C 194.46875 184.644531 196.316406 184.957031 198.488281 184.957031 C 202.09375 184.957031 206.589844 184.089844 208.132813 182.519531 C 208.253906 182.691406 208.390625 182.878906 208.535156 183.074219 C 208.570313 183.121094 208.605469 183.171875 208.640625 183.21875 C 208.761719 183.496094 209.59375 186.050781 198.890625 186.816406 C 191.867188 187.320313 197.136719 193.527344 198.550781 194.261719 "/>
<path style=" stroke:none;fill-rule:evenodd;fill:rgb(92.576599%,57.226563%,36.473083%);fill-opacity:1;" d="M 210.363281 135.617188 C 210.15625 140.792969 206.84375 142.375 204.5625 146.351563 C 202.992188 145.90625 200.632813 145.601563 197.722656 145.375 C 195.007813 145.148438 191.789063 145.023438 188.316406 144.925781 C 170.546875 144.355469 145.761719 144.628906 142.09375 140.175781 C 141.105469 138.984375 136.738281 121.753906 136.039063 120.507813 C 134.566406 117.855469 133.785156 115.125 133.714844 112.613281 C 133.605469 108.054688 135.75 104.203125 140.125 102.660156 C 142.605469 101.757813 145.839844 101.648438 149.730469 102.617188 C 150.527344 102.917969 151.710938 102.554688 152.898438 102.191406 C 154.046875 101.839844 155.191406 101.492188 155.996094 101.734375 C 157.410156 102.171875 158.808594 102.632813 160.210938 103.113281 C 163.625 104.242188 166.988281 105.464844 170.296875 106.734375 C 183.332031 111.703125 196.21875 117.976563 204.339844 122.425781 C 209.351563 125.746094 210.566406 130.566406 210.363281 135.617188 "/>
<path style=" stroke:none;fill-rule:evenodd;fill:rgb(92.576599%,57.226563%,36.473083%);fill-opacity:1;" d="M 210.28125 132.011719 C 210.949219 149.089844 207.691406 176.949219 208.46875 182.09375 C 206.640625 185.183594 193.863281 185.972656 193.496094 183.472656 C 193.238281 181.433594 193.246094 181.363281 193.210938 181.070313 C 191.84375 172.230469 186.789063 144.253906 186.054688 141.367188 C 186.046875 141.304688 186.078125 141.195313 186.148438 141.078125 C 186.742188 139.902344 190.808594 136.578125 195.230469 133.214844 C 201.03125 128.820313 210.226563 130.675781 210.28125 132.011719 "/>
<path style=" stroke:none;fill-rule:evenodd;fill:rgb(90.234375%,67.381287%,50.976563%);fill-opacity:1;" d="M 193.695313 185.128906 C 193.191406 181.890625 192.324219 176.4375 191.382813 170.59375 L 191.453125 170.582031 C 192.203125 174.894531 192.84375 178.679688 193.210938 181.070313 C 193.246094 181.363281 193.238281 181.433594 193.496094 183.472656 C 193.515625 183.601563 193.566406 183.722656 193.652344 183.835938 C 193.660156 184.242188 193.679688 184.621094 193.703125 184.96875 C 193.703125 185.019531 193.699219 185.074219 193.695313 185.128906 "/>
<path style=" stroke:none;fill-rule:evenodd;fill:rgb(23.143005%,40.380859%,37.646484%);fill-opacity:1;" d="M 191.382813 170.59375 C 191.222656 169.601563 191.058594 168.597656 190.894531 167.59375 L 190.929688 167.589844 C 191.109375 168.609375 191.28125 169.605469 191.453125 170.582031 L 191.382813 170.59375 "/>
<path style=" stroke:none;fill-rule:evenodd;fill:rgb(91.796875%,61.914063%,43.138123%);fill-opacity:1;" d="M 190.894531 167.59375 C 190.757813 166.75 190.621094 165.90625 190.480469 165.0625 C 190.632813 165.914063 190.78125 166.757813 190.929688 167.589844 L 190.894531 167.59375 "/>
<path style=" stroke:none;fill-rule:evenodd;fill:rgb(17.651367%,23.143005%,24.705505%);fill-opacity:1;" d="M 193.753906 185.515625 C 193.734375 185.390625 193.714844 185.261719 193.695313 185.128906 C 193.699219 185.074219 193.703125 185.019531 193.703125 184.96875 C 193.71875 185.160156 193.734375 185.34375 193.753906 185.515625 "/>
<path style=" stroke:none;fill-rule:evenodd;fill:rgb(96.875%,82.8125%,74.414063%);fill-opacity:1;" d="M 170.367188 106.761719 C 170.34375 106.753906 170.320313 106.742188 170.296875 106.734375 C 170.296875 106.734375 170.324219 106.738281 170.367188 106.761719 "/>
<path style=" stroke:none;fill-rule:evenodd;fill:rgb(89.84375%,47.459412%,27.050781%);fill-opacity:1;" d="M 192.648438 135.207031 C 191.472656 133.785156 189.972656 132.324219 188.109375 130.816406 C 188.058594 130.753906 187.980469 130.671875 187.882813 130.617188 C 187.851563 130.59375 187.820313 130.566406 187.785156 130.542969 L 190.691406 129.253906 C 192.421875 130.601563 193.960938 131.925781 195.230469 133.214844 C 194.347656 133.886719 193.480469 134.554688 192.648438 135.207031 Z M 165.433594 115.371094 C 164.503906 114.78125 163.542969 114.175781 162.546875 113.542969 C 161.949219 113.164063 161.296875 112.75 160.601563 112.3125 C 166.859375 107.957031 164.4375 105.832031 164.4375 105.832031 C 163.632813 105.3125 163.035156 104.652344 162.59375 103.921875 C 165.191406 104.816406 167.761719 105.761719 170.296875 106.734375 C 170.320313 106.742188 170.34375 106.753906 170.367188 106.761719 C 170.617188 106.890625 171.304688 107.566406 169.367188 110.84375 C 168.96875 111.515625 169.25 112.632813 169.824219 113.765625 L 165.433594 115.371094 "/>
<path style=" stroke:none;fill-rule:evenodd;fill:rgb(89.84375%,47.459412%,27.050781%);fill-opacity:1;" d="M 193.652344 183.835938 C 193.566406 183.722656 193.515625 183.601563 193.496094 183.472656 C 193.238281 181.433594 193.246094 181.363281 193.210938 181.070313 C 192.84375 178.679688 192.203125 174.894531 191.453125 170.582031 C 191.28125 169.605469 191.109375 168.609375 190.929688 167.589844 C 190.78125 166.757813 190.632813 165.914063 190.480469 165.0625 C 190.125 162.871094 189.769531 160.707031 189.425781 158.65625 C 192.203125 154.996094 194.320313 151.496094 195.257813 148.453125 C 196.96875 144.511719 196.722656 140.113281 192.648438 135.207031 C 193.480469 134.554688 194.347656 133.886719 195.230469 133.214844 C 198.933594 136.972656 200.007813 144.539063 198.328125 150.160156 C 195.71875 158.910156 193.441406 176.199219 193.652344 183.835938 "/>
<path style=" stroke:none;fill-rule:evenodd;fill:rgb(97.264099%,77.734375%,31.37207%);fill-opacity:1;" d="M 174.097656 55.105469 C 173.871094 56.414063 169.347656 75.429688 167.472656 83.292969 L 167.472656 83.332031 C 167.003906 85.328125 166.699219 86.601563 166.699219 86.65625 C 162.644531 86.132813 154.960938 84.152344 151.742188 80.136719 C 150.621094 78.734375 150.050781 77.074219 150.398438 75.148438 C 150.988281 71.863281 153.636719 64.261719 154.472656 61.160156 C 155.632813 56.824219 157.140625 53.257813 158.914063 50.550781 C 160.890625 47.46875 163.214844 45.503906 165.78125 44.796875 C 171.855469 43.132813 173.402344 46.515625 174.546875 49.558594 C 175.136719 51.183594 174.238281 54.378906 174.097656 55.105469 "/>
<path style=" stroke:none;fill-rule:evenodd;fill:rgb(98.826599%,78.125%,66.209412%);fill-opacity:1;" d="M 185.65625 104.0625 C 185.65625 104.0625 188.714844 107.269531 190.316406 107.851563 C 191.160156 108.15625 192.398438 108.023438 193.847656 107.886719 C 195.167969 107.765625 196.660156 107.644531 198.1875 107.851563 C 201.394531 108.289063 202.285156 112.65625 202.851563 113.679688 C 203.414063 114.703125 203.5625 117.882813 200.292969 118.039063 C 198.878906 118.109375 197.386719 117.21875 196.144531 116.324219 C 194.507813 115.15625 193.300781 113.984375 193.253906 114.984375 C 194.492188 117.167969 195.523438 118.449219 193.960938 118.488281 C 192.402344 118.53125 189.972656 113.972656 187.667969 113.265625 C 185.363281 112.554688 183.613281 111.722656 183.03125 110.296875 C 182.449219 108.871094 185.65625 104.0625 185.65625 104.0625 "/>
<path style=" stroke:none;fill-rule:evenodd;fill:rgb(97.264099%,77.734375%,31.37207%);fill-opacity:1;" d="M 180.371094 111.125 C 180.371094 111.125 179.539063 110.640625 178.152344 109.855469 L 178.089844 109.816406 C 172.058594 106.398438 156.121094 97.304688 154.371094 96.292969 C 152.230469 95.0625 148.910156 90.746094 147.871094 89.214844 C 148.113281 85.273438 149.601563 82.136719 151.742188 80.136719 C 155.839844 76.34375 162.339844 76.644531 167.472656 83.332031 C 167.492188 83.386719 187.34375 104.121094 188.054688 104.679688 C 188.828125 105.296875 183.304688 112.425781 180.371094 111.125 "/>
<path style=" stroke:none;fill-rule:evenodd;fill:rgb(97.264099%,77.734375%,31.37207%);fill-opacity:1;" d="M 149.964844 38.308594 L 148.066406 35.625 C 148.066406 35.625 150.589844 33.519531 153.695313 34.832031 L 149.964844 38.308594 "/>
<path style=" stroke:none;fill-rule:evenodd;fill:rgb(94.53125%,60.351563%,9.812927%);fill-opacity:1;" d="M 148.789063 35.15625 C 148.976563 35.050781 149.199219 34.941406 149.449219 34.839844 C 149.195313 34.949219 148.964844 35.0625 148.789063 35.15625 "/>
<path style=" stroke:none;fill-rule:evenodd;fill:rgb(23.143005%,34.104919%,39.598083%);fill-opacity:1;" d="M 179.226563 20.171875 C 173.574219 25.003906 172.835938 33.152344 161.964844 33.152344 C 151.09375 33.152344 153.003906 35.847656 149.824219 29.121094 C 146.726563 22.566406 146.550781 19.046875 146.058594 12.644531 C 145.816406 9.484375 149.394531 4.742188 156.464844 2.75 C 164.628906 -2.269531 171.546875 2.765625 175.746094 3.703125 C 181.890625 5.078125 182.421875 8.859375 181.660156 11.09375 C 181.722656 16.851563 181.148438 17.246094 179.226563 20.171875 "/>
<path style=" stroke:none;fill-rule:evenodd;fill:rgb(92.576599%,57.226563%,36.473083%);fill-opacity:1;" d="M 188.109375 130.816406 C 188.175781 131.394531 185.417969 137.941406 182.886719 143.671875 C 182.742188 144.003906 182.597656 144.335938 182.433594 144.671875 C 180.605469 148.851563 178.992188 152.355469 178.882813 152.367188 C 175.367188 151.660156 171.898438 150.945313 168.492188 150.160156 C 167.359375 149.925781 166.246094 149.691406 165.109375 149.414063 C 151.664063 146.355469 138.871094 142.65625 126.179688 137.097656 C 115.585938 132.472656 111.519531 121.328125 112.703125 114.261719 C 112.835938 113.433594 112.972656 112.648438 113.09375 111.914063 C 115.035156 100.355469 115.152344 100.59375 130.320313 101.332031 C 133.066406 101.449219 140.199219 104.613281 142.894531 105.460938 C 145.964844 106.457031 147.199219 106.273438 148.140625 106.089844 C 149.304688 105.863281 150.015625 105.636719 153.1875 107.636719 C 153.527344 107.84375 153.871094 108.078125 154.210938 108.285156 C 157.003906 110.023438 159.5625 111.65625 161.921875 113.148438 C 172.621094 119.90625 179.242188 124.304688 184.585938 128.191406 C 184.824219 128.34375 185.070313 128.519531 185.296875 128.699219 C 186.183594 129.339844 187.046875 129.988281 187.882813 130.617188 C 187.980469 130.671875 188.058594 130.753906 188.109375 130.816406 "/>
<path style=" stroke:none;fill-rule:evenodd;fill:rgb(23.143005%,34.104919%,39.598083%);fill-opacity:1;" d="M 161.679688 211.339844 C 159.917969 211.945313 151.0625 210.128906 147.539063 206.144531 C 147.234375 205.820313 146.59375 204.558594 145.789063 203.046875 L 145.785156 203.003906 C 144.402344 200.382813 142.570313 196.953125 141.269531 196.0625 C 139.191406 194.652344 137.429688 189.65625 138.140625 188.175781 C 138.851563 186.695313 149.621094 178.316406 149.621094 178.316406 L 156.839844 186.394531 C 156.839844 186.394531 155.734375 189.003906 156.257813 193.617188 C 156.464844 195.445313 156.933594 197.582031 157.84375 200.03125 C 161.726563 205.597656 167.894531 209.210938 161.679688 211.339844 "/>
<path style=" stroke:none;fill-rule:evenodd;fill:rgb(18.041992%,27.830505%,32.93457%);fill-opacity:1;" d="M 145.785156 203.003906 C 145.410156 202.292969 145.003906 201.523438 144.582031 200.761719 C 143.449219 198.710938 142.21875 196.714844 141.269531 196.0625 C 139.511719 194.867188 137.980469 191.113281 137.980469 189.085938 C 137.980469 188.714844 138.03125 188.40625 138.140625 188.175781 C 138.519531 187.386719 141.757813 184.636719 144.699219 182.242188 C 145.222656 184.828125 148.734375 188.40625 152.058594 190.285156 C 153.277344 190.972656 154.46875 191.433594 155.480469 191.539063 L 155.523438 191.53125 C 155.660156 191.546875 155.789063 191.554688 155.917969 191.554688 C 155.988281 191.554688 156.054688 191.550781 156.121094 191.546875 C 156.132813 192.183594 156.175781 192.875 156.257813 193.617188 C 155.898438 193.726563 155.453125 193.804688 154.914063 193.804688 C 153.539063 193.804688 151.558594 193.308594 148.785156 191.644531 C 146.664063 190.367188 145.1875 189.902344 144.164063 189.902344 C 141.925781 189.902344 141.867188 192.132813 142.027344 192.996094 C 142.265625 194.277344 144.320313 198.855469 145.785156 203.003906 "/>
<path style=" stroke:none;fill-rule:evenodd;fill:rgb(92.576599%,57.226563%,36.473083%);fill-opacity:1;" d="M 195.261719 148.453125 C 190.769531 163.011719 159.210938 188.179688 157.914063 190.492188 C 157.445313 191.335938 156.574219 191.640625 155.523438 191.53125 L 155.480469 191.539063 C 150.957031 191.082031 142.84375 183.464844 144.984375 180.421875 C 144.984375 180.421875 150.191406 172.199219 156.921875 161.859375 L 156.980469 161.761719 C 158.152344 159.960938 159.363281 158.105469 160.621094 156.222656 C 162.082031 153.980469 163.582031 151.6875 165.109375 149.414063 C 165.265625 149.191406 165.417969 148.949219 165.59375 148.703125 C 167.019531 146.535156 168.464844 144.359375 169.898438 142.253906 C 170.296875 140.808594 178.015625 126.023438 178.398438 124.421875 C 180.710938 125.695313 182.769531 126.949219 184.585938 128.191406 C 184.824219 128.34375 185.070313 128.519531 185.296875 128.699219 C 186.183594 129.339844 187.046875 129.988281 187.882813 130.617188 C 187.980469 130.671875 188.058594 130.753906 188.109375 130.816406 C 196.414063 137.53125 197.460938 143.371094 195.261719 148.453125 "/>
<path style=" stroke:none;fill-rule:evenodd;fill:rgb(17.651367%,22.75238%,23.925781%);fill-opacity:1;" d="M 155.480469 191.539063 C 154.46875 191.433594 153.277344 190.972656 152.058594 190.285156 C 153.277344 190.972656 154.46875 191.433594 155.480469 191.539063 "/>
<path style=" stroke:none;fill-rule:evenodd;fill:rgb(89.0625%,52.539063%,32.151794%);fill-opacity:1;" d="M 164.699219 150.023438 C 164.941406 149.65625 165.085938 149.441406 165.109375 149.414063 C 164.972656 149.617188 164.835938 149.820313 164.699219 150.023438 "/>
<path style=" stroke:none;fill-rule:evenodd;fill:rgb(23.925781%,45.872498%,47.851563%);fill-opacity:1;" d="M 161.1875 148.496094 C 149.167969 145.613281 137.632813 142.113281 126.179688 137.097656 C 118.707031 133.835938 114.480469 127.328125 113.054688 121.296875 C 114.480469 127.328125 118.707031 133.835938 126.179688 137.097656 C 137.632813 142.113281 149.167969 145.613281 161.1875 148.496094 "/>
<path style=" stroke:none;fill-rule:evenodd;fill:rgb(89.0625%,52.539063%,32.151794%);fill-opacity:1;" d="M 165.109375 149.414063 C 164.429688 149.261719 163.753906 149.105469 163.082031 148.945313 C 163.753906 149.105469 164.429688 149.261719 165.109375 149.414063 "/>
<path style=" stroke:none;fill-rule:evenodd;fill:rgb(23.143005%,39.598083%,36.473083%);fill-opacity:1;" d="M 163.082031 148.945313 C 162.449219 148.796875 161.816406 148.648438 161.1875 148.496094 C 161.816406 148.648438 162.449219 148.796875 163.082031 148.945313 "/>
<path style=" stroke:none;fill-rule:evenodd;fill:rgb(87.109375%,38.818359%,19.604492%);fill-opacity:1;" d="M 162.546875 113.542969 C 162.339844 113.410156 162.128906 113.28125 161.921875 113.148438 C 161.488281 112.875 161.046875 112.59375 160.601563 112.3125 C 161.296875 112.75 161.949219 113.164063 162.546875 113.542969 "/>
<path style=" stroke:none;fill-rule:evenodd;fill:rgb(89.451599%,46.655273%,26.660156%);fill-opacity:1;" d="M 165.109375 149.414063 C 164.429688 149.261719 163.753906 149.105469 163.082031 148.945313 C 162.449219 148.796875 161.816406 148.648438 161.1875 148.496094 C 149.167969 145.613281 137.632813 142.113281 126.179688 137.097656 C 118.707031 133.835938 114.480469 127.328125 113.054688 121.296875 C 112.839844 120.367188 112.683594 119.453125 112.597656 118.558594 C 114.359375 119.222656 116.453125 119.824219 118.441406 120.335938 C 118.460938 120.339844 118.476563 120.34375 118.492188 120.347656 C 122.601563 121.390625 126.832031 121.90625 131.070313 121.90625 C 131.070313 121.90625 131.070313 121.90625 131.074219 121.90625 C 132.324219 121.90625 133.578125 121.863281 134.828125 121.773438 C 134.929688 121.773438 135.011719 121.753906 135.113281 121.753906 C 141.390625 121.285156 149.09375 120.167969 150.050781 117.496094 C 150.03125 117.011719 149.949219 116.226563 150.234375 114.804688 C 150.296875 114.542969 150.355469 114.246094 150.4375 113.929688 C 150.53125 113.886719 150.652344 113.871094 150.800781 113.871094 C 151.753906 113.871094 153.710938 114.628906 154.859375 115.179688 C 155.023438 115.253906 155.183594 115.328125 155.308594 115.402344 C 157.539063 114.269531 159.265625 113.242188 160.601563 112.3125 C 161.046875 112.59375 161.488281 112.875 161.921875 113.148438 C 162.128906 113.28125 162.339844 113.410156 162.546875 113.542969 C 162.640625 113.605469 162.734375 113.664063 162.828125 113.722656 C 163 114.992188 160.867188 116.710938 154.128906 119.519531 L 149.972656 121.042969 C 149.855469 121.085938 149.773438 121.164063 149.722656 121.257813 C 147.0625 122.265625 143.914063 123.386719 140.214844 124.644531 C 129.433594 128.304688 154.390625 139.972656 168.355469 144.539063 C 167.429688 145.914063 166.507813 147.3125 165.59375 148.703125 C 165.417969 148.949219 165.265625 149.191406 165.109375 149.414063 "/>
<path style=" stroke:none;fill-rule:evenodd;fill:rgb(89.451599%,46.655273%,26.660156%);fill-opacity:1;" d="M 155.480469 191.539063 C 154.46875 191.433594 153.277344 190.972656 152.058594 190.285156 C 147.839844 187.902344 143.324219 182.78125 144.984375 180.421875 C 144.984375 180.421875 161.835938 154.375 164.699219 150.023438 C 164.835938 149.820313 164.972656 149.617188 165.109375 149.414063 C 165.265625 149.191406 165.417969 148.949219 165.59375 148.703125 C 166.507813 147.3125 167.429688 145.914063 168.355469 144.539063 C 171.894531 145.695313 174.726563 146.398438 176.09375 146.398438 C 176.300781 146.398438 176.472656 146.382813 176.609375 146.351563 C 167.683594 149.828125 172.046875 157.707031 166.546875 162.597656 C 166.546875 162.597656 161.113281 169.941406 150.308594 180.503906 C 147.441406 183.304688 153.257813 190.050781 155.480469 191.539063 "/>
<path style=" stroke:none;fill-rule:evenodd;fill:rgb(98.4375%,88.671875%,65.039063%);fill-opacity:1;" d="M 167.5 83.359375 C 167.484375 83.34375 167.472656 83.332031 167.472656 83.332031 L 167.472656 83.292969 C 167.472656 83.296875 167.480469 83.316406 167.5 83.359375 "/>
<path style=" stroke:none;fill-rule:evenodd;fill:rgb(95.701599%,68.943787%,20.384216%);fill-opacity:1;" d="M 167.472656 83.332031 C 167.132813 82.890625 166.789063 82.476563 166.4375 82.089844 C 166.925781 80.757813 167.421875 79.371094 167.921875 77.949219 C 167.792969 80.546875 167.644531 82.515625 167.472656 83.292969 L 167.472656 83.332031 "/>
<path style=" stroke:none;fill-rule:evenodd;fill:rgb(95.701599%,68.943787%,20.384216%);fill-opacity:1;" d="M 178.089844 109.816406 C 174.417969 107.738281 167.070313 103.546875 161.488281 100.363281 C 161.25 98.078125 161.707031 96.070313 161.707031 96.050781 C 161.882813 94.105469 164.003906 88.765625 166.4375 82.089844 C 166.789063 82.476563 167.132813 82.890625 167.472656 83.332031 C 167.472656 83.332031 167.484375 83.34375 167.5 83.359375 C 167.683594 83.816406 168.773438 86.53125 169.164063 89.484375 C 169.535156 92.3125 171.855469 105.894531 178.089844 109.816406 "/>
<path style=" stroke:none;fill-rule:evenodd;fill:rgb(97.264099%,77.734375%,31.37207%);fill-opacity:1;" d="M 174.035156 50.398438 C 174.035156 50.640625 174.035156 50.886719 174.015625 51.109375 L 174.015625 51.277344 C 174.035156 66.59375 162.132813 91.324219 161.707031 96.050781 C 161.707031 96.089844 160.117188 103.046875 164.4375 105.832031 C 164.4375 105.832031 168 108.960938 155.308594 115.402344 C 155.183594 115.328125 155.023438 115.253906 154.859375 115.179688 C 153.820313 114.636719 152.902344 114.097656 152.269531 113.402344 C 151.558594 112.636719 151.253906 111.722656 151.660156 110.472656 C 151.050781 111.871094 150.683594 113.011719 150.4375 113.929688 C 150.355469 114.246094 150.292969 114.542969 150.234375 114.804688 C 149.949219 116.226563 150.03125 117.011719 150.050781 117.496094 C 149.09375 120.167969 141.390625 121.285156 135.113281 121.753906 C 135.011719 121.753906 134.929688 121.773438 134.828125 121.773438 C 129.324219 122.164063 123.78125 121.699219 118.441406 120.335938 C 113.574219 119.082031 108.070313 117.289063 108.375 115.402344 C 110.191406 104.757813 115.449219 96.070313 117.300781 73.636719 C 117.425781 71.953125 125.105469 52.210938 130.507813 45.84375 C 131.097656 45.152344 131.667969 44.628906 132.160156 44.292969 C 132.503906 44.066406 132.769531 43.882813 132.992188 43.714844 C 134.625 42.609375 135.316406 41.996094 137.722656 40.742188 C 138.269531 40.445313 138.902344 40.125 139.65625 39.753906 C 153.433594 33.046875 166.761719 34.429688 173.28125 47.410156 C 173.566406 48.027344 173.445313 47.691406 173.8125 48.925781 C 173.933594 49.429688 174.015625 49.894531 174.035156 50.398438 "/>
<path style=" stroke:none;fill-rule:evenodd;fill:rgb(98.826599%,78.125%,66.209412%);fill-opacity:1;" d="M 169.992188 38.25 L 164.59375 43.210938 C 164.570313 43.996094 164.527344 44.886719 164.472656 45.835938 C 164.234375 49.878906 163.65625 54.753906 162.117188 55.140625 C 161.761719 50.535156 160.792969 47.328125 159.265625 44.886719 C 158.328125 43.359375 157.15625 42.121094 155.800781 41.023438 C 153.820313 39.402344 151.421875 38.066406 148.648438 36.496094 C 148.796875 36.203125 155.488281 27.148438 155.488281 27.148438 C 157.414063 24.5 171.367188 35.679688 169.992188 38.25 "/>
<path style=" stroke:none;fill-rule:evenodd;fill:rgb(96.875%,70.896912%,27.43988%);fill-opacity:1;" d="M 162.078125 55.140625 C 162.089844 55.132813 162.101563 55.128906 162.117188 55.121094 C 162.117188 55.125 162.117188 55.132813 162.117188 55.136719 C 162.101563 55.136719 162.089844 55.140625 162.078125 55.140625 Z M 162.179688 55.121094 C 162.53125 55.003906 162.832031 54.644531 163.089844 54.113281 C 162.835938 54.664063 162.53125 55.03125 162.179688 55.121094 Z M 164.398438 46.972656 C 164.425781 46.589844 164.449219 46.207031 164.472656 45.835938 C 164.496094 45.445313 164.515625 45.070313 164.53125 44.703125 C 164.511719 45.203125 164.472656 46.015625 164.398438 46.972656 Z M 160.003906 46.21875 C 159.886719 46.15625 159.765625 46.085938 159.648438 46.015625 C 159.65625 45.835938 159.671875 45.691406 159.683594 45.601563 C 159.792969 45.800781 159.902344 46.007813 160.003906 46.21875 Z M 159.59375 45.4375 C 159.390625 45.328125 159.050781 45.152344 158.625 44.921875 C 157.804688 43.886719 156.839844 43.003906 155.761719 42.203125 C 155.078125 42.117188 154.460938 42.015625 153.90625 41.898438 C 152.136719 40.535156 150.523438 38.917969 150.007813 37.269531 C 152.214844 38.519531 154.152344 39.671875 155.800781 41.023438 C 157.15625 42.121094 158.328125 43.359375 159.265625 44.886719 C 159.378906 45.066406 159.488281 45.253906 159.59375 45.4375 "/>
<path style=" stroke:none;fill-rule:evenodd;fill:rgb(99.609375%,91.40625%,87.109375%);fill-opacity:1;" d="M 168.496094 40.886719 C 168.265625 40.671875 168.03125 40.464844 167.796875 40.265625 L 168.8125 39.332031 L 169.953125 39.65625 L 168.496094 40.886719 "/>
<path style=" stroke:none;fill-rule:evenodd;fill:rgb(96.875%,70.896912%,27.43988%);fill-opacity:1;" d="M 164.554688 44.199219 C 164.570313 43.855469 164.582031 43.523438 164.589844 43.210938 L 167.796875 40.265625 C 168.03125 40.464844 168.265625 40.671875 168.496094 40.886719 L 164.554688 44.199219 "/>
<path style=" stroke:none;fill-rule:evenodd;fill:rgb(98.4375%,71.289063%,57.617188%);fill-opacity:1;" d="M 162.117188 55.136719 C 162.117188 55.128906 162.117188 55.125 162.117188 55.121094 C 162.996094 54.644531 163.570313 51.722656 163.808594 50.003906 C 164.054688 48.175781 163.957031 46.761719 161.34375 46.757813 C 160.882813 46.636719 160.4375 46.453125 160.003906 46.21875 C 159.902344 46.007813 159.792969 45.800781 159.683594 45.601563 C 159.6875 45.582031 159.6875 45.566406 159.691406 45.550781 L 159.683594 45.539063 L 159.679688 45.496094 C 159.671875 45.488281 159.664063 45.484375 159.648438 45.476563 L 159.640625 45.464844 C 159.640625 45.464844 159.644531 45.464844 159.644531 45.464844 C 159.644531 45.464844 159.640625 45.464844 159.640625 45.464844 L 159.636719 45.460938 C 159.621094 45.453125 159.609375 45.445313 159.59375 45.441406 C 159.488281 45.253906 159.378906 45.066406 159.265625 44.886719 C 158.328125 43.359375 157.15625 42.121094 155.800781 41.023438 C 154.152344 39.671875 152.214844 38.523438 150.007813 37.269531 C 149.933594 37.027344 149.882813 36.789063 149.855469 36.550781 C 150.230469 35.832031 150.726563 35.214844 151.078125 34.828125 C 151.402344 34.605469 151.605469 34.53125 151.40625 34.484375 C 151.46875 34.421875 151.507813 34.386719 151.507813 34.386719 L 168.8125 39.332031 L 167.796875 40.265625 L 164.59375 43.210938 C 164.582031 43.523438 164.570313 43.855469 164.554688 44.199219 L 164.550781 44.203125 C 164.550781 44.277344 164.542969 44.453125 164.53125 44.703125 C 164.515625 45.070313 164.496094 45.445313 164.472656 45.835938 C 164.449219 46.207031 164.425781 46.589844 164.398438 46.972656 C 164.21875 49.304688 163.847656 52.496094 163.089844 54.113281 C 162.832031 54.644531 162.53125 55.003906 162.179688 55.121094 C 162.160156 55.128906 162.136719 55.132813 162.117188 55.136719 "/>
<path style=" stroke:none;fill-rule:evenodd;fill:rgb(97.264099%,77.734375%,31.37207%);fill-opacity:1;" d="M 159.691406 45.550781 C 159.652344 45.8125 159.523438 46.949219 160.019531 48.09375 C 160.019531 48.09375 155.273438 48.003906 154.058594 46.363281 C 152.871094 44.757813 158.929688 45.207031 159.636719 45.464844 L 159.691406 45.550781 "/>
<path style=" stroke:none;fill-rule:evenodd;fill:rgb(98.4375%,88.671875%,65.039063%);fill-opacity:1;" d="M 132.160156 44.292969 C 132.503906 44.066406 133.734375 43.113281 133.964844 42.898438 C 133.914063 42.898438 134.675781 42.441406 135.855469 41.785156 C 134.777344 42.4375 134.105469 42.960938 132.992188 43.714844 C 132.769531 43.882813 132.503906 44.066406 132.160156 44.292969 Z M 140.777344 39.226563 C 142.703125 38.304688 144.601563 37.511719 145.824219 37.285156 C 145.824219 37.285156 145.820313 37.285156 145.816406 37.289063 C 144.15625 37.804688 142.472656 38.453125 140.777344 39.226563 "/>
<path style=" stroke:none;fill-rule:evenodd;fill:rgb(88.28125%,41.184998%,17.259216%);fill-opacity:1;" d="M 131.074219 121.90625 C 131.074219 121.90625 131.070313 121.90625 131.070313 121.90625 C 131.070313 121.90625 131.070313 121.90625 131.074219 121.90625 Z M 131.074219 121.90625 C 132.324219 121.90625 133.578125 121.863281 134.828125 121.773438 C 133.578125 121.863281 132.324219 121.90625 131.074219 121.90625 Z M 118.496094 120.347656 C 118.476563 120.34375 118.460938 120.339844 118.441406 120.335938 C 116.453125 119.824219 114.359375 119.222656 112.597656 118.558594 C 114.359375 119.222656 116.453125 119.824219 118.441406 120.335938 C 118.460938 120.339844 118.476563 120.34375 118.492188 120.347656 Z M 155.308594 115.402344 C 155.183594 115.328125 155.023438 115.253906 154.859375 115.179688 C 153.710938 114.628906 151.753906 113.871094 150.800781 113.871094 C 150.652344 113.871094 150.53125 113.886719 150.4375 113.929688 C 150.683594 113.011719 151.050781 111.871094 151.660156 110.472656 C 151.253906 111.722656 151.558594 112.636719 152.269531 113.402344 C 152.902344 114.09375 153.820313 114.636719 154.859375 115.179688 C 155.023438 115.253906 155.183594 115.328125 155.308594 115.402344 "/>
<path style=" stroke:none;fill-rule:evenodd;fill:rgb(95.701599%,68.943787%,20.384216%);fill-opacity:1;" d="M 131.074219 121.90625 C 131.074219 121.90625 131.070313 121.90625 131.070313 121.90625 C 126.832031 121.90625 122.601563 121.390625 118.492188 120.347656 C 118.476563 120.34375 118.460938 120.339844 118.441406 120.335938 C 116.453125 119.824219 114.359375 119.222656 112.597656 118.558594 C 110.160156 117.644531 108.363281 116.613281 108.363281 115.550781 C 108.363281 115.503906 108.367188 115.453125 108.375 115.402344 C 110.191406 104.757813 115.449219 96.070313 117.300781 73.636719 C 117.425781 71.953125 125.105469 52.210938 130.507813 45.84375 C 131.097656 45.152344 131.667969 44.628906 132.160156 44.292969 C 132.503906 44.066406 132.769531 43.882813 132.992188 43.714844 C 134.105469 42.960938 134.777344 42.4375 135.855469 41.785156 C 137.160156 41.054688 138.980469 40.085938 140.777344 39.226563 C 142.472656 38.453125 144.15625 37.804688 145.816406 37.289063 C 145.339844 37.660156 144.808594 38.132813 144.4375 38.664063 C 142.632813 38.746094 139.339844 41.234375 140.53125 42.539063 C 142.132813 44.617188 143.023438 48.796875 142.203125 57.179688 C 141.410156 65.324219 144.632813 74.628906 141.042969 82.789063 C 138.722656 88.066406 146.191406 94.664063 152.175781 99.644531 C 151.769531 103.238281 151.609375 106.859375 151.636719 110.472656 L 151.660156 110.472656 C 151.050781 111.871094 150.683594 113.011719 150.4375 113.929688 L 150.355469 113.964844 C 141.839844 113.636719 123.914063 104.597656 119.796875 104.597656 C 119.488281 104.597656 119.257813 104.648438 119.117188 104.757813 C 102.71875 117.007813 128.570313 120.519531 134.828125 121.773438 C 133.578125 121.863281 132.324219 121.90625 131.074219 121.90625 Z M 155.308594 115.402344 C 155.183594 115.328125 155.023438 115.253906 154.859375 115.179688 C 153.820313 114.636719 152.902344 114.097656 152.269531 113.402344 C 151.558594 112.636719 151.253906 111.722656 151.660156 110.472656 L 151.683594 110.472656 C 151.859375 106.964844 152.160156 103.46875 152.59375 99.988281 C 156.0625 102.867188 158.933594 105.160156 158.917969 106.277344 C 158.898438 107.996094 159.933594 112.132813 155.308594 115.402344 Z M 148.425781 52.972656 C 148.425781 52.972656 146.867188 44.65625 143.960938 42.464844 C 143.324219 41.945313 142.453125 40.058594 144.179688 39.101563 C 143.765625 39.953125 143.847656 40.925781 145.175781 41.886719 C 148.53125 44.324219 148.425781 52.972656 148.425781 52.972656 Z M 148.425781 52.972656 C 148.425781 52.972656 149.910156 51.710938 151.804688 50.210938 C 152.996094 49.269531 154.359375 48.234375 155.621094 47.371094 C 156.375 47.644531 157.25 47.816406 158.019531 47.925781 C 154.785156 49.035156 148.425781 52.972656 148.425781 52.972656 "/>
<path style=" stroke:none;fill-rule:evenodd;fill:rgb(95.701599%,68.943787%,20.384216%);fill-opacity:1;" d="M 158.019531 47.925781 C 157.25 47.816406 156.375 47.644531 155.621094 47.371094 C 155.910156 47.171875 156.191406 46.984375 156.464844 46.808594 C 156.929688 46.859375 157.394531 46.9375 157.84375 47.058594 C 158.414063 47.359375 158.917969 47.5625 159.328125 47.636719 C 159.324219 47.636719 159.320313 47.636719 159.316406 47.636719 C 158.996094 47.636719 158.550781 47.742188 158.019531 47.925781 "/>
<path style=" stroke:none;fill-rule:evenodd;fill:rgb(95.701599%,55.271912%,18.041992%);fill-opacity:1;" d="M 159.683594 45.539063 L 159.648438 45.476563 C 159.664063 45.484375 159.671875 45.488281 159.679688 45.496094 L 159.683594 45.539063 "/>
<path style=" stroke:none;fill-rule:evenodd;fill:rgb(94.53125%,60.351563%,9.812927%);fill-opacity:1;" d="M 160.019531 48.09375 C 159.382813 47.585938 158.636719 47.261719 157.84375 47.058594 C 157.550781 46.902344 157.242188 46.722656 156.921875 46.519531 C 157.855469 45.949219 158.660156 45.550781 159.199219 45.453125 C 159.257813 45.453125 159.3125 45.453125 159.359375 45.453125 C 159.5 45.453125 159.597656 45.460938 159.648438 45.476563 L 159.683594 45.539063 L 159.683594 45.554688 C 159.65625 45.757813 159.507813 47.03125 160.019531 48.09375 "/>
<path style=" stroke:none;fill-rule:evenodd;fill:rgb(92.96875%,53.709412%,6.272888%);fill-opacity:1;" d="M 157.84375 47.054688 C 157.394531 46.9375 156.929688 46.859375 156.464844 46.808594 C 156.601563 46.71875 156.738281 46.632813 156.871094 46.550781 C 156.886719 46.539063 156.902344 46.53125 156.921875 46.519531 C 157.242188 46.722656 157.550781 46.902344 157.84375 47.054688 "/>
<path style=" stroke:none;fill-rule:evenodd;fill:rgb(97.264099%,77.734375%,31.37207%);fill-opacity:1;" d="M 159.644531 45.464844 C 159.183594 45.300781 158.140625 45.773438 156.871094 46.550781 C 155.308594 47.519531 153.40625 48.949219 151.804688 50.210938 C 149.910156 51.710938 148.425781 52.972656 148.425781 52.972656 C 148.425781 52.972656 148.53125 44.324219 145.175781 41.886719 C 141.859375 39.492188 146.304688 37.015625 146.875 36.503906 C 147.519531 35.941406 148.027344 35.574219 148.425781 35.367188 L 148.425781 35.359375 C 148.425781 35.359375 150.070313 34.351563 151.15625 34.449219 C 152.234375 34.550781 150.359375 34.628906 149.855469 36.523438 C 150.265625 40.644531 158.355469 44.777344 159.644531 45.464844 "/>
<path style=" stroke:none;fill-rule:evenodd;fill:rgb(95.701599%,68.164063%,19.604492%);fill-opacity:1;" d="M 168.585938 52.589844 C 167.222656 51.714844 165.695313 47.550781 164.691406 47.550781 C 164.613281 47.550781 164.542969 47.574219 164.472656 47.625 C 164.609375 47.109375 165.101563 45.648438 166.355469 45.050781 C 166.804688 44.839844 166.835938 44.765625 166.65625 44.765625 C 166.59375 44.765625 166.507813 44.773438 166.40625 44.789063 C 167.019531 44.332031 167.734375 44.039063 168.492188 44.039063 C 168.964844 44.039063 169.457031 44.152344 169.953125 44.414063 C 169.804688 45.644531 169.152344 49.917969 168.585938 52.589844 Z M 164.433594 47.65625 C 164.433594 47.652344 164.433594 47.648438 164.433594 47.648438 L 164.433594 47.652344 C 164.433594 47.65625 164.433594 47.65625 164.433594 47.65625 "/>
<path style=" stroke:none;fill-rule:evenodd;fill:rgb(94.53125%,60.351563%,9.812927%);fill-opacity:1;" d="M 164.425781 47.808594 L 164.433594 47.652344 C 164.445313 47.644531 164.460938 47.632813 164.472656 47.625 C 164.441406 47.742188 164.425781 47.808594 164.425781 47.808594 Z M 164.433594 47.648438 L 164.542969 45.300781 L 164.644531 45.179688 C 164.945313 45.101563 165.886719 44.863281 166.40625 44.789063 C 165.429688 45.511719 164.703125 46.640625 164.433594 47.648438 "/>
<path style=" stroke:none;fill-rule:evenodd;fill:rgb(92.96875%,52.929688%,6.272888%);fill-opacity:1;" d="M 164.433594 47.652344 L 164.433594 47.648438 C 164.703125 46.640625 165.429688 45.511719 166.40625 44.789063 C 166.507813 44.773438 166.59375 44.765625 166.65625 44.765625 C 166.835938 44.765625 166.804688 44.839844 166.355469 45.050781 C 165.101563 45.648438 164.609375 47.109375 164.472656 47.625 C 164.460938 47.632813 164.445313 47.644531 164.433594 47.652344 "/>
<path style=" stroke:none;fill-rule:evenodd;fill:rgb(97.264099%,77.734375%,31.37207%);fill-opacity:1;" d="M 164.589844 45.203125 C 164.589844 45.203125 165.445313 44.789063 166.550781 48.09375 C 167.65625 51.398438 168.539063 52.144531 168.539063 52.144531 C 168.539063 52.144531 168.761719 46.277344 169.5 45.496094 C 170.234375 44.710938 168.761719 41.871094 168.761719 41.871094 L 164.589844 45.203125 "/>
<path style=" stroke:none;fill-rule:evenodd;fill:rgb(98.826599%,78.125%,66.209412%);fill-opacity:1;" d="M 178.15625 23.101563 C 177.769531 23.949219 177.609375 24.878906 177.675781 25.808594 C 177.894531 28.945313 176.660156 31.996094 174.605469 35.519531 C 169.007813 45.125 168.585938 43.832031 163.625 42.703125 C 160.5625 42.007813 157.773438 40.40625 155.628906 38.117188 C 152.65625 34.945313 150.035156 30.496094 147.839844 24.074219 C 147.015625 21.675781 147.164063 19.019531 148.320313 16.761719 C 154.015625 5.628906 164.722656 10.195313 174.269531 12.308594 C 181.460938 13.898438 179.742188 19.613281 178.15625 23.101563 "/>
<path style=" stroke:none;fill-rule:evenodd;fill:rgb(23.143005%,34.104919%,39.598083%);fill-opacity:1;" d="M 179.226563 20.171875 C 179.226563 20.171875 171.5 16.566406 172.902344 13.414063 C 173.363281 12.386719 171.234375 11.84375 170.105469 11.796875 C 163.425781 11.523438 158.703125 14.527344 157.328125 18.484375 C 157.050781 19.292969 156.910156 20.144531 156.921875 21.015625 C 157.019531 27.425781 152.863281 24.328125 151.84375 26.75 C 151.285156 28.0625 150.359375 28.351563 150.1875 29.890625 C 147.929688 26.457031 146.800781 19.589844 145.875 14.816406 C 145.96875 10.089844 147.9375 6.589844 153.574219 3.898438 C 163 -0.609375 171.078125 3.035156 175.242188 7.277344 L 175.253906 7.296875 C 184.726563 9.566406 186.671875 15.859375 179.226563 20.171875 "/>
<path style=" stroke:none;fill-rule:evenodd;fill:rgb(23.143005%,34.104919%,39.598083%);fill-opacity:1;" d="M 151.84375 26.746094 C 151.285156 28.066406 151.722656 30.957031 151.546875 32.5 C 147.234375 25.941406 141.753906 9.550781 153.574219 3.894531 L 151.84375 26.746094 "/>
<path style=" stroke:none;fill-rule:evenodd;fill:rgb(98.826599%,78.125%,66.209412%);fill-opacity:1;" d="M 154.128906 25.664063 C 152.96875 27.769531 154.675781 30.566406 153.273438 31.097656 C 151.867188 31.628906 149.972656 30.054688 149.042969 27.585938 C 148.109375 25.113281 147.355469 23.113281 149.898438 22.152344 C 153.144531 20.929688 155.402344 23.355469 154.128906 25.664063 "/>
<path style=" stroke:none;fill-rule:evenodd;fill:rgb(97.264099%,77.734375%,31.37207%);fill-opacity:1;" d="M 132.132813 84.984375 L 139.183594 64.945313 C 146.402344 50.210938 141.933594 43.875 141.175781 43.023438 C 140.222656 41.957031 137.554688 41.703125 136.34375 42.003906 C 130.6875 43.40625 123.90625 50.59375 117.09375 69.597656 C 116.988281 69.894531 111.859375 85.753906 111.722656 86.246094 C 111.664063 86.472656 125.386719 83.820313 132.132813 84.984375 "/>
<path style=" stroke:none;fill-rule:evenodd;fill:rgb(95.3125%,65.818787%,16.479492%);fill-opacity:1;" d="M 152.59375 99.988281 C 152.457031 99.875 152.316406 99.757813 152.175781 99.644531 C 152.292969 98.617188 152.429688 97.59375 152.585938 96.570313 C 153.304688 91.988281 154.289063 87.367188 156.316406 83.152344 C 158.589844 79.082031 159.828125 74.558594 160.589844 70 C 161.351563 65.433594 161.855469 60.824219 162.050781 56.1875 L 162.101563 56.1875 C 162.234375 65.445313 160.738281 74.921875 156.558594 83.265625 C 154.730469 87.507813 153.761719 92.078125 153.054688 96.640625 C 152.890625 97.753906 152.734375 98.871094 152.59375 99.988281 "/>
<path style=" stroke:none;fill-rule:evenodd;fill:rgb(93.75%,58.396912%,10.594177%);fill-opacity:1;" d="M 151.683594 110.472656 L 151.636719 110.472656 C 151.609375 106.859375 151.769531 103.238281 152.175781 99.644531 C 152.316406 99.757813 152.457031 99.875 152.59375 99.988281 C 152.160156 103.46875 151.859375 106.964844 151.683594 110.472656 "/>
<path style=" stroke:none;fill-rule:evenodd;fill:rgb(96.875%,75.389099%,28.24707%);fill-opacity:1;" d="M 151.804688 50.210938 C 151.78125 50.121094 151.789063 50.011719 151.804688 49.894531 C 152.121094 46.980469 148.046875 40.699219 149.464844 40.699219 C 149.570313 40.699219 149.699219 40.734375 149.867188 40.800781 C 151.34375 43.707031 155.363281 45.515625 156.871094 46.550781 C 156.738281 46.632813 156.601563 46.71875 156.464844 46.808594 C 156.191406 46.984375 155.910156 47.171875 155.621094 47.371094 C 154.359375 48.234375 152.996094 49.269531 151.804688 50.210938 "/>
<path style=" stroke:none;fill-rule:evenodd;fill:rgb(23.143005%,34.104919%,39.598083%);fill-opacity:1;" d="M 181.1875 110.746094 C 180.714844 110.601563 180.207031 110.613281 179.742188 110.785156 L 150.269531 121.589844 C 150.09375 121.441406 149.769531 121.183594 149.714844 121.273438 C 149.628906 121.414063 149.523438 121.976563 149.546875 122.171875 L 149.546875 122.207031 L 149.554688 122.203125 C 149.566406 122.371094 149.65625 122.53125 149.84375 122.601563 L 179.527344 133.617188 C 179.828125 133.730469 180.160156 133.71875 180.453125 133.59375 L 211.085938 119.960938 L 181.1875 110.746094 "/>
<path style=" stroke:none;fill-rule:evenodd;fill:rgb(66.992188%,89.0625%,93.75%);fill-opacity:1;" d="M 180.578125 132.890625 L 211.726563 119.417969 L 181.3125 110.042969 C 180.839844 109.894531 180.332031 109.910156 179.867188 110.082031 L 149.972656 121.042969 C 149.574219 121.1875 149.574219 121.75 149.96875 121.898438 L 179.65625 132.914063 C 179.953125 133.027344 180.285156 133.015625 180.578125 132.890625 "/>
<path style=" stroke:none;fill-rule:evenodd;fill:rgb(23.143005%,34.104919%,39.598083%);fill-opacity:1;" d="M 224.363281 87.515625 C 223.582031 86.632813 223.363281 86.722656 222.960938 86.851563 L 191.664063 97.210938 C 190.980469 97.4375 190.441406 97.980469 190.222656 98.667969 L 179.460938 132.304688 C 179.296875 132.820313 179.820313 133.289063 180.316406 133.070313 L 211.78125 119.101563 C 212.347656 118.851563 212.785156 118.378906 212.992188 117.796875 L 223.675781 87.878906 C 223.882813 87.832031 224.109375 87.738281 224.363281 87.515625 "/>
<path style=" stroke:none;fill-rule:evenodd;fill:rgb(45.092773%,79.296875%,87.889099%);fill-opacity:1;" d="M 179.5625 132.878906 L 149.96875 121.898438 C 149.769531 121.824219 149.671875 121.648438 149.671875 121.46875 C 149.671875 121.292969 149.773438 121.117188 149.972656 121.042969 L 179.867188 110.082031 C 180.121094 109.988281 180.382813 109.941406 180.644531 109.941406 C 180.871094 109.941406 181.09375 109.976563 181.3125 110.042969 L 186.109375 111.519531 L 184.613281 116.195313 L 162.351563 124.359375 C 161.992188 124.492188 161.992188 125 162.351563 125.136719 L 179.738281 131.433594 L 179.460938 132.304688 C 179.390625 132.519531 179.441406 132.726563 179.5625 132.878906 Z M 174.582031 114.386719 C 174.4375 114.386719 174.300781 114.390625 174.152344 114.390625 L 165.636719 117.511719 C 165.636719 117.632813 165.636719 117.636719 165.636719 117.757813 L 171.414063 119.851563 C 171.511719 119.851563 171.605469 119.851563 171.699219 119.851563 L 180.519531 116.761719 C 180.679688 116.707031 180.679688 116.480469 180.519531 116.425781 L 174.582031 114.386719 "/>
<path style=" stroke:none;fill-rule:evenodd;fill:rgb(15.696716%,30.200195%,37.255859%);fill-opacity:1;" d="M 180.085938 132.992188 C 179.941406 132.992188 179.796875 132.96875 179.65625 132.914063 L 179.5625 132.878906 C 179.441406 132.726563 179.390625 132.519531 179.460938 132.304688 L 179.738281 131.433594 L 180.515625 131.714844 L 180.179688 132.773438 C 180.15625 132.839844 180.148438 132.90625 180.148438 132.96875 C 180.148438 132.976563 180.148438 132.984375 180.148438 132.992188 C 180.128906 132.992188 180.105469 132.992188 180.085938 132.992188 Z M 184.613281 116.195313 L 186.109375 111.519531 L 186.902344 111.765625 L 185.597656 115.835938 L 184.613281 116.195313 "/>
<path style=" stroke:none;fill-rule:evenodd;fill:rgb(30.200195%,70.506287%,82.421875%);fill-opacity:1;" d="M 179.738281 131.433594 L 162.351563 125.136719 C 161.992188 125 161.992188 124.492188 162.351563 124.359375 L 184.613281 116.195313 L 179.738281 131.433594 "/>
<path style=" stroke:none;fill-rule:evenodd;fill:rgb(10.594177%,27.050781%,34.910583%);fill-opacity:1;" d="M 180.515625 131.714844 L 179.738281 131.433594 L 184.613281 116.195313 L 185.597656 115.835938 L 181.125 129.8125 L 180.515625 131.714844 "/>
<path style=" stroke:none;fill-rule:evenodd;fill:rgb(30.200195%,70.506287%,82.421875%);fill-opacity:1;" d="M 171.703125 119.851563 C 171.605469 119.851563 171.511719 119.851563 171.414063 119.851563 L 165.636719 117.757813 C 165.636719 117.636719 165.636719 117.632813 165.636719 117.511719 L 174.152344 114.390625 C 174.300781 114.390625 174.4375 114.386719 174.582031 114.386719 L 180.519531 116.425781 C 180.679688 116.480469 180.679688 116.707031 180.519531 116.761719 L 171.703125 119.851563 "/>
<path style=" stroke:none;fill-rule:evenodd;fill:rgb(66.992188%,89.0625%,93.75%);fill-opacity:1;" d="M 181.035156 133.539063 L 212.5 119.570313 C 213.066406 119.320313 213.503906 118.847656 213.710938 118.265625 L 224.472656 88.128906 C 224.648438 87.636719 224.179688 87.15625 223.679688 87.320313 L 192.382813 97.679688 C 191.699219 97.90625 191.160156 98.449219 190.941406 99.136719 L 180.179688 132.773438 C 180.011719 133.289063 180.535156 133.761719 181.035156 133.539063 "/>
<path style=" stroke:none;fill-rule:evenodd;fill:rgb(78.90625%,94.53125%,96.875%);fill-opacity:1;" d="M 202.070313 113.207031 C 201.90625 113.207031 201.742188 113.203125 201.574219 113.191406 C 199.242188 113.058594 197.402344 112.015625 197.472656 110.863281 C 197.53125 109.820313 199.136719 109.054688 201.171875 109.019531 C 201.429688 108.515625 201.757813 108.003906 202.175781 107.511719 C 203.3125 106.164063 204.691406 105.355469 205.679688 105.355469 C 206.003906 105.355469 206.285156 105.441406 206.503906 105.628906 C 207.382813 106.371094 206.875 108.421875 205.367188 110.207031 L 205.347656 110.226563 C 205.722656 110.566406 205.941406 110.949219 205.917969 111.351563 C 205.855469 112.417969 204.175781 113.207031 202.070313 113.207031 "/>
<path style=" stroke:none;fill-rule:evenodd;fill:rgb(85.15625%,94.921875%,97.264099%);fill-opacity:1;" d="M 205.007813 122.898438 L 212.5 119.570313 C 212.890625 119.398438 213.21875 119.121094 213.449219 118.777344 C 213.21875 119.121094 212.890625 119.398438 212.5 119.570313 L 205.007813 122.898438 "/>
<path style=" stroke:none;fill-rule:evenodd;fill:rgb(78.90625%,54.492188%,35.301208%);fill-opacity:1;" d="M 190.691406 129.253906 L 205.007813 122.898438 Z M 190.691406 129.253906 "/>
<path style=" stroke:none;fill-rule:evenodd;fill:rgb(76.5625%,45.092773%,26.268005%);fill-opacity:1;" d="M 187.785156 130.542969 L 190.691406 129.253906 Z M 187.785156 130.542969 "/>
<path style=" stroke:none;fill-rule:evenodd;fill:rgb(78.90625%,54.492188%,35.301208%);fill-opacity:1;" d="M 180.777344 133.597656 C 180.695313 133.597656 180.617188 133.578125 180.546875 133.550781 C 180.617188 133.578125 180.695313 133.597656 180.777344 133.597656 C 180.859375 133.597656 180.945313 133.578125 181.03125 133.539063 L 187.785156 130.542969 L 181.035156 133.539063 C 180.945313 133.578125 180.859375 133.597656 180.777344 133.597656 "/>
<path style=" stroke:none;fill-rule:evenodd;fill:rgb(13.330078%,28.637695%,36.083984%);fill-opacity:1;" d="M 180.148438 132.992188 C 180.148438 132.984375 180.148438 132.976563 180.148438 132.96875 C 180.148438 132.976563 180.148438 132.984375 180.148438 132.992188 Z M 180.179688 132.773438 L 180.515625 131.714844 L 180.179688 132.773438 "/>
<path style=" stroke:none;fill-rule:evenodd;fill:rgb(9.008789%,25.488281%,33.714294%);fill-opacity:1;" d="M 180.515625 131.714844 L 181.125 129.8125 Z M 180.515625 131.714844 "/>
<path style=" stroke:none;fill-rule:evenodd;fill:rgb(19.604492%,32.151794%,38.426208%);fill-opacity:1;" d="M 223.019531 87.539063 L 223.679688 87.320313 Z M 223.019531 87.539063 "/>
<path style=" stroke:none;fill-rule:evenodd;fill:rgb(57.226563%,84.764099%,91.014099%);fill-opacity:1;" d="M 180.777344 133.597656 C 180.695313 133.597656 180.617188 133.578125 180.546875 133.550781 C 180.324219 133.460938 180.15625 133.246094 180.148438 132.992188 C 180.148438 132.984375 180.148438 132.976563 180.148438 132.96875 C 180.148438 132.90625 180.15625 132.839844 180.179688 132.773438 L 180.515625 131.714844 L 181.125 129.8125 L 197.175781 122.070313 C 204.277344 118.648438 210.09375 113.039063 213.78125 106.070313 C 218.273438 97.578125 223 87.65625 223 87.65625 L 223.019531 87.539063 L 223.679688 87.320313 C 223.746094 87.296875 223.816406 87.289063 223.882813 87.289063 C 224.222656 87.289063 224.507813 87.574219 224.507813 87.914063 C 224.507813 87.984375 224.496094 88.058594 224.472656 88.128906 L 213.710938 118.265625 C 213.644531 118.449219 213.558594 118.617188 213.449219 118.777344 C 213.21875 119.121094 212.890625 119.398438 212.5 119.570313 L 205.007813 122.898438 L 190.691406 129.253906 L 187.785156 130.542969 L 181.035156 133.539063 C 180.945313 133.578125 180.859375 133.597656 180.777344 133.597656 "/>
<path style=" stroke:none;fill-rule:evenodd;fill:rgb(98.826599%,78.125%,66.209412%);fill-opacity:1;" d="M 147.410156 101.652344 C 147.410156 101.652344 156.914063 108.046875 158.5625 108.480469 C 160.214844 108.910156 164.425781 109.148438 165.945313 109.230469 C 167.460938 109.308594 172.050781 114.21875 172.820313 116.648438 C 173.585938 119.082031 173.605469 121.753906 172.863281 122.632813 C 172.121094 123.507813 167.753906 123.101563 164.496094 121.820313 C 161.234375 120.539063 159.929688 116.714844 158.789063 116.242188 C 157.652344 115.769531 141.976563 108.320313 141.976563 108.320313 L 147.410156 101.652344 "/>
<path style=" stroke:none;fill-rule:evenodd;fill:rgb(97.264099%,77.734375%,31.37207%);fill-opacity:1;" d="M 131.984375 86.976563 L 132.472656 84.066406 C 126.4375 87.058594 116.789063 78.523438 111.914063 85.859375 C 111.921875 85.878906 111.476563 87.761719 111.914063 89.652344 C 112.445313 91.9375 113.707031 94.363281 115.4375 96.078125 C 116.664063 97.289063 118.816406 98.34375 119.609375 98.734375 C 126.453125 104.4375 137.882813 109.921875 152.910156 115.226563 C 155.476563 116.292969 159.660156 107.195313 158.917969 106.277344 L 131.984375 86.976563 "/>
<path style=" stroke:none;fill-rule:evenodd;fill:rgb(98.826599%,78.125%,66.209412%);fill-opacity:1;" d="M 165.917969 109.613281 C 166.894531 109.820313 167.953125 109.992188 168.949219 110.105469 C 169.449219 110.15625 169.949219 110.195313 170.402344 110.195313 C 170.816406 110.226563 171.359375 110.070313 171.214844 110.175781 C 171.824219 109.714844 172.695313 109.835938 173.15625 110.449219 C 173.617188 111.0625 173.496094 111.929688 172.882813 112.394531 C 171.808594 113.078125 171.222656 113.003906 170.570313 113.121094 C 169.941406 113.183594 169.359375 113.1875 168.777344 113.183594 C 167.613281 113.164063 166.515625 113.089844 165.355469 112.957031 C 164.425781 112.851563 163.753906 112.007813 163.859375 111.078125 C 163.96875 110.144531 164.808594 109.476563 165.742188 109.582031 L 165.917969 109.613281 "/>
</g>
</svg>
