<?xml version="1.0" encoding="utf-8"?>
<!-- Generator: Adobe Illustrator 22.0.1, SVG Export Plug-In . SVG Version: 6.00 Build 0)  -->
<svg version="1.1" id="Layer_1" xmlns="http://www.w3.org/2000/svg" xmlns:xlink="http://www.w3.org/1999/xlink" x="0px" y="0px"
	 viewBox="0 0 1000 1000" style="enable-background:new 0 0 1000 1000;" xml:space="preserve">
<style type="text/css">
	.st0{fill:#FFFFFF;}
</style>
<title>Artboard 1</title>
<rect y="0" width="1000" height="1000"/>
<path class="st0" d="M301.2,165.4v5.6l25.9,4.8v-10.3l-10.1-1.9c7-3.4,10.1-10.4,10.1-19.3v-39.6c0-12.8-6.3-22.1-20.8-22.1
	s-20.7,9.3-20.7,22.1v39.6C285.5,155.4,290.2,163.5,301.2,165.4 M299.3,102.6c0-4.9,2.2-8.4,7-8.4s7.1,3.5,7.1,8.4v44.6
	c0,4.8-2.2,8.4-7.1,8.4s-7-3.6-7-8.4V102.6z"/>
<path class="st0" d="M356.7,166.4c14,0,19.4-8.2,19.4-20.9V83.7h-12.7v63.2c0,4.8-1.9,8.1-6.8,8.1s-6.8-3.3-6.8-8.1V83.7h-13.8v61.9
	C336.2,158.2,342.2,166.4,356.7,166.4"/>
<path class="st0" d="M396.5,150.5H411l2.5,15h14.1l-15.5-81.8h-15.7L381,165.4h13L396.5,150.5z M403.7,106.7h0.1l5.4,32.8h-11
	L403.7,106.7z"/>
<polygon class="st0" points="464.7,154.2 448.3,154.2 448.3,83.7 434.6,83.7 434.6,165.4 464.7,165.4 "/>
<rect x="471.1" y="83.7" class="st0" width="13.7" height="81.8"/>
<polygon class="st0" points="502.6,165.4 516.5,165.4 516.5,94.9 527.8,94.9 527.8,83.7 491.3,83.7 491.3,94.9 502.6,94.9 "/>
<polygon class="st0" points="547.3,165.4 561.1,165.4 561.1,134.3 576.2,83.7 563.1,83.7 554.8,114.7 554.7,114.7 546.3,83.7 
	532,83.7 547.3,134.3 "/>
<polygon class="st0" points="318.3,274.1 299.3,274.1 299.3,249.3 312.9,249.3 312.9,238.2 299.3,238.2 299.3,214.8 318.3,214.8 
	318.3,203.6 285.5,203.6 285.5,285.3 318.3,285.3 "/>
<path class="st0" d="M367.9,263.4v-37.9c0-12.7-5.2-22-19.9-22h-21.2v81.8H348C362.7,285.3,367.9,275.9,367.9,263.4 M340.5,274
	v-59.2h5.8c5.7,0,7.8,3.4,7.8,8.2v42.8c0,4.9-2.2,8.3-7.8,8.3L340.5,274z"/>
<path class="st0" d="M376.9,203.6v61.9c0,12.7,6,20.9,20.5,20.9c14,0,19.4-8.2,19.4-20.9v-61.9h-12.6v63.2c0,4.8-1.9,8.1-6.8,8.1
	s-6.8-3.2-6.8-8.1v-63.2H376.9z"/>
<path class="st0" d="M425.8,264.2c0,12.7,6,22.1,20.5,22.1s19.4-8.7,19.4-20.4v-14.1h-12.5v15.1c0,4.8-1.7,8-6.6,8s-7-3.5-7-8.5
	v-43.9c0-4.9,2-8.4,7-8.4s6.6,2.9,6.6,8v10.7h12.5v-9.7c0-12-4.2-20.5-19.4-20.5c-14.5,0-20.5,9.3-20.5,22.1V264.2z"/>
<path class="st0" d="M485.4,270.4H500l2.5,15h14.1L501,203.6h-15.7l-15.4,81.8h13L485.4,270.4z M492.6,226.6h0.1l5.4,32.8h-11
	L492.6,226.6z"/>
<polygon class="st0" points="514.9,214.8 526.2,214.8 526.2,285.3 540.1,285.3 540.1,214.8 551.4,214.8 551.4,203.6 514.9,203.6 "/>
<rect x="559" y="203.6" class="st0" width="13.8" height="81.8"/>
<path class="st0" d="M602.7,286.3c14.6,0,20.8-9.4,20.8-22.1v-39.6c0-12.8-6.3-22.1-20.8-22.1s-20.7,9.3-20.7,22.1v39.6
	C581.9,276.9,588.2,286.3,602.7,286.3 M595.7,222.5c0-4.9,2.2-8.4,7-8.4s7.1,3.5,7.1,8.4v43.9c0,5-2.2,8.5-7.1,8.5s-7-3.5-7-8.5
	V222.5z"/>
<polygon class="st0" points="644.1,233.9 660.3,285.3 672.3,285.3 672.3,203.6 660.9,203.6 660.9,250.5 646,203.6 632.6,203.6 
	632.6,285.3 644.1,285.3 "/>
<path class="st0" d="M156.6,285.4h32.1v-32.7h13.7v-26.5h-13.7V83.8h-33.3L96.9,231.9v20.8h59.8V285.4z M126.6,226.3l30.3-83h0.3v83
	H126.6z"/>
<g>
	<polygon class="st0" points="438.3,536.2 259,432.6 259,767.6 438.3,821.7 	"/>
	<polygon class="st0" points="458,536.9 458,821.9 638.5,767.6 638.5,432.6 	"/>
	<path class="st0" d="M779.3,424.1c0.3-11.7-9-21.4-20.8-21.7c-11.7-0.3-21.4,9-21.7,20.8c0,0.3,0,0.6,0,0.9V447h42.4V424.1z"/>
	<polygon class="st0" points="742.2,761.7 736.9,761.7 758.1,835.8 779.3,761.7 774,761.7 779.3,761.7 779.3,463.6 774,463.6 
		768.8,463.6 763.2,463.6 752.6,463.6 747.4,463.6 742.2,463.6 736.9,463.6 736.9,761.7 	"/>
	<polygon class="st0" points="677.1,447 657.8,431.8 657.8,776.7 458.6,841.1 449.3,841.1 447.5,841.1 438.3,841.1 239.9,785.7 
		239.9,431.8 220.7,447 220.7,799.2 437.4,859.2 447.5,859.2 449.3,859.2 459.5,859.2 659.4,795.7 677.1,790.5 	"/>
</g>
</svg>
